<?xml version="1.0" encoding="UTF-8" standalone="no"?>
<svg width="164px" height="25px" viewBox="0 0 164 25" version="1.1" xmlns="http://www.w3.org/2000/svg" xmlns:xlink="http://www.w3.org/1999/xlink">
    <!-- Generator: Sketch 42 (36781) - http://www.bohemiancoding.com/sketch -->
    <title>Group 3</title>
    <desc>Created with Sketch.</desc>
    <defs></defs>
    <g id="Page-1" stroke="none" stroke-width="1" fill="none" fill-rule="evenodd">
        <g id="Group-3" transform="translate(0.000000, -1.000000)">
            <g id="logo-parcs-canada-1" transform="translate(0.000000, 2.000000)" fill-rule="nonzero" fill="#EC1C24">
                <g id="Group">
                    <g id="Shape">
                        <polygon points="10.8081081 21.7684211 10.8081081 0.578947368 0.232432432 0.578947368 0.232432432 21.7684211"></polygon>
                        <polygon points="42.3027027 21.7684211 42.3027027 0.578947368 31.6108108 0.578947368 31.6108108 21.7684211"></polygon>
                        <path d="M21.7324324,20.0315789 C21.7324324,20.0315789 21.6162162,16.4421053 21.6162162,16.2105263 C21.6162162,15.8631579 21.9648649,15.6315789 22.3135135,15.7473684 L25.9162162,16.4421053 L25.4513514,15.2842105 C25.3351351,14.9368421 25.3351351,14.5894737 25.5675676,14.3578947 L29.5189189,11.3473684 L28.7054054,11 C28.472973,10.8842105 28.472973,10.8842105 28.5891892,10.5368421 L29.4027027,7.98947368 L27.427027,8.45263158 C27.0783784,8.56842105 26.9621622,8.45263158 26.8459459,8.22105263 L26.2648649,6.94736842 L24.2891892,9.14736842 C24.0567568,9.37894737 23.5918919,9.26315789 23.7081081,8.8 L24.6378378,4.4 L23.2432432,5.21052632 C23.0108108,5.32631579 22.7783784,5.32631579 22.6621622,5.09473684 L21.2675676,2.2 L19.7567568,5.09473684 C19.6405405,5.32631579 19.4081081,5.32631579 19.1756757,5.21052632 L17.7810811,4.4 L18.7108108,8.8 C18.827027,9.26315789 18.3621622,9.37894737 18.1297297,9.14736842 L16.1540541,6.94736842 L15.6891892,8.22105263 C15.572973,8.45263158 15.4567568,8.56842105 15.1081081,8.45263158 L13.1324324,7.98947368 L13.9459459,10.5368421 C14.0621622,10.7684211 14.0621622,10.8842105 13.8297297,11 L13.0162162,11.3473684 L16.9675676,14.3578947 C17.2,14.5894737 17.2,14.9368421 17.0837838,15.2842105 L16.6189189,16.4421053 L20.2216216,15.7473684 C20.5702703,15.6315789 20.9189189,15.8631579 20.9189189,16.2105263 C20.9189189,16.3263158 20.8027027,20.0315789 20.8027027,20.0315789 L21.7324324,20.0315789 L21.7324324,20.0315789 Z"></path>
                    </g>
                </g>
            </g>
            <g id="Group-2" transform="translate(54.000000, 0.000000)" font-size="11" font-family="Helvetica" fill="#000000" font-weight="normal">
                <text id="Canadian-Heritage">
                    <tspan x="0" y="10">Canadian</tspan>
                    <tspan x="0" y="23">Heritage</tspan>
                </text>
                <text id="Patrimoine-canadien">
                    <tspan x="58" y="10">Patrimoine</tspan>
                    <tspan x="58" y="23">canadien</tspan>
                </text>
            </g>
        </g>
    </g>
</svg>