<?xml version="1.0" encoding="utf-8"?>
<!-- Generator: Adobe Illustrator 18.0.0, SVG Export Plug-In . SVG Version: 6.00 Build 0)  -->
<!DOCTYPE svg PUBLIC "-//W3C//DTD SVG 1.1//EN" "http://www.w3.org/Graphics/SVG/1.1/DTD/svg11.dtd">
<svg version="1.1" xmlns="http://www.w3.org/2000/svg" xmlns:xlink="http://www.w3.org/1999/xlink" x="0px" y="0px"
	 viewBox="0 0 500 700" enable-background="new 0 0 500 700" xml:space="preserve">
<g id="Gravure">
	<g>
		<path d="M172.8,375.4c0,0,1.2,0.2,1.9-0.8c3.2-4.9,1.2-8.9,0.7-16.6c-0.2-7.8-2.4-16.1-7-20.4C173.4,348.4,175,364.8,172.8,375.4"
			/>
		<path d="M167.9,376.5c0,0,1.1,0.5,1.7-0.4c5.1-7.9,0.6-23.5-1-29.5c-1.7-6.1-4.6-9.3-5.8-10.4C169.3,351,170,365.4,167.9,376.5"/>
		<path d="M160.8,373.4c1.5-4.3,1.5-8.8,0.8-14.4c-1.3-9.9-4-17.7-7.4-17.4c-2.2,0.2-3.1,4.1-2.8,6.5c0,0,1.7-6.2,4.1-3.2
			c0.2,0.2,0.4,0.5,0.6,0.9c-0.2-0.1-0.5-0.1-0.8-0.1c-2.6,0.4-3.8,5.2-2.8,12.9c0.5,4.3,1.4,6.4,3.8,11c0.6,1.1,2.5,2.3,3.2,0.3
			c-1.3,0.3-1.8-0.8-2.2-1.4c-1.4-2.3-2-5.6-2.4-8.7c-0.6-4.6-0.6-8.5,0.2-10.4c0.7-1.5,1.7-1.3,2.5-0.7c0.1,0.3,0.2,0.6,0.3,0.9
			c-1.6,0.4-1.8,3.4-1.8,7.1c0,3,1.5,8.6,3.2,10.6c0.4,0.5,0.8,0.8,1.1,0.8c-0.1,1.7-0.4,3.3-0.7,4.5c-0.3,0.9-1.1,1.7-2.8,1.1
			C158.2,376.1,160.2,374.9,160.8,373.4 M158.4,356.3c0.1-1.1,0.3-2.4,0.4-3c0.5,1.8,0.9,3.7,1.1,5.6c0.3,2.2,0.4,5.1,0.3,7.8
			C159.3,365.2,158.2,361.1,158.4,356.3"/>
		<path d="M194.5,197.5c-10.6-8.7-18.6-18.5-23.5-20.8c5.7,6.8,16.6,17.7,24.1,26C196.4,204.1,196.3,199,194.5,197.5"/>
		<path d="M171.8,203.4c-6.9-7.2-14.1-10.5-17.6-8.1c-2.3,1.6-1.6,5.7,0.1,7.4c0,0-1.2-6.2,2.9-5.9c0.4,0,0.9,0.1,1.4,0.2
			c-0.7,0.2-1.3,0.5-1.8,1.1c-1.8,2.3-0.3,8,5,13.6c3,3.1,5.3,5,9,6.4c2.5,0.9,5.2,0.2,4.6-2.4c-1,1.8-3.1,1.4-4.3,0.9
			c-2.7-1.1-5.1-3.4-7.3-5.7c-3.2-3.3-4.6-6.6-4.9-8.8c-0.4-2.8,1.5-3.8,2.6-4.1c0.6,0.3,1.2,0.5,1.8,0.9c-0.8,0-1.5,0.2-2,0.8
			c-1.4,1.6,0,6.4,3.9,10.4c2.2,2.3,4.7,4.1,7.8,4.6c1.8,0.3,2.7-0.7,2.3-2.5c-0.4,1.4-2,0.8-2.9,0.4c-1.9-0.8-4.3-2.4-5.7-4.2
			c-2-2.6-2.7-4.5-2.9-6.1c-0.2-1.5,0.8-2,1.6-2.2c0.3,0.2,0.5,0.4,0.8,0.5c0,0-0.1,0-0.1,0.1c-1.2,1.1-0.4,4.5,1.9,6.9
			c1.3,1.4,3.1,2.5,5.5,3.2c0.7,0.2,1.3,0.1,1.7-0.3c1.5,2.4,2.7,4.9,2.8,6.6c0.1,1.2-0.5,2.5-2.5,3c2.9,0.8,4.4-1.5,4.2-3.8
			C179,211.3,175.7,207.4,171.8,203.4 M169.6,206.1c-1.1-1.4-1.4-2.3-1.5-3c0-0.4,0-0.7,0-0.9c0.7,0.6,1.4,1.2,2,1.9
			c1.1,1.1,2.7,3.2,4.2,5.4C173.1,209.1,171.1,208,169.6,206.1"/>
		<path d="M240.9,165.5l20.4,51.8l-0.9,2.1c-5.9-13.3-14.8-36.2-18.6-42.1c-0.5,4.4,13.8,33.5,17,46l-1.1,2.6c0,0-17-44.7-22.1-52
			c-0.3,0.5,3,9.7,4.7,13.7c6.9,16.4,16.9,40.9,17.1,41.9c1.4-0.5,6.7-12.3,6.7-12.3c-0.6-1-22.7-55.1-22.9-56.3
			c-0.2-1.2-6.2,10.6-6.8,11.5C237.5,172.8,240.9,165.5,240.9,165.5"/>
		<path d="M465.2,254.1c-1-8.7-4.2-16.4-9.9-15.3c-1.2,0.2-2.7,1.6-3.8,3.3c-3.5,0.2-17.6,0.8-19.2,0.8c-1.5,0-12.4,1-17.1,1.4
			c-1.3-1.9-2.7-2.6-5.2-2.2c-1.4,0.2-2,1-3.1,2.8c-11.7,1.4-27.4,1.9-39.1,2.9c-14.3,1.1-18.9,1.9-29.9,2.3
			c-1.6-2.2-3.7-3.5-6.6-3.2c-7.4,0.7-13.2,0.7-13.2,0.7c-2.1,0.1-3.4,2.1-4.2,4.4c-8.4,1-16.5,1.7-24.8,2.2
			c-3.4-7.5-6.6-14.7-9.2-21.5c7.2-7.2,12.6-19.3,12.4-29.1c-0.2-9.9-3.1-20-9.1-26c-7-7-12.7-13-25.3-15c-1.9-4.5-3.3-8-4-9.9
			c-4.3-0.2-12.9-0.1-12.9-0.1s-4.9,8.1-5.6,10.4c-0.2,0.5-0.6,1.4-1.1,2.4c-7.7,3.4-14.3,8.4-18.6,15.6c-3.8,6.3-5.5,14.3-5.6,22.2
			c0,5,0.7,9.5,2,13.4c-0.7,0.2-1.8,0.4-2.8,0.4c3.3-5.5-5.7-11.9-9.8-7.3c-0.5,0.5-1.1,1.2-1.8,2l-3-2.6c3.5-3.9,6.3-7.3,7.5-9.3
			c-6.8-8.3-24.1-22.6-29.9-28.9c-6.6,5.2-14.6,13.1-16.4,15c-1.8,1.8-8.8,11.8-11,15c3.7,3.8,21.2,23,29.6,30.1
			c0.7-0.8,1.5-1.7,2.4-2.7l2.4,2.4c-1.7,1.7-2.8,2.9-3.2,3.3c-4.2,4.8,5,14,9.8,10.7c3.8,3.3,7.2,9.9,5.7,15.2
			c-0.2,0.2-0.4,0.5-0.6,0.7c-3.6,3.7-7.2,5.6-14.6,4.6c-0.9-1.5-1.7-2.9-2.4-4.2c-1.6-0.1-7.3-0.5-8.5-0.5c-0.8,1.6-2.1,4-2.7,5.2
			c-11.1,2.3-18.4,11.8-18.8,23.9c-0.5-0.5-1.1-0.9-1.7-1.3c-2.1-1.3-7.3,1.3-7.9,2.7c-2.8,6.8,5.2,23.4,10.3,19.2
			c3.1-2.6-0.7-15.1-6.7-18.1c3.2,4.7,5.8,10.4,5.7,13.9c-0.1,1.8-1.3,2.2-2.9,0.7c-3.4-3.1-5.2-10.9-4.5-14.3
			c0.4-1.8,3-2.8,4.4-1.9c2,1.2,4.2,4.2,5.7,7.4c1.3,2.9,2.5,6.8,2.4,9.8c-0.2,3.4-4.6,4-4.6,4c1.4,1.9,5.8,1.1,7.1-1.8
			c0.2,0.2,0.4,0.5,0.5,0.7c0.6,0.7,1.2,0.8-0.6,2.4c-1.2,1,0.5,2.3,1.6,4.6c-2.1,0.2-3.8,0.4-4.5,0.6c-4.9,1-3.4,12.7,1,13.4
			l0.8,4.1c-0.4,0.6-0.8,1.4-1.1,2.5c-3.8,13.4,0.1,35.9,8,42.6c0.6,0.5,1.3,0.8,2,1c-6.4,13.5-12.1,34.3-17.3,44.7
			c-3.5-2.3-6.9-4.7-10.3-7.3c0,0-1.8-1.5-2.7-2.2c-3.3,3.6-11.4,25.1-12.8,28.1c-0.4,0.9,0,1.4,0.7,1.9c12.4,9.6,26.9,18.7,43,24.2
			c9,3.1,19.7,6.6,30,9.5c17.5,4.9,39.7,6.8,61.2,6.8c5.5,0,11.1-0.4,16.7-0.6c-0.1,0.1-0.1,0.1-0.2,0.2c-4.8,7.3,1.8,26.3,7.1,23.3
			c3.8-2.1,2.5-17.3-3.3-21.3c3.1,5.5,4,13.5,3.2,17.3c-0.4,1.9-1.8,2.1-3.3,0.1c-1.6-2.1-2.5-5.8-2.8-9.3l0,0
			c-0.4-4.3,1.7-5,4.6,9.3c1.2-6.4-2.1-16.2-4.5-15.3c0.1-0.9,0.3-1.6,0.6-2.2c0.8-1.8,3.8-2.4,5.2-1.2c1.9,1.7,3.7,5.4,4.6,9.2
			c0.8,3.4,1.4,7.8,0.6,11.1c-0.9,3.7-5.8,3.4-5.8,3.4c1.2,2.6,7.1,2.1,8.6-1.7c0.6-1.6,0.8-4.1,0.6-6.9c9.6-2.6,21-5.9,33.2-9.4
			c0.8,0.8,1.8,1.5,2.7,1.9c-0.2,0.7-0.1,1.7,0,2.3c-2.8,1.4-3.5,2.9-3.3,4.2c0.2,2.1,2.9,2.7,7.2,2.2c-1.4-1.4-4.5-0.8-4.7-2.6
			c-0.2-1.8,5.1-3.9,10.1-4.9c5.3-1.1,13-1.2,13.5,0.3c1.1,3.2-12.5,5-14.2,5c-2,0-3.3-2.2,11.2-3.8c-7.3-1.4-17.1,1.7-16.3,4.2
			c0.5,1.8,4.6,2.2,10.8,1.1c9.8-1.7,13.2-4.7,12.4-7.2c-0.4-1.5-2.2-2.2-4.7-2.5c-0.1-0.9-0.7-2.3-0.8-2.5c0.8-1.2,2.1-3,2-4.9
			c4.3-1.1,8.6-2.2,12.9-3.2c0.8,0.1,1.6,0.2,2.2,0.3c4.1,0.3,8.3-1.1,11.5-3.9c3.9-1.1,7-1.9,9.1-2.6c0.7,0.9,2.2,2.3,4.3,2.1
			c2.7-0.2,5-2.6,3.3-9.4c-1.2-4.9-4.6-6.6-6.9-5.9c-1.4,0.5-2.5,1.8-2.8,3.2c-0.4,0.1-0.8,0.2-1.3,0.3c0.1-1.7-0.1-3.3-0.5-4.9
			c11.6-5,24.7-11.5,35.3-17.7c-0.5-5.4-12-24.1-15.8-26.9c-6.4,3.3-13.5,7.2-21.3,11c-11.8-30.5-38-78.2-56.8-121.1
			c0.5-0.1,1.5-0.7,1.8-0.9c-1-4.7-1.7-18.4,8.8-23.5c2.7-0.2,6-0.5,8.5-0.8c2-0.3,3.7-1.7,5-3.7c4.6-0.6,16.7-2,30.7-2.9
			c14.5-0.9,27.7-2,38.7-3.3c1.1,1.1,2.3,1.4,3.7,1.5c1.6,0.1,3.3-0.6,4.6-2.3c4.1-0.3,16.3-1.4,17.8-1.7c1.4-0.3,13.9-0.8,19-1.4
			c0,0,0,0,0.1,0c1.1,1.3,2.3,2,3.7,2.1C463,271.7,466.5,266.1,465.2,254.1 M411.9,266.2c-17.9,2.5-31.1,1.1-42.7,3
			c-15,2.5-15.2,0.9-27.3,2.3c0.1-0.3,0.1-0.7,0.1-1c4.7-0.6,16.9-2,30.8-2.9c14-0.9,27.4-1.3,39.5-3.2
			C412.2,265,412,265.6,411.9,266.2 M318.8,324.3c-3.2,1.5-5.8,2.5-8.6,3.5c0,0,0,0,0,0c-2.3,0.7-3.8,0.5-7.9,1.8l-0.3-0.6
			c5-1.6,6-2.9,7.5-3.6c0,0,0,0,0,0c3.7-1.5,6.2-2.7,8-3.6C318,322.7,318.4,323.5,318.8,324.3 M320.9,328.7
			c-3.4,1.4-6.4,2.6-9.5,3.8c0,0,0,0,0,0c-2.1,0.7-3.6,0.5-7.1,1.5l-0.3-0.6c4.3-1.5,5.3-2.8,6.7-3.4c0,0,0,0,0,0
			c4.1-1.4,7.1-2.5,9-3.6C320.1,327.1,320.5,327.9,320.9,328.7 M326.7,340.9c-3.9,1.9-7.8,3.7-11.8,5.3c-2.3,0.7-3.8,0.5-8.1,2
			c0-0.2-0.1-0.3-0.1-0.5c4.9-1.7,6.1-3.1,7.7-3.8c0,0,0,0,0,0c5.4-2.3,9.2-4.4,11.2-5.6C325.9,339.2,326.3,340.1,326.7,340.9
			 M332.6,353.2c-4.8,2.7-8.7,4.6-14,6.5c-0.1,0-0.1,0-0.2,0c-2.3,0.7-3.7,0.7-7.7,2l-0.1-0.3c0,0,0-0.1-0.1-0.3
			c4.4-1.6,5.8-3,7.2-3.7c4.9-2,9.4-3.3,14-5.9C332,352.1,332.3,352.7,332.6,353.2 M349.5,437.9c-1.1-3.9-5.8-5.8-13.2-5.8
			c-0.8,0-1.7,0-2.6,0c-4.2-3.1-5.7-7.6-5.7-7.6l-2.5-0.1l-13.8-57.8l3.8-1.7c9.7,20,26.5,57.2,34.8,72.8
			C350.1,437.7,349.8,437.8,349.5,437.9 M350.3,478.7c-5.8-4.1-7.4-12.5-3.1-18.6c3-4.3,9.2-6.6,15.8-4.9c-4-2.6-8.3-1.7-10.7-1.1
			c-2.5,0.7-5.2,2.5-6.8,4.7c-3,4.2-3.8,9.6-2.5,14.2c-4-4.6-3.5-11.3-0.4-16.5c3.5-5.9,12.5-8.2,18.7-4.3c4,2.6,5,3.5,6.5,5.2
			c4.1,4.7,5.1,11.5,0.8,17.6C364.3,481.2,356.2,482.8,350.3,478.7 M280.7,493.9c6.7-1.7,38.1-10.2,63.4-16.4
			c0.9,0.7,1.7,1.4,2.5,1.9c-12.1,3-19.8,5.3-31,8.2c-13.4,3.5-16.6,3.8-33.9,8.9C281.3,495.6,281,494.7,280.7,493.9 M121.5,439.2
			c11.7,8.9,23.2,15.1,38.4,21.6c8.5,3.6,21.8,7.8,31.9,10.6c17.5,4.9,38.4,7,58.6,7c5.5,0,11.1-0.2,16.7-0.4
			c1.4-0.1,6.8-0.4,8.1-0.5c3.7-0.3,6.4-0.5,9.6-1c0.1,0.5,0.2,1.1,0.3,1.6c-62.5,7.5-122.8-4.7-163.7-36.5l-0.8-0.5
			C121,440.6,121.3,439.9,121.5,439.2 M125.6,429c0.4,0.3,0.8,0.6,1.3,1l-1.8,4.1c-0.4-0.3-0.8-0.6-1.1-0.9l0,0
			C124.5,431.8,125,430.4,125.6,429 M151.7,440c5.9,2.6,13.6,6.1,21.1,8.9l-0.9,3.1c-3.7-1.4-7.3-2.9-10.8-4.4l0.7-1.8l-1.5-0.7
			l-0.7,1.9c-3.5-1.6-7-3.3-10.4-5.1l1-2.4C150.7,439.5,151.2,439.8,151.7,440 M283.6,471.1c-0.4,0-0.8,0.1-1.2,0.1l-1.3-5.3
			c0.4-0.1,0.8-0.1,1.2-0.2C282.7,467.5,283.2,469.3,283.6,471.1 M279.5,466.2l1.2,5.2c-0.5,0.1-1,0.1-1.6,0.2l-1.1-5.2
			C278.6,466.3,279.1,466.2,279.5,466.2 M277.3,471.7c-0.6,0-1.1,0.1-1.7,0.1l-0.9-5.2c0.6,0,1.1-0.1,1.6-0.1L277.3,471.7z
			 M273.1,466.7l0.8,5.3c-0.5,0-1.1,0.1-1.6,0.1l-0.9-5.3C272,466.8,272.6,466.8,273.1,466.7 M269.8,466.9l0.8,5.3
			c-0.5,0-1,0.1-1.5,0.1l-0.9-5.3C268.7,467,269.2,466.9,269.8,466.9 M266.6,467.1l0.8,5.3c-0.6,0-1.2,0-1.8,0.1l-0.8-5.3
			c0.4,0,0.8,0,1.2,0C266.2,467.1,266.4,467.1,266.6,467.1 M263.9,472.6c-0.6,0-1.2,0.1-1.8,0.1l-0.7-5.4c0.6,0,1.2,0,1.8-0.1
			L263.9,472.6z M259.9,467.3l0.6,5.4c-0.5,0-1.1,0-1.6,0l-0.7-5.4C258.7,467.3,259.3,467.3,259.9,467.3 M256.6,467.3l0.6,5.4
			c-0.5,0-1,0-1.5,0l-0.7-5.4C255.5,467.4,256,467.4,256.6,467.3 M253.3,467.4l0.6,5.4c-0.6,0-1.3,0-1.9,0l-0.5-5.4
			C252.1,467.4,252.7,467.4,253.3,467.4 M250.2,472.8c-0.6,0-1.2,0-1.8,0l-0.2-5.4c0.6,0,1.1,0,1.7,0L250.2,472.8z M246.5,467.3
			l0.1,5.4c-0.5,0-1,0-1.6,0l-0.2-5.4C245.4,467.3,246,467.3,246.5,467.3 M243.3,467.3l0.1,5.4c-0.5,0-1,0-1.5-0.1l-0.2-5.3
			C242.2,467.2,242.8,467.2,243.3,467.3 M240.1,467.1l0.1,5.3c-0.6,0-1.3-0.1-1.9-0.1l-0.1-5.3C238.8,467.1,239.5,467.1,240.1,467.1
			 M236.6,472.3c-0.6,0-1.2-0.1-1.8-0.1l-0.1-5.3c0.6,0,1.3,0.1,1.9,0.1L236.6,472.3z M233.1,466.8l0,5.3c-0.5,0-1.1-0.1-1.6-0.1
			l-0.1-5.3C231.9,466.7,232.5,466.7,233.1,466.8 M229.8,466.5l0,5.3c-0.5,0-1-0.1-1.5-0.1l-0.1-5.3
			C228.7,466.4,229.2,466.5,229.8,466.5 M226.6,466.2l0,5.2c-0.5-0.1-1.1-0.1-1.6-0.2l0.1-5.2C225.6,466.1,226.1,466.2,226.6,466.2
			 M223,471.1c-0.6-0.1-1.1-0.1-1.7-0.2l0.3-5.2c0.5,0.1,1,0.1,1.5,0.2L223,471.1z M219.7,470.7c-0.5-0.1-1.1-0.1-1.6-0.2l0.3-5.2
			c0.6,0.1,1.1,0.1,1.7,0.2L219.7,470.7z M216.4,470.3c-0.5-0.1-1-0.2-1.5-0.2l0.3-5.2c0.5,0.1,1.1,0.2,1.6,0.2L216.4,470.3z
			 M213.2,469.8c-0.6-0.1-1.2-0.2-1.8-0.3l0.5-5.1c0.5,0.1,1.1,0.2,1.6,0.3L213.2,469.8z M209.8,469.2c-0.6-0.1-1.2-0.2-1.7-0.3
			l0.5-5.1c0.6,0.1,1.2,0.2,1.7,0.3L209.8,469.2z M206.4,468.6c-0.5-0.1-1-0.2-1.6-0.3l0.5-5.2c0.6,0.1,1.1,0.2,1.7,0.3L206.4,468.6
			z M203.2,468c-0.5-0.1-1-0.2-1.5-0.3l0.5-5.2c0.5,0.1,1.1,0.2,1.6,0.3L203.2,468z M200,467.4c-0.6-0.1-1.3-0.3-1.9-0.4l0.7-5.2
			c0.6,0.1,1.1,0.3,1.7,0.4L200,467.4z M196.3,466.6c-0.6-0.1-1.2-0.3-1.8-0.4l1-5.2c0.6,0.2,1.1,0.3,1.7,0.4L196.3,466.6z
			 M192.8,465.7c-0.5-0.1-1.1-0.3-1.6-0.4l1-5.3c0.3,0.1,0.5,0.2,0.8,0.2c0.3,0.1,0.6,0.2,0.9,0.2L192.8,465.7z M189.6,464.9
			c-0.5-0.1-1-0.3-1.5-0.4l1-5.4c0.5,0.2,1.1,0.3,1.6,0.5L189.6,464.9z M186.4,464.1c-0.6-0.2-1.1-0.3-1.7-0.5l1.2-5.5
			c0.6,0.2,1.1,0.3,1.7,0.5L186.4,464.1z M183.1,463.1c-0.6-0.2-1.2-0.4-1.8-0.5l1.2-5.5c0.6,0.2,1.2,0.4,1.9,0.6L183.1,463.1z
			 M179.6,462c-0.5-0.2-1-0.3-1.5-0.5l1.2-5.5c0.5,0.2,1.1,0.4,1.6,0.5L179.6,462z M176.5,461c-0.5-0.2-1-0.3-1.5-0.5l1.2-5.5
			c0.5,0.2,1,0.3,1.6,0.5L176.5,461z M173.4,459.9c-0.6-0.2-1.1-0.4-1.7-0.6l1.5-5.4c0.5,0.2,1,0.3,1.5,0.5L173.4,459.9z
			 M169.9,458.7c-0.6-0.2-1.2-0.4-1.8-0.7l1.7-5.3c0.5,0.2,1.1,0.4,1.6,0.6L169.9,458.7z M152.8,445.5l-1.9,4.9
			c-0.5-0.2-0.9-0.5-1.4-0.7l1.7-5C151.8,445,152.3,445.2,152.8,445.5 M154.3,446.2c0.5,0.2,1,0.5,1.5,0.7l-1.9,5
			c-0.5-0.2-1-0.5-1.4-0.7L154.3,446.2z M157.3,447.6c0.6,0.3,1.1,0.5,1.7,0.8l-1.8,5.1c-0.6-0.3-1.1-0.5-1.7-0.8L157.3,447.6z
			 M160.6,449c0.5,0.2,1,0.5,1.6,0.7c0.1,0,0.1,0,0.2,0.1l-1.8,5.1c-0.6-0.3-1.2-0.5-1.8-0.8L160.6,449z M163.8,450.4
			c0.5,0.2,1,0.4,1.5,0.6l-1.8,5.1c-0.5-0.2-1-0.4-1.4-0.6L163.8,450.4z M166.8,451.6c0.5,0.2,1,0.4,1.6,0.6l-1.8,5.2
			c-0.5-0.2-1-0.4-1.4-0.6L166.8,451.6z M149.9,444l-1.8,4.9c-0.5-0.3-1-0.5-1.5-0.8l1.9-4.8C149,443.6,149.4,443.8,149.9,444
			 M144.9,447.2c-0.5-0.3-1-0.6-1.5-0.8l2-4.7c0.5,0.3,0.9,0.5,1.4,0.8L144.9,447.2z M141.9,445.5c-0.5-0.3-0.9-0.5-1.4-0.8l1.9-4.6
			c0.5,0.3,1,0.6,1.5,0.8L141.9,445.5z M139.1,443.8c-0.4-0.3-0.9-0.6-1.3-0.8l1.9-4.5c0.5,0.3,1,0.6,1.4,0.8L139.1,443.8z
			 M136.3,442.1c-0.5-0.3-1-0.6-1.4-0.9l1.7-4.5c0.5,0.3,1.1,0.7,1.7,1L136.3,442.1z M133.4,440.1c-0.5-0.3-1-0.7-1.5-1l1.8-4.3
			c0.5,0.3,0.9,0.6,1.4,0.9L133.4,440.1z M130.5,438.1c-0.4-0.3-0.9-0.6-1.3-1l1.8-4.3c0.5,0.3,0.9,0.7,1.4,1L130.5,438.1z
			 M127.7,436.1c-0.4-0.3-0.8-0.6-1.3-1l1.8-4.2c0.5,0.3,0.9,0.7,1.4,1L127.7,436.1z M123.1,435.1c11.6,9.1,25.4,17.7,40.4,23
			c8.5,3,18.6,6.5,28.5,9.4c16.5,4.9,37.7,6.9,58.1,7.1c5.4,0.1,10.9-0.2,16.4-0.4c1.3,0,6.6-0.3,7.9-0.4c3.7-0.3,6.3-0.4,9.6-0.9
			c0.1,0.6,0.3,1.2,0.4,1.8c-61.8,7.5-121.6-6.2-162.2-37.5C122.6,436.5,122.9,435.8,123.1,435.1 M282.3,454.1
			c12.2-4.8,12.1-19.7,12.1-19.7l2.5-1.8l-41-146.6c0.2,0,0.5,0,0.7-0.1c2,3.3,3.6,7.7,4.2,9.1c2,6,12.8,41.5,14.3,48.1
			c4.7,20.2,11.3,37.7,23.6,85.4c2.5,9.5,4.9,15.4,7.3,23.8c-0.8,0.1-1.5,0.2-2.3,0.3c-0.7-3.5-3.8-11.2-6.2-19l-1.6,1.5
			c1.8,6,4.1,12.5,5.4,17.7c-0.7,0.1-1.5,0.2-2.2,0.2c-1.2-3.5-2.6-7.9-4.4-14.7c0,0-1.1,3.4-0.3,6.4c0.8,3,1.8,6.3,2.5,9.9
			c0,0,0,0.1,0.1,0.1c1.2,5,5.5,22.8,7,30.7c-0.9,0.2-1.8,0.5-2.6,0.7c0.1-0.3,0.1-0.7,0-1.3c-1.1-7.4-4.9-25.2-8.8-38.3
			c0,0-1.2,0-1.2,3c0,1.3,2.1,8.7,3.9,15.4c1.8,6.6,3.3,16,4.7,20.3c0.2,0.5,0.4,0.8,0.6,1c-1,0.3-2.1,0.5-3.1,0.8
			c0-0.1,0-0.2,0-0.3c-0.5-5.9-4.4-21.7-8.4-36.4c0,0-2.3,1.3-1.2,4.1c1.9,5.3,6,25.5,8.1,32.4c0.1,0.2,0.1,0.3,0.2,0.5
			c-2.4,0.6-4.6,1.2-6.6,1.6C287.4,478.5,283.2,460.6,282.3,454.1 M279.9,452.6c0,0.3,0.1,0.5,0.1,0.7c-6.2,1-11.5,1.3-17.3,1.4
			c1.6-32.1-1.2-35-0.3-79.4c7-0.2,12.7-1.3,15.3-2c5.3,19.4,12,43.6,16.3,58c-1.7,1-2.1,1.6-2.1,1.6S292.5,448.2,279.9,452.6
			 M270.4,359.3c1.1,0.1,2.3,0.1,3.4,0c0.1,0.4,0.2,0.8,0.3,1.1c-1.1,0.3-2.4,0.8-3.6,1.2c-7.5,1-14.6,1.5-21.1,1.5
			c-25.5,0-48.5-5.4-62.4-13.5c-3.3-1.9-6.4-4.4-9-6c-0.2-0.5-0.4-1-0.6-1.4c2,1,4.3,1.7,4.9,2.1c12.3,7,28,12.2,43.7,14.7
			c3,0.5,5.9,1.2,8.9,1.5c4.9,0.5,9.8,0.3,14.5,0.2C256.7,360.4,263.8,360.1,270.4,359.3 M248.4,354c-19.8,0-37.3-3.5-50.2-9.5
			c-10.9-5.1-16.1-6.6-25-13c-1.1-1.3-2.5-3-3.6-4c0.2-0.1,0.4-0.1,0.6-0.2c1.4,0.9,3.2,1.7,4.8,2.4c10.1,6.9,22.9,13,34.6,16.5
			c0.1,0,0.2,0.1,0.3,0.1c0.1,0,0.1,0,0.2,0.1v0c17.9,5.4,48.4,6.5,61.3,3.8c0.1,0.5,0.3,1.1,0.5,1.7c-0.9,0.3-2,0.6-3,1
			C262,353.7,255.2,354,248.4,354 M153.1,333.9c-0.2-0.9-0.4-2.1-0.6-2.9c1.1-0.4,2.2-0.7,3.2-0.9c0.2,0.9,0.4,2.1,0.5,3
			C154.9,333.4,153.8,333.7,153.1,333.9 M155.1,319.7c1.2-0.2,2.6-0.5,4-0.7c2.6,2.5,2.9,5.8,2.3,7.5c-1,0.2-2,0.4-3.1,0.6
			C159.3,324.6,158.3,321.5,155.1,319.7 M167.6,317.7c2.9-0.3,4.8,6.4,1,7.2c-0.3,0.1-0.6,0.1-0.9,0.2c1.4-2.5,0.1-6-3-6.2
			c2.1,2.3,2.1,4.7,1.7,6.5c-0.9,0.2-1.8,0.4-2.7,0.6c0.6-2.5-0.9-6.1-3.3-7.3C162.9,318.3,165.6,317.9,167.6,317.7 M156.8,304.1
			c-0.9-1.5-2.2-3.3-3.2-4.5c0.2-0.1,0.4-0.2,0.6-0.3c1.3,1.4,3.3,2.6,5.1,3.5c1.4,1.1,3,2.3,4.9,3.9c9.5,8,27.7,18.3,39.2,22.7
			c-0.4,0.8-0.7,1.6-1.1,2.4C178.9,321.6,166.4,312.2,156.8,304.1 M161,289.9c0.3-0.1-0.1-1.3,0.8-1.6c0.8-0.3,4.2-1.8,4.8-2
			c2.9-1,4.2,3.7,2.2,4.6c-0.9,0.4-2.2,0.9-3.6,1.6c-0.4,0.2-0.8,0.3-1.1,0.4c0-1.2-0.7-2.8-2.2-2.9c0.3,0.3,1.1,2.2,0.3,2.6
			c-1.1,0.6-4.5,2.1-6.5,2.9c-0.3-0.9-0.8-1.8-1.3-2.6C156.7,291.9,159.4,290.7,161,289.9 M161.3,270.1c1.7,4.7,5.1,9.9,6.6,13.8
			c0.1,0.2,0.2,0.5,0.3,0.7c-0.5-0.2-1-0.1-1.6,0.1c-0.3,0.1-0.6,0.3-0.9,0.4l-5.8-12.5L161.3,270.1z M183.8,293.5
			c0.2-0.2,2.5-0.2,4.1-0.1l-1,1.8c-1.4,0-3-0.1-4.2,0.1C183,294.5,183.4,293.9,183.8,293.5 M242.6,250.9l1.2,4.2
			c-0.5-0.1-1-0.1-1.7,0c-3.6,0.3-6.5,7.6-5.5,16.2c1,8.5,3.1,17,7.3,17.4c1.8,0.2,3.4-0.5,4.6-2c1.1-0.1,2.6-0.2,4.4-0.4
			c2.1,7.3,14.7,50.5,16.8,58.3c0.2,0.8,0.5,1.9,0.9,3.3c-17,3.3-34.9,1.5-45.5-0.4c-12.1-2.2-19.7-5.4-23.5-7.2
			C216.2,312.4,222.8,284.7,242.6,250.9 M200.4,236.6c-1.6-1.1-3.4-2.7-4.9-3.7c0.3-0.3,0.6-0.6,0.8-0.9c2.8,1.5,3.8,1,6.1,1.3
			c-0.7-0.3-2.6-2.1-4.4-3.2c0.4-0.4,0.7-0.8,1.1-1.2c2.5,1.3,3.5,1.1,5.4,1.3c1.7,1.1,5.2,2.5,8.7,3.9c6.6,2.5,11.5,4.3,17.2,5.8
			c2.8,1.5,6.1,2.6,9.9,3.3l0.4,1.5c-16.3-3.2-24.4-7.2-34.9-9.9c1,1.1,3.9,2.3,7.2,3.7c10.1,4.1,16.7,4.3,26.9,8.8
			c-0.2,0.5-0.5,1.1-0.8,1.7C224,245.6,209.9,239.5,200.4,236.6 M186.4,239.2c-0.2-0.6-0.5-1.1-0.8-1.6c1.7-1.7,2.4-3.1,2.2-4.6
			c1,1.1,1.5,2.2,1.5,3C188.2,237.2,187.3,238.3,186.4,239.2 M191,234c-0.2-0.7-0.4-1.4-0.9-2c1.3-1.2,2.5-2.7,1.9-4.6
			c-0.6,0.6-1.9,2.5-3.3,3.3c-0.4-0.3-1-0.6-1.6-0.9c-1-0.5-2.4-0.8-3.6-0.4c2.7-2.9,5.9-6.4,8.9-9.6c4,0.6,6.2,3.5,6.6,5.3
			c-1.1,1.2-2.2,2.5-3.3,3.7c-0.1-0.8-0.2-1.5-0.5-2.1c1.3-1.1,2-2.5,1.6-4.3c-0.5,0.5-1.5,1.9-2.7,2.9c-1.3-1.1-3.5-1.3-6.1-0.3
			c3.8,0.6,5.8,3.2,6.5,5.2C193.3,231.5,192.2,232.8,191,234 M190.3,219.6l-1.9-3.5c0.3-0.3,0.6-0.6,0.9-0.9c0.8,0.6,2.2,1.7,3,2.3
			C191.6,218.2,191,218.9,190.3,219.6 M188.2,212.6c-9.7-9.4-24.8-24.5-28.7-26.9c0.8-0.8,1.8-1.9,2.9-3.1
			c2.6,3.4,13.5,14.1,20.1,20.5c2.9,2.7,4.3,5.3,7.4,7.7C189.4,211.4,188.8,212,188.2,212.6 M185.5,219.2c0.9,0.6,2.2,1.7,2.9,2.3
			c-0.9,0.9-1.8,1.8-2.6,2.7l-1.9-3.2C184.4,220.4,184.9,219.8,185.5,219.2 M204.8,222.5c2.2,1.2,3.5,1.5,5,1.4
			c1.5,0.8,3.9,1.7,7.6,3c0.8,1.2,1.7,2.3,2.6,3.4c-4.5-1.4-8.4-2.6-12.3-3.7c-0.8-0.5-2.4-1.9-3.9-3
			C204.1,223.3,204.5,222.9,204.8,222.5 M202,225.7c2.3,1.2,3.7,1.2,5.2,1.2c1.4,1,4.5,2.4,7.7,3.4c2.5,0.8,5.1,1.9,7.4,2.7
			c0.5,0.5,1,1,1.5,1.6c0.6,0.6,1.2,1.2,1.8,1.8c-8.3-2.4-14.4-4.7-21.2-6.8c-0.9-0.7-2.1-1.9-3.4-2.7
			C201.3,226.4,201.6,226,202,225.7 M314.3,293.8c-0.2,0.8-0.4,1.7-0.6,2.6c-3.6,1.3-7.2,2.6-10.7,3.8c-3,0.9-4.4,0.7-7.6,1.6
			c-0.1-0.3-0.1-0.7-0.2-1c5.1-1.4,5.8-2.3,7.2-3C307.1,296.3,311.2,295.2,314.3,293.8 M305.5,309.4
			C305.5,309.4,305.5,309.4,305.5,309.4c-2.4,0.7-3.9,0.4-8.2,1.9c-0.1-0.4-0.2-0.7-0.2-1.1c5.6-1.7,6.1-2.8,7.7-3.5c0,0,0,0,0,0
			c4-1.4,6.6-2.6,8.4-3.5c0,0.9,0.1,1.9,0.2,2.9C310.5,307.4,308,308.5,305.5,309.4 M326.6,449.9c0.4,0,0.8,0,1.2,0
			c1.8,0,3.4,0,5.2-0.4c1-0.2,2.1-0.5,3.1-0.7c-0.1,0.1-0.1,0.1-0.2,0.2c-6,2.1-24,6.9-35,8.4c-0.2-0.5-0.3-1-0.5-1.3
			C304,455.5,316,453,326.6,449.9 M280.6,283.9c1.1,3.1,2.1,4.7,2.6,6.6c0.2,0.9,0.4,1.8,0.6,2.7c-0.7-0.2-1.5-0.4-2.3-0.4
			c-0.2,0-0.4,0-0.5,0c-0.1-0.8-0.2-1.7-0.4-2.4c-0.3-1.4-0.3-3.9-0.7-6.3C280.2,283.9,280.4,283.9,280.6,283.9 M318.5,448l0.4,1.2
			c-0.7,0.2-1.3,0.4-2,0.6c-0.3-1.1-0.5-2.4-0.9-3.9C316.6,446.7,317.4,447.4,318.5,448 M312.3,451.2c-0.7-4.5-5-16.8-7.7-27.7
			c-2.2-9.3-5.7-21.5-28.9-108.1c-0.4-1.4-0.5-2.2-0.4-3.5c0,0,0.1,0,0.1,0c1.4,2.3,3.3,5.3,3.6,6.6c3,11.3,5.3,19.5,6.6,23.9
			c2.9,9.4,12.4,49,21.8,81.8c4.7,16.4,5.7,18.2,7.6,26.1C314.1,450.7,313.2,450.9,312.3,451.2 M280.8,294.4c1,0,2,0.2,2.9,0.7
			c-1.3,1-3.1,3.2-8.9,8.1c-0.3-0.7-0.4-1.5-0.4-2.3c0-1.3,0.4-3.3,1.5-4.7c-3.3,1.9-3.4,5.2-3,7.6c0.5,2.6,3.1,4.9,5.3,5.8
			c-4.4,0.4-7.2-2.4-7.7-5.6c-0.4-2.9,0.4-5.1,2.6-6.9C274.8,295.7,277.4,294.5,280.8,294.4 M311,427.8
			c-1.8-5.4-18.4-67.2-29.3-109.4c-0.4-1.7-0.5-4.4-0.4-6.2c0.7,0.8,1.5,2,2.7,4.9c2.8,7.3,7.4,23.7,8,28.1
			c1.1,7.4,3.8,13.9,7.4,28.8c3.1,12.8,7.2,29.2,14.3,53.9c1,3.5,2.2,7.4,3.1,10.5c-1.2,1.2-1.7,2.3-1.9,3.3
			C314,437.8,312.8,433.2,311,427.8 M280.8,307.4c-0.6,0-1.2-0.1-1.8-0.2c4-4.3,6-7.1,6.3-8.8c-1.4,0.8-3.2,2.8-8.4,7.7
			c-0.4-0.3-0.7-0.6-1-0.9c3.7-3.8,7.8-7.4,9-9.3c1.4,1.2,2.4,3,2.4,5C287.3,304.5,284.4,307.4,280.8,307.4 M318.3,437.1
			c-0.6-2.9-0.8-6.1-2.2-9.8c-2.6-7.1-1.9-4.8-29.3-111.5c-0.3-1-0.5-3.2-0.5-5.4c2.2,2.5,2.7,4.9,2.9,5.5c3.2,12.1,5.4,18.8,6.2,22
			c2.7,10.8,14.5,56.2,22.4,86c1.1,4.2,2.1,8.5,2.9,11.6c-0.4,0.3-0.9,0.5-1.3,0.8C319,436.5,318.6,436.8,318.3,437.1 M274.6,284.4
			c1.2,3.1,2.2,4.3,2.8,5.7c0.2,0.7,0.6,1.9,0.9,2.8c-0.1,0-0.3,0-0.3,0.1l0,0c-1,0.2-1.9,0.4-2.7,0.7c-0.2-1.2-0.4-2.6-0.6-3.4
			c-0.4-1.6-0.2-3.1-0.7-5.9C274.2,284.4,274.4,284.4,274.6,284.4 M268.7,284.9c1.1,2.6,2,4.3,2.6,5.6c0.3,1.1,1,2.9,1.5,4.3
			c-1,0.6-1.7,1.2-2.4,1.9c-0.5-1.7-0.9-3.3-1.4-4.9c0-0.1,0-0.2,0-0.3c-0.4-1.6-0.3-4-0.9-6.6C268.3,284.9,268.5,284.9,268.7,284.9
			 M262.9,285.4c1.4,3.1,3,6.2,3.6,7.6c0.7,2.6,1.5,4.3,2,7.5c-0.4,1.5-0.4,3.1-0.1,4.6c0.1,0.5,0.2,1,0.4,1.5c0,0.1,0,0.2,0.1,0.2
			c0.6,2.3,3.5,6.4,4.2,8.8c3,10.8,3.6,13.9,4.7,17.6c4.9,16.1,18.9,70.1,24.5,90.2c2.7,9.5,6.6,24,8.1,28.4
			c-0.8,0.2-1.5,0.3-2.3,0.4c-1.1-4.6-4-13.8-7-23.8c-0.6-2.1-9.3-34.5-18.5-68c-7.5-27.2-16.1-54.8-19.4-69c0,0,0,0,0,0
			c-0.4-1.7-0.2-3.2-0.7-5.9C262.5,285.4,262.7,285.4,262.9,285.4 M326.7,457.5l1.8,5.2c-0.6,0.2-1.2,0.3-1.7,0.5l-1.9-5.1
			C325.5,457.9,326.1,457.7,326.7,457.5 M323.4,458.5l1.8,5.2c-0.5,0.1-1,0.3-1.5,0.4l-1.9-5.1C322.3,458.8,322.8,458.6,323.4,458.5
			 M320.2,459.3l1.8,5.2c-0.5,0.1-1.1,0.3-1.6,0.4l-1.7-5.2C319.2,459.6,319.7,459.5,320.2,459.3 M318.8,465.4
			c-0.6,0.2-1.2,0.3-1.8,0.5l-1.7-5.3c0.6-0.1,1.2-0.3,1.8-0.4L318.8,465.4z M313.8,460.9l1.6,5.3c-0.5,0.1-1,0.3-1.6,0.4l-1.7-5.3
			C312.6,461.2,313.2,461,313.8,460.9 M310.5,461.6l1.6,5.3c-0.5,0.1-1,0.2-1.5,0.3l-1.7-5.3C309.4,461.9,310,461.8,310.5,461.6
			 M307.3,462.3l1.6,5.3c-0.6,0.1-1.2,0.2-1.8,0.3l-1.5-5.3C306.2,462.6,306.8,462.5,307.3,462.3 M313.9,468.3
			c7-1.6,13.7-3.3,17.9-4.9c0.1,0.5,0.3,1.1,0.5,1.6c-4.5,1.4-8.5,3-13.4,3.8c-4.7,0.8-9.4,2.3-14.7,3.3c-0.1-0.6-0.2-1.2-0.4-1.8
			C306.9,469.8,310.4,469.1,313.9,468.3 M331.8,456.8l-0.3-0.9c0.2-0.1,0.4-0.2,0.6-0.2C332,456.1,331.9,456.5,331.8,456.8
			 M331.4,460.9c0,0.3,0,0.6,0.1,0.9c-0.4,0.1-0.8,0.2-1.3,0.4l-2-5.2c0.6-0.2,1.1-0.4,1.7-0.6L331.4,460.9z M318.1,457.8l-0.5-1.4
			l-1.6,0.5l0.4,1.4c-3.7,1-7.5,1.9-11.3,2.7l-0.6-2.1c11-2.4,18.9-4.4,24.1-6l0.6,1.8C325.7,455.7,322,456.7,318.1,457.8
			 M301.6,459.4c0.4-0.1,0.9-0.2,1.3-0.3l0.5,2.1c-0.5,0.1-0.9,0.2-1.4,0.3C301.9,460.7,301.8,460.1,301.6,459.4 M303.9,463l1.4,5.3
			c-0.6,0.1-1.2,0.2-1.8,0.3c-0.4-1.9-0.7-3.7-1-5.3C303,463.2,303.4,463.1,303.9,463 M307.4,484.7c-0.2-0.6-0.5-1.2-0.7-2
			c2.1-0.4,4.3-0.9,6.6-1.4l-1.3,2.2C310.5,483.9,308.9,484.3,307.4,484.7 M316.2,480.6c6.5-1.6,13.2-3.4,18-4.9
			c0.7,0.4,1.5,0.9,2.3,1.2c-7.2,1.9-14.5,3.9-21.5,5.7C315.4,482.2,315.9,481.4,316.2,480.6 M339.9,476.1c-0.6-0.4-1.3-1-2-1.5
			c0.7-0.2,1.3-0.4,1.7-0.6c0.6,0.5,1.3,1,2,1.6C341.1,475.7,340.5,475.9,339.9,476.1 M305.8,479.6c-0.2-0.6-0.3-1.3-0.5-2
			c9.8-1.9,23.4-5.2,29.9-7.7c0.5,0.6,1,1.1,1.6,1.7C326.8,474.6,317.4,477.4,305.8,479.6 M304.9,475.7c-0.1-0.6-0.2-1.1-0.4-1.7
			c9.4-1.9,21.9-5.2,28.5-7.3c0.3,0.6,0.7,1.3,1.2,1.9C325,471.3,315.6,473.8,304.9,475.7 M332.9,453.6c-0.7,0.2-1.3,0.4-2,0.6
			l-0.6-1.8c1.7-0.5,3.1-1,4.1-1.4c0,0,0,0,0,0.1C333.8,451.9,333.3,452.7,332.9,453.6 M332.7,447c-8,1.2-14.9-0.8-15.4-4.2
			c-0.5-3.4,4.7-7.4,13.4-8.5c8.1-1,15.1,0.7,15.6,4.1C346.9,441.8,340.7,445.8,332.7,447 M326.8,433.1c-0.4-1.7-0.9-4.1-1.3-5.7
			l0.3,0c0,0,1,2.5,3.6,5.1C328.5,432.6,327.6,432.8,326.8,433.1 M324.9,433.6c-0.7,0.2-1.4,0.5-2.1,0.8c-0.8-3.3-1.6-7.4-2.9-12.1
			c-4.1-15.5-9.4-35-14.3-54.1c-1.5-5.9-2.6-11.6-4.2-17c-6.4-21.5-10.3-38.5-11.9-47.7c0.1-0.7,0.2-1.4,0.2-2.1
			c-0.1-2.2-0.9-4.2-2.2-5.8c-0.5-2.2-0.8-3.7-1-5.7c-0.2-2,0.1-4.1-0.2-6.6c0.3,0,0.5,0,0.8-0.1l36.1,143.9
			C323.5,428.8,324.4,432.1,324.9,433.6 M291.9,288.4c5.1-2.2,12.7-4.3,19.2-5.1c-3.7,1.6-8,3.1-11.8,4.3c-1.8,0.4-2.8,0-7.2,1.5
			C292.1,288.8,292,288.6,291.9,288.4 M315.2,281c0.1,0,0.2,0,0.2,0c0,0,0.1,0.1,0.1,0.1C315.4,281.1,315.3,281,315.2,281
			 M313.2,301.3c-3.7,1.4-6.3,2.4-9,3.3c-2.3,0.7-3.8,0.4-8,1.8c-0.1-0.3-0.1-0.6-0.2-0.9c5.3-1.5,5.9-2.6,7.4-3.3
			c3.9-1.4,7.1-2.7,9.9-4.1C313.3,299.2,313.2,300.2,313.2,301.3 M300.6,291.6c-2.1,0.6-2.9,0-7.3,1.5c-0.1-0.2-0.1-0.4-0.2-0.7
			c4.8-1.6,6-2.4,7.6-3.1c0,0,0,0,0,0c4.6-1.5,10.5-2.4,15.1-3C311.6,287.9,306.5,289.9,300.6,291.6 M314.8,278
			c-12.5,1.6-19.3,1.8-31.6,2.9c-13.6,1.2-21.3,2-32.9,2.5c0.1-0.3,0.2-0.6,0.3-1c6.3-0.6,50.5-5,66.8-5.4
			C316.6,277.6,315.8,277.9,314.8,278 M320.1,269.6c-13.8,1-22.1,2-34.3,3.1c-13.8,1.2-17.1,0.4-34.7,2.4c0-0.5-0.1-1-0.1-1.6
			c4-0.3,18.6-1.3,33.7-2.5c14.1-1.1,28.6-2.2,35.5-3.2C320.2,268.4,320.1,269,320.1,269.6 M286.1,276.5c-14.3,1.9-23,1.9-35,2.4
			c0-0.3,0-0.7,0.1-1c10.2-0.7,57.8-4.4,68.6-5.7c-0.1,0.4-0.2,0.8-0.3,1.2C307.8,274.7,297.7,274.9,286.1,276.5 M320.1,265.8
			c-13.7,1-21.9,1.9-34,3c-13.9,1.2-17.2,0.5-35.5,2.6c0-0.2,0-0.3-0.1-0.5c-0.1-0.5-0.1-1-0.2-1.4c7.8-0.5,39.7-3,53.6-4.5
			c0,0,6.4,0.5,15.9-1.8C320,264,320.1,264.9,320.1,265.8 M244,283c2.9-3.2,3.2-14,0-20.7c-0.3-0.7-1.1-1.5-1.7-1.4
			c-1.7,0.4-2.1,4.2-2.1,7.8c0,2.9,1.2,8.8,2.9,10.9c-0.4,0.6-0.8,0.9-1.4,1c-1.5,0.2-2.8-4.9-3.2-9.4c-0.4-7.5,1.2-13.6,3.8-13.8
			c2.7-0.2,5,6,5.6,13.7c0.6,7.8-0.9,14.2-3.5,14.4c-1,0.1-2-0.8-2.9-2.3C242,283.7,243.4,283.7,244,283 M243.7,278.3
			c-1-2-1.9-5.4-1.7-9.4c0.1-1.2,0.3-2.5,0.4-3.1c0.2-0.9,0.6-1.2,0.9-1.3C244.2,267.8,244.8,274.6,243.7,278.3 M176.2,328.6
			c-1.1-1.4-2.4-3-3.3-3.8c0.2-0.3,0.3-0.7,0.4-1.1c7.6,5.3,16.7,10.2,26.5,13.9c-0.4,1-0.8,1.7-1,2.2
			C190.6,336.7,183.2,333,176.2,328.6 M160.9,302.5c-1.4-1.8-2.9-4.1-4-5.3c0.2-0.1,0.3-0.2,0.5-0.2c1.4,1.4,3.2,2.5,4.8,3.3
			c1.5,1.3,2.7,2.4,3.1,2.7c10.3,7.7,27.3,17.1,39.7,22.5c-0.3,0.8-0.7,1.5-1,2.2c-4.6-2.1-12.8-6-18.4-8.8
			c-2.2-1.1-3.9-2.8-4.9-3.4C171.4,310.5,168.3,307.9,160.9,302.5 M167.1,294.2c0.6,1.3,1.3,2.6,2,3.9c-0.4-0.3-0.8-0.6-1.2-0.9
			c-0.6-0.8-1.3-1.8-1.9-2.5C166.3,294.5,166.7,294.4,167.1,294.2 M161.2,295.2c1.3,1.1,3.2,2.1,5,2.9c0.1,0.1,0.2,0.1,0.3,0.2
			c1.4,1.2,3.1,2.5,4.9,3.7c0.8,1.4,1.6,2.8,2.4,4.2c-3.7-2.4-7-4.8-10-7c-1-1.4-2.1-2.9-3.1-3.9C160.8,295.3,161,295.3,161.2,295.2
			 M181.3,297.6c1.2,0,2.7,0.1,4.2-0.2l-1.2,2.2l-4,0C180.3,299.6,180.7,298.8,181.3,297.6 M206,323.4c-7.6-3.3-9.1-3.9-15.1-7.2
			c-3-1.7-6.7-5.8-10.4-8.3c0.3,0,0.6,0,0.9,0c4.2,2.7,5,2.6,8,4.2c6.6,3.5,12.9,7,17.8,8.8C206.7,321.7,206.4,322.6,206,323.4
			 M208,319c-4.5-1.8-8.4-3.5-12.9-5.8c-4.1-2-5.2-4.7-9.7-7.1l0.3-0.6c1.6,1,3.7,1.6,5.3,2.4c6.4,3.3,12.4,6.5,17.9,8.9
			C208.6,317.6,208.3,318.3,208,319 M209.9,314.7c-6.3-2.6-10.3-4.5-15.6-7.1c-2-1-4.4-3.7-6.8-5.3l0.3-0.6c1.3,0.7,2.1,0.8,3.4,1.5
			c7,3.8,14.2,7.2,19.8,9.2C210.6,313.2,210.2,314,209.9,314.7 M188.1,298.2c0.2-0.3,0.5-0.7,0.8-1.1c8.1,4.4,16.7,8.5,23.8,11.3
			c-0.3,0.6-0.6,1.3-0.8,1.9c-6.8-3.4-13.2-4.8-18.6-8.2C192.2,301.5,190.3,299.8,188.1,298.2 M213.6,306.4c-9.2-3.6-17-7-23.8-10.7
			c0.5-0.8,0.9-1.6,1.3-2.5c8.9,4.9,16.7,8.4,23.6,10.6C214.3,304.7,214,305.6,213.6,306.4 M184.6,302l-1.6,3.3l-5.5-0.1
			c0.7-1.8,1.5-3.1,1.5-3.1L184.6,302z M217.4,297.9c-11.9-4.2-21.1-8.4-28.6-12.5c-0.8-1.4-1.7-2.9-2.6-4.4
			c10.4,6,23.6,11.8,32.1,14.8C218,296.5,217.7,297.2,217.4,297.9 M216.4,300c-0.4,0.8-0.7,1.6-1.1,2.4c-5.2-2.7-18.4-7.4-23.6-10.6
			c0.1-0.3,0.2-0.5,0.3-0.8c-0.4-0.8-0.9-1.7-1.4-2.5C199.1,293.1,208.5,297.2,216.4,300 M175.6,304.6l-6.2-11.6
			c0.6-0.3,1.1-0.6,1.3-0.7c0.4-0.2,0.7-0.7,0.8-1.2c2,3.4,4.1,6.6,5.5,10L175.6,304.6z M153.8,296.9c-1.1,0.7-2.3,1.2-3.8,1.8
			c-0.5-1.4-1.2-2.8-1.9-4.1c1-0.5,2.6-1.2,3.7-1.6C152.8,292.8,154.5,296.5,153.8,296.9 M201.3,333.8c-0.3,0.7-0.6,1.4-0.9,2
			c-4.9-1.9-10.5-4-14.3-6.8c-5.3-3.8-9.1-5.3-12.8-7.6c-0.1-1.2-0.4-2.4-1-3.5C181.4,324.1,192.4,329.9,201.3,333.8 M158.4,332.6
			l-0.7-3c1.2-0.2,2.3-0.4,3.4-0.6c0.1,0.9,0.2,2.2,0.3,3.1C160.4,332.3,159.4,332.4,158.4,332.6 M163.6,331.9l-1-3.1
			c1.2-0.2,2.2-0.3,3.3-0.5c0.2,0.9,0.4,2.5,0.6,3.6C165.5,331.8,164.5,331.8,163.6,331.9 M185.9,351.7c17.8,9.1,42.2,14,63.3,13.5
			c7.7-0.2,14.9-0.7,21.6-1.5c1.3,0.1,2.7,0.1,4.1,0c0.1,0.4,0.2,0.9,0.4,1.3c-0.7,0.2-1.5,0.5-2.3,0.8c-8.6,1.2-16.9,2.1-23.6,1.7
			c-7.2-0.4-11.7-0.2-17.4-0.6c-18.8-1.4-31.3-5.3-44.5-11.4c-2.2-1-4.3-3.1-7.9-5.3c0-0.2-0.1-0.5-0.1-0.7
			C181.3,350,184.3,350.8,185.9,351.7 M183.1,377.5c-1.2-0.8-2.3-1.8-3.5-2.5c0.1-0.2,0.2-0.5,0.2-0.7c1.2,0.6,2.6,1.1,3.9,1.6
			L183.1,377.5z M184.8,373.4c-1.4-0.9-2.7-2.1-4.1-2.9c0-0.2,0.1-0.4,0.1-0.5c1.5,0.7,3.1,1.2,4.7,1.8L184.8,373.4z M186.5,369.5
			c-2.1-1.4-4.2-2.8-5.3-3.6c0-0.2,0-0.4,0-0.7c2,0.9,4,1.6,6.1,2.3L186.5,369.5z M188.2,365.4c-2.6-1.3-4.7-3.1-7.2-4.3
			c0-0.2,0-0.3,0-0.5c2,0.8,4.2,1.1,6.2,2.1c0.8,0.4,1.2,0.6,1.8,0.8L188.2,365.4z M177.4,378.6c1.5,0.5,3,1,4.6,1.5l-0.6,1.5
			c-1.7-0.8-2.9-1.8-4.4-2.6C177.1,378.8,177.3,378.7,177.4,378.6 M171.7,380.4c3.2,2.3,5.7,2.5,8.7,3.5l-0.8,1.8
			c-3.5-2.9-7.6-3.5-10.6-4.6C169.8,380.8,170.7,380.6,171.7,380.4 M183.1,387.3c2.9-5.2,8.7-22.2,8.7-22.2c5.3,2.5,11.2,4.6,17.7,6
			c3.9,0.9,8.7,1.2,12.8,2c5.3,1.1,11.4,2.1,17.2,2.5c-0.8,16,1.4,63.9-0.5,78.8c-22.8-1-36.9-4.7-55.5-9.7
			c-7.9-2.1-15-4.6-21.5-7.4C164.9,429.8,177.8,396.7,183.1,387.3 M241.9,375.5c0-0.1,0-0.3,0-0.4l-0.1-2.8
			c-21.4-1-39.4-5.5-51.8-11c-1.1-0.5-2.2-1-3.1-1.5c-1.4-0.8-4.2-2.8-6.6-4.2c0-0.2,0-0.4-0.1-0.6c1.6,0.5,4.6,1.4,6.1,2.1
			c7.2,3.6,15.9,6.1,24.8,8.1c12.9,2.9,26.9,4.5,38.8,4.4c8.3-0.1,15.9-0.8,23-1.8c1,0.1,2.1,0.1,3.3,0c0.2,0.8,0.5,1.7,0.7,2.5
			c-5.7,1-12.1,1.4-18,1.6c-3.7,0.2-5.9,0.3-9.6,0.3c-2.6,0-3.8,0-6.2-0.1c0,0,1,1.8,3.3,2.1c2,0.3,8.6,0.1,12.6-0.1l0,0.2h0
			c0,0.2,0,0.9,0,1.8c-3.1,0.2-6.1,0.5-9,0.5c-3.1,0-4.3,0-7.2-0.1c0,0-0.6,2,6.3,2c4.1,0,7.7,0,9.9-0.2c0,0.6,0,1.2,0,1.9
			c-3,0.2-5.9,0.6-8.7,0.6c-3.2,0-4.6-0.2-7.7-0.3c0,0,1.5,2.3,7.5,2.3c3,0,6-0.1,8.9-0.2c0,0.7,0,1.5,0,2.3c-2.6,0.2-5,0.3-7.9,0.3
			c-3.7,0-4.5-0.3-8-0.4c0,0-0.5,3.2,7.8,2.5c2.8-0.2,5.1,0,8.1-0.2c0,0.7,0,1.4,0,2.2c-2.7,0.1-5.5,0.1-8.2,0.1c-3.4,0-4.6,0-8-0.1
			c0,0,0.7,1.8,7.8,2.3c2.9,0.2,5.7,0,8.4-0.1c0,0.7,0,1.4,0,2.1c-2.5,0.4-5.2,0.3-7.5,0.3c-3.7,0-5.2,0-8.7-0.2
			c0,0-0.8,2.3,9.1,2.3c2.2,0,5.1-0.3,7.1,0.2c0,0.6,0,1.3,0,2c-2.4,0.1-4.8,0.1-7.1,0.1c-3.8,0-5.5,0-9.2-0.2c0,0,2.3,2,8.8,2.4
			c2.5,0.1,5-0.2,7.4-0.4c0,0.7,0,1.4,0,2.1c-2.2,0.2-4.3,0.5-6.2,0.5c-4,0-5.9,0-9.8-0.2c0,0-1,2.2,9.6,2.2c2.2,0,4.3-0.1,6.5-0.1
			c0,0.8,0,1.5,0,2.3c-2.4,0.1-4.9,0.2-7.2,0.2c-3.8,0-5.1-0.1-8.8-0.2l2,2c0.6,0.4,3,0.4,6.6,0.4c2.5,0,5,0,7.5-0.1
			c0,0.7,0,1.4,0,2.1c-2.2,0.1-4.4,0.3-6.4,0.3c-4.1,0-5.8-0.1-9.7-0.3c0,0-0.1,1.8,9.3,2.2c2,0.1,4.6-0.1,6.8-0.2
			c0,0.7,0,1.4,0,2.1c-2,0.1-3.9,0.3-6,0.3c-4.2,0-6.1-0.1-10.1-0.3c0,0-1.7,2.7,9.9,2.3c2.2-0.1,4.1,0.1,6.2,0.1c0,0.8,0,1.5,0,2.3
			c-1.8,0.1-3.4,0.2-5.1,0.2c-4.6,0-6.6,0-11-0.2c0,0,1.6,2.3,8.1,2.3c1.9,0,5.4,0,8-0.1c0,0.7,0,1.5,0,2.2
			c-2.5,0.4-5.2,0.3-7.5,0.3c-3.7,0-5.2,0-8.7-0.2c0,0-0.8,2.3,9.1,2.3c2.2,0,5.2-0.3,7.1,0.2c0,0.6,0,1.2,0,1.8
			c-2.5,0.1-4.9,0.1-7.3,0.1c-3.8,0-5.5,0-9.2-0.2c0,0,2.3,2,8.8,2.4c2.5,0.1,5.1-0.2,7.6-0.4c0,0.7,0,1.5,0,2.2
			c-2.1,0.2-4.1,0.5-6,0.5c-4,0-5.9,0-9.8-0.2c0,0-1,2.2,9.6,2.2c2.1,0,4.2-0.1,6.2-0.1c0,0.8,0,1.5,0,2.3c-2.4,0.1-4.9,0.1-7.1,0.1
			c-3.8,0-5.1-0.1-8.8-0.2l2,2c0.6,0.4,3,0.4,6.6,0.4c2.5,0,4.9,0,7.4-0.1c0,0.7,0,1.3,0,1.9c-2.1,0.1-4.1,0.3-6,0.3
			c-4.1,0-5.8-0.1-9.7-0.3c0,0-0.1,1.8,9.3,2.2c1.9,0.1,4.3,0,6.4-0.2c0,0.7,0,1.3,0,2c-2,0.1-4,0.3-6,0.3c-4.2,0-6.1-0.1-10.1-0.3
			c0,0-1.7,2.7,9.9,2.3c2.2-0.1,4.2,0.1,6.2,0.1c0,0.7,0,1.4,0,2.1c-1.8,0.1-3.5,0.2-5.1,0.2c-4.6,0-6.6,0-11-0.2
			c0,0,1.6,2.3,8.1,2.3c1.9,0,5.5,0,8-0.1c0,0.8,0,1.5,0,2.1c-2.2,0-4.5,0-7,0c-3.6,0-7-0.1-10.2-0.2
			C242.3,444.4,241.9,377.4,241.9,375.5 M370.1,456.3c-0.1-0.1-0.3-0.3-0.4-0.4c6.2-4.7,22.4-11.5,32.9-18c0.3,0.6,0.6,1.3,0.9,2
			C393.3,445.7,380.1,452.8,370.1,456.3 M366.5,453.4c-0.1-0.1-0.2-0.1-0.3-0.2c4.5-4.1,11.4-5.8,17.2-9.1
			c5.3-3.1,12.5-6.4,17.7-9.3c0.3,0.5,0.6,1.1,0.9,1.6C391,443.1,376.6,449.7,366.5,453.4 M398.6,433.9l-2.8-3.9
			c0.5-0.3,1.1-0.6,1.6-0.9c0.9,1.4,1.8,2.7,2.6,4C399.5,433.3,399,433.6,398.6,433.9 M394.4,430.7l2.8,4c-0.5,0.3-0.9,0.5-1.4,0.8
			l-2.9-4C393.4,431.2,393.9,431,394.4,430.7 M391.4,432.3l2.8,4.1c-0.4,0.2-0.9,0.5-1.3,0.7L390,433
			C390.5,432.8,390.9,432.5,391.4,432.3 M388.5,433.7l2.8,4.2c-0.5,0.3-1,0.6-1.6,0.8l-2.8-4.2C387.5,434.2,388,434,388.5,433.7
			 M388.3,439.5c-0.5,0.3-1.1,0.6-1.6,0.8l-2.8-4.3c0.5-0.3,1.1-0.5,1.6-0.8L388.3,439.5z M382.5,436.7l2.7,4.4
			c-0.5,0.2-0.9,0.5-1.4,0.7l-2.8-4.4C381.5,437.2,382,437,382.5,436.7 M379.5,438.1l2.7,4.4c-0.5,0.2-0.9,0.4-1.4,0.7l-2.8-4.4
			c0.1-0.1,0.3-0.1,0.4-0.2C378.8,438.5,379.2,438.3,379.5,438.1 M376.6,439.5l2.7,4.4c-0.6,0.3-1.1,0.5-1.7,0.8l-2.7-4.5
			C375.5,440.1,376,439.8,376.6,439.5 M375.9,445.6c-0.6,0.3-1.1,0.5-1.7,0.8l-2.4-4.6c0.5-0.2,1-0.5,1.5-0.7L375.9,445.6z
			 M370.4,442.5l2.3,4.6c-0.5,0.2-0.9,0.4-1.4,0.6l-2.4-4.6c0.2-0.1,0.4-0.2,0.6-0.3C369.8,442.7,370.1,442.6,370.4,442.5
			 M367.5,443.8l2.4,4.7c-0.5,0.2-1,0.4-1.5,0.7l-2.5-4.7C366.4,444.2,366.9,444,367.5,443.8 M364.3,445l2.4,4.7
			c-0.6,0.2-1.2,0.4-1.9,0.5l-2.2-4.5C363.2,445.4,363.8,445.2,364.3,445 M363.2,450.7c-0.1,0-0.3,0.1-0.4,0.1
			c-0.7-0.5-1.3-0.9-1.9-1.4l-1.2-2.2c0.5-0.3,1-0.5,1.5-0.8L363.2,450.7z M358,449.3c-0.7-0.1-2.2-0.3-2.9-0.3c0,0-0.1,0-0.1,0
			c-1-0.5-2.4-1.1-2.7-1.2c-0.7-0.2-2.8,0-2.8,0s1.5,0.7,2.6,1.4c-0.7,0.1-1.5,0.2-2.2,0.4c-1.1-0.6-2.5-1.4-2.8-1.4
			c-1-0.3-3.1,0.6-3.1,0.6s2.1,0.9,3.4,1.6c-0.8,0.3-1.6,0.7-2.4,1.1c-1-0.5-3.1-1.5-3.5-1.5c-0.6,0.1-2.1,1.5-2.1,1.5
			s1.7,1.1,2.9,1.9c-0.6,0.5-1.1,1.1-1.5,1.8c0,0.1-0.1,0.1-0.1,0.2c-1.2-0.7-2.9-1.8-2.9-1.8s-1.2,1.7-1.2,2.2
			c0,0.4,1.7,1.6,2.6,2.3c-0.3,0.6-0.5,1.3-0.7,1.9c-1.2-0.8-2.6-1.9-2.6-1.9s-0.2,1.8-0.2,2.3c0,0.4,1.4,1.5,2.3,2.3
			c-0.1,0.7-0.2,1.4-0.2,2.1c-1-0.8-2.1-1.7-2.1-1.7s0.1,1.1,0.1,1.6c0,0.4,1.3,1.8,2.2,2.8c0.1,0.8,0.3,1.6,0.6,2.4
			c-5-4.3-6.1-12.2-2.1-17.9C341.1,444.8,350.9,445,358,449.3 M317.2,355.5c-2.3,0.7-3.7,0.7-7.8,2.1c-0.1-0.3-0.2-0.5-0.2-0.8
			c4.6-1.6,5.9-2.9,7.4-3.6c0,0,0,0,0,0c5.3-2.1,9.6-4.2,12.9-6.2c0.3,0.7,0.7,1.5,1,2.2C326.4,351.5,321.9,353.6,317.2,355.5
			 M328.9,345.6c-4.2,1.9-8.4,3.7-12.6,5.3c-0.1,0-0.2,0-0.3,0c-2.3,0.7-3.8,0.8-7.9,2.2c-0.1-0.2-0.1-0.5-0.2-0.7
			c4.8-1.7,6-3.2,7.5-3.9c0,0,0,0,0,0c5.8-2.2,9.9-4.3,12-5.9C328,343.5,328.4,344.5,328.9,345.6 M313.7,341.6
			C313.7,341.6,313.7,341.6,313.7,341.6c-2.4,0.8-3.9,0.5-8.3,2c-0.1-0.2-0.1-0.4-0.2-0.6c4.8-1.7,6.1-3.4,7.7-4.1
			c3.7-1.3,6.8-2.1,10.7-4.2c0.3,0.7,0.7,1.4,1,2.1C321,338.4,317.3,340,313.7,341.6 M322.6,332.4c-3.6,2-6.7,3.3-10.1,4.6
			c-1.9,0.6-3.3,0.5-6.2,1.3l-0.2-0.5c2.6-1.1,3.9-2.2,5.9-3.1c0,0,0,0,0,0c3.9-1.4,7-2.7,9.7-4.2C322,331,322.3,331.7,322.6,332.4
			 M309.1,323.3C309,323.3,309,323.3,309.1,323.3c-2.4,0.8-4,0.4-8.5,2c-0.1-0.3-0.2-0.6-0.2-0.9c5.4-1.7,6.4-2.9,8-3.6
			c2.2-0.7,4.4-1.3,7.4-2.8c0.4,0.8,0.7,1.6,1.1,2.4C313.9,321.6,311.5,322.4,309.1,323.3 M307.9,318.9
			C307.9,318.9,307.9,318.9,307.9,318.9c-2.4,0.8-3.9,0.4-8.4,2c-0.1-0.4-0.2-0.7-0.3-1.1c5.8-1.7,6.4-2.7,8-3.4c0,0,0,0,0,0
			c2.4-0.9,4.3-1.8,6.3-2.9c0.4,0.8,0.7,1.6,1.2,2.4C312.1,317.2,310,318.1,307.9,318.9 M312.8,311.8c-2.3,0.9-4.3,1.7-6.1,2.4
			c0,0,0,0,0,0c-2.4,0.7-3.9,0.4-8.3,1.9c-0.1-0.4-0.2-0.7-0.3-1.1c5.7-1.7,6.3-2.6,7.9-3.3c0,0,0.1,0,0.1,0
			c2.2-0.7,4.1-1.4,5.6-2.1C312,310.1,312.4,310.9,312.8,311.8 M315.1,291.3c-3.9,1.6-8.6,3.2-13.1,4.6c-2.2,0.7-3,0-7.6,1.6
			c-0.1-0.3-0.2-0.6-0.2-0.9c5.2-1.5,5.7-2.4,7.2-3.1c6-2,11.8-4.1,15.3-5.6C316.1,289,315.6,290.1,315.1,291.3 M412.6,262.2
			c-13.1,0.8-23.1,1.4-34.8,2.5c-13.9,1.2-23.2,1.4-35.5,2.9c0-0.6,0-1.1,0-1.7c4.7-0.4,16.7-1.3,30.6-2.2c14.2-0.9,27.5-2.1,39.8-3
			C412.6,261.1,412.6,261.6,412.6,262.2 M327,267.1c6.1-0.5,2.5-0.2,7.1-0.7c0,0,1.6,0.5,4.5-0.1c0,0.5,0,1,0,1.5
			c-9.6,0.7-2.8,0.2-11.6,1C327.1,268.2,327,267.7,327,267.1 M326.9,271.2c8.9-0.7,8-0.4,11.5-1c-0.1,0.5-0.1,0.9-0.2,1.3
			c-9.2,0.7-3.7,0.9-11.5,1.2C326.8,272.2,326.9,271.7,326.9,271.2 M338.5,263.9C338.6,264,338.6,264,338.5,263.9
			c-2.2,0.2-5.8,0.8-11.7,1.1c0-0.1,0-0.1,0-0.2c-0.1-0.5-0.2-1-0.2-1.5c6.3-0.3,9.2-0.7,11.8-1.5
			C338.4,262.5,338.5,263.2,338.5,263.9 M326.2,261.3c-0.1-0.7-0.2-1.3-0.3-1.9c5-0.3,9.4-0.6,11.8-1.5c0.2,0.8,0.3,1.7,0.5,2.6
			C336,260.6,332.3,261,326.2,261.3 M326.3,275.4c8.8-0.7,9.8-0.9,11.4-1.1c-0.1,0.4-0.2,0.9-0.4,1.3c-6.9,0.9-3.5,0.5-11.4,1.2
			C326,276.3,326.1,275.9,326.3,275.4 M412.5,258.8c-12.1-0.4-23,1.9-34.6,2.3c-13.4,0.5-24,1.4-35.9,2.8c0-0.1,0-0.2,0-0.3
			c-0.1-0.5-0.1-0.9-0.2-1.4c4.4-0.4,16-1.4,30.1-2.4c14.5-0.9,26.3-2.7,32.6-2.9c4.6-0.1,6.7-0.7,7.7-1.1
			C412.3,256.8,412.4,257.8,412.5,258.8 M337.5,257c-1.8,0-5.1,0.2-11.9,0.6c-0.2-0.7-0.3-1.4-0.5-2.1c5.4-0.4,8.7-0.8,10-1.7
			c-1.5-0.4-4-0.1-10.5,0.1c-0.2-0.5-0.4-1.1-0.6-1.6c5-0.4,8.1-0.7,11.1-1.3C336,252.4,336.9,254.4,337.5,257 M332.2,248.9
			c0.8-0.1,1.6,0.4,2.3,1.3c-1.4-0.1-4,0.2-11.3,0.5c-0.3-0.4-0.5-0.8-0.8-1.2L332.2,248.9z M314.9,254
			C314.9,254,314.9,254,314.9,254c0.8-2.4,1.8-3.9,3.1-4c2.9-0.2,5.4,5.3,6,13.9c0.6,8.5-0.9,16.8-3.8,17.1
			c-1.1,0.1-2.2-0.4-3.2-2.1c0.8,0.4,1.6,0.5,2.5-0.1c4.3-3.4,3.3-19.3-0.8-22.5c0.1,0.3,0.8,3.1,1.1,6.6c-4.1-0.4-23.7,1.1-35,2.1
			c-13.1,1.1-19.5,0.7-34.8,2.5c-0.1-0.6-0.2-1.1-0.3-1.7c18.4-1.4,13.7-1.6,28.8-2.6c0,0,31.6-1,39-3.6c-0.5-0.9-21.6,1.4-34.1,2.1
			c-13.2,0.6-16.8,1-34,2c-0.1-0.5-0.2-1-0.3-1.5c18.1-1.3,14.4-1,29.4-2c0,0,20.6-1.5,26.5-3.4c-1.6-0.4-9,0.6-21.4,1.2
			c-13.1,0.6-18.9,1.9-34.9,2.5c-0.1-0.4-0.3-0.9-0.4-1.3C258.1,258.5,314.8,254,314.9,254 M278,218.3l-0.9,1.5
			c-2.1,0-6.9,0-9.4,0.2c0.5-0.8,0.7-1.3,0.7-1.3L278,218.3z M270.8,192.3c-2.4-9.1-3.8-16.5-6.9-26.1c0.9,0.3,1.8,0.7,2.7,1.1
			c2.1,7.1,6,22.7,8.5,31.9c0.3,1.3,0.8,2.8,1.2,4.5C274.6,200.1,272.7,196.2,270.8,192.3 M272.3,254.9c-1.4-5.2-1.8-10.7-3.1-16.4
			c3.1,5.7,4.2,9.9,6,16.3C274.1,254.8,273.2,254.8,272.3,254.9 M277.3,254.6c-1.2-4.5-2.2-10.9-3.2-17.2c1.8,4.2,4.1,9.5,4.8,12.2
			l1.2,4.9c-0.5,0-1,0-1.5,0.1C278.2,254.6,277.7,254.6,277.3,254.6 M281.7,248.5c0.5-0.3,1-0.6,1.4-0.9c0.3,0.7,0.6,1.4,0.9,2.1
			l-2,0.2L281.7,248.5z M280.8,245l-0.4-1.7c0.2-0.2,0.4-0.3,0.6-0.5c0.3,0.7,0.6,1.4,1,2.2H280.8z M278.7,223.4
			c0.2-0.3,0.4-0.7,0.6-1c0.6,1.3,1.3,2.7,1.9,3.9c-0.4,0.6-0.9,1.1-1.4,1.7L278.7,223.4z M266.1,223c2.6-0.1,7.2-0.4,9.8-1.2
			l-1.2,2.1c-1.8,0-6.7-0.3-9.3,0.3C265.7,223.8,265.9,223.4,266.1,223 M264,226.7c2.6,0,6.9,0.1,9.5-0.8c0,0,0,0,0,0l-1.1,1.8
			c-1.4,0.1-6.7,0.3-9.1,0.1C263.6,227.5,263.8,227.1,264,226.7 M264.1,238.7c2.8,4.9,5.2,12.2,5.8,16.3c-0.9,0.1-1.8,0.1-2.7,0.2
			c-1.1-4.5-2.4-9.6-3.8-16.5C263.7,238.8,263.9,238.7,264.1,238.7 M259.1,239.2c2.9,4.8,4.3,10.2,5.9,16.3
			c-0.8,0.1-1.6,0.2-2.4,0.2c-1.3-5.1-2.8-10.7-4.4-16.5C258.5,239.2,258.8,239.2,259.1,239.2 M260.5,255.9
			c-0.9,0.1-1.8,0.2-2.6,0.3c-2.7-7.9-5.7-20.5-10.6-39c3,8,5.9,15.7,8,22C259.6,250.5,258.4,251.3,260.5,255.9 M283.2,254.4
			l-0.2-0.8c0.8-0.5,1.6-1.1,2.1-1.5c0.3,0.7,0.6,1.4,1,2.1C285.1,254.3,284.2,254.3,283.2,254.4 M289.3,202.6c0,1.5-0.1,3-0.3,4.4
			c-2.7-9.1-1.7-10.6-5.3-19.1c-1.4-5.6-3.2-8.1-4.9-10c1.9,6.4,7.1,22.8,9.3,34c-0.5,1.9-1.1,3.7-1.8,5.5c-1.1-5.3-0.8-8-3.8-17
			c-3.9-11.9-5.9-25.8-10.6-29.8c1.9,6.9,6.2,22,8.8,31.5c2,7.4,2,9.8,4.4,18c-0.5,1.1-1.1,2.1-1.8,3.1c-2.6-9.7-4-17.1-6.8-26.4
			c-2.5-8.3-3.2-14.8-6.5-24.1c-0.4-1.7-1.1-3.3-1.9-4.5C280.8,174.8,289.3,188.1,289.3,202.6 M262,165.6c1.4,5.4,2.8,10.9,4.4,17
			c-2.9-6.5-5.5-12.8-7.7-17.9C259.8,164.9,260.9,165.2,262,165.6 M241.8,154.2l10.4,0.1l26,61.9c-0.7,0-1.5,0-2.4,0
			c-13.6-29.3-21.5-52.5-27-59.5c0.6,9.2,20.8,49.2,22.7,59.6c-1.2,0-2.1,0.1-2.1,0.1c-5.7-12.6-22.6-55.8-27-61.6
			c-0.8,6,22.3,52.2,24.1,63.4c-3.9,7-8.9,18-7.7,16.9c0.1,0,0.1-0.1,0.2-0.2c2.3,0,8.2-0.7,10.5-3.2c-0.9,0.1-6.2,0.1-8.7,0.5
			c0.3-0.5,0.6-0.9,0.9-1.5c2.4,0,5.9,0,8.4-0.8c0.7-0.2,1.3-0.6,1.7-1l-3.9,6.6l-10.4,0.9L232,172.6L241.8,154.2z M232.8,167.9
			c-1.5,2.6-3,5.2-3,5.2s2.3,5.6,5.6,13.8c1.2,4.3,2.2,8,2.8,9.6c2.9,7.8,11.3,36.9,17,59.8c-1,0.1-1.9,0.2-2.9,0.2
			c-1.8-5.4-1.5-9-3.3-14c-1.2-3.2-2.8-9.7-5.4-19.8c-3.5-13.7-8.5-32.2-14.3-51.2c0,0-2,2.4-0.5,6.6c2.9,8.3,4.8,16.9,6.2,21.9
			c2.8,9.5,6,21.9,9.5,35.8c1.9,7.5,4.2,15,5.4,20.8c-0.9,0.1-1.7,0.1-2.7,0.2l-4.4-16.2c-3-13.4-7-28.9-12.6-48.2
			c-1.6-5.6-2.9-13.5-5.4-17.7c-1.7,2.1-0.9,4.5,0.4,8.8c3.4,10.9,6.6,22.6,11.9,43.9c0.9,3.7,2.2,9,3.3,12.6c-1-0.3-1.9-0.6-2.9-1
			c-3.1-10.7-6.7-27-9.3-35.5c-2.3-7.7-4.3-14.1-7-24.3c-2.3,3.2-1.6,5-0.1,9.2c4.2,12.2,7.7,28.5,14,49.6c-1.2-0.6-2.4-1.2-3.5-1.9
			c-1.1-5.6-5.4-17.5-7.1-25.1c-1.9-8.5-4.5-15.8-7.2-25.7c-1.6,4-0.8,5.2,0.2,9.5c2.3,10.2,5.8,19.6,10.7,39
			c-1.2-0.9-2.3-1.8-3.3-2.8c-0.1-0.3-0.2-0.6-0.2-0.9c-3.5-9.1-6.8-23.4-9.9-34.5c-2.2,4.6,1.1,13.3,2.2,17.6
			c1.4,5.7,2.6,9.6,3.9,13.4c-5.3-6.7-8.5-15.1-8.5-24.2C212.4,187.4,220.5,174.3,232.8,167.9 M213.7,220.6c-1.5-0.3-3-0.5-4.5-0.7
			c0.7,0.6,2.8,1.4,5.1,2.1c0.5,1,1.1,2.1,1.7,3.1c-2.2-0.7-4.2-1.3-6.2-1.9c-0.9-0.7-2.2-1.7-3.3-2.5c0.4-0.5,0.8-1,1.2-1.4
			c1.2,0.1,4.1,0,5.2-0.3C213.2,219.5,213.5,220.1,213.7,220.6 M200.4,211.1c3-3.3,8.9,2.1,6.1,5.4c-0.3,0.4-0.7,0.8-1.2,1.4
			c-0.2-0.5-0.6-1-1-1.4c1.5-1.7,1.7-2.3,1.3-3.5c-0.6,0.6-1.4,1.9-2.7,2.4c-1.4-0.7-3.3-1-5.2-0.5c3.5,0.4,5.4,2.8,6.1,4.7
			c-0.9,1-1.9,2.2-3,3.4c-0.2-0.6-0.5-1.2-0.9-1.8c1.2-0.8,2.1-2,1.6-3.9c-0.5,0.5-1.6,1.9-2.8,2.7c-1.6-1.3-3.8-1.8-5.6-1.1
			C196.2,215.7,198.9,212.7,200.4,211.1 M195.8,213.8c-0.5,0.5-1,1.1-1.5,1.6l-1.8-3.7c0.2-0.2,0.4-0.5,0.7-0.7
			C193.9,211.9,195.3,213.4,195.8,213.8 M172,173.2c5.3,5.7,20.6,19.2,26.8,26.7c-0.9,1.5-2.7,3.8-5,6.5c0.1-1.6-0.6-3.6-1.8-4.8
			c-3.7-3.8-7.4-7.1-11.8-10.8c-6.6-5.5-7.7-8.9-12.6-11.3c3.4,6.2,18.4,19,25.4,27.8c-0.5,0.6-1.1,1.2-1.6,1.8
			c0-0.8-0.1-1.5-0.5-1.9c-9.8-8.6-25.3-23.8-28.2-24.8C165.7,179.3,169.4,175.5,172,173.2 M174.4,226.3
			c-7.7-6.5-23.1-22.7-26.5-26.1c1.9-2.9,8.3-11.3,10-12.9c0.3-0.3,0.7-0.7,1.3-1.3c1.7,4.7,19.9,19.7,26.7,29
			C181.6,219.5,177.2,223.8,174.4,226.3 M179.2,226c0.7-0.8,1.5-1.6,2.2-2.4c0.8,0.6,2.1,1.5,2.9,2.1c-1,1-1.9,2-2.8,2.9
			C181,227.8,179.9,226.7,179.2,226 M182.7,230.4c2.1,0.3,3.7,1.2,4.8,2.3c-0.6,0.7-2,2.4-3.4,3.4c-1.5-1.1-3.5-1.6-5.7-1.1
			C179.1,234.3,180.7,232.6,182.7,230.4 M184.1,241.8c-1.7,2-8.8-2.6-6-6.4C183.3,236.2,185.1,240.7,184.1,241.8 M193.2,262.2
			c3.2-4.5,4.9-13.5-1.6-21.2c2.5,5.1,3.1,9.6,2.6,13.2c-0.2-3.6-2.4-8.3-6.1-12c0.9-1.3,1.9-2.7,3-4c2.5,1.5,4.1,1.6,5.8,1.8
			c-0.6-0.8-2.5-2.5-4.2-3.8c0.4-0.5,0.8-0.9,1.2-1.4c1.9,1.2,4,1.6,5.6,1.9c2.4,1.5,8.7,4.6,11.8,5.6c10.1,3.6,18,5.7,27.1,8.8
			c-0.3,0.7-0.6,1.4-0.9,2.1c-16.4-3.6-26.1-8.1-35.7-10.9c0.9,1.1,2.6,2.7,7.9,4.5c10.7,3.7,17.2,5.1,26.8,8.8
			c-0.3,0.7-0.6,1.3-0.9,2c-16.1-4-28.1-9.6-37.5-12.5c0.9,1.1,2.2,2,10.6,5.5c9.7,4.1,17.1,6.1,25.8,9.2c-0.3,0.7-0.6,1.4-0.9,2.1
			c-16.2-4.5-24.3-8.5-33.7-11.9c0.9,1.1,3.5,3.2,7,4.5c9.9,3.6,16.8,6,25.7,9.7c-0.2,0.5-0.4,0.9-0.6,1.4
			c-16.2-4.2-25.6-9.1-34.6-12.4c0.9,1.1,2,2,10.4,5.7c9.9,4.4,14.5,5.3,23.3,8.7c-0.3,0.7-0.6,1.4-0.9,2.1
			c-15.5-4.5-19.7-7.4-29.6-10.6c0.9,1.1,0.8,1.3,5,3.3c9,4.1,15.2,6.1,23.6,9.6c-0.2,0.5-0.5,1-0.7,1.5
			c-15.7-4.5-23.8-9.7-32.9-12.3c0.9,1.1,3.7,2.6,6.9,4.2c9.4,4.7,15.8,6,25.1,10.2c-0.3,0.6-0.5,1.1-0.8,1.7
			c-16.2-5-24.2-9.3-33.6-13c0.8,1.2,2.7,2.8,6.2,4.3c9.6,4.1,17.4,7,26.4,11c-0.2,0.4-0.4,0.9-0.6,1.3c-16-4.8-25.2-10-34.5-13.5
			c0.9,1.1-0.3,0.8,7.9,4.8c9.8,4.9,16.5,7.2,25.5,11.2c-0.3,0.7-0.6,1.3-0.9,2c-16-5.3-29.8-13.6-38.4-16.2
			c0.8,1.2,3.8,2.9,11.9,7.1c9.5,4.9,16.9,7.5,25.5,11.4c-0.3,0.6-0.5,1.2-0.8,1.8c-16-5.1-27.9-12.2-37.2-15.9
			c0.8,1.2,2.7,2.6,10.9,6.8c9.6,4.9,16.6,7.5,25.3,11.4c-0.3,0.7-0.6,1.3-0.9,1.9c-6.3-2.3-20.6-8.1-24.6-10.1
			c-4.4-2.3-7.5-4-10.3-5.7c-2.1-3.4-4.2-6.8-6.2-10.2C186.3,267.9,190.9,265.4,193.2,262.2 M167.2,262.8l5.4,0l16.2,28.4l-4.6,0
			c-7.3-11.8-13.9-25.5-16.4-27.6c0.3,5.6,10.1,17.9,13.8,28.4l-0.9,1.8c-6.9-11.8-12.9-24.1-15.3-25.3c2.8,7.7,9.4,17.1,13.7,28.4
			l-0.9,1.7c-6.2-10.6-13.1-25-16.4-29.4l0,0l1.8-0.5L167.2,262.8z M147.3,290.4c0.5-11.3,4.3-17.8,11.8-21
			c-0.8,1.5-1.8,3.3-2.3,4.1c1.3,1.4,3.2,4.8,5,8.8c-1.4-1.1-3-2.3-5.3-3.5c1.2,1.8,3.6,3.8,6.3,5.8c0.2,0.4,0.3,0.9,0.5,1.3
			c-0.8,0.3-1.5,0.6-2.3,1c-1.6-1.3-3.1-2.6-4.9-3.6c-0.1,0.9,1.9,2.7,4.1,4.5c-0.2,0.6-0.1,1.3-0.3,1.3c-0.5,0.1-0.9,0.2-1.4,0.4
			c-2-1.5-4.3-3.6-6.3-4.5c1.3,1.9,2.7,3.3,4.7,5c-1.1,0.4-2.1,0.8-2.8,1.1c-0.9-0.7-1.9-1.4-2.5-2c-0.5,0.2-0.2,1,0.5,2
			c-0.3,0-0.6,0-0.8,0.1c-1.1,0.5-2.5,1.1-3.7,1.6C147.3,292.1,147.2,291.1,147.3,290.4 M154.4,315.1c-0.7-1-0.5-1.5,0.3-2.3
			c0.8-0.8,1.8-1.4,0.5-2.8c-1.5-1.8-2.4-3.3-3.6-5.6c-0.2-0.8-0.4-1.7-0.6-2.6c1.3,1.4,3,2.5,4.5,3.2c3.2,2.7,7.2,5.6,8,6.3
			c1.5,1.3,3.3,2.7,5.1,4c-0.3,0-0.6,0-0.9,0.1c-0.7,0.2-1.3,0.3-2,0.5c-2.2-1.6-4.7-3.5-7.7-5.8c1.2,2.5,3.5,4.3,5.9,6.2
			c-1.1,0.2-2.1,0.4-3.2,0.5c-1.2-1-2.4-2-3.6-3.1c0.1,1.3,1.1,2.3,2.2,3.3c-1.2,0.2-2.3,0.3-3.4,0.4
			C155.4,316.4,154.9,315.9,154.4,315.1 M149.8,320.8c0.8-0.2,2.5-0.6,4.7-1c2.5,2.7,2.3,6.1,1.5,7.8c-0.9,0.2-1.8,0.3-2.7,0.5
			c0.7-2.3,0.5-5.9-3.1-6.9c2.3,3.3,1.6,7.1,0.3,7.4C148.5,329,146,321.8,149.8,320.8 M150.8,339.6c0.5-2.1,1.6-3.3,3.8-3.8
			c4.6-1.1,11.1-2.5,15.9-2.6c-0.4-0.4-1-0.7-1.7-0.9l-0.3-1.4c1.3,0.8,2.7,1.4,3.9,1.8c1.8,1.5,4,3,6.2,4.5
			c18,11.9,46.6,19,69.7,19c7.3,0,14.2-0.4,20.5-1.1c1.2,0.1,2.6,0.1,3.9-0.1c0.1,0.4,0.2,0.7,0.3,1.1c-0.8,0.3-1.8,0.6-2.8,0.9
			c-7.6,1.1-14.7,1.6-21.2,1.6c-9.8,0-18.9-1.1-27.1-2.6c-17-3-30.2-8.4-40.6-14.6c-2.6-1.6-5.6-4.5-9.4-6.4
			c-0.2-0.1-0.5-0.3-0.7-0.4c5.4,8.2,9.3,28.5,6.2,39.1c-0.4,1.6-1.5,3.1-4.1,3.6c-1.6,0.3-6.8,1.6-9.4,1.8c-0.3,0-0.7,0.1-1.1,0.1
			c0.8-0.4,1.5-1.1,2.1-2.3c3-5.9,2.2-13.3,0.6-20c-1.1-4.6-1.1-7.3-2.4-11c-1.9-5.1-4.5-9.4-6.9-9.4c-2.5,0.1-3.9,2.7-3.8,4.1
			c0,0,2.2-4.9,5.3-1.1c1.8,2.3,4.6,8.6,5.7,17.9c0.6,5.3,1.1,12-0.6,17.7c-0.9,3-3.1,3.4-4.6,2.3
			C152.3,373.1,147.9,352.7,150.8,339.6 M161.7,382.2c1,0,2.1-0.1,3.2-0.3c0.2,0,0.4-0.1,0.7-0.1c2,0.6,3.5,1.5,4.9,2.5
			c2.5,1.8,4.4,2.5,8.1,3.7l-0.6,1.4c-2.5-1.1-4-1-5.8-1.7c-4.3-1.8-6.2-2.9-10.3-5.2c2.1,3.7,4.8,5.4,9.7,7.4
			c2.2,0.9,2.8,2.3,4.9,3l-0.6,1.3c-2.6-1-5.1-1.9-7.5-3c-2.8-1.3-4.7-2.4-7.2-3.8c0,0-0.7,2.6,5.6,5.4c3.2,1.5,6.1,2.9,8.2,3.8
			l-0.7,1.7c-2.8-1-5.7-2-8-3.1c-2.9-1.3-4.4-2.3-7.1-3.7c0,0,0.7,3,6.1,5.4c2.5,1.1,5.4,2.4,8.1,3.5l-0.9,2.2
			c-2.2-0.8-4.2-1.6-6.6-2.7c-3.4-1.5-4.8-2.6-7.9-4.2c0,0-1,3.2,6.9,6c2.4,0.9,4.3,1.9,6.8,2.9l-0.9,2.1c-2.3-1-4.6-2-6.9-3
			c-3.1-1.4-4.8-2.6-7.7-4.1c0,0,0.4,2.6,6.7,6c2.3,1.2,4.7,2.2,7.1,3.1l-1,2.5c-2.1-0.8-4.2-1.9-6-2.8c-3.3-1.7-5.1-2.6-8.2-4.3
			c0,0-1.3,2,7.5,6.5c1.8,0.9,4.1,1.9,5.7,2.9l-0.9,2c-1.8-0.9-3.7-1.9-5.4-2.8c-3.3-1.8-5.4-2.8-8.6-4.7c0,0,1.7,3.1,7.3,6.5
			c1.9,1.1,3.9,2,5.9,2.8l-0.9,2c-1.8-0.8-3.6-1.4-5.1-2.3c-3.5-1.9-5.6-2.9-8.8-4.9c0,0-1.6,1.6,7.7,6.6c1.8,1,3.6,1.9,5.4,2.8
			l-0.9,2.2c-2.1-1-4.3-2.1-6.2-3.2c-3.4-1.8-4.5-2.5-7.7-4.4c0,0,1.4,2.8,2,3.4c0.6,0.6,1.2,1.1,4.4,2.8c2.2,1.2,4.4,2.3,6.6,3.4
			l-0.9,2.1c-1.8-0.8-3.5-1.6-5.1-2.4c-3.6-1.9-5-2.8-8.4-4.8c0,0-1,1.5,7.1,6.3c1.6,1,3.7,1.9,5.6,2.8l-0.9,2.1
			c-1.5-0.7-3-1.3-4.5-2.1c-3.7-2-5.3-3-8.8-5.1c0,0-2.8,1.5,7.6,6.7c1.7,0.8,3.2,1.8,4.7,2.6l-0.7,1.7c-5-2.3-9.7-4.9-14.2-7.7
			C146,423.6,159.9,386.8,161.7,382.2 M129.9,421.2c37.8,29.1,92.8,40.6,150.4,34.7c0.4,2.8,0.9,5.5,1.5,8.1
			c-1.4,0.2-2.8,0.3-4.1,0.5l-0.7-3.3l-1.7,0.2l0.6,3.3c-3.8,0.4-7.6,0.6-11.3,0.8l-0.3-1.9l-1.6,0.2l0.2,1.8
			c-3.9,0.2-7.7,0.3-11.6,0.3l-0.3-3.1l-1.6,0.1l0.2,3c-3.9,0-7.7-0.1-11.5-0.3l0-1.5l-1.7-0.1l0,1.5c-3.8-0.2-7.6-0.5-11.4-0.9
			l0.1-3l-1.9-0.1l-0.1,2.9c-3.7-0.4-7.4-0.9-11-1.5l0.2-1.8l-1.7-0.3l-0.2,1.8c-3.8-0.7-7.6-1.4-11.3-2.2l0.5-3.3l-1.7-0.4
			l-0.5,3.4c-3.8-0.9-7.5-1.9-11.2-2.9l0.4-1.9l-1.6-0.4l-0.4,1.8c-3.7-1.1-7.4-2.3-11.1-3.7l0.9-3.2c3.8,1.4,7.6,2.5,11,3.2
			c0.4,0.1-5.1-2.5-13.6-5.8c-14.4-5.6-27.8-12.3-39.5-20.9l-1.5-1.1c-0.3,0.8,0.6,2.8,3,4.6c3.9,2.9,8.8,6.2,14.5,9.1l-0.9,2.3
			c-3.5-1.9-6.9-3.9-10.1-6l0.6-1.5l-1.5-1l-0.6,1.5c-3.2-2.1-6.3-4.4-9.3-6.7C127.7,424.3,128.9,422.1,129.9,421.2 M119.2,445
			c0.3-0.6,0.5-1.2,0.8-1.9c12,9.2,26.3,17.8,41.8,23.1c8.8,3,19.3,6.5,29.4,9.3c17.1,4.8,38.9,6.6,60,6.6c5.5,0,11.2-0.4,16.9-0.6
			c1.4-0.1,6.8-0.4,8.2-0.5c3.6-0.3,6.2-0.5,9.4-1c0.1,0.7,0.3,1.5,0.4,2.2C222.2,490.1,161,477.5,119.2,445 M275.6,486.6
			c0.4,0,0.7,0.1,1.1,0c3.8-0.3,6.5-0.5,9.8-1c0.2,1.4,0.3,2.8,0.5,4.3c-3.2,0.8-5.8,1.3-7.5,1.6
			C278.5,489.5,277.2,487.8,275.6,486.6 M336.8,491.3c0.8,0.8,1,1.9,1.1,2.6c-2.8,0-6,0.4-9.1,1c-3.4,0.7-6,1.4-8,2.1
			c0.3-2.3,6.1-3.5,14.2-5.3c-6.3-0.3-12,1-14.6,2.4c-0.5-0.3-1.1-0.7-1.7-1.1c6.5-1.8,13.2-3.7,19.9-5.5
			C338.4,488.7,337.7,490.2,336.8,491.3 M282.3,499.2c-0.1-0.3-0.1-0.6-0.2-0.9c9.8-2.5,54.8-14.2,66.3-17.5
			c0.1,0.1,0.2,0.1,0.3,0.2c0.3,0.2,0.7,0.5,1.1,0.7C324.5,488.5,292.5,497.3,282.3,499.2 M376.8,469c0,0-0.1-0.7,0.4-1.7
			c1.3-2.7,4.6-1.6,5.9,3c1.6,5.8-0.7,7.7-3,6.2c0,0,0,0,0.1,0c1.2-0.4,2-2.6,1.3-4.7c-0.5-1.5-1.6-2.6-2.8-2.9
			c2.1,2.2,1.9,5.2,0.1,5.7c-1.9,0.4-4.5,1.2-7.4,1.9c0.3-0.4,0.5-0.8,0.7-1.3c2.2-0.4,6.1-1.8,6.8-3.2c-0.5,0.2-3.7,0.8-6,1.4
			c0.5-1.2,0.8-2.4,1-3.5C375.6,469.3,376.5,469,376.8,469 M372.5,459.6c-0.1-0.2-0.2-0.3-0.3-0.5c4-2.6,10.3-6.6,16.2-8.9
			c5.7-2.2,10.8-6,15.5-9c0.3,0.8,0.5,1.6,0.7,2.4C394,449.8,383.7,454.9,372.5,459.6 M396.3,427.5c-2.9,1.6-6.5,3.5-10.4,5.5
			l-0.9-1.4l-1.4,0.7l0.9,1.4c-3.4,1.7-6.9,3.4-10.5,5.1l-1.7-2.8l-1.4,0.7l1.6,2.8c-3.7,1.7-7.3,3.3-10.6,4.7l-0.7-1.4l-1.5,0.6
			l0.7,1.5c-1.4,0.6-2.8,1.1-4.1,1.6c-0.6-0.3-1.1-0.6-1.6-0.8c1.9-1.2,4.9-2.7,3.7-2.5c-1.8,0.4-3.4,0.6-6.8,1.4
			c-0.6-0.1-1.2-0.3-1.8-0.3c2.7-1.4,6.5-3.4,5.4-3.3c-1.3,0.1-3.1,0.6-6.3,1.4c0.3-0.5,0.6-1.1,0.7-1.7c14.8-5.2,29.2-11.6,43-19.3
			C393.9,423.6,395.1,425.6,396.3,427.5 M352.7,436.9l-35-74.1c0.4-0.3,0.8-0.5,1.2-0.7c0.6-0.2,7.3-2.5,14.3-6.3
			c0.1-0.1,0.3-0.2,0.4-0.3c0.4,0.8,0.8,1.7,1.2,2.5c-5.4,2.5-9.4,4.1-15.2,6.1c0,0,1.8,1.6,5,0.6c5.5-1.7,9.2-3.6,11-4.9
			c0.5,1,1,2.1,1.5,3.1c-5.8,2.3-9.6,3.9-15.4,5.7c0,0,2.2,1.6,6.3,0.3c4.4-1.4,7.1-3,9.8-4.6c0.4,0.8,0.7,1.5,1.1,2.3
			c-5.4,3-9.2,4.4-15.3,6.5c0,0,1.2,2,5.8,0.4c4.2-1.5,7.7-3,10.7-4.3c0.4,0.7,0.7,1.5,1.1,2.2c-0.1,0-0.2,0.1-0.4,0.1
			c-5.6,2.3-9.8,3.6-15.2,5.5c0,0,3,1.2,5.8,0.4c5-1.5,8.1-3.3,10-4.2c0.2-0.1,0.4-0.2,0.6-0.3c0.4,0.8,0.8,1.7,1.2,2.5
			c-5.9,2.6-9.8,4-15.4,5.9c0,0,2.4,1.6,5.4,0.8c5.2-1.5,9-3.6,10.8-4.9c0.4,0.9,0.9,1.8,1.3,2.8c0,0,0,0,0,0
			c-6,2.4-9.7,3.9-15.7,5.8c0,0,1.1,1.8,5.8,0.4c4.3-1.4,7.8-3.2,10.7-4.7c0.4,0.8,0.8,1.6,1.1,2.4c-4.9,2.6-9.4,3.9-15.4,5.9
			c0,0,1.7,1.8,6.3,0.5c4-1.2,7.4-2.7,10.3-3.9c0.4,0.8,0.7,1.5,1.1,2.3c-5.8,2-10.1,3.5-15.7,5.4c0,0,3.8,1,5.9,0.4
			c5.8-1.5,8.9-3.2,10.6-4.1c0.4,0.9,0.9,1.9,1.3,2.8c-4.4,1.8-9.6,3.5-15.8,5.3c0,0,0.9,2.1,6.1,0.7c5.1-1.3,8.6-3,10.6-4.1
			c0.4,0.9,0.8,1.7,1.2,2.6c-6,2.1-9.5,4-15.9,5c0,0,1,2.5,5.5,1.3c4.7-1.3,8.5-2.9,11.4-4.3c0.3,0.7,0.7,1.4,1,2.1
			c-5.1,2.2-9.4,3.8-15.8,5.6c0,0,2.1,1.4,4.2,1c3.8-0.7,9-2.5,12.8-4c0.3,0.6,0.5,1.1,0.8,1.6c-5.5,2.4-9.6,3.8-15.6,5.6
			c0,0,1.6,1.8,4.9,0.9c5.2-1.4,9.8-2.8,11.9-4c0.3,0.7,0.6,1.4,1,2c0,0-0.1,0-0.1,0c-5.9,2.2-10.1,3.8-16,5.5c0,0,2.5,1.5,6.6,0.3
			c4.6-1.3,7.3-2.9,10.2-4.4c0.4,0.8,0.7,1.5,1.1,2.3c-5.6,2.6-9.4,3.8-15.8,5.8c0,0,0.5,1.7,5.4,0.6c4.6-1,8.5-2.6,11.6-3.8
			c0.4,0.8,0.7,1.5,1.1,2.3c-0.2,0-0.4,0.1-0.6,0.2c-5.7,2.1-9.9,3.2-15.4,5c0,0,3,1.3,5.8,0.6c5-1.4,8.2-3,10.1-3.9
			c0.3-0.1,0.6-0.3,0.8-0.4c0.3,0.7,0.7,1.4,1,2c-6.1,2.4-10.1,3.8-15.8,5.4c0,0,3.6,1.5,5.7,0.9c5.4-1.4,9.1-3.4,10.9-4.7
			c0,0,0,0,0,0c0.4,0.9,0.8,1.7,1.2,2.4c-5.4,2.2-10.4,3.9-15.7,5.9c0,0,3,1.2,5.8,0.3c5-1.6,8.4-3.1,10.3-4.1
			c0.2-0.1,0.3-0.2,0.5-0.3c0.4,0.8,0.6,1.3,0.8,1.7C364.1,432.7,358.6,435,352.7,436.9 M333.7,280.2l-9.6,0.9
			c0.2-0.4,0.4-0.8,0.6-1.2c9.7-0.8,8.4-0.9,10.9-1C335,279.7,334.3,280.1,333.7,280.2 M407.9,270.1c-12.9,1.2-21.1,1.8-33,2.9
			c-13.8,1.2-21.9,1.5-34,2.9c0.1-0.3,0.2-0.7,0.3-1c4.3-0.5,16.6-2.1,31.1-3c14.2-0.9,27.2-2,38.1-3.2
			C409.7,269.3,408.9,269.8,407.9,270.1 M412.6,271.6c-0.7,0-1.3-0.3-2-0.8c0.6-0.1,0.9-0.3,1.3-0.6c4.2-3.1,2.8-17.1-1.1-21.5
			c-0.1,0.5,0.6,3.2,1.2,6.6c-15.2,0.2-24.9,1.1-35.6,2.2c-14.1,1.4-22.3,1.1-35,2.6c0,0,0,0,0,0c-0.1-0.5-0.2-1.1-0.3-1.6
			c4.4-0.4,15.8-1.4,29.7-2.3c14.5-0.9,15.7-1.5,22-1.9c7.9-0.4,9.5-1.8,9.5-1.8c-8.5-0.1-15.4,1.3-26.6,1.9
			c-13.5,0.6-22.4,2-35.1,2.4c-0.1-0.5-0.3-1-0.4-1.5c18.9-1.4,14-1.2,29.2-2.2c0,0,32-1.7,37.9-3.7c-1.6-0.4-19,1-31.4,1.6
			c-13.4,0.7-18.3,1.6-36.3,2.7c-0.2-0.4-0.3-0.8-0.5-1.2c6.8-0.4,66.1-5.1,66.3-5.1l2.3-0.2c0.7-1.6,1.6-2.6,2.7-2.7
			c2.9-0.2,5.4,6,6.2,13.7C417.5,265.6,415.5,271.4,412.6,271.6 M419.7,264.2c3.7-0.3,14.5-1.3,20.4-1.9c2-0.2,10.2-1.2,17.7-1.1
			c-0.1,0.3-0.2,0.6-0.3,0.9c-7.1,0.6-32.2,2.9-37.9,3.5C419.6,265.1,419.7,264.6,419.7,264.2 M458.3,255.7c0,0.9,0,1.8-0.1,2.6
			c-5.7,0.5-32.8,2.7-38.4,3.2c0-0.5,0-1.1,0-1.6c3.4-0.2,14.8-0.9,20.9-1.5C442.6,258.2,456.6,257.5,458.3,255.7 M452.9,266.2
			c0,0-28.3,2.6-34.5,3.2c0.2-0.4,0.3-0.8,0.4-1.2c3.4-0.2,16.4-1.1,18.4-1.9c1.1-0.4,11.6-0.7,17.8-1.2
			C454.5,265.8,453.8,266.1,452.9,266.2 M458,268.3c-0.5,0-1-0.1-1.5-0.5c0.2-0.1,0.3-0.2,0.5-0.4c4.5-3.3,4.6-19.8-2.5-23.9
			c0.8,4.2,3.4,5.9,3.7,11.7c-7.5,0.1-33.5,2.1-38.7,2.6c0-0.1,0-0.1,0-0.2c0-0.3-0.1-0.6-0.1-1c3.8-0.6,13-1.9,18.6-1.9
			c2.6,0,14.7-1.1,17.3-2.7c-3.3-0.2-29.3,1.5-36.3,2.1c-0.1-0.6-0.2-1.2-0.3-1.8c11.5-0.6,11.7-0.9,18.1-1.5
			c4.5-0.5,12.8-0.4,13.7-1.6c-4-0.3-27,1.2-32.2,1.6c-0.2-0.5-0.4-1.1-0.6-1.6c1.7-0.1,10.5-0.4,16.9-1.1
			c4.5-0.5,17.2-1.3,18.1-2.5c-4.6-0.8-33.7,1.8-35.5,2.1l0,0.4c-0.2-0.4-0.4-0.9-0.6-1.3c-0.1-0.2-0.2-0.4-0.3-0.6
			c6.4-0.5,36.1-2.9,36.1-2.9c0.7-1.6,2.2-2.5,3.3-2.6c2.9-0.2,5.6,5.8,6.4,13.5C463.1,262,460.9,268.1,458,268.3"/>
		<path d="M338.2,436.8c1.2,0.3,2.4,1.4,2.5,2.1c0.1,0.5-0.1,0.9-0.4,1.3c-0.4-1.4-2-2.4-5-2.5c-0.7,0-1.8,0-2.5,0
			c-3.9,0.3-7,1.4-7,3.1c0,1.2,2.2,2.1,4.4,1.9c-1.4-0.4-2-1-2-1.4c0-1.1,1.5-1.8,4.7-2.1c3-0.2,4.8,0.7,5,1.3
			c0.2,0.7,0,1.4-3.3,2.3c-0.7,0.2-1.4,0.3-2.1,0.4c-4.7,0.8-8.6-0.2-9-1.9c-0.3-1.4,0.9-3.3,6.1-4.3c2.7-0.5,5-0.8,7.2-1.2
			c-3.2-0.7-7.5-0.3-9.9,0.5c-5.4,1.6-6.8,3.7-6.5,5.4c0.5,2.5,3.7,3.5,8.7,3.4c1.1,0,2.2-0.1,3.4-0.3c5.6-1,11.8-3.2,10.9-6.4
			C342.9,437.2,340.6,436.2,338.2,436.8"/>
		<path d="M355.3,465.4c-1.4,1.9-0.8,4.2-0.1,5.4c1,1.5,4.1,2,5.2,0.4c-1.2,0.3-2.1,0.1-2.8-0.4c-0.4-0.3-0.7-0.6-0.9-1.1
			c1,0.4,2,0.4,2.5,0.2c1.4-0.5,2.4-2.5,1.7-4.1c0.1,0,0.1,0.1,0.2,0.1c0.8,0.6,1.4,1.7,1.2,3.2c1.3-1.1,0.9-3.8-0.3-4.7
			C360,462.7,357,463.2,355.3,465.4 M358.9,468.1c-0.5,0.3-1.4,0.8-2.4,0.1c0-0.5,0.2-1,0.5-1.5c0.6-0.8,1.5-1.2,2.4-1.3
			C359.8,466.4,359.8,467.4,358.9,468.1"/>
		<path d="M363.7,457.5c-6.8-3.3-13.3,0.3-15.5,4.9c-3.5,7.2-0.1,14.7,5.9,16.3c6.2,1.6,10.8-0.8,13.9-5.8
			C370,469.4,370.5,460.8,363.7,457.5 M366.8,471.9c-2.6,4.2-6.5,6.2-11.7,4.9c-5.1-1.3-8-7.3-5-13.4c1.9-3.9,7.4-7.3,13.1-4.5
			C368.9,461.8,368.5,469.1,366.8,471.9"/>
		<path d="M362.4,460.6c-4.8-2.3-9.3,0.5-10.9,3.7c-2.5,5-0.1,10,4.1,11.1c4.4,1.1,7.4-0.7,9.5-4.2
			C366.6,468.9,367.1,463,362.4,460.6 M364.1,470.4c-1.7,2.7-4,4.1-7.3,3.2c-3.3-0.8-5.1-4.7-3.2-8.5c1.2-2.5,4.7-4.6,8.4-2.9
			C365.6,464,365.2,468.6,364.1,470.4"/>
		<path d="M284.8,459c2.3,8.6,4.7,19.8,6.9,23.9c0.8-1-2.4-14.7-6.4-29.7C285.4,453.2,283.6,454.4,284.8,459"/>
	</g>
</g>
<g id="Graph">
	<path fill="#FFED00" d="M467.2,511c3.6,0,6.5-2.9,6.5-6.5c0-3.6-2.9-6.5-6.5-6.5c-3.6,0-6.5,2.9-6.5,6.5
		C460.7,508.1,463.6,511,467.2,511"/>
	<path fill="#FFED00" d="M73.7,514.6c3.6,0,6.5-2.9,6.5-6.5c0-3.6-2.9-6.5-6.5-6.5c-3.6,0-6.5,2.9-6.5,6.5
		C67.2,511.7,70.1,514.6,73.7,514.6"/>
	<path fill="#FFED00" d="M141.4,548.3c3.6,0,6.5-2.9,6.5-6.5c0-3.6-2.9-6.5-6.5-6.5s-6.5,2.9-6.5,6.5
		C134.8,545.4,137.8,548.3,141.4,548.3"/>
	<path fill="#FFED00" d="M226.3,567.3c3.6,0,6.5-2.9,6.5-6.5c0-3.6-2.9-6.5-6.5-6.5c-3.6,0-6.5,2.9-6.5,6.5
		C219.8,564.4,222.7,567.3,226.3,567.3"/>
	<path fill="#FFED00" d="M319.7,565.3c3.6,0,6.5-2.9,6.5-6.5c0-3.6-2.9-6.5-6.5-6.5s-6.5,2.9-6.5,6.5
		C313.2,562.4,316.1,565.3,319.7,565.3"/>
	<path fill="#FFED00" d="M400.1,545.1c3.6,0,6.5-2.9,6.5-6.5c0-3.6-2.9-6.5-6.5-6.5s-6.5,2.9-6.5,6.5
		C393.5,542.2,396.5,545.1,400.1,545.1"/>
	<g>
		<path fill="#FFED00" d="M267.7,562.9c-65.2,0-129.3-17.1-185.5-49.3l0.5-0.8c56.1,32.2,120,49.2,185.1,49.2
			c67.6,0,133.7-18.3,191.3-52.9l0.5,0.8C401.7,544.6,335.4,562.9,267.7,562.9z"/>
	</g>
</g>
<g id="Texte">
	<g>
		<path fill="#FFFFFF" d="M420.2,492v-8.8h6.5v0.3h-6.2v3.8h5.3v0.3h-5.3v4.2h6.2v0.3H420.2z M423.5,482.1h-0.3l1.1-1.6h0.3
			L423.5,482.1z"/>
		<path fill="#FFFFFF" d="M435.9,483.3l-3.7,4.4l3.7,4.3v0h-0.3l-3.6-4.2l-3.6,4.2h-0.3v0l3.7-4.3l-3.7-4.4v0h0.3l3.6,4.2l3.6-4.2
			L435.9,483.3L435.9,483.3z"/>
		<path fill="#FFFFFF" d="M438,492v-8.8h6.5v0.3h-6.2v3.8h5.3v0.3h-5.3v4.2h6.2v0.3H438z M441.3,482.1h-0.3l1.1-1.6h0.3L441.3,482.1
			z"/>
		<path fill="#FFFFFF" d="M454.3,490.7c-0.8,0.7-2.1,1.4-3.6,1.4c-2.6,0-4.4-1.7-4.4-4.5c0-2.9,1.8-4.5,4.4-4.5
			c2.2,0,3.5,1.3,3.6,3.3l-0.2,0c-0.1-1.9-1.2-3.1-3.3-3.1c-2.5,0-4.1,1.6-4.1,4.3c0,2.7,1.7,4.2,4.1,4.2c1.3,0,2.7-0.7,3.4-1.4
			L454.3,490.7z"/>
		<path fill="#FFFFFF" d="M456.9,488.6c0,2,1,3.4,3.3,3.4c2.3,0,3.4-1.5,3.4-3.4v-5.3h0.3v5.3c0,1.9-1.2,3.6-3.6,3.6
			c-2.4,0-3.6-1.5-3.6-3.6v-5.3h0.3V488.6z"/>
		<path fill="#FFFFFF" d="M469.5,483.5v8.5h-0.3v-8.5h-3.7v-0.3h7.5v0.3H469.5z"/>
		<path fill="#FFFFFF" d="M474.9,492v-8.8h6.5v0.3h-6.2v3.8h5.3v0.3h-5.3v4.2h6.2v0.3H474.9z"/>
		<path fill="#FFFFFF" d="M483.9,483.3h3.7c1.5,0,2.8,0.9,2.8,2.7c0,1.7-1.4,2.7-2.8,2.7H487c0.9,0.8,2.2,3.3,3.7,3.3
			c0.4,0,0.9-0.2,1.2-0.3l0.1,0.3c-0.4,0.2-0.8,0.3-1.3,0.3c-1.9,0-3.3-3-4.2-3.5h-2.4v3.4h-0.3V483.3z M484.2,483.5v4.9h3.5
			c1.3,0,2.6-0.9,2.6-2.4c0-1.7-1.2-2.5-2.6-2.5H484.2z"/>
	</g>
	<g>
		<path fill="#FFFFFF" d="M406.7,560.7c-0.8,0.7-2.1,1.4-3.6,1.4c-2.6,0-4.4-1.7-4.4-4.5c0-2.9,1.8-4.5,4.4-4.5
			c2.2,0,3.5,1.3,3.6,3.3l-0.2,0c-0.1-1.9-1.2-3.1-3.3-3.1c-2.5,0-4.1,1.6-4.1,4.3c0,2.7,1.7,4.2,4.1,4.2c1.3,0,2.7-0.7,3.4-1.4
			L406.7,560.7z"/>
		<path fill="#FFFFFF" d="M409.2,553.2h3.7c1.5,0,2.8,0.9,2.8,2.7c0,1.7-1.4,2.7-2.8,2.7h-0.6c0.9,0.8,2.2,3.3,3.7,3.3
			c0.4,0,0.9-0.2,1.2-0.3l0.1,0.3c-0.4,0.2-0.8,0.3-1.3,0.3c-1.9,0-3.3-3-4.2-3.5h-2.4v3.4h-0.3V553.2z M409.5,553.4v4.9h3.5
			c1.3,0,2.6-0.9,2.6-2.4c0-1.7-1.2-2.5-2.6-2.5H409.5z"/>
		<path fill="#FFFFFF" d="M418.9,561.9v-8.8h6.5v0.3h-6.2v3.8h5.3v0.3h-5.3v4.2h6.2v0.3H418.9z M422.2,552h-0.3l1.1-1.6h0.3
			L422.2,552z"/>
		<path fill="#FFFFFF" d="M428,561.9v-8.8h6.5v0.3h-6.2v3.8h5.3v0.3h-5.3v4.2h6.2v0.3H428z"/>
		<path fill="#FFFFFF" d="M437.1,553.2h3.7c1.5,0,2.8,0.9,2.8,2.7c0,1.7-1.4,2.7-2.8,2.7h-0.6c0.9,0.8,2.2,3.3,3.7,3.3
			c0.4,0,0.9-0.2,1.2-0.3l0.1,0.3c-0.4,0.2-0.8,0.3-1.3,0.3c-1.9,0-3.3-3-4.2-3.5h-2.4v3.4h-0.3V553.2z M437.3,553.4v4.9h3.5
			c1.3,0,2.6-0.9,2.6-2.4c0-1.7-1.2-2.5-2.6-2.5H437.3z"/>
	</g>
	<g>
		<path fill="#FFFFFF" d="M17,479.6c-0.8,0.7-2.1,1.4-3.6,1.4c-2.6,0-4.4-1.7-4.4-4.5c0-2.9,1.8-4.5,4.4-4.5c2.2,0,3.5,1.3,3.6,3.3
			l-0.2,0c-0.1-1.9-1.2-3.1-3.3-3.1c-2.5,0-4.1,1.6-4.1,4.3c0,2.7,1.7,4.2,4.1,4.2c1.3,0,2.7-0.7,3.4-1.4L17,479.6z"/>
		<path fill="#FFFFFF" d="M23.4,472c2.6,0,4.5,1.9,4.5,4.5c0,2.6-1.9,4.5-4.5,4.5c-2.6,0-4.5-1.9-4.5-4.5
			C18.8,474,20.8,472,23.4,472z M23.4,480.8c2.5,0,4.3-1.8,4.3-4.2c0-2.5-1.8-4.3-4.3-4.3c-2.4,0-4.2,1.8-4.2,4.3
			C19.1,479,20.9,480.8,23.4,480.8z"/>
		<path fill="#FFFFFF" d="M39.1,472.6l-4.2,5.1h-0.1l-4.2-5.1v8.3h-0.3v-8.8h0.3l4.3,5.2l4.3-5.2h0.3v8.8h-0.3V472.6z"/>
		<path fill="#FFFFFF" d="M42.5,472.1H46c1.6,0,3,0.9,3,3c0,1.8-1.4,2.9-3,2.9h-3.2v2.8h-0.3V472.1z M42.8,472.4v5.4H46
			c1.5,0,2.7-1,2.7-2.7c0-1.9-1.2-2.7-2.7-2.7H42.8z"/>
		<path fill="#FFFFFF" d="M51.2,472.1H55c1.5,0,2.8,0.9,2.8,2.7c0,1.7-1.4,2.7-2.8,2.7h-0.6c0.9,0.8,2.2,3.3,3.7,3.3
			c0.4,0,0.9-0.2,1.2-0.3l0.1,0.3c-0.4,0.2-0.8,0.3-1.3,0.3c-1.9,0-3.3-3-4.2-3.5h-2.4v3.4h-0.3V472.1z M51.5,472.4v4.9H55
			c1.3,0,2.6-0.9,2.6-2.4c0-1.7-1.2-2.5-2.6-2.5H51.5z"/>
		<path fill="#FFFFFF" d="M61,480.9v-8.8h6.5v0.3h-6.2v3.8h5.3v0.3h-5.3v4.2h6.2v0.3H61z"/>
		<path fill="#FFFFFF" d="M70.3,472.6v8.4h-0.3v-8.8h0.3l7.1,8.4v-8.4h0.3v8.8h-0.3L70.3,472.6z"/>
		<path fill="#FFFFFF" d="M80.8,472.1h3.1c2.6,0,4.5,1.5,4.5,4.4c0,2.8-1.9,4.4-4.5,4.4h-3.1V472.1z M81.1,472.4v8.3h2.8
			c2.5,0,4.3-1.4,4.3-4.1c0-2.7-1.8-4.1-4.3-4.1H81.1z"/>
		<path fill="#FFFFFF" d="M90.9,472.1h3.7c1.5,0,2.8,0.9,2.8,2.7c0,1.7-1.4,2.7-2.8,2.7H94c0.9,0.8,2.2,3.3,3.7,3.3
			c0.4,0,0.9-0.2,1.2-0.3l0.1,0.3c-0.4,0.2-0.8,0.3-1.3,0.3c-1.9,0-3.3-3-4.2-3.5h-2.4v3.4h-0.3V472.1z M91.2,472.4v4.9h3.5
			c1.3,0,2.6-0.9,2.6-2.4c0-1.7-1.2-2.5-2.6-2.5H91.2z"/>
		<path fill="#FFFFFF" d="M100.7,480.9v-8.8h6.5v0.3h-6.2v3.8h5.3v0.3h-5.3v4.2h6.2v0.3H100.7z"/>
		<path fill="#FFFFFF" d="M113,480.9v-8.8h0.3v8.5h5.4v0.3H113z"/>
		<path fill="#FFFFFF" d="M120.5,480.9v-8.8h6.5v0.3h-6.2v3.8h5.3v0.3h-5.3v4.2h6.2v0.3H120.5z"/>
		<path fill="#FFFFFF" d="M130.8,476.3c-1.1-0.3-1.9-0.9-1.9-1.9c0-1.2,1.1-2.3,3.3-2.3c1.1,0,2.3,0.3,2.9,0.7L135,473
			c-0.6-0.3-1.8-0.7-2.8-0.7c-2.1,0-3.1,1-3.1,2.1c0,0.9,0.6,1.4,1.7,1.7l2,0.5c1.5,0.3,2.4,0.9,2.4,2.1c0,1.5-1.4,2.5-3.4,2.5
			c-1.2,0-2.3-0.4-2.9-0.8l0.1-0.2c0.5,0.3,1.6,0.8,2.8,0.8c1.8,0,3.1-0.8,3.1-2.2c0-1-0.7-1.5-2.2-1.8L130.8,476.3z"/>
	</g>
	<g>
		<path fill="#FFFFFF" d="M17.2,493c-0.8,0.7-2.1,1.4-3.6,1.4c-2.6,0-4.4-1.7-4.4-4.5c0-2.9,1.8-4.5,4.4-4.5c2.2,0,3.5,1.3,3.6,3.3
			l-0.2,0c-0.1-1.9-1.2-3.1-3.3-3.1c-2.5,0-4.1,1.6-4.1,4.3c0,2.7,1.7,4.2,4.1,4.2c1.3,0,2.7-0.7,3.4-1.4L17.2,493z"/>
		<path fill="#FFFFFF" d="M23.5,485.4c2.6,0,4.5,1.9,4.5,4.5c0,2.6-1.9,4.5-4.5,4.5c-2.6,0-4.5-1.9-4.5-4.5
			C19,487.3,21,485.4,23.5,485.4z M23.5,494.2c2.5,0,4.3-1.8,4.3-4.2c0-2.5-1.8-4.3-4.3-4.3c-2.4,0-4.2,1.8-4.2,4.3
			C19.3,492.4,21.1,494.2,23.5,494.2z"/>
		<path fill="#FFFFFF" d="M30.8,485.9v8.4h-0.3v-8.8h0.3l7.1,8.4v-8.4h0.3v8.8h-0.3L30.8,485.9z"/>
		<path fill="#FFFFFF" d="M42.6,489.7c-1.1-0.3-1.9-0.9-1.9-1.9c0-1.2,1.1-2.3,3.3-2.3c1.1,0,2.3,0.3,2.9,0.7l-0.1,0.3
			c-0.6-0.3-1.8-0.7-2.8-0.7c-2.1,0-3.1,1-3.1,2.1c0,0.9,0.6,1.4,1.7,1.7l2,0.5c1.5,0.3,2.4,0.9,2.4,2.1c0,1.5-1.4,2.5-3.4,2.5
			c-1.2,0-2.3-0.4-2.9-0.8l0.1-0.2c0.5,0.3,1.6,0.8,2.8,0.8c1.8,0,3.1-0.8,3.1-2.2c0-1-0.7-1.5-2.2-1.8L42.6,489.7z"/>
		<path fill="#FFFFFF" d="M53.4,485.4c2.6,0,4.5,1.9,4.5,4.5c0,2.6-1.9,4.5-4.5,4.5c-2.6,0-4.5-1.9-4.5-4.5
			C48.9,487.3,50.8,485.4,53.4,485.4z M53.4,494.2c2.5,0,4.3-1.8,4.3-4.2c0-2.5-1.8-4.3-4.3-4.3c-2.4,0-4.2,1.8-4.2,4.3
			C49.1,492.4,51,494.2,53.4,494.2z"/>
		<path fill="#FFFFFF" d="M69.2,486l-4.2,5.1h-0.1l-4.2-5.1v8.3h-0.3v-8.8h0.3l4.3,5.2l4.3-5.2h0.3v8.8h-0.3V486z"/>
		<path fill="#FFFFFF" d="M81.4,486l-4.2,5.1H77l-4.2-5.1v8.3h-0.3v-8.8h0.3l4.3,5.2l4.3-5.2h0.3v8.8h-0.3V486z"/>
		<path fill="#FFFFFF" d="M87.5,485.5h0.3l3.7,8.8h-0.3l-1-2.4h-5.3l-1.1,2.4h-0.3L87.5,485.5z M85,491.7H90l-2.5-5.8L85,491.7z"/>
		<path fill="#FFFFFF" d="M95.1,485.8v8.5h-0.3v-8.5h-3.7v-0.3h7.5v0.3H95.1z"/>
		<path fill="#FFFFFF" d="M100.4,494.3v-8.8h6.5v0.3h-6.2v3.8h5.3v0.3h-5.3v4.2h6.2v0.3H100.4z"/>
		<path fill="#FFFFFF" d="M109.6,490.8c0,2,1,3.4,3.3,3.4c2.3,0,3.4-1.5,3.4-3.4v-5.3h0.3v5.3c0,1.9-1.2,3.6-3.6,3.6
			c-2.4,0-3.6-1.5-3.6-3.6v-5.3h0.3V490.8z"/>
		<path fill="#FFFFFF" d="M119.6,485.5h3.7c1.5,0,2.8,0.9,2.8,2.7c0,1.7-1.4,2.7-2.8,2.7h-0.6c0.9,0.8,2.2,3.3,3.7,3.3
			c0.4,0,0.9-0.2,1.2-0.3l0.1,0.3c-0.4,0.2-0.8,0.3-1.3,0.3c-1.9,0-3.3-3-4.2-3.5h-2.4v3.4h-0.3V485.5z M119.8,485.8v4.9h3.5
			c1.3,0,2.6-0.9,2.6-2.4c0-1.7-1.2-2.5-2.6-2.5H119.8z"/>
		<path fill="#FFFFFF" d="M130.6,489.7c-1.1-0.3-1.9-0.9-1.9-1.9c0-1.2,1.1-2.3,3.3-2.3c1.1,0,2.3,0.3,2.9,0.7l-0.1,0.3
			c-0.6-0.3-1.8-0.7-2.8-0.7c-2.1,0-3.1,1-3.1,2.1c0,0.9,0.6,1.4,1.7,1.7l2,0.5c1.5,0.3,2.4,0.9,2.4,2.1c0,1.5-1.4,2.5-3.4,2.5
			c-1.2,0-2.3-0.4-2.9-0.8l0.1-0.2c0.5,0.3,1.6,0.8,2.8,0.8c1.8,0,3.1-0.8,3.1-2.2c0-1-0.7-1.5-2.2-1.8L130.6,489.7z"/>
	</g>
	<g>
		<path fill="#FFFFFF" d="M71.4,559.7h3.1c2.6,0,4.5,1.5,4.5,4.4c0,2.8-1.9,4.4-4.5,4.4h-3.1V559.7z M71.6,560v8.3h2.8
			c2.5,0,4.3-1.4,4.3-4.1c0-2.7-1.8-4.1-4.3-4.1H71.6z"/>
		<path fill="#FFFFFF" d="M81.5,568.5v-8.8H88v0.3h-6.2v3.8h5.3v0.3h-5.3v4.2H88v0.3H81.5z M84.8,558.5h-0.3l1.1-1.6h0.3L84.8,558.5
			z"/>
		<path fill="#FFFFFF" d="M97.9,567.2c-0.8,0.7-2.1,1.4-3.6,1.4c-2.6,0-4.4-1.7-4.4-4.5c0-2.9,1.8-4.5,4.4-4.5
			c2.2,0,3.5,1.3,3.6,3.3l-0.2,0c-0.1-1.9-1.2-3.1-3.3-3.1c-2.5,0-4.1,1.6-4.1,4.3c0,2.7,1.7,4.2,4.1,4.2c1.3,0,2.7-0.7,3.4-1.4
			L97.9,567.2z"/>
		<path fill="#FFFFFF" d="M104.2,559.6c2.6,0,4.5,1.9,4.5,4.5c0,2.6-1.9,4.5-4.5,4.5c-2.6,0-4.5-1.9-4.5-4.5
			C99.7,561.5,101.6,559.6,104.2,559.6z M104.2,568.3c2.5,0,4.3-1.8,4.3-4.2c0-2.5-1.8-4.3-4.3-4.3c-2.4,0-4.2,1.8-4.2,4.3
			C99.9,566.5,101.8,568.3,104.2,568.3z"/>
		<path fill="#FFFFFF" d="M111.2,559.7h3.1c2.6,0,4.5,1.5,4.5,4.4c0,2.8-1.9,4.4-4.5,4.4h-3.1V559.7z M111.5,560v8.3h2.8
			c2.5,0,4.3-1.4,4.3-4.1c0-2.7-1.8-4.1-4.3-4.1H111.5z"/>
		<path fill="#FFFFFF" d="M121.3,568.5v-8.8h6.5v0.3h-6.2v3.8h5.3v0.3h-5.3v4.2h6.2v0.3H121.3z"/>
		<path fill="#FFFFFF" d="M130.4,559.7h3.7c1.5,0,2.8,0.9,2.8,2.7c0,1.7-1.4,2.7-2.8,2.7h-0.6c0.9,0.8,2.2,3.3,3.7,3.3
			c0.4,0,0.9-0.2,1.2-0.3l0.1,0.3c-0.4,0.2-0.8,0.3-1.3,0.3c-1.9,0-3.3-3-4.2-3.5h-2.4v3.4h-0.3V559.7z M130.7,560v4.9h3.5
			c1.3,0,2.6-0.9,2.6-2.4c0-1.7-1.2-2.5-2.6-2.5H130.7z"/>
	</g>
	<g>
		<path fill="#FFFFFF" d="M39.9,581.8v-8.8h0.3v8.5h5.4v0.3H39.9z"/>
		<path fill="#FFFFFF" d="M46.1,573.9c-0.4,0-0.6-0.2-0.6-0.4c0-0.3,0.2-0.5,0.5-0.5c0.3,0,0.5,0.2,0.5,0.5c0,0.6-0.6,2.1-0.8,2.4
			l-0.2-0.1L46.1,573.9z"/>
		<path fill="#FFFFFF" d="M48.8,581.8v-8.8h6.5v0.3h-6.2v3.8h5.3v0.3h-5.3v4.2h6.2v0.3H48.8z"/>
		<path fill="#FFFFFF" d="M58.1,573.5v8.4h-0.3v-8.8h0.3l7.1,8.4v-8.4h0.3v8.8h-0.3L58.1,573.5z"/>
		<path fill="#FFFFFF" d="M71.5,581.8h-0.3l-3.7-8.8h0.3l3.6,8.5l3.8-8.5h0.3L71.5,581.8z"/>
		<path fill="#FFFFFF" d="M77.3,573.1h0.3v8.8h-0.3V573.1z"/>
		<path fill="#FFFFFF" d="M80.7,573.1h3.7c1.5,0,2.8,0.9,2.8,2.7c0,1.7-1.4,2.7-2.8,2.7h-0.6c0.9,0.8,2.2,3.3,3.7,3.3
			c0.4,0,0.9-0.2,1.2-0.3l0.1,0.3c-0.4,0.2-0.8,0.3-1.3,0.3c-1.9,0-3.3-3-4.2-3.5h-2.4v3.4h-0.3V573.1z M80.9,573.3v4.9h3.5
			c1.3,0,2.6-0.9,2.6-2.4c0-1.7-1.2-2.5-2.6-2.5H80.9z"/>
		<path fill="#FFFFFF" d="M94.1,572.9c2.6,0,4.5,1.9,4.5,4.5c0,2.6-1.9,4.5-4.5,4.5c-2.6,0-4.5-1.9-4.5-4.5
			C89.6,574.9,91.6,572.9,94.1,572.9z M94.1,581.7c2.5,0,4.3-1.8,4.3-4.2c0-2.5-1.8-4.3-4.3-4.3c-2.4,0-4.2,1.8-4.2,4.3
			C89.9,579.9,91.7,581.7,94.1,581.7z"/>
		<path fill="#FFFFFF" d="M101.4,573.5v8.4h-0.3v-8.8h0.3l7.1,8.4v-8.4h0.3v8.8h-0.3L101.4,573.5z"/>
		<path fill="#FFFFFF" d="M112.1,573.5v8.4h-0.3v-8.8h0.3l7.1,8.4v-8.4h0.3v8.8h-0.3L112.1,573.5z"/>
		<path fill="#FFFFFF" d="M122.6,581.8v-8.8h6.5v0.3h-6.2v3.8h5.3v0.3h-5.3v4.2h6.2v0.3H122.6z"/>
		<path fill="#FFFFFF" d="M140.5,573.5l-4.2,5.1h-0.1l-4.2-5.1v8.3h-0.3v-8.8h0.3l4.3,5.2l4.3-5.2h0.3v8.8h-0.3V573.5z"/>
		<path fill="#FFFFFF" d="M143.9,581.8v-8.8h6.5v0.3h-6.2v3.8h5.3v0.3h-5.3v4.2h6.2v0.3H143.9z"/>
		<path fill="#FFFFFF" d="M153.2,573.5v8.4h-0.3v-8.8h0.3l7.1,8.4v-8.4h0.3v8.8h-0.3L153.2,573.5z"/>
		<path fill="#FFFFFF" d="M166.4,573.3v8.5h-0.3v-8.5h-3.7v-0.3h7.5v0.3H166.4z"/>
	</g>
	<g>
		<path fill="#FFFFFF" d="M194.2,588.4h3.1c2.6,0,4.5,1.5,4.5,4.4c0,2.8-1.9,4.4-4.5,4.4h-3.1V588.4z M194.5,588.7v8.3h2.8
			c2.5,0,4.3-1.4,4.3-4.1c0-2.7-1.8-4.1-4.3-4.1H194.5z"/>
		<path fill="#FFFFFF" d="M204.4,597.2v-8.8h6.5v0.3h-6.2v3.8h5.3v0.3h-5.3v4.2h6.2v0.3H204.4z M207.6,587.3h-0.3l1.1-1.6h0.3
			L207.6,587.3z"/>
		<path fill="#FFFFFF" d="M213.7,593.2v4h-0.3v-8.8h6.2v0.3h-6v4.2h5.3v0.3H213.7z"/>
		<path fill="#FFFFFF" d="M221.7,588.4h0.3v8.8h-0.3V588.4z"/>
		<path fill="#FFFFFF" d="M225.3,588.9v8.4h-0.3v-8.8h0.3l7.1,8.4v-8.4h0.3v8.8h-0.3L225.3,588.9z"/>
		<path fill="#FFFFFF" d="M235.8,588.4h0.3v8.8h-0.3V588.4z"/>
		<path fill="#FFFFFF" d="M239.2,588.4h3.7c1.5,0,2.8,0.9,2.8,2.7c0,1.7-1.4,2.7-2.8,2.7h-0.6c0.9,0.8,2.2,3.3,3.7,3.3
			c0.4,0,0.9-0.2,1.2-0.3l0.1,0.3c-0.4,0.2-0.8,0.3-1.3,0.3c-1.9,0-3.3-3-4.2-3.5h-2.4v3.4h-0.3V588.4z M239.4,588.7v4.9h3.5
			c1.3,0,2.6-0.9,2.6-2.4c0-1.7-1.2-2.5-2.6-2.5H239.4z"/>
		<path fill="#FFFFFF" d="M252.2,597.2v-8.8h0.3v8.5h5.4v0.3H252.2z"/>
		<path fill="#FFFFFF" d="M262.4,588.4h0.3l3.7,8.8h-0.3l-1-2.4h-5.3l-1.1,2.4h-0.3L262.4,588.4z M259.9,594.6h5.1l-2.5-5.8
			L259.9,594.6z"/>
	</g>
	<g>
		<path fill="#FFFFFF" d="M185.8,601.8h3.5c1.6,0,3,0.9,3,3c0,1.8-1.4,2.9-3,2.9H186v2.8h-0.3V601.8z M186,602.1v5.4h3.2
			c1.5,0,2.7-1,2.7-2.7c0-1.9-1.2-2.7-2.7-2.7H186z"/>
		<path fill="#FFFFFF" d="M194.5,610.6v-8.8h0.3v8.5h5.4v0.3H194.5z"/>
		<path fill="#FFFFFF" d="M204.8,601.8h0.3l3.7,8.8h-0.3l-1-2.4h-5.3l-1.1,2.4h-0.3L204.8,601.8z M202.3,608h5.1l-2.5-5.8L202.3,608
			z"/>
		<path fill="#FFFFFF" d="M212.4,602.1v8.5h-0.3v-8.5h-3.7v-0.3h7.5v0.3H212.4z"/>
		<path fill="#FFFFFF" d="M217.7,610.6v-8.8h6.5v0.3H218v3.8h5.3v0.3H218v4.2h6.2v0.3H217.7z"/>
		<path fill="#FFFFFF" d="M227.1,606.6v4h-0.3v-8.8h6.2v0.3h-6v4.2h5.3v0.3H227.1z"/>
		<path fill="#FFFFFF" d="M238.8,601.7c2.6,0,4.5,1.9,4.5,4.5c0,2.6-1.9,4.5-4.5,4.5c-2.6,0-4.5-1.9-4.5-4.5
			C234.3,603.6,236.3,601.7,238.8,601.7z M238.8,610.5c2.5,0,4.3-1.8,4.3-4.2c0-2.5-1.8-4.3-4.3-4.3c-2.4,0-4.2,1.8-4.2,4.3
			C234.6,608.7,236.4,610.5,238.8,610.5z"/>
		<path fill="#FFFFFF" d="M245.9,601.8h3.7c1.5,0,2.8,0.9,2.8,2.7c0,1.7-1.4,2.7-2.8,2.7H249c0.9,0.8,2.2,3.3,3.7,3.3
			c0.4,0,0.9-0.2,1.2-0.3l0.1,0.3c-0.4,0.2-0.8,0.3-1.3,0.3c-1.9,0-3.3-3-4.2-3.5h-2.4v3.4h-0.3V601.8z M246.1,602.1v4.9h3.5
			c1.3,0,2.6-0.9,2.6-2.4c0-1.7-1.2-2.5-2.6-2.5H246.1z"/>
		<path fill="#FFFFFF" d="M264.4,602.3l-4.2,5.1h-0.1l-4.2-5.1v8.3h-0.3v-8.8h0.3l4.3,5.2l4.3-5.2h0.3v8.8h-0.3V602.3z"/>
		<path fill="#FFFFFF" d="M267.8,610.6v-8.8h6.5v0.3H268v3.8h5.3v0.3H268v4.2h6.2v0.3H267.8z"/>
	</g>
	<g>
		<path fill="#FFFFFF" d="M308.1,586.8c-0.8,0.7-2.1,1.4-3.6,1.4c-2.6,0-4.4-1.7-4.4-4.5c0-2.9,1.8-4.5,4.4-4.5
			c2.2,0,3.5,1.3,3.6,3.3l-0.2,0c-0.1-1.9-1.2-3.1-3.3-3.1c-2.5,0-4.1,1.6-4.1,4.3c0,2.7,1.7,4.2,4.1,4.2c1.3,0,2.7-0.7,3.4-1.4
			L308.1,586.8z"/>
		<path fill="#FFFFFF" d="M310.6,588.1v-8.8h0.3v8.5h5.4v0.3H310.6z"/>
		<path fill="#FFFFFF" d="M320.8,579.3h0.3l3.7,8.8h-0.3l-1-2.4h-5.3l-1.1,2.4h-0.3L320.8,579.3z M318.3,585.4h5.1l-2.5-5.8
			L318.3,585.4z"/>
		<path fill="#FFFFFF" d="M326.8,579.3h3.7c1.5,0,2.8,0.9,2.8,2.7c0,1.7-1.4,2.7-2.8,2.7h-0.6c0.9,0.8,2.2,3.3,3.7,3.3
			c0.4,0,0.9-0.2,1.2-0.3l0.1,0.3c-0.4,0.2-0.8,0.3-1.3,0.3c-1.9,0-3.3-3-4.2-3.5h-2.4v3.4h-0.3V579.3z M327.1,579.6v4.9h3.5
			c1.3,0,2.6-0.9,2.6-2.4c0-1.7-1.2-2.5-2.6-2.5H327.1z"/>
		<path fill="#FFFFFF" d="M336.5,579.3h0.3v8.8h-0.3V579.3z"/>
		<path fill="#FFFFFF" d="M340.2,584.1v4h-0.3v-8.8h6.2v0.3h-6v4.2h5.3v0.3H340.2z"/>
		<path fill="#FFFFFF" d="M348.2,579.3h0.3v8.8h-0.3V579.3z"/>
		<path fill="#FFFFFF" d="M351.6,588.1v-8.8h6.5v0.3h-6.2v3.8h5.3v0.3h-5.3v4.2h6.2v0.3H351.6z"/>
		<path fill="#FFFFFF" d="M360.6,579.3h3.7c1.5,0,2.8,0.9,2.8,2.7c0,1.7-1.4,2.7-2.8,2.7h-0.6c0.9,0.8,2.2,3.3,3.7,3.3
			c0.4,0,0.9-0.2,1.2-0.3l0.1,0.3c-0.4,0.2-0.8,0.3-1.3,0.3c-1.9,0-3.3-3-4.2-3.5h-2.4v3.4h-0.3V579.3z M360.9,579.6v4.9h3.5
			c1.3,0,2.6-0.9,2.6-2.4c0-1.7-1.2-2.5-2.6-2.5H360.9z"/>
	</g>
	<g>
		<path fill="#FFFFFF" d="M308,601.4v-8.8h0.3v8.5h5.4v0.3H308z"/>
		<path fill="#FFFFFF" d="M314.2,593.5c-0.4,0-0.6-0.2-0.6-0.4c0-0.3,0.2-0.5,0.5-0.5c0.3,0,0.5,0.2,0.5,0.5c0,0.6-0.6,2.1-0.8,2.4
			l-0.2-0.1L314.2,593.5z"/>
		<path fill="#FFFFFF" d="M320.8,592.5c2.6,0,4.5,1.9,4.5,4.5c0,2.6-1.9,4.5-4.5,4.5c-2.6,0-4.5-1.9-4.5-4.5
			C316.3,594.5,318.2,592.5,320.8,592.5z M320.8,601.3c2.5,0,4.3-1.8,4.3-4.2c0-2.5-1.8-4.3-4.3-4.3c-2.4,0-4.2,1.8-4.2,4.3
			C316.5,599.5,318.3,601.3,320.8,601.3z"/>
		<path fill="#FFFFFF" d="M328.1,597.4v4h-0.3v-8.8h6.2v0.3h-6v4.2h5.3v0.3H328.1z"/>
		<path fill="#FFFFFF" d="M336.3,597.4v4h-0.3v-8.8h6.2v0.3h-6v4.2h5.3v0.3H336.3z"/>
		<path fill="#FFFFFF" d="M344.3,592.7h3.7c1.5,0,2.8,0.9,2.8,2.7c0,1.7-1.4,2.7-2.8,2.7h-0.6c0.9,0.8,2.2,3.3,3.7,3.3
			c0.4,0,0.9-0.2,1.2-0.3l0.1,0.3c-0.4,0.2-0.8,0.3-1.3,0.3c-1.9,0-3.3-3-4.2-3.5h-2.4v3.4h-0.3V592.7z M344.6,592.9v4.9h3.5
			c1.3,0,2.6-0.9,2.6-2.4c0-1.7-1.2-2.5-2.6-2.5H344.6z"/>
		<path fill="#FFFFFF" d="M354.1,601.4v-8.8h6.5v0.3h-6.2v3.8h5.3v0.3h-5.3v4.2h6.2v0.3H354.1z"/>
	</g>
	<g>
		<path fill="#FFFFFF" d="M189.9,615.2h3.1c2.6,0,4.5,1.5,4.5,4.4c0,2.8-1.9,4.4-4.5,4.4h-3.1V615.2z M190.1,615.4v8.3h2.8
			c2.5,0,4.3-1.4,4.3-4.1c0-2.7-1.8-4.1-4.3-4.1H190.1z"/>
		<path fill="#FFFFFF" d="M200,624v-8.8h6.5v0.3h-6.2v3.8h5.3v0.3h-5.3v4.2h6.2v0.3H200z"/>
		<path fill="#FFFFFF" d="M221.1,615.6l-4.2,5.1h-0.1l-4.2-5.1v8.3h-0.3v-8.8h0.3l4.3,5.2l4.3-5.2h0.3v8.8h-0.3V615.6z"/>
		<path fill="#FFFFFF" d="M227.2,615.2h0.3l3.7,8.8h-0.3l-1-2.4h-5.3l-1.1,2.4h-0.3L227.2,615.2z M224.7,621.3h5.1l-2.5-5.8
			L224.7,621.3z"/>
		<path fill="#FFFFFF" d="M233.2,615.2h3.7c1.5,0,2.8,0.9,2.8,2.7c0,1.7-1.4,2.7-2.8,2.7h-0.6c0.9,0.8,2.2,3.3,3.7,3.3
			c0.4,0,0.9-0.2,1.2-0.3l0.1,0.3c-0.4,0.2-0.8,0.3-1.3,0.3c-1.9,0-3.3-3-4.2-3.5h-2.4v3.4h-0.3V615.2z M233.4,615.4v4.9h3.5
			c1.3,0,2.6-0.9,2.6-2.4c0-1.7-1.2-2.5-2.6-2.5H233.4z"/>
		<path fill="#FFFFFF" d="M252.3,626c-0.3,0.1-0.9,0.2-1.6,0.2c-2.3,0-3.5-2.1-4.1-2.2c-2.6,0-4.5-1.9-4.5-4.5
			c0-2.6,1.9-4.5,4.5-4.5c2.6,0,4.5,1.9,4.5,4.5c0,2.4-1.7,4.2-4,4.5c0.7,0.5,1.7,1.9,3.5,1.9c0.7,0,1.2-0.1,1.5-0.2L252.3,626z
			 M246.6,623.8c2.5,0,4.3-1.8,4.3-4.2c0-2.5-1.8-4.3-4.3-4.3c-2.4,0-4.2,1.8-4.2,4.3C242.4,622,244.2,623.8,246.6,623.8z"/>
		<path fill="#FFFFFF" d="M253.8,620.5c0,2,1,3.4,3.3,3.4c2.3,0,3.4-1.5,3.4-3.4v-5.3h0.3v5.3c0,1.9-1.2,3.6-3.6,3.6
			c-2.4,0-3.6-1.5-3.6-3.6v-5.3h0.3V620.5z"/>
		<path fill="#FFFFFF" d="M263.7,624v-8.8h6.5v0.3H264v3.8h5.3v0.3H264v4.2h6.2v0.3H263.7z"/>
	</g>
</g>
</svg>
