<?xml version="1.0" encoding="utf-8"?>
<!-- Generator: Adobe Illustrator 19.2.1, SVG Export Plug-In . SVG Version: 6.00 Build 0)  -->
<svg version="1.1" id="Layer_1" xmlns="http://www.w3.org/2000/svg" xmlns:xlink="http://www.w3.org/1999/xlink" x="0px" y="0px"
	 viewBox="0 0 143.8 58.2" style="enable-background:new 0 0 143.8 58.2;" xml:space="preserve">
<style type="text/css">
	.st0{fill:#231F20;}
	.st1{fill:#EC1C24;}
</style>
<title>logo-parcs-canada</title>
<g>
	<g>
		<path class="st0" d="M17.1,21.9c0.3,0.1,1,0.5,1.2,0.6c0,0,0.1,0,0.1,0c0.3-0.3,0.4-0.5,0.7-0.8c0,0,0-0.1,0-0.1
			c-0.5-0.2-0.8-0.4-1.2-0.7c0,0-0.1,0-0.1,0c-0.2,0.4-0.4,0.6-0.6,0.9C17.1,21.9,17.1,21.9,17.1,21.9"/>
		<path class="st0" d="M20.3,21.4c0.5,0.2,0.8,0.3,1.3,0.4c0,0,0.1,0,0.1,0c0.3-0.3,0.4-0.4,0.6-0.7c0-0.1,0.1-0.1,0.1-0.2
			c0,0,0-0.1,0-0.1c-0.5-0.2-0.8-0.4-1.2-0.7c0,0-0.1,0-0.1,0c-0.2,0.4-0.4,0.7-0.7,1.1C20.2,21.3,20.3,21.4,20.3,21.4"/>
		<path class="st0" d="M19.8,21.9c0,0,0.1-0.1,0.1,0c0.4,0.2,0.7,0.3,1.2,0.5c0,0,0.1,0.1,0,0.1c-0.1,0.1-0.1,0.1-0.2,0.2
			c-0.1,0.1-0.2,0.4,0,0.5c0.1,0.1,0.4,0.1,0.5,0c0.2-0.2,0.3-0.3,0.4-0.5c0,0,0.1,0,0.1,0c0.1,0,0.2,0.1,0.3,0.1
			c0.2,0.1,0.4,0,0.5-0.2c0.1-0.2,0-0.4-0.2-0.5c0,0-0.1,0-0.1,0c0,0-0.1-0.1,0-0.1c0.3-0.3,0.4-0.5,0.6-0.8c0,0,0.1-0.1,0.1,0
			c0.1,0,0.3,0.1,0.4,0.1c0.2,0.1,0.4,0,0.5-0.2c0.1-0.2,0-0.4-0.2-0.5c-0.1,0-0.1,0-0.2-0.1c-0.1,0-0.1-0.1,0-0.1
			c0.2-0.3,0.5-1,0.6-1.2c0.1-0.1,0-0.2-0.1-0.3c-0.1-0.1-0.3,0-0.3,0.1c-0.2,0.4-0.4,0.8-0.7,1.2c0,0-0.1,0-0.1,0
			c-0.4-0.1-1-0.4-1.4-0.6c0,0-0.1-0.1,0-0.1c0.1-0.1,0.3-0.6,0.4-0.8c0.1-0.1,0-0.2-0.1-0.3c-0.1-0.1-0.3,0-0.3,0.1
			c-0.1,0.2-0.2,0.5-0.4,0.8c0,0-0.1,0.1-0.1,0c-0.4-0.2-0.6-0.3-0.9-0.6c-0.1-0.1-0.2-0.1-0.3,0c-0.1,0.1-0.1,0.2,0,0.3
			c0.1,0.1,0.2,0.2,0.3,0.3c0.2,0.1,0.4,0.3,0.6,0.4c0,0,0,0.1,0,0.1c-0.1,0.2-0.3,0.4-0.5,0.6c-0.2,0.2-0.3,0.3-0.4,0.6
			c0,0-0.1,0.1-0.1,0c-0.3-0.1-1.1-0.5-1.4-0.7c0,0,0-0.1,0-0.1c0.2-0.3,0.6-1.1,0.7-1.3c0.1-0.1,0-0.2-0.1-0.3
			c-0.1-0.1-0.3,0-0.3,0.1c-0.2,0.5-0.5,0.8-0.8,1.2c0,0-0.1,0.1-0.1,0c-0.3-0.2-0.5-0.3-0.7-0.5c-0.1-0.1-0.2,0-0.3,0
			c-0.1,0.1-0.1,0.2,0,0.3c0.1,0.1,0.6,0.4,0.7,0.5c0,0,0,0.1,0,0.1c0,0.1-0.5,0.6-0.7,0.9c0,0-0.1,0-0.1,0
			c-0.2-0.1-0.3-0.2-0.5-0.4c-0.1-0.1-0.2-0.1-0.3,0c-0.1,0.1-0.1,0.2,0,0.3c0.1,0.1,0.4,0.3,0.5,0.4c0,0,0,0.1,0,0.1
			c-0.1,0.1-0.1,0.1-0.2,0.2c-0.1,0.1-0.2,0.4,0,0.5c0.1,0.1,0.4,0.1,0.5,0c0.1-0.1,0.2-0.2,0.3-0.3c0,0,0.1,0,0.1,0
			c0.4,0.2,0.6,0.4,1,0.6c0,0,0,0.1,0,0.1c-0.1,0.1-0.2,0.2-0.3,0.3c-0.1,0.1-0.1,0.4,0,0.5c0.1,0.1,0.4,0.2,0.5,0
			c0.2-0.2,0.3-0.3,0.5-0.5c0,0,0.1,0,0.1,0c0.1,0.1,0.4,0.2,0.6,0.2c0.2,0.1,0.4,0,0.5-0.2c0.1-0.2,0-0.4-0.2-0.5
			c-0.1,0-0.2-0.1-0.3-0.1c0,0-0.1-0.1,0-0.1C19.3,22.6,19.7,22,19.8,21.9 M11.6,12.3c0.2-0.1,0.4-0.2,0.4-0.4
			c0-0.3-0.8-0.4-0.8-0.4s-0.5-0.1-0.8,0.2c-0.2,0.3-0.2,0.7-0.2,0.7c0,0.1,0.1,0.2,0.2,0.2C10.6,12.5,11.4,12.3,11.6,12.3
			 M24.2,23.9c-2.1,1.7-4.7,2.2-6.6,2.1c-1.8-0.2-2.9-1-3.6-2.2c-0.8-1.4-0.9-3.5,0.6-5.2c1.4-1.7,3.8-2.4,8.3-2
			c1.2,0.1,2-0.5,2.4-1.1c0.1-0.2-0.1-0.3-0.2-0.3c-0.2,0.1-0.9,0.5-1.6,0.5c-1.5-0.1-2.6-0.4-5.2-0.1c-0.4-1.7,0.2-3.3,1.7-4
			c0.1,0,0.2-0.1,0.2-0.2c0-0.1-0.1-0.1-0.2-0.2c-0.1,0-0.2,0-0.3,0c-0.1,0-0.3,0.1-0.4,0.1c-0.1,0-0.1,0-0.1-0.1c0-0.1,0-0.1,0-0.1
			c0.2-0.5,0.5-1,0.8-1.3c0.2-0.2,0.5-0.3,0.6-0.4c0.1,0,0.1-0.1,0.1-0.2c0-0.1-0.1-0.1-0.2-0.1c-0.3,0.1-1.1,0.4-1.6,0.9
			c-0.5,0.5-0.8,1.3-0.9,1.9c-0.4,0.5-0.7,0.8-0.9,1.7c-0.2,1-0.1,1.7,0,2.2c-1.2,0.4-2.4,1-3.2,1.9c-0.2-0.2-0.6-0.6-0.8-0.7
			c-0.8-0.4-1.6-0.5-2.3-0.3c-0.4,0.1-0.7,0.3-0.8,0.2c-0.4-0.2-1.4-1-1.9-1.6c-0.5-0.5-0.8-1.1-0.8-1.5c0-0.4,0.6-1.2,1.9-2.5
			c1.1-1.1,2.1-1.8,2.3-1.9c0.5-0.2,1.3-0.2,1.8-0.2c1.4,0,3.7-1.8,6.1-2.2c1.3-0.2,2.3-0.2,3.6,0.3c1.3,0.5,2.3,1.5,3.1,2.5
			c0.8,1,1.5,2.4,1.8,4c0.3,1.5,0.3,2.7-0.2,4.8C27.4,20.4,26,22.4,24.2,23.9z"/>
		<path class="st0" d="M25.2,23.7c0.5-0.4,1.2-1.1,1.6-1.5c0,0,2.1,0.3,2.9,0.4c0.2,0,0.5,0,0.7-0.2c0.2-0.3,0.1-0.4,0-0.4
			c-0.4-0.1-1-0.2-1.4-0.2c-0.2,0-0.3-0.1-0.2-0.3c0.1-0.2,0.3-0.2,0.5-0.2c0.5,0,3.8,0.6,4.8,0.8c0.2,0,0.3,0,0.3-0.2
			c0.1-0.2,0-0.2-0.4-0.5c-0.4-0.3-0.4-0.6-0.8-0.6c-0.4-0.1-5-0.8-5-0.8c0.2-0.4,0.3-0.9,0.4-1.1c0-0.1,0-0.1,0.1-0.1
			c0.3,0,0.9,0.1,1.3,0.2c0.2-1,0.4-2,0.4-3c0-6.7-5.4-12.1-12.1-12.1c-6.7,0-12.1,5.4-12.1,12.1c0,1,0.1,1.9,0.3,2.8
			c2.2-0.4,4.6-0.6,6.9-0.7c0.2,0,0.2,0.2,0.1,0.3c-0.2,0.3-0.4,0.6-0.5,0.9c-3,0.2-6,0.6-7.2,0.8c-1.1,0.2-2.2,0.5-2.9,0.8
			c-0.2,0.1-0.1,0.2-0.5,0.5C2.3,21.5,2,21.6,2,21.8c0,0.1,0.1,0.4,0.3,0.3c1-0.2,3.4-0.9,4.8-1.1c0.1,0,0.3,0,0.4,0.2
			c0.1,0.2,0,0.3-0.2,0.3c-0.4,0.1-0.7,0.1-1.3,0.3c0,0-0.3,0.1-0.1,0.3c0.1,0.2,0.5,0.1,0.5,0.1c0.9-0.2,4-0.7,4.7-0.8
			c0.2,0,1.5-0.2,1.7-0.3c0,0.6,0.2,1.4,0.4,1.8c0.1,0.1,0.1,0.2-0.1,0.3c-0.6,0.1-3.3,0.5-4,0.6c2.2,2.5,5.5,4.2,9.1,4.2
			c3.4,0,6.6-1.4,8.8-3.7c-0.7-0.1-1.7-0.3-1.8-0.3C25.1,23.9,25.1,23.8,25.2,23.7 M36.2,21.6c0.4,0.3-0.2,1.3-0.6,1.6
			c-0.3,0.3-0.4,0.1-0.7,0.2c-0.3,0.2-0.4,0.4-0.6,0.4c-0.3,0.1-0.8,0-1.1,0c-0.5,0-1,0.1-1.3,0.4c-0.5,0.3-0.9,0.6-1.3,0.5
			c-0.6-0.1-1.2-0.2-1.8-0.3c-2.5,3.1-6.3,5.1-10.6,5.1c-4.5,0-8.4-2.1-10.9-5.4c-0.5,0.1-0.9,0.2-1.2,0.2c-0.5,0.1-1.1-0.7-1.7-0.8
			c-0.6-0.1-2,0.3-2.3,0.2c-0.3,0-0.4-0.2-0.7-0.6C1.3,23,1,23,0.9,22.9c-0.2-0.1-0.7-0.9-0.7-1.2c0.1-0.4,1.4-0.6,1.9-1.4
			c0.2-0.3,0.3-0.6,0.5-0.6c0.7-0.2,1.6-0.5,2.4-0.6c-0.2-1-0.4-2.1-0.4-3.1c0-7.5,6.1-13.7,13.7-13.7c7.6,0,13.7,6.1,13.7,13.7
			c0,1.1-0.1,2.2-0.4,3.2c0.8,0.1,1.4,0.2,2,0.4c0.4,0.1,0.5,0.7,1.1,1.2C35.4,21.3,36,21.3,36.2,21.6"/>
	</g>
</g>
<g>
	<g>
		<g>
			<g>
				<polygon class="st1" points="9.3,57.8 9.3,39.5 0.2,39.5 0.2,57.8 9.3,57.8 				"/>
				<polygon class="st1" points="36.4,57.8 36.4,39.5 27.2,39.5 27.2,57.8 36.4,57.8 				"/>
				<path class="st1" d="M18.7,56.3c0,0-0.1-3.1-0.1-3.3c0-0.3,0.3-0.5,0.6-0.4l3.1,0.6l-0.4-1c-0.1-0.3-0.1-0.6,0.1-0.8l3.4-2.6
					l-0.7-0.3c-0.2-0.1-0.2-0.1-0.1-0.4l0.7-2.2l-1.7,0.4c-0.3,0.1-0.4,0-0.5-0.2L22.6,45l-1.7,1.9c-0.2,0.2-0.6,0.1-0.5-0.3
					c0,0,0.8-3.8,0.8-3.8L20,43.5c-0.2,0.1-0.4,0.1-0.5-0.1l-1.2-2.5L17,43.4c-0.1,0.2-0.3,0.2-0.5,0.1l-1.2-0.7
					c0,0,0.8,3.8,0.8,3.8c0.1,0.4-0.3,0.5-0.5,0.3L13.9,45l-0.4,1.1c-0.1,0.2-0.2,0.3-0.5,0.2l-1.7-0.4l0.7,2.2
					c0.1,0.2,0.1,0.3-0.1,0.4l-0.7,0.3l3.4,2.6c0.2,0.2,0.2,0.5,0.1,0.8l-0.4,1l3.1-0.6c0.3-0.1,0.6,0.1,0.6,0.4
					c0,0.1-0.1,3.3-0.1,3.3H18.7L18.7,56.3z"/>
			</g>
			<g>
				<path class="st0" d="M106.5,39.5h3.4c1.6,0,2.4,0.9,2.4,2.3c0,1.4-0.8,2.3-2.4,2.3h-2.4v3.2h-1V39.5z M107.6,43.3h2
					c1.2,0,1.7-0.5,1.7-1.4c0-0.9-0.5-1.4-1.7-1.4h-2V43.3z"/>
				<path class="st0" d="M118.3,47.3c-0.2,0.1-0.4,0.2-0.7,0.2c-0.5,0-0.8-0.3-0.8-0.9c-0.5,0.6-1.2,0.9-2,0.9c-1,0-1.9-0.5-1.9-1.6
					c0-1.3,1-1.6,1.9-1.7c1-0.2,1.9-0.1,1.9-0.8c0-0.8-0.7-0.9-1.3-0.9c-0.8,0-1.4,0.2-1.4,1.1h-0.9c0.1-1.4,1.1-1.9,2.4-1.9
					c1,0,2.1,0.2,2.1,1.6V46c0,0.4,0,0.6,0.3,0.6c0.1,0,0.2,0,0.3-0.1V47.3z M116.8,44.4c-0.4,0.3-1.1,0.3-1.7,0.4
					c-0.6,0.1-1.1,0.3-1.1,1c0,0.6,0.5,0.8,1.1,0.8c1.2,0,1.7-0.8,1.7-1.3V44.4z"/>
				<path class="st0" d="M119.1,41.7h0.9v1.2h0c0.5-0.9,1.1-1.4,2.1-1.3v1c-1.5,0-2.1,0.9-2.1,2.3v2.5h-0.9V41.7z"/>
				<path class="st0" d="M122.9,39.5h0.9v4.6l2.6-2.5h1.3l-2.2,2.1l2.4,3.6h-1.2l-1.9-3l-0.9,0.8v2.2h-0.9V39.5z"/>
				<path class="st0" d="M129.1,45.6c0,0.8,0.8,1.1,1.5,1.1c0.6,0,1.4-0.1,1.4-0.8c0-0.7-0.9-0.8-1.9-1.1c-0.9-0.2-1.9-0.5-1.9-1.6
					c0-1.1,1.1-1.6,2.1-1.6c1.3,0,2.3,0.4,2.3,1.8h-0.9c-0.1-0.7-0.7-1-1.3-1c-0.6,0-1.2,0.2-1.2,0.7c0,0.7,1,0.8,1.9,1
					c0.9,0.2,1.9,0.5,1.9,1.6c0,1.4-1.3,1.8-2.4,1.8c-1.3,0-2.3-0.5-2.4-1.9H129.1z"/>
				<path class="st0" d="M112.1,52.4c-0.2-1.1-1.1-1.7-2.2-1.7c-1.9,0-2.7,1.5-2.7,3.2c0,1.8,0.8,3.3,2.7,3.3c1.4,0,2.2-1,2.3-2.3h1
					c-0.2,2-1.4,3.1-3.4,3.1c-2.4,0-3.6-1.8-3.6-4.1c0-2.3,1.3-4.1,3.7-4.1c1.6,0,3,0.9,3.2,2.5H112.1z"/>
				<path class="st0" d="M119.3,57.8c-0.2,0.1-0.4,0.2-0.7,0.2c-0.5,0-0.8-0.3-0.8-0.9c-0.5,0.6-1.2,0.9-2,0.9c-1,0-1.9-0.5-1.9-1.6
					c0-1.3,1-1.6,1.9-1.7c1-0.2,1.9-0.1,1.9-0.8c0-0.8-0.7-0.9-1.3-0.9c-0.8,0-1.4,0.2-1.4,1.1h-0.9c0.1-1.4,1.1-1.9,2.4-1.9
					c1,0,2.1,0.2,2.1,1.6v2.9c0,0.4,0,0.6,0.3,0.6c0.1,0,0.2,0,0.3-0.1V57.8z M117.8,54.9c-0.4,0.3-1.1,0.3-1.7,0.4
					c-0.6,0.1-1.1,0.3-1.1,1c0,0.6,0.5,0.8,1.1,0.8c1.2,0,1.7-0.8,1.7-1.3V54.9z"/>
				<path class="st0" d="M120.2,52.2h0.9v0.9h0c0.4-0.7,1-1,1.8-1c1.5,0,2,0.9,2,2.1v3.7H124V54c0-0.7-0.4-1.1-1.2-1.1
					c-1.1,0-1.7,0.8-1.7,1.8v3.2h-0.9V52.2z"/>
				<path class="st0" d="M131.4,57.8c-0.2,0.1-0.4,0.2-0.7,0.2c-0.5,0-0.8-0.3-0.8-0.9c-0.5,0.6-1.2,0.9-2,0.9c-1,0-1.9-0.5-1.9-1.6
					c0-1.3,1-1.6,1.9-1.7c1-0.2,1.9-0.1,1.9-0.8c0-0.8-0.7-0.9-1.3-0.9c-0.8,0-1.4,0.2-1.4,1.1h-0.9c0.1-1.4,1.1-1.9,2.4-1.9
					c1,0,2.1,0.2,2.1,1.6v2.9c0,0.4,0,0.6,0.3,0.6c0.1,0,0.2,0,0.3-0.1V57.8z M129.8,54.9c-0.4,0.3-1.1,0.3-1.7,0.4
					c-0.6,0.1-1.1,0.3-1.1,1c0,0.6,0.5,0.8,1.1,0.8c1.2,0,1.7-0.8,1.7-1.3V54.9z"/>
				<path class="st0" d="M137.3,57.8h-0.9v-0.8h0c-0.3,0.6-1,0.9-1.8,0.9c-1.7,0-2.6-1.4-2.6-3c0-1.6,0.9-3,2.6-3
					c0.6,0,1.4,0.2,1.8,0.9h0V50h0.9V57.8z M134.7,57.1c1.3,0,1.7-1.1,1.7-2.1c0-1.1-0.5-2.2-1.8-2.2c-1.3,0-1.7,1.1-1.7,2.2
					C132.9,56.1,133.5,57.1,134.7,57.1z"/>
				<path class="st0" d="M143.8,57.8c-0.2,0.1-0.4,0.2-0.7,0.2c-0.5,0-0.8-0.3-0.8-0.9c-0.5,0.6-1.2,0.9-2,0.9c-1,0-1.9-0.5-1.9-1.6
					c0-1.3,1-1.6,1.9-1.7c1-0.2,1.9-0.1,1.9-0.8c0-0.8-0.7-0.9-1.3-0.9c-0.8,0-1.4,0.2-1.4,1.1h-0.9c0.1-1.4,1.1-1.9,2.4-1.9
					c1,0,2.1,0.2,2.1,1.6v2.9c0,0.4,0,0.6,0.3,0.6c0.1,0,0.2,0,0.3-0.1V57.8z M142.2,54.9c-0.4,0.3-1.1,0.3-1.7,0.4
					c-0.6,0.1-1.1,0.3-1.1,1c0,0.6,0.5,0.8,1.1,0.8c1.2,0,1.7-0.8,1.7-1.3V54.9z"/>
			</g>
			<g>
				<path class="st0" d="M52.9,39.5h3.4c1.6,0,2.4,0.9,2.4,2.3c0,1.4-0.8,2.3-2.4,2.3h-2.4v3.2h-1V39.5z M53.9,43.3h2
					c1.2,0,1.7-0.5,1.7-1.4c0-0.9-0.5-1.4-1.7-1.4h-2V43.3z"/>
				<path class="st0" d="M64.6,47.3c-0.2,0.1-0.4,0.2-0.7,0.2c-0.5,0-0.8-0.3-0.8-0.9c-0.5,0.6-1.2,0.9-2,0.9c-1,0-1.9-0.5-1.9-1.6
					c0-1.3,1-1.6,1.9-1.7c1-0.2,1.9-0.1,1.9-0.8c0-0.8-0.7-0.9-1.3-0.9c-0.8,0-1.4,0.2-1.4,1.1h-0.9c0.1-1.4,1.1-1.9,2.4-1.9
					c1,0,2.1,0.2,2.1,1.6V46c0,0.4,0,0.6,0.3,0.6c0.1,0,0.2,0,0.3-0.1V47.3z M63.1,44.4c-0.4,0.3-1.1,0.3-1.7,0.4
					c-0.6,0.1-1.1,0.3-1.1,1c0,0.6,0.5,0.8,1.1,0.8c1.2,0,1.7-0.8,1.7-1.3V44.4z"/>
				<path class="st0" d="M65.4,41.7h0.9v1.2h0c0.5-0.9,1.1-1.4,2.1-1.3v1c-1.5,0-2.1,0.9-2.1,2.3v2.5h-0.9V41.7z"/>
				<path class="st0" d="M72.8,43.5c-0.1-0.7-0.6-1.1-1.4-1.1c-1.3,0-1.8,1.1-1.8,2.2c0,1,0.5,2.1,1.7,2.1c0.9,0,1.4-0.5,1.6-1.4h1
					c-0.2,1.4-1.1,2.2-2.5,2.2c-1.7,0-2.7-1.2-2.7-2.9c0-1.7,0.9-3,2.7-3c1.3,0,2.3,0.6,2.4,2H72.8z"/>
				<path class="st0" d="M75.4,45.6c0,0.8,0.8,1.1,1.5,1.1c0.6,0,1.4-0.1,1.4-0.8c0-0.7-0.9-0.8-1.9-1.1c-0.9-0.2-1.9-0.5-1.9-1.6
					c0-1.1,1.1-1.6,2.1-1.6c1.3,0,2.3,0.4,2.3,1.8h-0.9c-0.1-0.7-0.7-1-1.3-1c-0.6,0-1.2,0.2-1.2,0.7c0,0.7,1,0.8,1.9,1
					c0.9,0.2,1.9,0.5,1.9,1.6c0,1.4-1.3,1.8-2.4,1.8c-1.3,0-2.3-0.5-2.4-1.9H75.4z"/>
				<path class="st0" d="M58.4,52.4c-0.2-1.1-1.1-1.7-2.2-1.7c-1.9,0-2.7,1.5-2.7,3.2c0,1.8,0.8,3.3,2.7,3.3c1.4,0,2.2-1,2.3-2.3h1
					c-0.2,2-1.4,3.1-3.4,3.1c-2.4,0-3.6-1.8-3.6-4.1c0-2.3,1.3-4.1,3.7-4.1c1.6,0,3,0.9,3.2,2.5H58.4z"/>
				<path class="st0" d="M65.7,57.8C65.5,57.9,65.3,58,65,58c-0.5,0-0.8-0.3-0.8-0.9c-0.5,0.6-1.2,0.9-2,0.9c-1,0-1.9-0.5-1.9-1.6
					c0-1.3,1-1.6,1.9-1.7c1-0.2,1.9-0.1,1.9-0.8c0-0.8-0.7-0.9-1.3-0.9c-0.8,0-1.4,0.2-1.4,1.1h-0.9c0.1-1.4,1.1-1.9,2.4-1.9
					c1,0,2.1,0.2,2.1,1.6v2.9c0,0.4,0,0.6,0.3,0.6c0.1,0,0.2,0,0.3-0.1V57.8z M64.1,54.9c-0.4,0.3-1.1,0.3-1.7,0.4
					c-0.6,0.1-1.1,0.3-1.1,1c0,0.6,0.5,0.8,1.1,0.8c1.2,0,1.7-0.8,1.7-1.3V54.9z"/>
				<path class="st0" d="M66.5,52.2h0.9v0.9h0c0.4-0.7,1-1,1.8-1c1.5,0,2,0.9,2,2.1v3.7h-0.9V54c0-0.7-0.4-1.1-1.2-1.1
					c-1.1,0-1.7,0.8-1.7,1.8v3.2h-0.9V52.2z"/>
				<path class="st0" d="M77.7,57.8C77.5,57.9,77.3,58,77,58c-0.5,0-0.8-0.3-0.8-0.9c-0.5,0.6-1.2,0.9-2,0.9c-1,0-1.9-0.5-1.9-1.6
					c0-1.3,1-1.6,1.9-1.7c1-0.2,1.9-0.1,1.9-0.8c0-0.8-0.7-0.9-1.3-0.9c-0.8,0-1.4,0.2-1.4,1.1h-0.9c0.1-1.4,1.1-1.9,2.4-1.9
					c1,0,2.1,0.2,2.1,1.6v2.9c0,0.4,0,0.6,0.3,0.6c0.1,0,0.2,0,0.3-0.1V57.8z M76.1,54.9c-0.4,0.3-1.1,0.3-1.7,0.4
					c-0.6,0.1-1.1,0.3-1.1,1c0,0.6,0.5,0.8,1.1,0.8c1.2,0,1.7-0.8,1.7-1.3V54.9z"/>
				<path class="st0" d="M83.6,57.8h-0.9v-0.8h0c-0.3,0.6-1,0.9-1.8,0.9c-1.7,0-2.6-1.4-2.6-3c0-1.6,0.9-3,2.6-3
					c0.6,0,1.4,0.2,1.8,0.9h0V50h0.9V57.8z M81,57.1c1.3,0,1.7-1.1,1.7-2.1c0-1.1-0.5-2.2-1.8-2.2c-1.3,0-1.7,1.1-1.7,2.2
					C79.2,56.1,79.8,57.1,81,57.1z"/>
				<path class="st0" d="M90.1,57.8c-0.2,0.1-0.4,0.2-0.7,0.2c-0.5,0-0.8-0.3-0.8-0.9c-0.5,0.6-1.2,0.9-2,0.9c-1,0-1.9-0.5-1.9-1.6
					c0-1.3,1-1.6,1.9-1.7c1-0.2,1.9-0.1,1.9-0.8c0-0.8-0.7-0.9-1.3-0.9c-0.8,0-1.4,0.2-1.4,1.1H85c0.1-1.4,1.1-1.9,2.4-1.9
					c1,0,2.1,0.2,2.1,1.6v2.9c0,0.4,0,0.6,0.3,0.6c0.1,0,0.2,0,0.3-0.1V57.8z M88.6,54.9c-0.4,0.3-1.1,0.3-1.7,0.4
					c-0.6,0.1-1.1,0.3-1.1,1c0,0.6,0.5,0.8,1.1,0.8c1.2,0,1.7-0.8,1.7-1.3V54.9z"/>
			</g>
		</g>
	</g>
</g>
</svg>
