<?xml version="1.0" standalone="no"?><!DOCTYPE svg PUBLIC "-//W3C//DTD SVG 1.1//EN" "http://www.w3.org/Graphics/SVG/1.1/DTD/svg11.dtd"><svg width="100%" height="100%" viewBox="0 0 490 490" version="1.1" xmlns="http://www.w3.org/2000/svg" xmlns:xlink="http://www.w3.org/1999/xlink" xml:space="preserve" style="fill-rule:evenodd;clip-rule:evenodd;stroke-linejoin:round;stroke-miterlimit:1.41421;"><path d="M366.577,317.759l3.151,2.513l122.728,122.728l-51.456,51.456l-122.728,-122.728l-2.513,-3.151l-1.749,-3.632l-0.897,-3.93l0,-4.03l0.897,-3.93l1.749,-3.632l2.513,-3.151l0.303,-0.241l-41.353,-41.353l-0.32,0.254l-0.408,0.322l-0.41,0.321l-0.41,0.32l-0.411,0.317l-0.412,0.318l-0.413,0.315l-0.414,0.314l-0.415,0.313l-0.416,0.312l-0.416,0.31l-0.417,0.309l-0.418,0.308l-0.419,0.306l-0.42,0.304l-0.421,0.304l-0.421,0.303l-0.423,0.3l-0.423,0.3l-0.424,0.298l-0.425,0.297l-0.426,0.296l-0.426,0.294l-0.428,0.293l-0.428,0.291l-0.429,0.291l-0.429,0.288l-0.431,0.288l-0.432,0.286l-0.432,0.285l-0.433,0.284l-0.434,0.282l-0.434,0.28l-0.436,0.28l-0.436,0.278l-0.437,0.277l-0.438,0.275l-0.438,0.274l-0.44,0.273l-0.44,0.271l-0.441,0.27l-0.441,0.268l-0.443,0.267l-0.443,0.266l-0.444,0.265l-0.444,0.263l-0.445,0.261l-0.447,0.261l-0.447,0.259l-0.447,0.257l-0.449,0.257l-0.449,0.254l-0.45,0.254l-0.45,0.252l-0.451,0.25l-0.452,0.25l-0.453,0.248l-0.454,0.247l-0.454,0.245l-0.454,0.243l-0.455,0.242l-0.457,0.242l-0.457,0.239l-0.457,0.238l-0.459,0.237l-0.459,0.236l-0.459,0.233l-0.46,0.233l-0.461,0.231l-0.462,0.23l-0.462,0.228l-0.463,0.227l-0.464,0.226l-0.464,0.224l-0.465,0.223l-0.465,0.221l-0.467,0.22l-0.467,0.219l-0.467,0.217l-0.468,0.215l-0.469,0.215l-0.47,0.213l-0.47,0.211l-0.47,0.21l-0.471,0.208l-0.472,0.208l-0.473,0.206l-0.473,0.204l-0.474,0.203l-0.474,0.201l-0.475,0.2l-0.476,0.199l-0.476,0.197l-0.476,0.196l-0.478,0.194l-0.478,0.193l-0.478,0.191l-0.479,0.19l-0.479,0.189l-0.481,0.187l-0.481,0.185l-0.48,0.184l-0.482,0.183l-0.483,0.182l-0.483,0.18l-0.483,0.178l-0.485,0.177l-0.485,0.175l-0.484,0.174l-0.486,0.173l-0.487,0.171l-0.486,0.17l-0.488,0.168l-0.487,0.166l-0.488,0.166l-0.49,0.164l-0.489,0.162l-0.49,0.161l-0.49,0.159l-0.491,0.158l-0.492,0.157l-0.492,0.155l-0.492,0.153l-0.493,0.152l-0.493,0.151l-0.494,0.149l-0.494,0.148l-0.495,0.146l-0.495,0.144l-0.496,0.144l-0.496,0.141l-0.497,0.14l-0.497,0.139l-0.498,0.138l-0.498,0.135l-0.498,0.134l-0.499,0.133l-0.5,0.131l-0.5,0.13l-0.5,0.128l-0.501,0.127l-0.501,0.125l-0.502,0.124l-0.501,0.122l-0.503,0.121l-0.503,0.119l-0.503,0.118l-0.504,0.116l-0.504,0.115l-0.504,0.113l-0.505,0.112l-0.505,0.11l-0.507,0.109l-0.506,0.107l-0.506,0.106l-0.507,0.104l-0.507,0.102l-0.507,0.101l-0.509,0.1l-0.508,0.098l-0.509,0.097l-0.509,0.094l-0.509,0.094l-0.51,0.092l-0.51,0.09l-0.51,0.089l-0.512,0.087l-0.511,0.086l-0.511,0.084l-0.512,0.083l-0.513,0.081l-0.512,0.08l-0.513,0.078l-0.513,0.076l-0.514,0.075l-0.513,0.074l-0.515,0.072l-0.514,0.07l-0.515,0.069l-0.515,0.067l-0.515,0.066l-0.517,0.064l-0.515,0.063l-0.516,0.061l-0.517,0.059l-0.517,0.058l-0.517,0.056l-0.517,0.055l-0.519,0.053l-0.518,0.052l-0.517,0.05l-0.519,0.048l-0.518,0.047l-0.519,0.046l-0.519,0.044l-0.52,0.042l-0.52,0.04l-0.52,0.039l-0.52,0.038l-0.521,0.036l-0.52,0.034l-0.522,0.033l-0.521,0.031l-0.521,0.03l-0.522,0.028l-0.521,0.026l-0.522,0.025l-0.523,0.023l-0.522,0.022l-0.523,0.02l-0.523,0.018l-0.522,0.017l-0.524,0.015l-0.523,0.014l-0.524,0.012l-0.524,0.01l-0.524,0.009l-0.524,0.007l-0.524,0.006l-0.524,0.004l-0.525,0.002l-0.525,0.001l-0.549,-0.001l-0.549,-0.002l-0.549,-0.005l-0.548,-0.006l-0.549,-0.008l-0.547,-0.009l-0.547,-0.012l-0.547,-0.013l-0.547,-0.015l-0.547,-0.017l-0.545,-0.018l-0.545,-0.02l-0.545,-0.022l-0.545,-0.024l-0.544,-0.025l-0.544,-0.027l-0.544,-0.029l-0.543,-0.03l-0.542,-0.033l-0.543,-0.034l-0.542,-0.035l-0.54,-0.038l-0.542,-0.039l-0.54,-0.041l-0.54,-0.042l-0.54,-0.044l-0.539,-0.046l-0.539,-0.048l-0.539,-0.049l-0.538,-0.051l-0.537,-0.053l-0.537,-0.054l-0.537,-0.056l-0.535,-0.058l-0.536,-0.059l-0.535,-0.062l-0.535,-0.062l-0.534,-0.065l-0.534,-0.066l-0.533,-0.068l-0.533,-0.069l-0.532,-0.071l-0.532,-0.073l-0.532,-0.074l-0.531,-0.077l-0.53,-0.077l-0.529,-0.079l-0.529,-0.081l-0.53,-0.083l-0.528,-0.084l-0.528,-0.086l-0.527,-0.088l-0.527,-0.089l-0.526,-0.091l-0.526,-0.092l-0.525,-0.094l-0.525,-0.096l-0.524,-0.097l-0.524,-0.099l-0.523,-0.101l-0.522,-0.102l-0.522,-0.103l-0.522,-0.106l-0.521,-0.107l-0.52,-0.108l-0.52,-0.11l-0.519,-0.112l-0.518,-0.113l-0.519,-0.115l-0.517,-0.116l-0.517,-0.118l-0.517,-0.12l-0.515,-0.121l-0.515,-0.123l-0.515,-0.124l-0.514,-0.126l-0.513,-0.127l-0.513,-0.13l-0.512,-0.13l-0.512,-0.132l-0.511,-0.134l-0.51,-0.135l-0.51,-0.137l-0.509,-0.138l-0.509,-0.14l-0.508,-0.141l-0.507,-0.143l-0.507,-0.145l-0.506,-0.146l-0.506,-0.147l-0.504,-0.149l-0.505,-0.15l-0.503,-0.153l-0.503,-0.153l-0.502,-0.155l-0.502,-0.157l-0.501,-0.158l-0.5,-0.159l-0.5,-0.161l-0.499,-0.163l-0.498,-0.164l-0.498,-0.166l-0.497,-0.167l-0.496,-0.168l-0.496,-0.17l-0.495,-0.172l-0.494,-0.173l-0.494,-0.174l-0.493,-0.176l-0.492,-0.178l-0.491,-0.178l-0.491,-0.181l-0.491,-0.182l-0.489,-0.183l-0.489,-0.185l-0.488,-0.186l-0.488,-0.187l-0.486,-0.189l-0.486,-0.191l-0.485,-0.192l-0.485,-0.193l-0.484,-0.195l-0.482,-0.196l-0.483,-0.198l-0.482,-0.199l-0.48,-0.2l-0.481,-0.203l-0.479,-0.203l-0.478,-0.205l-0.479,-0.206l-0.477,-0.207l-0.476,-0.209l-0.476,-0.211l-0.475,-0.212l-0.474,-0.213l-0.473,-0.214l-0.473,-0.216l-0.472,-0.218l-0.471,-0.219l-0.47,-0.22l-0.47,-0.221l-0.468,-0.223l-0.468,-0.224l-0.468,-0.226l-0.466,-0.227l-0.466,-0.229l-0.465,-0.229l-0.464,-0.232l-0.463,-0.232l-0.463,-0.234l-0.461,-0.235l-0.461,-0.236l-0.46,-0.238l-0.46,-0.24l-0.458,-0.241l-0.458,-0.241l-0.457,-0.244l-0.456,-0.244l-0.455,-0.246l-0.455,-0.248l-0.453,-0.248l-0.452,-0.25l-0.452,-0.251l-0.452,-0.253l-0.45,-0.254l-0.449,-0.255l-0.449,-0.256l-0.448,-0.258l-0.446,-0.259l-0.446,-0.26l-0.446,-0.262l-0.444,-0.263l-0.443,-0.265l-0.443,-0.265l-0.442,-0.267l-0.441,-0.268l-0.439,-0.269l-0.439,-0.271l-0.439,-0.273l-0.437,-0.272l-0.437,-0.275l-0.436,-0.276l-0.434,-0.277l-0.434,-0.278l-0.433,-0.28l-0.432,-0.281l-0.431,-0.282l-0.431,-0.284l-0.429,-0.284l-0.428,-0.286l-0.428,-0.287l-0.427,-0.288l-0.426,-0.29l-0.424,-0.291l-0.424,-0.292l-0.423,-0.293l-0.422,-0.295l-0.422,-0.295l-0.42,-0.297l-0.419,-0.298l-0.419,-0.3l-0.417,-0.301l-0.417,-0.301l-0.415,-0.303l-0.415,-0.305l-0.414,-0.305l-0.413,-0.307l-0.411,-0.308l-0.411,-0.309l-0.41,-0.31l-0.409,-0.311l-0.408,-0.313l-0.407,-0.314l-0.406,-0.315l-0.405,-0.316l-0.404,-0.317l-0.404,-0.319l-0.402,-0.32l-0.401,-0.321l-0.401,-0.322l-0.399,-0.323l-0.399,-0.324l-0.397,-0.326l-0.396,-0.326l-0.395,-0.328l-0.395,-0.329l-0.393,-0.33l-0.392,-0.332l-0.392,-0.332l-0.39,-0.334l-0.39,-0.334l-0.388,-0.336l-0.387,-0.337l-0.387,-0.338l-0.385,-0.339l-0.384,-0.341l-0.384,-0.342l-0.382,-0.342l-0.381,-0.344l-0.38,-0.345l-0.38,-0.346l-0.378,-0.347l-0.376,-0.348l-0.377,-0.349l-0.375,-0.351l-0.374,-0.351l-0.373,-0.352l-0.372,-0.354l-0.37,-0.355l-0.37,-0.356l-0.369,-0.357l-0.367,-0.358l-0.367,-0.359l-0.366,-0.36l-0.364,-0.362l-0.364,-0.362l-0.362,-0.363l-0.361,-0.365l-0.36,-0.365l-0.359,-0.367l-0.359,-0.368l-0.357,-0.369l-0.355,-0.369l-0.355,-0.371l-0.354,-0.372l-0.352,-0.372l-0.352,-0.375l-0.35,-0.375l-0.35,-0.376l-0.348,-0.377l-0.347,-0.378l-0.346,-0.379l-0.345,-0.381l-0.343,-0.381l-0.343,-0.382l-0.342,-0.383l-0.34,-0.384l-0.339,-0.386l-0.338,-0.386l-0.337,-0.388l-0.336,-0.388l-0.335,-0.389l-0.333,-0.391l-0.333,-0.391l-0.331,-0.392l-0.33,-0.394l-0.329,-0.394l-0.328,-0.396l-0.327,-0.396l-0.325,-0.397l-0.325,-0.398l-0.323,-0.4l-0.322,-0.4l-0.321,-0.401l-0.319,-0.403l-0.319,-0.403l-0.317,-0.404l-0.316,-0.405l-0.315,-0.406l-0.314,-0.407l-0.313,-0.408l-0.311,-0.409l-0.311,-0.41l-0.309,-0.411l-0.307,-0.412l-0.307,-0.413l-0.306,-0.414l-0.304,-0.414l-0.303,-0.416l-0.302,-0.416l-0.301,-0.418l-0.299,-0.418l-0.298,-0.419l-0.297,-0.421l-0.296,-0.421l-0.294,-0.422l-0.294,-0.423l-0.292,-0.424l-0.29,-0.425l-0.29,-0.426l-0.289,-0.427l-0.287,-0.427l-0.285,-0.429l-0.285,-0.429l-0.283,-0.43l-0.283,-0.431l-0.28,-0.433l-0.28,-0.433l-0.278,-0.433l-0.277,-0.435l-0.276,-0.436l-0.275,-0.436l-0.273,-0.438l-0.272,-0.438l-0.271,-0.439l-0.269,-0.44l-0.268,-0.441l-0.267,-0.442l-0.266,-0.442l-0.264,-0.443l-0.263,-0.445l-0.262,-0.445l-0.26,-0.446l-0.259,-0.447l-0.258,-0.448l-0.257,-0.448l-0.255,-0.45l-0.254,-0.45l-0.252,-0.451l-0.251,-0.452l-0.25,-0.453l-0.249,-0.453l-0.247,-0.454l-0.246,-0.456l-0.245,-0.456l-0.243,-0.457l-0.242,-0.457l-0.241,-0.459l-0.239,-0.459l-0.238,-0.46l-0.236,-0.461l-0.236,-0.462l-0.233,-0.462l-0.233,-0.464l-0.231,-0.464l-0.23,-0.464l-0.228,-0.466l-0.227,-0.467l-0.226,-0.467l-0.224,-0.468l-0.223,-0.469l-0.222,-0.469l-0.22,-0.471l-0.219,-0.471l-0.217,-0.472l-0.216,-0.472l-0.215,-0.474l-0.213,-0.474l-0.212,-0.475l-0.21,-0.475l-0.209,-0.477l-0.208,-0.477l-0.206,-0.478l-0.205,-0.479l-0.203,-0.479l-0.202,-0.48l-0.2,-0.481l-0.2,-0.482l-0.197,-0.482l-0.196,-0.483l-0.195,-0.484l-0.194,-0.484l-0.192,-0.486l-0.19,-0.485l-0.189,-0.487l-0.188,-0.487l-0.186,-0.489l-0.185,-0.488l-0.183,-0.49l-0.182,-0.49l-0.18,-0.491l-0.179,-0.491l-0.177,-0.493l-0.176,-0.493l-0.175,-0.493l-0.173,-0.495l-0.171,-0.494l-0.17,-0.496l-0.169,-0.496l-0.167,-0.497l-0.165,-0.498l-0.164,-0.499l-0.163,-0.499l-0.161,-0.499l-0.16,-0.5l-0.158,-0.501l-0.156,-0.502l-0.155,-0.502l-0.154,-0.503l-0.152,-0.504l-0.15,-0.504l-0.149,-0.505l-0.148,-0.505l-0.146,-0.506l-0.144,-0.507l-0.143,-0.507l-0.142,-0.508l-0.139,-0.509l-0.139,-0.509l-0.136,-0.51l-0.136,-0.51l-0.133,-0.511l-0.132,-0.512l-0.131,-0.512l-0.129,-0.513l-0.127,-0.514l-0.126,-0.514l-0.125,-0.514l-0.122,-0.515l-0.121,-0.516l-0.12,-0.516l-0.118,-0.517l-0.116,-0.518l-0.115,-0.518l-0.114,-0.519l-0.111,-0.519l-0.11,-0.52l-0.109,-0.52l-0.107,-0.521l-0.105,-0.521l-0.104,-0.522l-0.102,-0.523l-0.1,-0.523l-0.099,-0.523l-0.098,-0.525l-0.095,-0.524l-0.094,-0.525l-0.093,-0.526l-0.09,-0.526l-0.09,-0.527l-0.087,-0.528l-0.086,-0.527l-0.084,-0.529l-0.083,-0.529l-0.081,-0.529l-0.079,-0.53l-0.078,-0.53l-0.076,-0.531l-0.074,-0.531l-0.073,-0.532l-0.071,-0.532l-0.07,-0.533l-0.067,-0.534l-0.067,-0.533l-0.064,-0.534l-0.063,-0.535l-0.061,-0.535l-0.059,-0.536l-0.058,-0.536l-0.056,-0.537l-0.054,-0.537l-0.053,-0.537l-0.051,-0.538l-0.049,-0.538l-0.048,-0.539l-0.046,-0.539l-0.044,-0.54l-0.043,-0.54l-0.041,-0.541l-0.039,-0.541l-0.037,-0.541l-0.036,-0.542l-0.034,-0.542l-0.032,-0.543l-0.031,-0.543l-0.028,-0.543l-0.027,-0.544l-0.026,-0.544l-0.023,-0.545l-0.022,-0.545l-0.02,-0.545l-0.019,-0.546l-0.016,-0.546l-0.015,-0.547l-0.014,-0.547l-0.011,-0.547l-0.01,-0.548l-0.008,-0.548l-0.006,-0.548l-0.004,-0.549l-0.003,-0.549l-0.001,-0.55l0.001,-0.549l0.003,-0.549l0.004,-0.549l0.006,-0.549l0.008,-0.548l0.01,-0.547l0.011,-0.548l0.014,-0.546l0.015,-0.547l0.016,-0.546l0.019,-0.546l0.02,-0.545l0.022,-0.546l0.023,-0.544l0.026,-0.544l0.027,-0.544l0.028,-0.544l0.031,-0.543l0.032,-0.542l0.034,-0.543l0.036,-0.541l0.037,-0.542l0.039,-0.541l0.041,-0.54l0.043,-0.54l0.044,-0.54l0.046,-0.539l0.048,-0.539l0.049,-0.538l0.051,-0.538l0.053,-0.538l0.054,-0.537l0.056,-0.536l0.058,-0.536l0.059,-0.536l0.061,-0.535l0.063,-0.535l0.064,-0.534l0.067,-0.534l0.067,-0.533l0.07,-0.533l0.071,-0.532l0.073,-0.532l0.074,-0.532l0.076,-0.53l0.078,-0.531l0.079,-0.53l0.081,-0.529l0.083,-0.529l0.084,-0.528l0.086,-0.528l0.087,-0.527l0.09,-0.527l0.09,-0.526l0.093,-0.526l0.094,-0.525l0.095,-0.525l0.098,-0.524l0.099,-0.524l0.1,-0.523l0.102,-0.522l0.104,-0.522l0.105,-0.522l0.107,-0.521l0.109,-0.52l0.11,-0.52l0.111,-0.519l0.114,-0.518l0.115,-0.519l0.116,-0.517l0.118,-0.517l0.12,-0.516l0.121,-0.516l0.122,-0.515l0.125,-0.515l0.126,-0.514l0.127,-0.513l0.129,-0.513l0.131,-0.512l0.132,-0.512l0.133,-0.511l0.136,-0.51l0.136,-0.51l0.139,-0.509l0.139,-0.509l0.142,-0.508l0.143,-0.507l0.144,-0.507l0.146,-0.506l0.148,-0.506l0.149,-0.504l0.15,-0.505l0.152,-0.503l0.154,-0.503l0.155,-0.502l0.156,-0.502l0.158,-0.501l0.16,-0.5l0.161,-0.5l0.163,-0.499l0.164,-0.498l0.165,-0.498l0.167,-0.497l0.169,-0.496l0.17,-0.496l0.171,-0.495l0.173,-0.494l0.175,-0.494l0.176,-0.493l0.177,-0.492l0.179,-0.492l0.18,-0.49l0.182,-0.491l0.183,-0.489l0.185,-0.489l0.186,-0.488l0.188,-0.487l0.189,-0.487l0.19,-0.486l0.192,-0.485l0.194,-0.485l0.195,-0.483l0.196,-0.484l0.197,-0.482l0.2,-0.481l0.2,-0.481l0.202,-0.48l0.203,-0.48l0.205,-0.479l0.206,-0.477l0.208,-0.478l0.209,-0.476l0.21,-0.476l0.212,-0.475l0.213,-0.474l0.215,-0.473l0.216,-0.473l0.217,-0.472l0.219,-0.471l0.22,-0.47l0.222,-0.47l0.223,-0.469l0.224,-0.468l0.226,-0.467l0.227,-0.466l0.228,-0.466l0.23,-0.465l0.231,-0.464l0.233,-0.463l0.233,-0.463l0.236,-0.461l0.236,-0.461l0.238,-0.46l0.239,-0.46l0.241,-0.458l0.242,-0.458l0.243,-0.457l0.245,-0.456l0.246,-0.455l0.247,-0.454l0.249,-0.454l0.25,-0.453l0.251,-0.451l0.252,-0.452l0.254,-0.45l0.255,-0.449l0.257,-0.449l0.258,-0.447l0.259,-0.447l0.26,-0.446l0.262,-0.446l0.263,-0.444l0.264,-0.443l0.266,-0.443l0.267,-0.442l0.268,-0.44l0.269,-0.44l0.271,-0.44l0.272,-0.438l0.273,-0.437l0.275,-0.437l0.276,-0.435l0.277,-0.435l0.278,-0.434l0.28,-0.433l0.28,-0.432l0.283,-0.431l0.283,-0.43l0.285,-0.43l0.285,-0.428l0.288,-0.428l0.288,-0.427l0.29,-0.425l0.29,-0.425l0.292,-0.424l0.294,-0.423l0.294,-0.422l0.296,-0.422l0.297,-0.42l0.298,-0.419l0.3,-0.419l0.3,-0.417l0.302,-0.417l0.303,-0.415l0.304,-0.415l0.306,-0.414l0.306,-0.412l0.308,-0.412l0.309,-0.411l0.311,-0.41l0.311,-0.409l0.313,-0.408l0.313,-0.407l0.316,-0.406l0.316,-0.405l0.317,-0.405l0.319,-0.403l0.319,-0.402l0.321,-0.401l0.322,-0.401l0.323,-0.399l0.325,-0.398l0.325,-0.398l0.327,-0.396l0.328,-0.395l0.329,-0.395l0.33,-0.393l0.331,-0.392l0.333,-0.392l0.333,-0.39l0.335,-0.39l0.336,-0.388l0.337,-0.387l0.338,-0.387l0.339,-0.385l0.341,-0.384l0.341,-0.383l0.343,-0.383l0.343,-0.381l0.345,-0.38l0.346,-0.379l0.347,-0.378l0.348,-0.378l0.35,-0.376l0.35,-0.375l0.352,-0.374l0.352,-0.373l0.354,-0.372l0.355,-0.37l0.355,-0.37l0.357,-0.369l0.358,-0.368l0.36,-0.366l0.36,-0.366l0.361,-0.364l0.362,-0.364l0.364,-0.362l0.364,-0.361l0.366,-0.36l0.366,-0.36l0.368,-0.358l0.369,-0.357l0.37,-0.355l0.37,-0.355l0.372,-0.354l0.373,-0.352l0.374,-0.352l0.375,-0.35l0.376,-0.35l0.378,-0.348l0.378,-0.347l0.379,-0.346l0.38,-0.345l0.381,-0.343l0.383,-0.343l0.383,-0.341l0.384,-0.341l0.385,-0.339l0.387,-0.338l0.387,-0.337l0.388,-0.336l0.39,-0.335l0.39,-0.333l0.392,-0.333l0.392,-0.331l0.393,-0.33l0.395,-0.329l0.395,-0.328l0.396,-0.327l0.398,-0.325l0.398,-0.325l0.399,-0.323l0.401,-0.322l0.401,-0.321l0.402,-0.319l0.403,-0.319l0.405,-0.317l0.405,-0.316l0.406,-0.316l0.407,-0.313l0.408,-0.313l0.409,-0.311l0.41,-0.311l0.411,-0.309l0.412,-0.308l0.412,-0.306l0.414,-0.306l0.415,-0.304l0.415,-0.303l0.417,-0.302l0.417,-0.3l0.419,-0.3l0.419,-0.298l0.42,-0.297l0.422,-0.296l0.422,-0.294l0.423,-0.294l0.424,-0.292l0.425,-0.29l0.425,-0.29l0.427,-0.288l0.428,-0.288l0.428,-0.285l0.43,-0.285l0.43,-0.283l0.431,-0.283l0.432,-0.28l0.433,-0.28l0.434,-0.278l0.435,-0.277l0.435,-0.276l0.437,-0.275l0.437,-0.273l0.438,-0.272l0.44,-0.271l0.44,-0.269l0.44,-0.268l0.442,-0.267l0.443,-0.266l0.443,-0.264l0.444,-0.263l0.446,-0.262l0.446,-0.26l0.447,-0.259l0.447,-0.258l0.449,-0.257l0.449,-0.255l0.45,-0.254l0.452,-0.252l0.451,-0.251l0.453,-0.25l0.454,-0.249l0.454,-0.247l0.455,-0.246l0.456,-0.245l0.457,-0.243l0.458,-0.242l0.458,-0.241l0.46,-0.239l0.46,-0.238l0.461,-0.236l0.461,-0.236l0.463,-0.233l0.463,-0.233l0.464,-0.231l0.465,-0.23l0.466,-0.228l0.466,-0.227l0.467,-0.226l0.468,-0.224l0.469,-0.223l0.47,-0.222l0.47,-0.22l0.471,-0.219l0.472,-0.217l0.473,-0.216l0.473,-0.215l0.474,-0.213l0.475,-0.212l0.476,-0.21l0.476,-0.209l0.478,-0.208l0.477,-0.206l0.479,-0.205l0.48,-0.203l0.48,-0.202l0.481,-0.2l0.481,-0.2l0.482,-0.197l0.484,-0.196l0.483,-0.195l0.485,-0.194l0.485,-0.192l0.486,-0.19l0.487,-0.189l0.487,-0.188l0.488,-0.186l0.489,-0.185l0.489,-0.183l0.491,-0.182l0.49,-0.18l0.492,-0.179l0.492,-0.177l0.493,-0.176l0.494,-0.175l0.494,-0.173l0.495,-0.171l0.496,-0.17l0.496,-0.169l0.497,-0.167l0.498,-0.165l0.498,-0.164l0.499,-0.163l0.5,-0.161l0.5,-0.16l0.501,-0.158l0.502,-0.156l0.502,-0.155l0.503,-0.154l0.503,-0.152l0.505,-0.15l0.504,-0.149l0.506,-0.148l0.506,-0.146l0.507,-0.144l0.507,-0.143l0.508,-0.142l0.509,-0.139l0.509,-0.139l0.51,-0.136l0.51,-0.136l0.511,-0.133l0.512,-0.132l0.512,-0.131l0.513,-0.129l0.513,-0.127l0.514,-0.126l0.515,-0.125l0.515,-0.122l0.516,-0.121l0.516,-0.12l0.517,-0.118l0.517,-0.116l0.519,-0.115l0.518,-0.114l0.519,-0.111l0.52,-0.11l0.52,-0.109l0.521,-0.107l0.522,-0.105l0.522,-0.104l0.522,-0.102l0.523,-0.1l0.524,-0.099l0.524,-0.098l0.525,-0.095l0.525,-0.094l0.526,-0.093l0.526,-0.09l0.527,-0.09l0.527,-0.087l0.528,-0.086l0.528,-0.084l0.529,-0.083l0.529,-0.081l0.53,-0.079l0.531,-0.078l0.53,-0.076l0.532,-0.074l0.532,-0.073l0.532,-0.071l0.533,-0.07l0.533,-0.067l0.534,-0.067l0.534,-0.064l0.535,-0.063l0.535,-0.061l0.536,-0.059l0.536,-0.058l0.536,-0.056l0.537,-0.054l0.538,-0.053l0.538,-0.051l0.538,-0.049l0.539,-0.048l0.539,-0.046l0.54,-0.044l0.54,-0.043l0.54,-0.041l0.541,-0.039l0.542,-0.037l0.541,-0.036l0.543,-0.034l0.542,-0.032l0.543,-0.031l0.544,-0.028l0.544,-0.027l0.544,-0.026l0.544,-0.023l0.546,-0.022l0.545,-0.02l0.546,-0.019l0.546,-0.016l0.547,-0.015l0.546,-0.014l0.548,-0.011l0.547,-0.01l0.548,-0.008l0.549,-0.006l0.549,-0.004l0.549,-0.003l0.549,-0.001l0.55,0.001l0.549,0.003l0.549,0.004l0.548,0.006l0.548,0.008l0.548,0.01l0.547,0.011l0.547,0.014l0.547,0.015l0.546,0.016l0.546,0.019l0.545,0.02l0.545,0.022l0.545,0.023l0.544,0.026l0.544,0.027l0.543,0.028l0.543,0.031l0.543,0.032l0.542,0.034l0.542,0.036l0.541,0.037l0.541,0.039l0.541,0.041l0.54,0.043l0.54,0.044l0.539,0.046l0.539,0.048l0.538,0.049l0.538,0.051l0.537,0.053l0.537,0.054l0.537,0.056l0.536,0.058l0.536,0.059l0.535,0.061l0.535,0.063l0.534,0.064l0.533,0.067l0.534,0.067l0.533,0.07l0.532,0.071l0.532,0.073l0.531,0.074l0.531,0.076l0.53,0.078l0.53,0.079l0.529,0.081l0.529,0.083l0.529,0.084l0.527,0.086l0.528,0.087l0.527,0.09l0.526,0.09l0.526,0.093l0.525,0.094l0.524,0.095l0.525,0.098l0.523,0.099l0.523,0.1l0.523,0.102l0.522,0.104l0.521,0.105l0.521,0.107l0.52,0.109l0.52,0.11l0.519,0.111l0.519,0.114l0.518,0.115l0.518,0.116l0.517,0.118l0.516,0.12l0.516,0.121l0.515,0.122l0.514,0.125l0.514,0.126l0.514,0.127l0.513,0.129l0.512,0.131l0.512,0.132l0.511,0.133l0.51,0.136l0.51,0.136l0.509,0.139l0.509,0.139l0.508,0.142l0.507,0.143l0.507,0.144l0.506,0.146l0.505,0.148l0.505,0.149l0.504,0.15l0.504,0.152l0.503,0.154l0.502,0.155l0.502,0.156l0.501,0.158l0.5,0.16l0.499,0.161l0.499,0.163l0.499,0.164l0.498,0.165l0.497,0.167l0.496,0.169l0.496,0.17l0.494,0.171l0.495,0.173l0.493,0.175l0.493,0.176l0.493,0.177l0.491,0.179l0.491,0.18l0.49,0.182l0.49,0.183l0.488,0.185l0.489,0.186l0.487,0.188l0.487,0.189l0.485,0.19l0.486,0.192l0.484,0.194l0.484,0.195l0.483,0.196l0.482,0.197l0.482,0.2l0.481,0.2l0.48,0.202l0.479,0.203l0.479,0.205l0.478,0.206l0.477,0.208l0.477,0.209l0.475,0.21l0.475,0.212l0.474,0.213l0.474,0.215l0.472,0.216l0.472,0.217l0.471,0.219l0.471,0.22l0.469,0.222l0.469,0.223l0.468,0.224l0.467,0.226l0.467,0.227l0.466,0.228l0.464,0.23l0.464,0.231l0.464,0.233l0.462,0.233l0.462,0.236l0.461,0.236l0.46,0.238l0.459,0.239l0.459,0.241l0.457,0.242l0.457,0.243l0.456,0.245l0.456,0.246l0.454,0.247l0.453,0.249l0.453,0.25l0.452,0.251l0.451,0.252l0.45,0.254l0.45,0.255l0.448,0.257l0.448,0.258l0.447,0.259l0.446,0.26l0.445,0.262l0.445,0.263l0.443,0.264l0.442,0.266l0.442,0.267l0.441,0.268l0.44,0.269l0.439,0.271l0.438,0.272l0.438,0.273l0.436,0.275l0.436,0.276l0.435,0.277l0.433,0.278l0.433,0.28l0.433,0.28l0.431,0.283l0.43,0.283l0.429,0.285l0.429,0.285l0.427,0.287l0.427,0.289l0.426,0.29l0.425,0.29l0.424,0.292l0.423,0.294l0.422,0.294l0.421,0.296l0.421,0.297l0.419,0.298l0.418,0.299l0.418,0.301l0.416,0.302l0.416,0.303l0.414,0.304l0.414,0.306l0.413,0.307l0.412,0.307l0.411,0.309l0.41,0.311l0.409,0.311l0.408,0.313l0.407,0.314l0.406,0.315l0.405,0.316l0.404,0.317l0.403,0.319l0.403,0.319l0.401,0.321l0.4,0.322l0.4,0.323l0.398,0.325l0.397,0.325l0.396,0.327l0.396,0.328l0.394,0.329l0.394,0.33l0.392,0.331l0.391,0.333l0.391,0.333l0.389,0.335l0.388,0.336l0.388,0.337l0.386,0.338l0.386,0.339l0.384,0.34l0.383,0.342l0.382,0.343l0.381,0.343l0.381,0.345l0.379,0.346l0.378,0.347l0.377,0.348l0.376,0.35l0.375,0.35l0.375,0.352l0.372,0.352l0.372,0.354l0.371,0.355l0.369,0.355l0.369,0.357l0.368,0.359l0.367,0.359l0.365,0.36l0.365,0.361l0.363,0.362l0.362,0.364l0.362,0.364l0.36,0.366l0.359,0.367l0.358,0.367l0.357,0.369l0.356,0.37l0.355,0.37l0.354,0.372l0.352,0.373l0.351,0.374l0.351,0.375l0.349,0.377l0.348,0.376l0.347,0.378l0.346,0.38l0.345,0.38l0.344,0.381l0.342,0.382l0.342,0.384l0.341,0.384l0.339,0.385l0.338,0.387l0.337,0.387l0.336,0.388l0.334,0.39l0.334,0.39l0.332,0.392l0.332,0.392l0.33,0.393l0.329,0.395l0.328,0.395l0.326,0.396l0.326,0.397l0.324,0.399l0.323,0.399l0.322,0.401l0.321,0.401l0.32,0.402l0.319,0.404l0.317,0.404l0.316,0.405l0.315,0.406l0.314,0.407l0.313,0.408l0.311,0.409l0.31,0.41l0.309,0.411l0.308,0.411l0.307,0.413l0.305,0.414l0.305,0.415l0.303,0.415l0.301,0.417l0.301,0.417l0.3,0.419l0.298,0.419l0.297,0.42l0.295,0.422l0.295,0.422l0.293,0.423l0.292,0.424l0.291,0.424l0.29,0.426l0.288,0.427l0.287,0.428l0.286,0.428l0.284,0.429l0.284,0.431l0.282,0.431l0.281,0.432l0.28,0.433l0.278,0.434l0.277,0.434l0.276,0.436l0.275,0.437l0.272,0.437l0.273,0.439l0.271,0.439l0.269,0.439l0.268,0.441l0.267,0.442l0.265,0.443l0.265,0.443l0.263,0.444l0.262,0.446l0.26,0.446l0.259,0.446l0.258,0.448l0.256,0.449l0.255,0.449l0.254,0.45l0.253,0.452l0.251,0.452l0.25,0.452l0.248,0.453l0.248,0.455l0.246,0.455l0.244,0.456l0.244,0.457l0.241,0.458l0.241,0.458l0.24,0.46l0.238,0.46l0.236,0.461l0.235,0.461l0.234,0.463l0.232,0.463l0.232,0.464l0.229,0.465l0.229,0.466l0.227,0.466l0.226,0.468l0.224,0.468l0.223,0.468l0.221,0.47l0.22,0.47l0.219,0.471l0.218,0.472l0.216,0.473l0.214,0.473l0.213,0.474l0.212,0.475l0.211,0.476l0.209,0.476l0.207,0.477l0.206,0.479l0.205,0.478l0.203,0.479l0.203,0.481l0.2,0.48l0.199,0.482l0.198,0.483l0.196,0.482l0.195,0.484l0.193,0.485l0.192,0.485l0.191,0.486l0.189,0.486l0.187,0.488l0.186,0.488l0.185,0.489l0.183,0.489l0.182,0.491l0.181,0.491l0.178,0.491l0.178,0.492l0.176,0.493l0.174,0.494l0.173,0.494l0.172,0.495l0.17,0.496l0.168,0.496l0.167,0.497l0.166,0.498l0.164,0.498l0.163,0.499l0.161,0.5l0.159,0.5l0.158,0.501l0.157,0.502l0.155,0.502l0.153,0.503l0.153,0.503l0.15,0.505l0.149,0.504l0.147,0.506l0.146,0.506l0.145,0.507l0.143,0.507l0.141,0.508l0.14,0.509l0.138,0.509l0.137,0.51l0.135,0.51l0.134,0.511l0.132,0.512l0.13,0.512l0.13,0.513l0.127,0.513l0.126,0.514l0.124,0.515l0.123,0.515l0.121,0.515l0.12,0.517l0.118,0.517l0.116,0.517l0.115,0.519l0.113,0.518l0.112,0.519l0.11,0.52l0.108,0.52l0.107,0.521l0.106,0.522l0.103,0.522l0.102,0.522l0.101,0.523l0.099,0.524l0.097,0.524l0.096,0.525l0.094,0.525l0.092,0.526l0.091,0.526l0.089,0.527l0.088,0.527l0.086,0.528l0.084,0.528l0.083,0.53l0.081,0.529l0.079,0.529l0.077,0.53l0.077,0.531l0.074,0.532l0.073,0.532l0.071,0.532l0.069,0.533l0.068,0.533l0.066,0.534l0.065,0.534l0.062,0.535l0.062,0.535l0.059,0.536l0.058,0.535l0.056,0.537l0.054,0.537l0.053,0.537l0.051,0.538l0.049,0.539l0.048,0.539l0.046,0.539l0.044,0.54l0.042,0.54l0.041,0.54l0.039,0.542l0.038,0.54l0.035,0.542l0.034,0.543l0.033,0.542l0.03,0.543l0.029,0.544l0.027,0.544l0.025,0.544l0.024,0.545l0.022,0.545l0.02,0.545l0.018,0.545l0.017,0.547l0.015,0.547l0.013,0.547l0.012,0.547l0.009,0.547l0.008,0.549l0.006,0.548l0.005,0.549l0.002,0.549l0.001,0.549l-0.001,0.525l-0.002,0.525l-0.004,0.524l-0.006,0.524l-0.007,0.524l-0.009,0.524l-0.01,0.524l-0.012,0.524l-0.014,0.523l-0.015,0.524l-0.017,0.522l-0.018,0.523l-0.02,0.523l-0.022,0.522l-0.023,0.523l-0.025,0.522l-0.026,0.521l-0.028,0.522l-0.03,0.521l-0.031,0.521l-0.033,0.522l-0.034,0.52l-0.036,0.521l-0.038,0.52l-0.039,0.52l-0.04,0.52l-0.042,0.52l-0.044,0.519l-0.046,0.519l-0.047,0.518l-0.048,0.519l-0.05,0.517l-0.052,0.518l-0.053,0.519l-0.055,0.517l-0.056,0.517l-0.058,0.517l-0.059,0.517l-0.061,0.516l-0.063,0.515l-0.064,0.517l-0.066,0.515l-0.067,0.515l-0.069,0.515l-0.07,0.514l-0.072,0.515l-0.074,0.513l-0.075,0.514l-0.076,0.513l-0.078,0.513l-0.08,0.512l-0.081,0.513l-0.083,0.512l-0.084,0.511l-0.086,0.511l-0.087,0.512l-0.089,0.51l-0.09,0.51l-0.092,0.51l-0.094,0.509l-0.094,0.509l-0.097,0.509l-0.098,0.508l-0.1,0.509l-0.101,0.507l-0.102,0.507l-0.104,0.507l-0.106,0.506l-0.107,0.506l-0.109,0.507l-0.11,0.505l-0.112,0.505l-0.113,0.504l-0.115,0.504l-0.116,0.504l-0.118,0.503l-0.119,0.503l-0.121,0.503l-0.122,0.501l-0.124,0.502l-0.125,0.501l-0.127,0.501l-0.128,0.5l-0.13,0.5l-0.131,0.5l-0.133,0.499l-0.134,0.498l-0.135,0.498l-0.138,0.498l-0.139,0.497l-0.14,0.497l-0.141,0.496l-0.144,0.496l-0.144,0.495l-0.146,0.495l-0.148,0.494l-0.149,0.494l-0.151,0.493l-0.152,0.493l-0.153,0.492l-0.155,0.492l-0.157,0.492l-0.158,0.491l-0.159,0.49l-0.161,0.49l-0.162,0.489l-0.164,0.49l-0.166,0.488l-0.166,0.487l-0.168,0.488l-0.17,0.486l-0.171,0.487l-0.173,0.486l-0.174,0.484l-0.175,0.485l-0.177,0.485l-0.178,0.483l-0.18,0.483l-0.182,0.483l-0.183,0.482l-0.184,0.48l-0.185,0.481l-0.187,0.481l-0.189,0.479l-0.19,0.479l-0.191,0.478l-0.193,0.478l-0.194,0.478l-0.196,0.476l-0.197,0.476l-0.199,0.476l-0.2,0.475l-0.201,0.474l-0.203,0.474l-0.204,0.473l-0.206,0.473l-0.208,0.472l-0.208,0.471l-0.21,0.47l-0.211,0.47l-0.213,0.47l-0.215,0.469l-0.215,0.468l-0.217,0.467l-0.219,0.467l-0.22,0.467l-0.221,0.465l-0.223,0.465l-0.224,0.464l-0.226,0.464l-0.227,0.463l-0.228,0.462l-0.23,0.462l-0.231,0.461l-0.233,0.46l-0.233,0.459l-0.236,0.459l-0.237,0.459l-0.238,0.457l-0.239,0.457l-0.242,0.457l-0.242,0.455l-0.243,0.454l-0.245,0.454l-0.247,0.454l-0.248,0.453l-0.25,0.452l-0.25,0.451l-0.252,0.45l-0.254,0.45l-0.254,0.449l-0.257,0.449l-0.257,0.447l-0.259,0.447l-0.261,0.447l-0.261,0.445l-0.263,0.444l-0.265,0.444l-0.266,0.443l-0.267,0.443l-0.268,0.441l-0.27,0.441l-0.271,0.44l-0.273,0.44l-0.274,0.438l-0.275,0.438l-0.277,0.437l-0.278,0.436l-0.28,0.436l-0.28,0.434l-0.282,0.434l-0.284,0.433l-0.285,0.432l-0.286,0.432l-0.288,0.431l-0.288,0.429l-0.291,0.429l-0.291,0.428l-0.293,0.428l-0.294,0.426l-0.296,0.426l-0.297,0.425l-0.298,0.424l-0.3,0.423l-0.3,0.423l-0.303,0.421l-0.304,0.421l-0.304,0.42l-0.306,0.419l-0.308,0.418l-0.309,0.417l-0.31,0.416l-0.312,0.416l-0.313,0.415l-0.314,0.414l-0.315,0.413l-0.318,0.412l-0.317,0.411l-0.32,0.41l-0.321,0.41l-0.322,0.408l-0.323,0.408l-0.325,0.407l-0.326,0.405l-0.327,0.405l-0.329,0.404l-0.329,0.403l-0.083,0.1l41.141,41.141l0.241,-0.303l3.151,-2.513l3.632,-1.749l3.93,-0.897l4.03,0l3.93,0.897l3.632,1.749ZM170.384,35.818l-0.434,0.002l-0.433,0.004l-0.433,0.004l-0.432,0.007l-0.432,0.007l-0.432,0.009l-0.431,0.011l-0.432,0.012l-0.43,0.013l-0.431,0.014l-0.43,0.016l-0.429,0.017l-0.43,0.019l-0.429,0.02l-0.428,0.021l-0.429,0.023l-0.427,0.024l-0.428,0.025l-0.427,0.027l-0.427,0.028l-0.426,0.03l-0.427,0.031l-0.425,0.032l-0.426,0.033l-0.425,0.035l-0.424,0.036l-0.425,0.038l-0.423,0.039l-0.424,0.04l-0.423,0.041l-0.423,0.043l-0.422,0.044l-0.422,0.046l-0.422,0.046l-0.421,0.048l-0.421,0.05l-0.42,0.051l-0.42,0.052l-0.42,0.053l-0.419,0.055l-0.419,0.055l-0.418,0.058l-0.418,0.058l-0.418,0.06l-0.417,0.061l-0.417,0.063l-0.417,0.063l-0.416,0.065l-0.415,0.067l-0.416,0.067l-0.414,0.069l-0.415,0.07l-0.414,0.072l-0.413,0.072l-0.414,0.074l-0.412,0.076l-0.413,0.076l-0.411,0.078l-0.412,0.079l-0.411,0.08l-0.411,0.082l-0.41,0.083l-0.409,0.084l-0.41,0.085l-0.409,0.087l-0.408,0.087l-0.408,0.09l-0.408,0.09l-0.407,0.092l-0.406,0.092l-0.406,0.094l-0.406,0.096l-0.405,0.096l-0.405,0.098l-0.405,0.099l-0.404,0.1l-0.403,0.102l-0.403,0.103l-0.403,0.104l-0.402,0.105l-0.401,0.106l-0.402,0.108l-0.4,0.108l-0.4,0.111l-0.4,0.111l-0.399,0.112l-0.399,0.114l-0.398,0.115l-0.398,0.116l-0.398,0.117l-0.396,0.119l-0.397,0.119l-0.396,0.121l-0.395,0.122l-0.395,0.123l-0.394,0.125l-0.394,0.126l-0.394,0.126l-0.393,0.128l-0.392,0.13l-0.392,0.13l-0.391,0.131l-0.391,0.133l-0.39,0.134l-0.39,0.135l-0.39,0.136l-0.388,0.138l-0.389,0.138l-0.387,0.14l-0.388,0.141l-0.386,0.142l-0.387,0.143l-0.385,0.145l-0.385,0.145l-0.385,0.147l-0.384,0.148l-0.384,0.149l-0.383,0.15l-0.382,0.151l-0.382,0.153l-0.381,0.153l-0.381,0.155l-0.38,0.156l-0.38,0.157l-0.379,0.158l-0.379,0.159l-0.378,0.16l-0.377,0.162l-0.377,0.163l-0.377,0.163l-0.375,0.165l-0.375,0.166l-0.375,0.167l-0.374,0.168l-0.374,0.17l-0.373,0.17l-0.372,0.172l-0.372,0.172l-0.371,0.174l-0.37,0.175l-0.37,0.176l-0.37,0.177l-0.369,0.178l-0.368,0.179l-0.367,0.18l-0.367,0.182l-0.367,0.182l-0.366,0.184l-0.365,0.185l-0.364,0.185l-0.365,0.187l-0.363,0.188l-0.363,0.189l-0.362,0.19l-0.361,0.191l-0.361,0.192l-0.36,0.194l-0.36,0.194l-0.359,0.195l-0.358,0.197l-0.358,0.197l-0.357,0.199l-0.357,0.199l-0.356,0.201l-0.355,0.202l-0.354,0.202l-0.354,0.204l-0.354,0.205l-0.352,0.206l-0.352,0.207l-0.352,0.208l-0.35,0.209l-0.35,0.21l-0.349,0.211l-0.349,0.212l-0.348,0.213l-0.347,0.214l-0.347,0.215l-0.346,0.216l-0.345,0.218l-0.345,0.218l-0.344,0.219l-0.343,0.22l-0.343,0.221l-0.342,0.223l-0.341,0.223l-0.34,0.224l-0.34,0.225l-0.339,0.227l-0.339,0.227l-0.338,0.228l-0.337,0.229l-0.336,0.231l-0.336,0.231l-0.335,0.232l-0.334,0.233l-0.333,0.234l-0.333,0.236l-0.332,0.236l-0.331,0.237l-0.331,0.238l-0.33,0.239l-0.329,0.24l-0.328,0.241l-0.328,0.242l-0.327,0.243l-0.326,0.244l-0.326,0.244l-0.325,0.246l-0.323,0.247l-0.324,0.248l-0.322,0.248l-0.322,0.25l-0.321,0.25l-0.32,0.252l-0.32,0.252l-0.318,0.253l-0.318,0.255l-0.318,0.255l-0.316,0.256l-0.316,0.257l-0.315,0.258l-0.314,0.259l-0.313,0.26l-0.313,0.26l-0.311,0.262l-0.311,0.263l-0.31,0.263l-0.31,0.265l-0.309,0.265l-0.307,0.266l-0.307,0.267l-0.307,0.268l-0.305,0.269l-0.305,0.27l-0.304,0.271l-0.303,0.271l-0.302,0.273l-0.301,0.273l-0.301,0.274l-0.3,0.276l-0.299,0.276l-0.298,0.277l-0.297,0.277l-0.297,0.279l-0.295,0.28l-0.295,0.28l-0.294,0.281l-0.293,0.282l-0.293,0.283l-0.291,0.284l-0.291,0.285l-0.29,0.285l-0.289,0.287l-0.288,0.287l-0.287,0.288l-0.287,0.289l-0.285,0.29l-0.285,0.291l-0.284,0.291l-0.283,0.293l-0.282,0.293l-0.281,0.294l-0.28,0.295l-0.28,0.295l-0.279,0.297l-0.277,0.297l-0.277,0.298l-0.276,0.299l-0.276,0.3l-0.274,0.301l-0.273,0.301l-0.273,0.302l-0.271,0.303l-0.271,0.304l-0.27,0.305l-0.269,0.305l-0.268,0.307l-0.267,0.307l-0.266,0.307l-0.265,0.309l-0.265,0.31l-0.263,0.31l-0.263,0.311l-0.262,0.311l-0.26,0.313l-0.26,0.313l-0.259,0.314l-0.258,0.315l-0.257,0.316l-0.256,0.316l-0.255,0.318l-0.255,0.318l-0.253,0.318l-0.252,0.32l-0.252,0.32l-0.25,0.321l-0.25,0.322l-0.248,0.322l-0.248,0.324l-0.247,0.323l-0.246,0.325l-0.244,0.326l-0.244,0.326l-0.243,0.327l-0.242,0.328l-0.241,0.328l-0.24,0.329l-0.239,0.33l-0.238,0.331l-0.237,0.331l-0.236,0.332l-0.236,0.333l-0.234,0.333l-0.233,0.334l-0.232,0.335l-0.231,0.336l-0.231,0.336l-0.229,0.337l-0.228,0.338l-0.227,0.339l-0.227,0.339l-0.225,0.34l-0.224,0.34l-0.223,0.341l-0.223,0.342l-0.221,0.343l-0.22,0.343l-0.219,0.344l-0.218,0.345l-0.218,0.345l-0.216,0.346l-0.215,0.347l-0.214,0.347l-0.213,0.348l-0.212,0.349l-0.211,0.349l-0.21,0.35l-0.209,0.35l-0.208,0.352l-0.207,0.352l-0.206,0.352l-0.205,0.354l-0.204,0.354l-0.202,0.354l-0.202,0.355l-0.201,0.356l-0.199,0.357l-0.199,0.357l-0.197,0.358l-0.197,0.358l-0.195,0.359l-0.194,0.36l-0.194,0.36l-0.192,0.361l-0.191,0.361l-0.19,0.362l-0.189,0.363l-0.188,0.363l-0.187,0.365l-0.185,0.364l-0.185,0.365l-0.184,0.366l-0.182,0.367l-0.182,0.367l-0.18,0.367l-0.179,0.368l-0.178,0.369l-0.177,0.37l-0.176,0.37l-0.175,0.37l-0.174,0.371l-0.172,0.372l-0.172,0.372l-0.17,0.373l-0.17,0.374l-0.168,0.374l-0.167,0.375l-0.166,0.375l-0.165,0.375l-0.163,0.377l-0.163,0.377l-0.162,0.377l-0.16,0.378l-0.159,0.379l-0.158,0.379l-0.157,0.38l-0.156,0.38l-0.155,0.381l-0.153,0.381l-0.153,0.382l-0.151,0.382l-0.15,0.383l-0.149,0.384l-0.148,0.384l-0.147,0.385l-0.145,0.385l-0.145,0.385l-0.143,0.387l-0.142,0.386l-0.141,0.388l-0.14,0.387l-0.138,0.389l-0.138,0.388l-0.136,0.39l-0.135,0.39l-0.134,0.39l-0.133,0.391l-0.131,0.391l-0.13,0.392l-0.13,0.392l-0.128,0.393l-0.126,0.394l-0.126,0.394l-0.125,0.394l-0.123,0.395l-0.122,0.395l-0.121,0.396l-0.119,0.397l-0.119,0.396l-0.117,0.398l-0.116,0.398l-0.115,0.398l-0.114,0.399l-0.112,0.399l-0.111,0.4l-0.111,0.4l-0.108,0.4l-0.108,0.402l-0.106,0.401l-0.105,0.402l-0.104,0.403l-0.103,0.403l-0.102,0.403l-0.1,0.404l-0.099,0.405l-0.098,0.405l-0.096,0.405l-0.096,0.406l-0.094,0.406l-0.092,0.406l-0.092,0.407l-0.09,0.408l-0.09,0.408l-0.087,0.408l-0.087,0.409l-0.085,0.41l-0.084,0.409l-0.083,0.41l-0.082,0.411l-0.08,0.411l-0.079,0.412l-0.078,0.411l-0.076,0.413l-0.076,0.412l-0.074,0.414l-0.072,0.413l-0.072,0.414l-0.07,0.415l-0.069,0.414l-0.067,0.416l-0.067,0.415l-0.065,0.416l-0.063,0.417l-0.063,0.417l-0.061,0.417l-0.06,0.418l-0.058,0.418l-0.058,0.418l-0.055,0.419l-0.055,0.419l-0.053,0.42l-0.052,0.42l-0.051,0.42l-0.05,0.421l-0.048,0.421l-0.046,0.422l-0.046,0.422l-0.044,0.422l-0.043,0.423l-0.041,0.423l-0.04,0.424l-0.039,0.423l-0.038,0.425l-0.036,0.424l-0.035,0.425l-0.033,0.426l-0.032,0.425l-0.031,0.427l-0.03,0.426l-0.028,0.427l-0.027,0.427l-0.025,0.428l-0.024,0.427l-0.023,0.429l-0.021,0.428l-0.02,0.429l-0.019,0.43l-0.017,0.429l-0.016,0.43l-0.014,0.431l-0.013,0.43l-0.012,0.432l-0.011,0.431l-0.009,0.432l-0.007,0.432l-0.007,0.432l-0.004,0.433l-0.004,0.433l-0.002,0.434l-0.001,0.433l0.001,0.434l0.002,0.433l0.004,0.434l0.004,0.432l0.007,0.433l0.007,0.432l0.009,0.432l0.011,0.431l0.012,0.431l0.013,0.431l0.014,0.43l0.016,0.43l0.017,0.43l0.019,0.429l0.02,0.429l0.021,0.429l0.023,0.428l0.024,0.428l0.025,0.428l0.027,0.427l0.028,0.427l0.03,0.426l0.031,0.426l0.032,0.426l0.033,0.425l0.035,0.425l0.036,0.425l0.038,0.424l0.039,0.424l0.04,0.423l0.041,0.424l0.043,0.422l0.044,0.423l0.046,0.422l0.046,0.421l0.048,0.421l0.05,0.421l0.051,0.421l0.052,0.42l0.053,0.419l0.054,0.42l0.056,0.419l0.058,0.418l0.058,0.418l0.06,0.418l0.061,0.417l0.063,0.417l0.063,0.416l0.065,0.416l0.067,0.416l0.067,0.415l0.069,0.415l0.07,0.414l0.072,0.414l0.072,0.414l0.074,0.413l0.076,0.413l0.076,0.412l0.078,0.412l0.079,0.411l0.08,0.411l0.082,0.411l0.083,0.41l0.084,0.41l0.085,0.409l0.087,0.409l0.087,0.409l0.09,0.408l0.09,0.407l0.092,0.407l0.092,0.407l0.094,0.406l0.096,0.406l0.096,0.405l0.098,0.405l0.099,0.404l0.1,0.404l0.102,0.404l0.103,0.403l0.104,0.402l0.105,0.402l0.106,0.402l0.108,0.401l0.108,0.401l0.111,0.4l0.111,0.4l0.112,0.399l0.114,0.399l0.115,0.398l0.116,0.398l0.117,0.397l0.119,0.397l0.119,0.396l0.121,0.396l0.122,0.396l0.123,0.395l0.125,0.394l0.126,0.394l0.126,0.393l0.128,0.393l0.13,0.393l0.13,0.391l0.131,0.392l0.133,0.391l0.134,0.39l0.135,0.39l0.136,0.389l0.138,0.389l0.138,0.388l0.14,0.388l0.141,0.387l0.142,0.387l0.143,0.386l0.145,0.386l0.145,0.385l0.147,0.385l0.148,0.384l0.149,0.383l0.15,0.383l0.151,0.383l0.153,0.381l0.153,0.382l0.155,0.381l0.156,0.38l0.157,0.38l0.158,0.379l0.159,0.378l0.16,0.378l0.162,0.378l0.163,0.377l0.163,0.376l0.165,0.376l0.166,0.375l0.167,0.375l0.168,0.374l0.17,0.373l0.17,0.373l0.172,0.373l0.172,0.371l0.174,0.371l0.175,0.371l0.176,0.37l0.177,0.369l0.178,0.369l0.179,0.368l0.18,0.368l0.182,0.367l0.182,0.366l0.184,0.366l0.185,0.365l0.185,0.365l0.187,0.364l0.188,0.363l0.189,0.363l0.19,0.362l0.191,0.362l0.192,0.361l0.194,0.36l0.194,0.36l0.195,0.359l0.197,0.358l0.197,0.358l0.199,0.357l0.199,0.356l0.201,0.356l0.202,0.355l0.202,0.355l0.204,0.354l0.205,0.353l0.206,0.353l0.207,0.352l0.208,0.351l0.209,0.351l0.21,0.35l0.211,0.349l0.212,0.349l0.213,0.348l0.214,0.347l0.215,0.347l0.216,0.346l0.218,0.345l0.218,0.345l0.219,0.344l0.22,0.343l0.222,0.343l0.222,0.341l0.223,0.341l0.224,0.341l0.226,0.34l0.226,0.339l0.227,0.339l0.228,0.337l0.229,0.337l0.231,0.337l0.231,0.335l0.232,0.335l0.233,0.334l0.234,0.334l0.236,0.332l0.236,0.333l0.237,0.331l0.238,0.331l0.239,0.329l0.24,0.329l0.241,0.329l0.242,0.328l0.243,0.327l0.244,0.326l0.244,0.325l0.246,0.325l0.247,0.324l0.247,0.323l0.249,0.323l0.25,0.321l0.25,0.322l0.252,0.32l0.252,0.319l0.253,0.319l0.255,0.318l0.255,0.317l0.256,0.316l0.257,0.316l0.258,0.315l0.259,0.314l0.26,0.314l0.26,0.312l0.262,0.312l0.263,0.311l0.263,0.31l0.264,0.309l0.266,0.309l0.266,0.308l0.267,0.307l0.268,0.306l0.269,0.306l0.27,0.304l0.271,0.304l0.271,0.303l0.273,0.302l0.273,0.302l0.274,0.3l0.276,0.3l0.276,0.299l0.277,0.299l0.277,0.297l0.279,0.296l0.279,0.296l0.281,0.295l0.281,0.294l0.283,0.293l0.283,0.292l0.283,0.291l0.285,0.291l0.286,0.29l0.286,0.289l0.287,0.289l0.289,0.287l0.288,0.286l0.29,0.286l0.291,0.284l0.291,0.284l0.293,0.283l0.293,0.282l0.294,0.282l0.295,0.28l0.295,0.28l0.297,0.278l0.297,0.278l0.298,0.277l0.299,0.276l0.3,0.275l0.301,0.274l0.301,0.274l0.302,0.272l0.304,0.272l0.303,0.271l0.305,0.269l0.305,0.269l0.307,0.268l0.307,0.268l0.307,0.266l0.309,0.265l0.31,0.264l0.31,0.264l0.311,0.262l0.312,0.262l0.312,0.261l0.313,0.259l0.315,0.26l0.315,0.258l0.315,0.256l0.316,0.257l0.318,0.255l0.318,0.254l0.319,0.254l0.319,0.252l0.32,0.251l0.321,0.251l0.322,0.25l0.322,0.248l0.324,0.248l0.324,0.246l0.324,0.246l0.326,0.245l0.326,0.244l0.327,0.243l0.327,0.242l0.329,0.241l0.329,0.24l0.33,0.239l0.331,0.238l0.331,0.237l0.332,0.236l0.333,0.235l0.333,0.234l0.335,0.234l0.334,0.232l0.336,0.231l0.337,0.23l0.337,0.229l0.337,0.228l0.338,0.228l0.34,0.226l0.34,0.225l0.34,0.225l0.341,0.223l0.342,0.222l0.343,0.221l0.343,0.221l0.344,0.219l0.344,0.218l0.346,0.217l0.346,0.216l0.346,0.215l0.347,0.214l0.349,0.214l0.349,0.212l0.349,0.211l0.35,0.21l0.351,0.209l0.351,0.208l0.352,0.207l0.352,0.205l0.354,0.205l0.354,0.204l0.354,0.203l0.356,0.202l0.355,0.2l0.357,0.2l0.357,0.198l0.358,0.198l0.358,0.196l0.359,0.196l0.36,0.194l0.36,0.193l0.361,0.192l0.361,0.192l0.363,0.19l0.362,0.189l0.363,0.187l0.364,0.187l0.365,0.186l0.365,0.185l0.366,0.183l0.366,0.183l0.367,0.181l0.368,0.18l0.368,0.18l0.369,0.178l0.369,0.177l0.371,0.176l0.37,0.175l0.372,0.173l0.371,0.173l0.372,0.171l0.373,0.171l0.374,0.169l0.374,0.168l0.374,0.167l0.375,0.166l0.376,0.165l0.377,0.164l0.377,0.163l0.377,0.161l0.378,0.161l0.379,0.159l0.379,0.158l0.379,0.157l0.381,0.156l0.381,0.154l0.381,0.154l0.382,0.152l0.382,0.152l0.383,0.15l0.384,0.149l0.384,0.148l0.385,0.146l0.385,0.146l0.385,0.144l0.386,0.143l0.387,0.142l0.387,0.141l0.388,0.14l0.389,0.139l0.388,0.137l0.39,0.136l0.39,0.135l0.39,0.134l0.391,0.133l0.391,0.132l0.392,0.13l0.392,0.129l0.393,0.128l0.394,0.127l0.394,0.126l0.394,0.124l0.395,0.123l0.395,0.122l0.396,0.121l0.396,0.12l0.397,0.118l0.398,0.118l0.398,0.116l0.398,0.115l0.398,0.113l0.4,0.113l0.399,0.111l0.401,0.11l0.401,0.109l0.4,0.107l0.402,0.107l0.402,0.105l0.403,0.104l0.403,0.103l0.403,0.101l0.404,0.1l0.404,0.099l0.405,0.098l0.406,0.097l0.406,0.095l0.406,0.094l0.406,0.093l0.408,0.092l0.407,0.09l0.408,0.089l0.409,0.088l0.408,0.086l0.41,0.086l0.409,0.084l0.41,0.083l0.411,0.081l0.412,0.081l0.411,0.079l0.411,0.077l0.413,0.077l0.413,0.075l0.413,0.074l0.413,0.073l0.414,0.071l0.414,0.07l0.415,0.069l0.416,0.068l0.415,0.066l0.416,0.065l0.416,0.064l0.418,0.062l0.417,0.062l0.418,0.059l0.418,0.059l0.418,0.057l0.419,0.056l0.419,0.055l0.419,0.053l0.421,0.052l0.421,0.051l0.42,0.049l0.421,0.048l0.422,0.047l0.422,0.046l0.422,0.044l0.423,0.042l0.423,0.042l0.424,0.04l0.423,0.039l0.425,0.037l0.424,0.037l0.425,0.034l0.426,0.034l0.426,0.032l0.425,0.031l0.427,0.029l0.427,0.028l0.427,0.027l0.428,0.026l0.428,0.024l0.428,0.022l0.428,0.022l0.429,0.02l0.429,0.018l0.43,0.017l0.43,0.016l0.431,0.015l0.43,0.013l0.431,0.012l0.432,0.01l0.432,0.009l0.432,0.008l0.432,0.006l0.433,0.005l0.433,0.003l0.434,0.003l0.434,0l0.413,0l0.415,-0.002l0.414,-0.003l0.414,-0.005l0.414,-0.006l0.413,-0.007l0.414,-0.008l0.413,-0.009l0.413,-0.011l0.413,-0.012l0.413,-0.013l0.412,-0.015l0.413,-0.016l0.413,-0.017l0.412,-0.018l0.411,-0.02l0.413,-0.021l0.412,-0.022l0.411,-0.023l0.411,-0.025l0.412,-0.025l0.41,-0.028l0.411,-0.028l0.411,-0.03l0.411,-0.03l0.41,-0.032l0.409,-0.034l0.41,-0.034l0.41,-0.036l0.41,-0.037l0.409,-0.038l0.409,-0.04l0.409,-0.041l0.408,-0.042l0.408,-0.043l0.409,-0.044l0.408,-0.046l0.407,-0.047l0.408,-0.048l0.408,-0.05l0.406,-0.05l0.407,-0.052l0.407,-0.053l0.406,-0.054l0.406,-0.056l0.406,-0.057l0.406,-0.058l0.405,-0.059l0.405,-0.06l0.405,-0.062l0.405,-0.063l0.404,-0.064l0.404,-0.065l0.404,-0.067l0.404,-0.067l0.402,-0.069l0.404,-0.07l0.403,-0.072l0.401,-0.072l0.403,-0.074l0.402,-0.075l0.402,-0.076l0.401,-0.078l0.401,-0.078l0.401,-0.08l0.4,-0.081l0.4,-0.082l0.4,-0.084l0.4,-0.084l0.399,-0.086l0.398,-0.087l0.399,-0.088l0.399,-0.09l0.398,-0.09l0.397,-0.092l0.398,-0.093l0.396,-0.094l0.397,-0.095l0.397,-0.097l0.396,-0.097l0.395,-0.099l0.396,-0.1l0.395,-0.102l0.394,-0.102l0.394,-0.104l0.395,-0.105l0.394,-0.106l0.393,-0.107l0.393,-0.108l0.392,-0.11l0.392,-0.11l0.392,-0.112l0.391,-0.113l0.392,-0.114l0.39,-0.116l0.39,-0.116l0.39,-0.118l0.39,-0.119l0.389,-0.12l0.389,-0.121l0.389,-0.123l0.388,-0.123l0.387,-0.125l0.387,-0.126l0.388,-0.127l0.386,-0.128l0.385,-0.129l0.386,-0.131l0.386,-0.132l0.384,-0.132l0.385,-0.134l0.384,-0.135l0.383,-0.137l0.384,-0.137l0.382,-0.139l0.382,-0.139l0.382,-0.142l0.382,-0.142l0.38,-0.142l0.381,-0.145l0.38,-0.145l0.38,-0.147l0.379,-0.148l0.379,-0.149l0.378,-0.15l0.378,-0.151l0.377,-0.152l0.377,-0.153l0.376,-0.155l0.377,-0.156l0.375,-0.156l0.375,-0.158l0.375,-0.16l0.373,-0.16l0.374,-0.161l0.373,-0.163l0.373,-0.163l0.372,-0.165l0.372,-0.166l0.371,-0.167l0.371,-0.168l0.37,-0.169l0.37,-0.17l0.369,-0.172l0.368,-0.172l0.368,-0.174l0.368,-0.175l0.367,-0.176l0.367,-0.177l0.366,-0.178l0.365,-0.179l0.366,-0.18l0.364,-0.182l0.364,-0.182l0.363,-0.184l0.364,-0.185l0.362,-0.186l0.361,-0.186l0.362,-0.189l0.361,-0.189l0.36,-0.19l0.359,-0.191l0.36,-0.193l0.359,-0.194l0.357,-0.194l0.357,-0.196l0.357,-0.196l0.357,-0.199l0.356,-0.199l0.354,-0.2l0.355,-0.201l0.354,-0.202l0.353,-0.203l0.353,-0.205l0.352,-0.205l0.352,-0.207l0.351,-0.208l0.35,-0.208l0.351,-0.21l0.349,-0.211l0.348,-0.212l0.349,-0.214l0.347,-0.214l0.347,-0.215l0.346,-0.216l0.346,-0.218l0.345,-0.218l0.344,-0.22l0.343,-0.22l0.344,-0.222l0.343,-0.223l0.341,-0.223l0.341,-0.225l0.341,-0.226l0.34,-0.227l0.339,-0.228l0.339,-0.229l0.338,-0.231l0.338,-0.231l0.336,-0.232l0.336,-0.233l0.335,-0.234l0.335,-0.236l0.334,-0.237l0.334,-0.237l0.333,-0.239l0.331,-0.239l0.332,-0.241l0.331,-0.242l0.33,-0.242l0.329,-0.244l0.329,-0.246l0.328,-0.245l0.327,-0.247l0.327,-0.248l0.326,-0.249l0.325,-0.25l0.325,-0.251l0.324,-0.253l0.323,-0.253l0.322,-0.254l0.322,-0.255l0.321,-0.256l0.32,-0.258l0.32,-0.258l0.319,-0.259l0.318,-0.261l0.317,-0.261l0.317,-0.262l0.316,-0.264l0.315,-0.265l0.314,-0.265l0.314,-0.267l0.313,-0.267l0.312,-0.269l0.312,-0.269l0.311,-0.271l0.31,-0.271l0.309,-0.273l0.309,-0.274l0.307,-0.275l0.307,-0.275l0.307,-0.277l0.305,-0.278l0.305,-0.278l0.304,-0.28l0.303,-0.281l0.302,-0.282l0.302,-0.283l0.301,-0.283l0.3,-0.285l0.299,-0.286l0.299,-0.287l0.297,-0.287l0.297,-0.289l1.921,-1.88l0.121,-0.155l0.309,-0.316l0.289,-0.297l0.287,-0.297l0.287,-0.299l0.286,-0.299l0.285,-0.3l0.283,-0.301l0.283,-0.302l0.282,-0.302l0.281,-0.303l0.28,-0.304l0.278,-0.305l0.278,-0.305l0.277,-0.307l0.275,-0.307l0.275,-0.307l0.274,-0.309l0.273,-0.309l0.271,-0.31l0.271,-0.311l0.269,-0.312l0.269,-0.312l0.267,-0.313l0.267,-0.314l0.265,-0.314l0.265,-0.315l0.264,-0.316l0.262,-0.317l0.261,-0.317l0.261,-0.318l0.259,-0.319l0.258,-0.32l0.258,-0.32l0.256,-0.321l0.255,-0.322l0.254,-0.322l0.253,-0.323l0.253,-0.324l0.251,-0.325l0.25,-0.325l0.249,-0.326l0.248,-0.327l0.247,-0.327l0.245,-0.328l0.246,-0.329l0.244,-0.329l0.242,-0.33l0.242,-0.331l0.241,-0.332l0.239,-0.331l0.239,-0.333l0.237,-0.334l0.237,-0.334l0.236,-0.335l0.234,-0.335l0.233,-0.336l0.232,-0.336l0.231,-0.338l0.231,-0.338l0.229,-0.339l0.228,-0.339l0.227,-0.34l0.226,-0.341l0.225,-0.341l0.223,-0.341l0.223,-0.343l0.222,-0.344l0.22,-0.343l0.22,-0.344l0.218,-0.345l0.218,-0.346l0.216,-0.346l0.215,-0.347l0.214,-0.347l0.214,-0.349l0.212,-0.348l0.211,-0.349l0.21,-0.351l0.208,-0.35l0.208,-0.351l0.207,-0.352l0.205,-0.352l0.205,-0.353l0.203,-0.353l0.202,-0.354l0.201,-0.355l0.2,-0.354l0.199,-0.356l0.199,-0.357l0.196,-0.357l0.196,-0.357l0.194,-0.357l0.194,-0.359l0.193,-0.36l0.191,-0.359l0.19,-0.36l0.189,-0.361l0.189,-0.362l0.186,-0.361l0.186,-0.362l0.185,-0.364l0.184,-0.363l0.182,-0.364l0.182,-0.364l0.18,-0.366l0.179,-0.365l0.178,-0.366l0.177,-0.367l0.176,-0.367l0.175,-0.368l0.174,-0.368l0.172,-0.368l0.172,-0.369l0.17,-0.37l0.169,-0.37l0.168,-0.371l0.167,-0.371l0.166,-0.372l0.165,-0.372l0.163,-0.373l0.163,-0.373l0.161,-0.374l0.16,-0.373l0.16,-0.375l0.158,-0.375l0.156,-0.375l0.156,-0.377l0.155,-0.376l0.153,-0.377l0.152,-0.377l0.151,-0.378l0.15,-0.378l0.149,-0.379l0.148,-0.379l0.147,-0.38l0.145,-0.38l0.145,-0.381l0.142,-0.38l0.142,-0.382l0.142,-0.382l0.139,-0.382l0.139,-0.382l0.137,-0.384l0.137,-0.383l0.135,-0.384l0.134,-0.385l0.132,-0.384l0.132,-0.386l0.131,-0.386l0.129,-0.385l0.128,-0.386l0.127,-0.388l0.126,-0.387l0.125,-0.387l0.123,-0.388l0.123,-0.389l0.121,-0.389l0.12,-0.389l0.119,-0.39l0.118,-0.39l0.116,-0.39l0.116,-0.39l0.114,-0.392l0.113,-0.391l0.112,-0.392l0.11,-0.392l0.11,-0.392l0.108,-0.393l0.107,-0.393l0.106,-0.394l0.105,-0.395l0.104,-0.394l0.102,-0.394l0.102,-0.395l0.1,-0.396l0.099,-0.395l0.097,-0.396l0.097,-0.397l0.095,-0.397l0.094,-0.396l0.093,-0.398l0.092,-0.397l0.09,-0.398l0.09,-0.399l0.088,-0.399l0.087,-0.398l0.086,-0.399l0.084,-0.4l0.084,-0.4l0.082,-0.4l0.081,-0.4l0.08,-0.401l0.078,-0.401l0.078,-0.401l0.076,-0.402l0.075,-0.402l0.074,-0.403l0.072,-0.401l0.072,-0.403l0.07,-0.404l0.069,-0.402l0.067,-0.404l0.067,-0.404l0.065,-0.404l0.064,-0.404l0.063,-0.405l0.062,-0.405l0.06,-0.405l0.059,-0.405l0.058,-0.406l0.057,-0.406l0.056,-0.406l0.054,-0.406l0.053,-0.407l0.052,-0.407l0.05,-0.406l0.05,-0.408l0.048,-0.408l0.047,-0.407l0.046,-0.408l0.044,-0.409l0.043,-0.408l0.042,-0.408l0.041,-0.409l0.04,-0.409l0.038,-0.409l0.037,-0.41l0.036,-0.41l0.034,-0.41l0.034,-0.409l0.032,-0.41l0.03,-0.411l0.03,-0.411l0.028,-0.411l0.028,-0.41l0.025,-0.412l0.025,-0.411l0.023,-0.411l0.022,-0.412l0.021,-0.413l0.02,-0.411l0.018,-0.412l0.017,-0.413l0.016,-0.413l0.015,-0.412l0.013,-0.413l0.012,-0.413l0.011,-0.413l0.009,-0.413l0.008,-0.414l0.007,-0.413l0.006,-0.414l0.005,-0.414l0.003,-0.414l0.002,-0.415l0,-0.413l0,-0.434l-0.003,-0.434l-0.003,-0.433l-0.005,-0.433l-0.006,-0.432l-0.008,-0.432l-0.009,-0.432l-0.01,-0.432l-0.012,-0.431l-0.013,-0.43l-0.015,-0.431l-0.016,-0.43l-0.017,-0.43l-0.018,-0.429l-0.02,-0.429l-0.022,-0.428l-0.022,-0.428l-0.024,-0.428l-0.026,-0.428l-0.027,-0.427l-0.028,-0.427l-0.029,-0.427l-0.031,-0.425l-0.032,-0.426l-0.034,-0.426l-0.034,-0.425l-0.037,-0.424l-0.037,-0.425l-0.039,-0.423l-0.04,-0.424l-0.042,-0.423l-0.042,-0.423l-0.044,-0.422l-0.046,-0.422l-0.047,-0.422l-0.048,-0.421l-0.049,-0.42l-0.051,-0.421l-0.052,-0.421l-0.053,-0.419l-0.055,-0.419l-0.056,-0.419l-0.057,-0.418l-0.059,-0.418l-0.059,-0.418l-0.062,-0.417l-0.062,-0.418l-0.064,-0.416l-0.065,-0.416l-0.066,-0.415l-0.068,-0.416l-0.069,-0.415l-0.07,-0.414l-0.071,-0.414l-0.073,-0.413l-0.074,-0.413l-0.075,-0.413l-0.077,-0.413l-0.077,-0.411l-0.079,-0.411l-0.081,-0.412l-0.081,-0.411l-0.083,-0.41l-0.084,-0.409l-0.086,-0.41l-0.086,-0.408l-0.088,-0.409l-0.089,-0.408l-0.09,-0.407l-0.092,-0.408l-0.093,-0.406l-0.094,-0.406l-0.095,-0.406l-0.097,-0.406l-0.098,-0.405l-0.099,-0.404l-0.1,-0.404l-0.101,-0.403l-0.103,-0.403l-0.104,-0.403l-0.105,-0.402l-0.107,-0.402l-0.107,-0.4l-0.109,-0.401l-0.11,-0.401l-0.111,-0.399l-0.113,-0.4l-0.113,-0.398l-0.115,-0.398l-0.116,-0.398l-0.118,-0.398l-0.118,-0.397l-0.12,-0.396l-0.121,-0.396l-0.122,-0.395l-0.123,-0.395l-0.124,-0.394l-0.126,-0.394l-0.127,-0.394l-0.128,-0.393l-0.129,-0.392l-0.13,-0.392l-0.132,-0.391l-0.133,-0.391l-0.134,-0.39l-0.135,-0.39l-0.136,-0.39l-0.137,-0.388l-0.139,-0.389l-0.14,-0.388l-0.141,-0.387l-0.142,-0.387l-0.143,-0.386l-0.144,-0.385l-0.146,-0.385l-0.146,-0.385l-0.148,-0.384l-0.149,-0.384l-0.15,-0.383l-0.152,-0.382l-0.152,-0.382l-0.154,-0.381l-0.154,-0.381l-0.156,-0.381l-0.157,-0.379l-0.158,-0.379l-0.159,-0.379l-0.161,-0.378l-0.161,-0.377l-0.163,-0.377l-0.164,-0.377l-0.165,-0.376l-0.166,-0.375l-0.167,-0.374l-0.168,-0.374l-0.169,-0.374l-0.171,-0.373l-0.171,-0.372l-0.173,-0.371l-0.173,-0.372l-0.175,-0.37l-0.176,-0.371l-0.177,-0.369l-0.178,-0.369l-0.18,-0.368l-0.18,-0.368l-0.181,-0.367l-0.183,-0.366l-0.183,-0.366l-0.185,-0.365l-0.186,-0.365l-0.187,-0.364l-0.187,-0.363l-0.189,-0.362l-0.19,-0.363l-0.192,-0.361l-0.192,-0.361l-0.193,-0.36l-0.194,-0.36l-0.196,-0.359l-0.196,-0.358l-0.198,-0.358l-0.198,-0.357l-0.2,-0.357l-0.2,-0.355l-0.202,-0.356l-0.203,-0.354l-0.204,-0.354l-0.205,-0.354l-0.205,-0.352l-0.207,-0.352l-0.208,-0.351l-0.209,-0.351l-0.21,-0.35l-0.211,-0.349l-0.212,-0.349l-0.214,-0.349l-0.214,-0.347l-0.215,-0.346l-0.216,-0.346l-0.217,-0.346l-0.218,-0.344l-0.219,-0.344l-0.221,-0.343l-0.221,-0.343l-0.222,-0.342l-0.223,-0.341l-0.225,-0.34l-0.225,-0.34l-0.226,-0.34l-0.228,-0.338l-0.228,-0.337l-0.229,-0.337l-0.23,-0.337l-0.231,-0.336l-0.232,-0.334l-0.234,-0.335l-0.234,-0.333l-0.235,-0.333l-0.236,-0.332l-0.237,-0.331l-0.238,-0.331l-0.239,-0.33l-0.24,-0.329l-0.241,-0.329l-0.242,-0.327l-0.243,-0.327l-0.244,-0.326l-0.245,-0.326l-0.246,-0.324l-0.246,-0.324l-0.248,-0.324l-0.248,-0.322l-0.25,-0.322l-0.251,-0.321l-0.251,-0.32l-0.252,-0.319l-0.254,-0.319l-0.254,-0.318l-0.255,-0.318l-0.257,-0.316l-0.256,-0.315l-0.258,-0.315l-0.26,-0.315l-0.259,-0.313l-0.261,-0.312l-0.262,-0.312l-0.262,-0.311l-0.264,-0.31l-0.264,-0.31l-0.265,-0.309l-0.266,-0.307l-0.268,-0.307l-0.268,-0.307l-0.269,-0.305l-0.269,-0.305l-0.271,-0.303l-0.272,-0.304l-0.272,-0.302l-0.274,-0.301l-0.274,-0.301l-0.275,-0.3l-0.276,-0.299l-0.277,-0.298l-0.278,-0.297l-0.278,-0.297l-0.28,-0.295l-0.28,-0.295l-0.282,-0.294l-0.282,-0.293l-0.283,-0.293l-0.284,-0.291l-0.284,-0.291l-0.286,-0.29l-0.286,-0.288l-0.287,-0.289l-0.289,-0.287l-0.289,-0.286l-0.29,-0.286l-0.291,-0.285l-0.291,-0.283l-0.292,-0.283l-0.293,-0.283l-0.294,-0.281l-0.295,-0.281l-0.296,-0.279l-0.296,-0.279l-0.297,-0.277l-0.299,-0.277l-0.299,-0.276l-0.3,-0.276l-0.3,-0.274l-0.302,-0.273l-0.302,-0.273l-0.303,-0.271l-0.304,-0.271l-0.304,-0.27l-0.306,-0.269l-0.306,-0.268l-0.307,-0.267l-0.308,-0.266l-0.309,-0.266l-0.309,-0.264l-0.31,-0.263l-0.311,-0.263l-0.312,-0.262l-0.312,-0.26l-0.314,-0.26l-0.314,-0.259l-0.315,-0.258l-0.316,-0.257l-0.316,-0.256l-0.317,-0.255l-0.318,-0.255l-0.319,-0.253l-0.319,-0.252l-0.32,-0.252l-0.322,-0.25l-0.321,-0.25l-0.323,-0.249l-0.323,-0.247l-0.324,-0.247l-0.325,-0.246l-0.325,-0.244l-0.326,-0.244l-0.327,-0.243l-0.328,-0.242l-0.329,-0.241l-0.329,-0.24l-0.329,-0.239l-0.331,-0.238l-0.331,-0.237l-0.333,-0.236l-0.332,-0.236l-0.334,-0.234l-0.334,-0.233l-0.335,-0.232l-0.335,-0.231l-0.337,-0.231l-0.337,-0.229l-0.337,-0.228l-0.339,-0.227l-0.339,-0.226l-0.34,-0.226l-0.341,-0.224l-0.341,-0.223l-0.341,-0.222l-0.343,-0.222l-0.343,-0.22l-0.344,-0.219l-0.345,-0.218l-0.345,-0.218l-0.346,-0.216l-0.347,-0.215l-0.347,-0.214l-0.348,-0.213l-0.349,-0.212l-0.349,-0.211l-0.35,-0.21l-0.351,-0.209l-0.351,-0.208l-0.352,-0.207l-0.353,-0.206l-0.353,-0.205l-0.354,-0.204l-0.355,-0.202l-0.355,-0.202l-0.356,-0.201l-0.356,-0.199l-0.357,-0.199l-0.358,-0.197l-0.358,-0.197l-0.359,-0.195l-0.36,-0.194l-0.36,-0.194l-0.361,-0.192l-0.362,-0.191l-0.362,-0.19l-0.363,-0.189l-0.363,-0.188l-0.364,-0.187l-0.365,-0.185l-0.365,-0.185l-0.366,-0.184l-0.366,-0.182l-0.367,-0.182l-0.368,-0.18l-0.368,-0.179l-0.369,-0.178l-0.369,-0.177l-0.37,-0.176l-0.371,-0.175l-0.371,-0.174l-0.371,-0.172l-0.373,-0.172l-0.373,-0.17l-0.373,-0.17l-0.374,-0.168l-0.375,-0.167l-0.375,-0.166l-0.376,-0.165l-0.376,-0.163l-0.377,-0.163l-0.378,-0.162l-0.378,-0.16l-0.378,-0.159l-0.379,-0.158l-0.38,-0.157l-0.38,-0.156l-0.381,-0.155l-0.382,-0.153l-0.381,-0.153l-0.383,-0.151l-0.383,-0.15l-0.383,-0.149l-0.384,-0.148l-0.385,-0.147l-0.385,-0.145l-0.386,-0.145l-0.386,-0.143l-0.387,-0.142l-0.387,-0.141l-0.388,-0.14l-0.388,-0.138l-0.389,-0.138l-0.389,-0.136l-0.39,-0.135l-0.39,-0.134l-0.391,-0.133l-0.392,-0.131l-0.391,-0.13l-0.393,-0.13l-0.393,-0.128l-0.393,-0.126l-0.394,-0.126l-0.394,-0.125l-0.395,-0.123l-0.396,-0.122l-0.396,-0.121l-0.396,-0.119l-0.397,-0.119l-0.397,-0.117l-0.398,-0.116l-0.398,-0.115l-0.399,-0.114l-0.399,-0.112l-0.4,-0.111l-0.4,-0.111l-0.401,-0.108l-0.401,-0.108l-0.402,-0.106l-0.402,-0.105l-0.402,-0.104l-0.403,-0.103l-0.404,-0.102l-0.404,-0.1l-0.404,-0.099l-0.405,-0.098l-0.405,-0.096l-0.406,-0.096l-0.406,-0.094l-0.407,-0.092l-0.407,-0.092l-0.407,-0.09l-0.408,-0.09l-0.409,-0.087l-0.409,-0.087l-0.409,-0.085l-0.41,-0.084l-0.41,-0.083l-0.411,-0.082l-0.411,-0.08l-0.411,-0.079l-0.412,-0.078l-0.412,-0.076l-0.413,-0.076l-0.413,-0.074l-0.414,-0.072l-0.414,-0.072l-0.414,-0.07l-0.415,-0.069l-0.415,-0.067l-0.416,-0.067l-0.416,-0.065l-0.416,-0.063l-0.417,-0.063l-0.417,-0.061l-0.418,-0.06l-0.418,-0.058l-0.418,-0.058l-0.419,-0.056l-0.42,-0.054l-0.419,-0.053l-0.42,-0.052l-0.421,-0.051l-0.421,-0.05l-0.421,-0.048l-0.421,-0.046l-0.422,-0.046l-0.423,-0.044l-0.422,-0.043l-0.424,-0.041l-0.423,-0.04l-0.424,-0.039l-0.424,-0.038l-0.425,-0.036l-0.425,-0.035l-0.425,-0.033l-0.426,-0.032l-0.426,-0.031l-0.426,-0.03l-0.427,-0.028l-0.427,-0.027l-0.428,-0.025l-0.428,-0.024l-0.428,-0.023l-0.429,-0.021l-0.429,-0.02l-0.429,-0.019l-0.43,-0.017l-0.43,-0.016l-0.43,-0.014l-0.431,-0.013l-0.431,-0.012l-0.431,-0.011l-0.432,-0.009l-0.432,-0.007l-0.433,-0.007l-0.432,-0.004l-0.434,-0.004l-0.433,-0.002l-0.434,-0.001l-0.433,0.001Z" style="fill:#fff;"/></svg>