<?xml version="1.0" encoding="UTF-8" standalone="no"?>
<svg width="190px" height="142px" viewBox="0 0 190 142" version="1.1" xmlns="http://www.w3.org/2000/svg" xmlns:xlink="http://www.w3.org/1999/xlink">
    <!-- Generator: Sketch 42 (36781) - http://www.bohemiancoding.com/sketch -->
    <title>Group</title>
    <desc>Created with Sketch.</desc>
    <defs></defs>
    <g id="Page-1" stroke="none" stroke-width="1" fill="none" fill-rule="evenodd">
        <g id="Group" transform="translate(0.000000, -24.000000)" fill="#000000">
            <g id="wordmark-eng">
                <path d="M78.1743,96.2847 C78.2393,96.0227 77.9553,95.3837 77.2733,95.5787 C74.2303,96.4467 71.8163,96.5627 69.9383,96.3087 C65.5263,95.7087 64.4813,96.3567 63.2713,96.8747 C62.5413,97.1877 62.1303,96.8017 62.8013,96.3417 C67.2963,93.2487 72.5723,93.6687 74.9753,93.9187 C76.9723,94.1277 82.0863,94.5307 84.4663,94.0777 C87.0153,93.5917 87.0903,93.5297 88.2743,93.5297 C89.1653,93.5297 89.6123,93.6407 89.6123,94.0877 C89.6123,94.7007 89.0823,94.6827 87.6323,95.0727 C86.4833,95.3797 84.5433,96.6157 83.9023,99.3947 L77.0163,127.7207 C76.7953,128.5577 76.6253,129.9517 76.6253,130.8987 C76.6253,132.1567 77.4613,132.1387 78.2433,132.2477 C80.7923,132.6007 80.9213,132.6847 80.9773,133.5197 C80.9773,133.6897 80.6993,133.8557 80.0863,133.8557 C78.0783,133.8557 74.5643,133.6337 71.8303,133.6337 C68.9303,133.6337 67.6113,133.8557 66.1063,133.8557 C65.6033,133.8557 65.3243,133.5777 65.3243,133.2417 C65.3243,132.6297 65.6793,132.6007 66.7943,132.3767 C68.0203,132.1557 69.5073,131.6247 69.9503,129.8407 L78.1743,96.2847 Z" id="Fill-1"></path>
                <path d="M83.9263,118.4234 C84.9853,118.4234 85.5433,119.3734 86.3223,120.5454 C86.8823,121.3794 87.9053,122.5724 89.4683,122.5724 C90.5263,122.5724 91.0293,121.4014 91.0293,120.8434 C91.0293,118.5574 89.6133,116.0274 88.4433,113.9064 C87.2173,111.7324 86.0433,110.0594 86.0433,108.1634 C86.0433,105.3354 89.8223,101.5244 93.5733,101.5244 C95.6393,101.5244 97.4523,102.4444 97.4523,104.6204 C97.4523,105.7354 96.7853,106.5154 95.6673,106.5154 C94.8863,106.5154 94.6063,106.2904 93.9373,105.5124 C93.1583,104.5634 92.5433,103.2064 91.3173,103.2064 C90.2023,103.2064 89.5893,103.9314 89.5893,104.9364 C89.5893,106.6624 91.1213,108.6644 92.3483,110.6714 C93.5733,112.6804 94.8563,114.7424 94.8563,116.8064 C94.8563,120.7674 90.5063,124.2264 86.3783,124.2264 C84.3693,124.2264 82.2523,123.0544 82.2523,120.6554 C82.2523,119.4284 82.6433,118.4234 83.9263,118.4234" id="Fill-3"></path>
                <path d="M122.749,116.1168 C120.658,118.7738 116.379,123.9668 112.596,124.2208 C110.147,124.3858 109.466,123.1188 109.304,120.7238 C108.832,113.7128 119.004,103.6948 124.792,103.3038 C126.182,103.2108 126.365,103.4198 127.327,103.5818 C128.372,101.6658 128.618,101.5128 129.62,101.5638 C131.682,101.6698 133.049,101.8458 133.093,102.4928 C133.18,103.7708 126.659,117.8268 126.78,119.6068 C126.787,119.7068 126.5,120.8278 127.543,120.8688 C128.92,120.9208 132.097,116.5768 132.339,116.5178 C132.561,116.4658 132.672,116.6998 132.694,117.0138 C132.73,117.5698 129.073,123.8118 123.566,124.1828 C122.009,124.2888 121.592,123.9258 121.52,122.8688 C121.385,120.8098 124.262,115.3578 124.222,114.7458 C124.213,114.6378 124.078,114.5268 123.988,114.5948 C123.86,114.6868 123.489,115.1698 122.735,116.1038 L121.734,115.3688 C122.529,114.4468 123.093,113.7208 123.601,112.9988 C125.691,110.0088 126.596,107.2388 126.71,106.2428 C126.865,104.9118 126.409,104.3068 125.018,104.3998 C120.678,104.6928 114.444,114.0498 114.703,117.8898 C114.773,118.9398 115.302,119.3028 116.415,119.2288 C117.899,119.1298 119.965,117.4068 121.792,115.3058 L122.749,116.1168 Z" id="Fill-5"></path>
                <path d="M110.123,93.0899 C110.623,93.1129 111.182,93.1689 111.182,93.9509 C111.182,94.5069 110.437,95.8739 110.103,96.7659 L104.787,111.8409 C103.17,116.3589 102.318,118.5899 102.318,119.1499 C102.318,119.5519 102.528,119.9799 103.142,119.9799 C103.924,119.9799 105.44,118.5989 106.69,117.0739 C107.431,116.1729 107.719,115.6479 107.884,115.6479 C108.164,115.6479 108.3,115.7819 108.3,116.1169 C108.3,116.3419 106.921,118.6579 105.461,120.1169 C103.236,122.3419 101.038,124.2809 99.362,124.2809 C97.857,124.2809 97.244,123.7779 97.244,121.9369 C97.244,120.8779 97.482,119.5369 98.204,117.4199 L104.69,98.5519 C104.969,97.7149 105.138,96.9349 105.138,96.5429 C105.138,95.8169 104.511,95.2639 102.447,94.9859 C101.61,94.8749 101.387,94.7609 101.387,94.4829 C101.387,93.8699 101.782,93.3819 102.947,93.5099 C106.465,93.9049 107.953,93.7469 110.123,93.0899" id="Fill-7"></path>
                <path d="M140.0596,107.9332 L135.5206,120.3882 C135.2426,121.0572 135.0756,121.7812 135.0756,122.5052 C135.0756,123.2322 135.2086,124.2852 136.9936,124.2852 C138.2036,124.2852 138.5766,123.2682 140.0346,120.8262 C146.4466,110.0632 148.7466,103.9672 152.2036,103.9672 C152.7606,103.9672 153.3756,104.5132 153.3756,104.9562 C153.3756,105.5722 153.1156,106.2692 152.0006,108.4992 L146.2096,120.5432 C145.3136,122.3922 144.9146,124.3212 147.2746,124.3212 C153.3756,124.3212 157.6806,117.9352 157.6806,116.9782 C157.6806,116.5852 157.4296,116.4582 157.2806,116.5342 C156.7966,116.7782 156.5506,117.5572 155.7706,118.3352 C155.2106,118.8932 153.4976,120.8882 152.5466,120.8882 C152.1596,120.8882 151.7226,120.5902 151.7226,120.1992 C151.7226,119.5852 151.8196,118.8182 152.8246,116.9212 L156.9106,108.9462 C157.9136,106.9932 158.0546,105.5662 158.0546,104.7292 C158.0546,102.2382 156.0816,101.3822 154.1466,101.3822 C149.0116,101.3822 145.6486,109.7722 141.2756,116.9832 L141.1876,116.7262 C143.0086,111.9062 145.1936,107.1322 145.1936,104.2052 C145.1936,102.4182 144.5236,101.5282 142.7406,101.5282 C139.3926,101.5282 137.8836,104.9302 135.7646,107.4952 C134.5376,109.0022 134.6496,109.2962 134.6496,109.5222 C134.6496,109.6552 134.8006,109.7562 134.9676,109.7702 C135.3636,109.8022 135.6336,109.0982 136.9166,107.5932 C138.3646,105.9202 138.9146,105.0852 139.6966,105.0852 C140.4246,105.0852 140.6436,106.3042 140.0596,107.9332" id="Fill-9"></path>
                <path d="M181.7021,84.6378 C182.2211,84.6308 184.0861,84.6548 185.3201,84.6398 C186.5511,84.6258 187.1721,84.5338 188.7281,84.3208 C189.6681,84.1918 189.9631,84.5168 189.9671,84.8508 C189.9711,85.1868 189.8101,85.6908 189.4311,86.6978 L177.3261,117.0528 C177.0021,117.8908 176.5231,119.6018 176.5311,120.1578 C176.5351,120.6048 176.8791,121.0458 177.3221,121.0398 C178.3331,121.0278 179.3141,119.7898 181.1091,117.8308 C182.1071,116.7378 182.0011,116.6918 182.2171,116.6888 C182.3741,116.6868 182.4931,116.8988 182.4971,117.1378 C182.5081,118.0288 178.4841,124.2808 173.2411,124.3428 C172.1231,124.3538 171.5621,124.1798 171.5121,123.1748 C171.4501,121.9028 171.6291,121.1748 171.8081,120.3018 C172.0521,119.1008 173.0201,116.6928 173.5671,115.7388 L173.4541,115.6288 C172.9871,116.1328 172.2251,116.9868 171.6231,117.6478 L170.9621,116.4548 C174.3021,113.3088 177.2191,107.4938 177.1861,104.7418 C177.1781,103.7748 176.3391,103.1638 175.5571,103.1738 C170.3531,103.2348 164.1161,113.5268 164.1621,117.3558 C164.1811,119.0858 165.5011,119.7188 166.5221,119.4388 C167.9871,119.0378 169.6051,117.7018 171.0261,116.3988 L171.6191,117.6438 C169.0561,120.4358 165.4011,124.3078 161.8871,124.3488 C159.2421,124.3818 158.5431,121.3338 158.5271,120.0838 C158.4601,114.3128 161.2641,110.0358 163.4881,107.8118 C169.2431,102.1168 173.5101,101.6108 174.4361,101.5998 C176.1651,101.5808 177.1321,102.0368 178.0151,102.7338 L183.3811,89.2228 C183.6511,88.5508 183.9211,87.7108 183.9151,87.1538 C183.9061,86.5398 183.6231,86.0968 183.1201,86.0478 C181.2671,85.8798 180.7421,85.7838 180.7391,85.3138 C180.7311,84.8128 180.9771,84.6468 181.7021,84.6378" id="Fill-11"></path>
                <path d="M60.5444,30.439 L57.3344,43.769 C66.3564,43.226 69.5574,36.729 69.4744,33.83 C69.3294,28.925 64.0474,25.417 59.0884,25.562 C49.3304,25.846 42.1524,29.052 39.8454,33.447 C38.9424,35.175 41.0764,35.555 40.6584,37.904 C40.3594,39.578 39.1364,40.773 37.4324,40.823 C36.2764,40.856 34.3324,39.77 34.6024,37.301 C35.3824,30.166 50.7294,22.656 64.3924,24.483 C71.8014,25.473 75.1774,27.785 75.5704,32.86 C75.8834,36.88 72.9114,44.15 58.9434,45.238 C58.3304,45.285 57.6604,45.22 57.0434,45.182 L54.6864,54.876 C54.4944,55.942 54.4014,56.559 54.4184,57.117 C54.4564,58.455 55.1364,58.825 55.6964,58.864 C59.6084,59.142 59.1204,59.49 59.1314,59.881 C59.1474,60.439 58.8744,60.669 57.4814,60.71 C56.1444,60.749 54.2444,60.29 51.0094,60.383 C48.5574,60.455 44.4564,60.683 43.5074,60.711 C42.7274,60.733 42.4964,60.461 42.4794,59.903 C42.4634,59.345 42.6284,59.285 43.5164,59.036 C44.7344,58.723 47.1074,59.014 47.4974,57.049 C48.6424,51.822 53.5514,31.462 53.5514,31.462 C53.6354,30.973 53.8474,30.869 54.1844,30.86 C55.2214,30.83 58.7174,30.447 60.1334,29.984 C60.5364,29.929 60.5694,30.373 60.5444,30.439" id="Fill-13"></path>
                <path d="M143.1455,38.231 C145.0985,38.231 147.7195,38.956 147.7195,41.242 C147.7195,42.414 146.8825,43.306 145.5995,43.306 C144.2605,43.306 143.5375,42.693 142.7005,41.354 C142.2545,40.629 142.3175,39.579 141.2575,39.579 C139.4725,39.579 138.1225,43.92 137.4545,45.539 C136.2835,48.439 135.4745,51.993 135.4745,53.554 C135.4745,55.531 136.4605,56.326 137.8325,56.326 C138.7565,56.326 139.9785,56.326 141.0755,55.179 C142.1395,54.063 142.6925,53.003 143.0815,53.003 C143.4505,53.003 143.3795,53.387 143.3795,53.469 C143.3795,54.194 139.4725,61.158 135.0855,61.158 C131.5725,61.158 130.3435,58.295 130.3435,54.948 C130.3435,47.364 135.4485,38.231 143.1455,38.231" id="Fill-15"></path>
                <path d="M105.3174,25.0948 C106.7114,25.0948 107.7144,25.8188 107.7144,27.7168 C107.7144,30.0038 105.8194,32.3448 103.6434,32.3448 C102.4714,32.3448 101.3564,31.6188 101.3564,29.6128 C101.3564,26.6008 103.8104,25.0948 105.3174,25.0948" id="Fill-17"></path>
                <path d="M165.6494,61.6817 C150.9084,61.8347 146.7094,58.2307 146.5724,53.4387 C146.3374,45.3647 153.5054,38.2307 158.7924,38.2307 C161.8424,38.2307 163.3914,39.9167 163.1994,42.7557 C162.7974,48.7667 154.1784,50.1987 150.8374,50.6867 C150.9364,50.0057 150.9324,49.6997 150.9324,49.6997 C159.0704,48.0477 162.7534,39.0987 158.6694,39.1297 C155.6994,39.1517 152.5254,45.8587 151.3634,49.3197 C148.0984,59.0487 168.1534,57.4257 168.2664,57.4277 C177.7254,57.5657 184.4514,52.0587 183.7464,49.7097 C183.6784,49.4827 182.9684,48.4867 181.2134,48.2177 C179.5664,47.9637 178.6554,45.3337 180.5334,43.9007 C180.8364,43.6727 183.0734,42.6537 184.1014,44.7127 C187.7104,51.9327 180.0884,61.5327 165.6494,61.6817" id="Fill-19"></path>
                <path d="M97.5146,55.3282 C97.1186,56.1412 96.7766,57.9252 98.2646,57.6432 C99.0356,57.4982 100.2956,56.2352 101.1766,55.2502 C102.0666,54.2592 102.4556,53.3652 102.7346,53.3652 C103.0146,53.3652 103.1896,53.6122 103.1896,53.8352 C103.1896,55.3972 97.3986,61.0842 92.8786,61.0842 C91.5936,61.0842 90.9246,60.8052 90.9246,59.8002 C90.9246,59.1302 91.3716,57.9052 91.9846,56.6222 L98.2036,44.1992 C98.5936,43.4182 98.8856,42.8512 98.8856,42.6832 C98.8856,42.1572 98.4266,41.9212 98.0696,41.9212 C96.8976,41.9212 95.9056,42.8392 94.9246,43.7342 C93.7706,44.7892 93.3956,45.0452 93.1176,45.0452 C92.9586,45.0452 92.8766,44.9862 92.8766,44.9142 C92.8766,43.7542 99.4396,38.2312 102.4996,38.2312 C104.0066,38.2312 104.6206,38.6772 104.6206,39.9042 C104.6206,40.8522 104.1736,41.9682 103.7276,42.8592 L97.5146,55.3282 Z" id="Fill-21"></path>
                <path d="M73.3086,47.877 C73.8066,47.617 75.5776,42.753 77.5356,42.495 C77.9206,42.443 78.6426,42.962 78.6426,43.351 C78.6426,44.133 78.5936,44.598 78.1486,46.104 C74.3546,58.43 74.0946,58.21 74.0946,58.935 C74.0946,59.605 73.8266,61.107 76.3376,61.107 C77.7306,61.107 78.4566,57.798 82.4716,50.268 C83.4216,48.484 86.4896,41.679 87.9386,41.679 C88.3296,41.679 88.6646,42.126 88.6646,42.962 C88.6646,44.356 88.9996,45.303 90.0606,45.303 C91.7886,45.303 92.4126,43.623 92.4126,41.95 C92.4126,40.585 92.2056,38.222 89.9356,38.222 C86.5896,38.222 84.8216,43.783 80.8606,51.591 L80.6856,51.382 C81.8406,47.047 82.4356,44.203 82.6956,40.676 C82.8266,38.897 81.9706,38.222 80.6876,38.222 C77.4766,38.222 72.7646,45.951 72.7646,47.648 C72.7646,47.915 73.0326,48.019 73.3086,47.877" id="Fill-23"></path>
                <path d="M110.9658,44.6719 L106.4268,57.1269 C106.1468,57.7969 105.9808,58.5219 105.9808,59.2469 C105.9808,59.9719 106.1138,61.0229 107.8988,61.0229 C109.1068,61.0229 109.4818,60.0089 110.9378,57.5649 C117.3558,46.8009 119.6518,40.7079 123.1108,40.7079 C123.6668,40.7079 124.2798,41.2509 124.2798,41.6969 C124.2798,42.3109 124.0218,43.0089 122.9058,45.2389 L117.1148,57.2819 C116.2178,59.1329 115.8178,61.0619 118.1798,61.0619 C124.2798,61.0619 128.5838,54.6769 128.5838,53.7169 C128.5838,53.3269 128.3378,53.1989 128.1868,53.2729 C127.7018,53.5169 127.4558,54.2949 126.6758,55.0769 C126.1188,55.6339 124.4018,57.6289 123.4528,57.6289 C123.0618,57.6289 122.6258,57.3289 122.6258,56.9389 C122.6258,56.3239 122.7278,55.5569 123.7298,53.6609 L127.8158,45.6849 C128.8198,43.7329 128.9588,42.3049 128.9588,41.4679 C128.9588,38.9759 126.9878,38.1219 125.0548,38.1219 C119.9178,38.1219 116.5558,46.5119 112.1808,53.7239 L112.0958,53.4659 C113.9138,48.6469 116.0988,43.8729 116.0988,40.9459 C116.0988,39.1609 115.4308,38.2669 113.6448,38.2669 C110.2988,38.2669 108.7898,41.6699 106.6698,44.2349 C105.4428,45.7409 105.5528,46.0379 105.5528,46.2599 C105.5528,46.3939 105.7068,46.4969 105.8758,46.5099 C106.2678,46.5429 106.5368,45.8399 107.8198,44.3339 C109.2718,42.6609 109.8198,41.8239 110.6028,41.8239 C111.3328,41.8239 111.5488,43.0449 110.9658,44.6719" id="Fill-25"></path>
                <path d="M15.9541,90.8677 C14.6151,90.8677 12.8761,91.0667 11.4831,91.0667 C10.5661,91.0667 10.1081,91.0217 10.0881,90.6257 C10.0561,90.0137 10.5901,89.8447 11.5951,89.6777 C13.6011,89.3427 14.6601,87.7247 15.2191,84.7697 C17.9491,70.2667 20.6331,61.2837 20.6331,60.3907 C20.6331,59.2747 20.0741,59.1087 16.6741,58.8287 C16.0041,58.7737 15.6781,58.8427 15.6781,58.3967 C15.6781,57.7837 16.0131,57.6717 16.4561,57.6717 L39.0081,57.6717 C40.0681,57.6717 40.2861,57.8377 40.2861,58.5637 C40.2861,58.9537 40.1811,59.2547 40.1321,59.7257 L39.4081,63.5507 C39.2081,64.5377 39.2301,65.2567 38.6721,65.2567 C37.9481,65.2567 37.7241,65.0337 37.6691,64.0297 C37.4741,60.5887 36.4151,59.0327 32.4651,59.0327 L28.4471,59.0327 C27.6131,59.0327 27.4451,59.2007 27.2781,59.8687 L24.7251,71.4377 C24.6701,71.6617 24.6141,72.1837 24.6141,72.4067 C24.6141,72.6297 24.7811,72.7407 27.0121,72.7407 C33.3921,72.7407 34.4231,71.3017 35.5461,68.6587 C35.9901,67.5997 36.0381,67.4217 36.5951,67.4217 C36.8851,67.4217 37.0181,67.6457 37.0181,68.1477 C37.0181,68.7047 36.3391,71.0597 35.9771,72.5887 C35.6061,74.1757 35.4821,75.2497 35.2581,77.3147 C35.1471,78.3177 34.8991,79.3787 34.2291,79.3787 C33.6161,79.3787 33.5741,79.0987 33.5741,78.5417 C33.5741,77.9287 33.6301,77.3147 33.6301,76.7007 C33.6301,74.2467 31.9881,73.9687 29.2021,73.7457 L25.0591,73.7537 C24.6981,73.7537 24.2831,73.6607 24.2081,73.9567 L21.4541,85.2897 C21.2861,86.0707 20.9661,87.2977 20.9661,88.0777 C20.9661,88.9707 21.6151,89.4917 23.4581,89.4917 L26.3581,89.4917 C34.9611,89.4917 35.3531,86.3147 36.6131,83.7947 C36.8371,83.3477 37.0671,82.8817 37.4581,82.8817 C38.0151,82.8817 38.2391,83.3277 38.2391,83.8867 C38.2391,84.4437 38.1361,84.7877 38.0241,85.2897 L37.0101,90.4487 C36.9001,90.8947 36.7881,91.0617 35.9521,91.0617 L15.9541,90.8677 Z" id="Fill-27"></path>
                <path d="M112.8535,83.3492 C110.7645,86.0062 106.4855,91.1992 102.7025,91.4532 C100.2535,91.6192 99.5715,90.3492 99.4105,87.9562 C98.9385,80.9452 109.1085,70.9252 114.8965,70.5362 C116.2885,70.4422 116.4705,70.6532 117.4315,70.8122 C118.4755,68.8972 118.7235,68.7452 119.7265,68.7952 C121.7885,68.9022 123.1545,69.0792 123.1995,69.7232 C123.2835,71.0032 116.7655,85.0592 116.8845,86.8402 C116.8905,86.9402 116.6045,88.0602 117.6495,88.1002 C119.0265,88.1522 122.2035,83.8072 122.4455,83.7502 C122.6665,83.6972 122.7755,83.9322 122.7955,84.2452 C122.8355,84.8032 119.1775,91.0452 113.6715,91.4162 C112.1135,91.5212 111.6965,91.1582 111.6265,90.1012 C111.4885,88.0422 114.3685,82.5902 114.3265,81.9792 C114.3175,81.8682 114.1825,81.7612 114.0915,81.8262 C113.9645,81.9192 113.5955,82.4012 112.8415,83.3382 L111.8405,82.6002 C112.6355,81.6782 113.1985,80.9522 113.7045,80.2322 C115.7955,77.2412 116.6995,74.4722 116.8145,73.4742 C116.9715,72.1452 116.5155,71.5382 115.1245,71.6322 C110.7845,71.9252 104.5505,81.2812 104.8095,85.1212 C104.8795,86.1732 105.4065,86.5352 106.5215,86.4592 C108.0025,86.3612 110.0685,84.6392 111.8985,82.5382 L112.8535,83.3492 Z" id="Fill-29"></path>
                <path d="M68.8691,87.1187 C68.9641,84.0987 72.4751,77.8817 73.2821,74.7807 C73.3791,74.4037 72.9351,73.2647 71.8831,73.2647 C71.2131,73.2647 70.2551,73.5717 68.8621,75.1897 C67.0201,77.3087 66.9761,77.8147 66.5851,77.8147 C66.4461,77.8147 66.3521,77.7517 66.3521,77.6367 C66.3521,76.2407 72.5181,68.6747 76.2361,68.6747 C77.8541,68.6747 78.9691,69.4007 78.9691,71.0177 C78.9691,71.7977 78.5771,73.0827 78.2431,73.9177 L74.7301,82.8967 C74.4521,83.6217 74.2141,84.2017 74.2141,85.3177 C74.2141,86.4897 74.7161,87.3817 76.4441,87.3817 C80.0171,87.3817 84.7691,77.1917 85.6641,75.0897 L87.6401,70.0467 C88.0861,68.9307 88.2541,68.7077 90.5971,68.7077 C92.1021,68.7077 92.3791,68.9867 92.3791,69.4887 C92.3791,69.9357 92.0451,70.7707 91.7121,71.9987 L88.2181,81.3227 C87.6591,82.8287 87.4231,84.2267 87.4231,85.6777 C87.4231,86.9597 88.2111,87.5187 89.6051,87.5187 C90.9441,87.5187 92.9321,85.7657 93.6561,84.8727 C95.9991,82.0297 98.5591,78.9147 98.5591,75.1237 C98.5591,72.8367 97.4181,71.9567 97.4181,70.6187 C97.4181,69.0577 98.2001,68.2217 99.4271,68.2217 C100.8221,68.2217 101.5461,69.2247 101.5461,70.9537 C101.5461,77.1057 92.4201,91.4307 85.4421,91.4307 C84.0271,91.4307 82.0381,90.1777 82.0381,88.1197 C82.0381,85.9447 82.9661,83.2157 83.6351,81.5977 L83.5261,81.4867 C81.0141,84.8897 77.5451,91.4307 73.0841,91.4307 C69.6601,91.4307 68.8491,87.8317 68.8691,87.1187" id="Fill-31"></path>
                <path d="M125.4736,78.296 C125.9736,78.038 127.7446,73.173 129.7016,72.914 C130.0886,72.862 130.8056,73.381 130.8056,73.772 C130.8056,74.552 130.7616,75.019 130.3136,76.523 C126.5226,88.849 126.2606,88.63 126.2606,89.355 C126.2606,90.025 125.9946,91.527 128.5026,91.527 C129.8986,91.527 130.6216,88.218 134.6376,80.688 C135.5856,78.903 138.6546,72.098 140.1056,72.098 C140.4956,72.098 140.8296,72.545 140.8296,73.383 C140.8296,74.777 141.1656,75.724 142.2236,75.724 C143.9546,75.724 144.5786,74.044 144.5786,72.369 C144.5786,71.003 144.3696,68.641 142.1036,68.641 C138.7556,68.641 136.9896,74.204 133.0286,82.011 L132.8506,81.801 C134.0086,77.466 134.6016,74.622 134.8616,71.096 C134.9926,69.316 134.1376,68.641 132.8546,68.641 C129.6406,68.641 124.9296,76.372 124.9296,78.067 C124.9296,78.335 125.1976,78.439 125.4736,78.296" id="Fill-33"></path>
                <path d="M63.7031,51.8131 C64.2211,51.8071 66.0861,51.8311 67.3191,51.8151 C68.5531,51.8011 69.1721,51.7081 70.7291,51.4961 C71.6681,51.3661 71.9631,51.6921 71.9671,52.0271 C71.9721,52.3611 71.8091,52.8651 71.4311,53.8741 L59.3271,84.2271 C59.0021,85.0691 58.5241,86.7751 58.5301,87.3341 C58.5361,87.7791 58.8791,88.2211 59.3251,88.2141 C60.3351,88.2031 61.3151,86.9631 63.1101,85.0051 C64.1081,83.9151 64.0011,83.8671 64.2171,83.8641 C64.3741,83.8621 64.4941,84.0741 64.4971,84.3131 C64.5071,85.2041 60.4821,91.4561 55.2411,91.5181 C54.1231,91.5311 53.5631,91.3551 53.5131,90.3521 C53.4501,89.0781 53.6291,88.3491 53.8071,87.4761 C54.0531,86.2781 55.0211,83.8701 55.5671,82.9151 L55.4541,82.8051 C54.9871,83.3061 54.2261,84.1621 53.6231,84.8231 L52.9621,83.6311 C56.3021,80.4841 59.2201,74.6671 59.1891,71.9191 C59.1781,70.9511 58.3381,70.3381 57.5581,70.3491 C52.3531,70.4081 46.1171,80.7021 46.1621,84.5331 C46.1821,86.2611 47.5011,86.8951 48.5231,86.6141 C49.9851,86.2111 51.6071,84.8771 53.0271,83.5731 L53.6201,84.8171 C51.0561,87.6111 47.4021,91.4831 43.8871,91.5241 C41.2431,91.5551 40.5441,88.5091 40.5271,87.2601 C40.4591,81.4881 43.2641,77.2131 45.4891,74.9861 C51.2421,69.2921 55.5111,68.7861 56.4371,68.7751 C58.1651,68.7551 59.1331,69.2111 60.0161,69.9101 L65.3811,56.3991 C65.6511,55.7271 65.9211,54.8871 65.9131,54.3281 C65.9071,53.7161 65.6231,53.2721 65.1201,53.2231 C63.2671,53.0541 62.7431,52.9591 62.7391,52.4901 C62.7331,51.9881 62.9771,51.8221 63.7031,51.8131" id="Fill-35"></path>
                <path d="M164.1982,51.7315 C164.7192,51.7265 166.5822,51.7495 167.8162,51.7345 C169.0482,51.7195 169.6692,51.6275 171.2232,51.4135 C172.1632,51.2865 172.4592,51.6115 172.4632,51.9455 C172.4672,52.2795 172.3042,52.7845 171.9272,53.7925 L159.8212,84.1465 C159.4972,84.9855 159.0192,86.6935 159.0272,87.2525 C159.0312,87.6985 159.3742,88.1375 159.8192,88.1335 C160.8302,88.1215 161.8102,86.8825 163.6052,84.9235 C164.6042,83.8335 164.4962,83.7855 164.7142,83.7825 C164.8712,83.7815 164.9882,83.9935 164.9922,84.2295 C165.0022,85.1235 160.9782,91.3755 155.7352,91.4365 C154.6202,91.4505 154.0582,91.2735 154.0092,90.2705 C153.9442,88.9965 154.1272,88.2685 154.3042,87.3965 C154.5482,86.1975 155.5172,83.7895 156.0632,82.8335 L155.9492,82.7235 C155.4812,83.2265 154.7232,84.0825 154.1212,84.7415 L153.4582,83.5495 C156.7972,80.4045 159.7162,74.5875 159.6852,71.8375 C159.6722,70.8705 158.8362,70.2585 158.0542,70.2675 C152.8472,70.3285 146.6122,80.6205 146.6562,84.4515 C146.6772,86.1795 147.9982,86.8145 149.0212,86.5335 C150.4842,86.1305 152.1012,84.7955 153.5212,83.4915 L154.1172,84.7375 C151.5522,87.5305 147.8992,91.4025 144.3832,91.4425 C141.7382,91.4735 141.0392,88.4275 141.0212,87.1785 C140.9562,81.4075 143.7602,77.1315 145.9832,74.9045 C151.7392,69.2105 156.0092,68.7045 156.9332,68.6945 C158.6592,68.6745 159.6282,69.1305 160.5112,69.8285 L165.8752,56.3175 C166.1482,55.6455 166.4162,54.8055 166.4102,54.2475 C166.4032,53.6345 166.1202,53.1905 165.6172,53.1415 C163.7642,52.9725 163.2382,52.8785 163.2332,52.4085 C163.2282,51.9075 163.4712,51.7405 164.1982,51.7315" id="Fill-37"></path>
                <path d="M10.2393,132.9039 C10.6663,132.9049 10.7733,132.3649 10.9793,132.0939 C11.3623,131.5849 11.4413,130.6129 11.4413,130.6129 L11.4413,121.9289 C11.4413,121.9289 11.3623,120.9589 10.9793,120.4489 C10.6813,120.0509 10.0883,119.4929 10.0883,119.4929 C9.8433,119.8879 9.1723,120.2629 8.5753,120.2629 C7.8243,120.2629 7.2023,119.8269 7.0873,119.2579 C6.3773,119.1059 5.8573,118.5929 5.8573,117.9839 C5.8573,117.5969 6.0663,117.2509 6.3993,117.0099 C6.0023,116.7319 5.7523,116.3269 5.7523,115.8749 C5.7523,115.2609 6.2103,114.7349 6.8693,114.4959 C6.7123,114.3089 6.6233,114.0909 6.6233,113.8529 C6.6233,113.2129 7.2763,112.6959 8.0853,112.6959 C8.0103,112.5419 7.9703,112.3719 7.9703,112.1959 C7.9703,111.4249 8.7573,110.8019 9.7293,110.8019 C9.9233,110.8019 10.1083,110.8269 10.2813,110.8739 C10.3223,110.1869 11.0353,109.6409 11.9113,109.6409 C12.5923,109.6409 13.1773,109.9699 13.4243,110.4399 C13.6543,110.3529 13.9013,110.2929 14.1633,110.2599 C14.0973,110.1259 14.0613,109.9779 14.0613,109.8219 C14.0613,109.1569 14.7423,108.6169 15.5853,108.6169 C16.3393,108.6169 16.9673,109.0499 17.0903,109.6189 C17.8303,109.6109 18.2873,109.6769 18.7133,109.7969 C18.8343,109.2489 19.4373,108.8329 20.1653,108.8329 C20.9373,108.8329 21.5683,109.2999 21.6353,109.8949 L22.1273,109.9359 C22.3443,109.4449 22.9343,109.0939 23.6273,109.0939 C24.5073,109.0939 25.2193,109.6549 25.2193,110.3489 C25.2193,110.7179 25.0193,111.0489 24.7003,111.2789 C24.8013,111.4059 24.8943,111.5369 24.9733,111.6749 C25.1923,111.5949 25.4363,111.5509 25.6933,111.5509 C26.6483,111.5509 27.4233,112.1629 27.4233,112.9189 C27.4233,113.5889 26.8143,114.1449 26.0103,114.2609 C26.0623,114.3869 26.1023,114.5149 26.1333,114.6449 C26.2743,114.6049 26.4263,114.5839 26.5843,114.5839 C27.3283,114.5839 27.9313,115.0599 27.9313,115.6479 C27.9313,116.0849 27.6003,116.4589 27.1283,116.6249 C27.2743,116.8159 27.3603,117.0409 27.3603,117.2829 C27.3603,117.8729 26.8463,118.3719 26.1533,118.5089 C26.0643,119.3529 25.1723,120.0169 24.0813,120.0169 C23.6593,120.0169 23.2243,119.9169 22.8983,119.7469 C22.7003,119.9439 22.4343,120.2219 22.2643,120.4489 C21.8813,120.9589 21.8023,121.9289 21.8023,121.9289 L21.8023,132.3069 C21.8023,132.3069 21.9133,133.4079 22.2993,133.9179 C22.2993,133.9179 22.6523,134.9719 23.2163,135.0529 C30.9223,135.4049 36.6073,134.2339 41.9653,132.9759 C42.2653,132.3969 44.7903,130.3579 45.0043,127.7369 C45.1343,126.1639 45.4363,124.5309 45.1703,123.6329 C44.9923,123.0419 44.4963,122.8149 44.4803,122.1979 C44.4633,121.6259 44.6493,121.4379 44.5933,120.9589 C44.4583,119.8169 43.0133,119.0559 43.0133,119.0559 C42.7623,119.3559 41.8183,119.9909 41.3843,120.0119 C40.8243,120.0409 40.3223,119.7649 40.0513,119.3379 C39.7173,119.5489 39.3193,119.6819 38.8883,119.7049 C37.6833,119.7619 36.6473,118.9359 36.4823,117.8229 C36.2233,117.9079 35.9493,117.9589 35.6633,117.9709 C35.3973,117.9859 35.1363,117.9659 34.8883,117.9159 C34.5683,118.3869 34.0233,118.7099 33.3883,118.7419 C32.3393,118.7959 31.4453,118.0289 31.3893,117.0329 C30.8573,116.8099 30.4583,116.3589 30.4283,115.8059 C30.3993,115.3219 30.6633,114.8879 31.0713,114.6549 C30.6673,114.3239 30.4823,113.6169 30.6703,113.0919 C31.0023,112.1519 31.4243,112.0409 31.7143,111.7169 C30.8593,111.5929 30.1863,110.9139 30.1393,110.0629 C30.0853,109.0909 30.8733,108.2589 31.8983,108.2079 L32.2103,107.2589 C31.9883,107.0169 31.8473,106.7069 31.8293,106.3589 C31.7833,105.5329 32.4523,104.8279 33.3223,104.7849 C33.6483,104.7689 33.9573,104.8479 34.2173,104.9979 C34.4813,104.7109 34.7943,104.4649 35.1433,104.2709 C34.9113,103.9779 34.7633,103.6219 34.7433,103.2279 C34.6873,102.1899 35.5263,101.3019 36.6193,101.2489 C36.9863,101.2299 37.3333,101.3059 37.6353,101.4559 C38.0613,101.2029 38.3643,100.8439 38.8943,100.7609 C39.5093,100.6669 39.8623,101.0519 40.2113,101.1619 C40.1583,101.0099 40.1243,100.8499 40.1153,100.6849 C40.0633,99.7319 40.8123,98.9149 41.8013,98.8199 C41.7473,97.8979 42.4193,97.1879 43.2903,97.1459 C43.7303,97.1239 44.1333,97.2729 44.4363,97.5319 C44.7073,96.7849 45.4363,96.2329 46.3193,96.1869 C47.2733,96.1389 48.1123,96.7029 48.4163,97.5149 C48.6583,96.6889 49.4373,96.0599 50.3883,96.0139 C51.5143,95.9589 52.4803,96.7249 52.6433,97.7589 C53.4763,97.7159 54.1593,98.3029 54.2043,99.0659 C54.2123,99.2089 54.1963,99.3499 54.1593,99.4829 C54.2713,99.4549 54.3853,99.4389 54.5053,99.4319 C55.4783,99.3839 56.3103,100.0939 56.3603,101.0199 C56.3763,101.3129 56.3123,101.5919 56.1873,101.8389 C56.5983,101.8789 56.9183,102.2259 56.9183,102.6489 C57.1623,102.6449 57.5683,102.4609 58.0243,102.4359 C58.9843,102.3879 60.1553,103.3469 60.2123,104.2569 C60.2643,105.0799 60.1843,105.3479 59.8773,105.6599 C60.3353,105.7989 60.6673,106.2249 60.6673,106.7269 C60.6673,107.0609 60.5203,107.3609 60.2893,107.5659 C61.3153,107.5059 62.0393,108.1239 62.0833,108.9279 C62.0933,109.1109 62.0693,109.2849 62.0133,109.4479 C62.6943,109.6299 63.2113,110.2089 63.2513,110.9179 C63.2933,111.6899 62.7553,112.3659 62.0013,112.5599 C62.3983,112.8789 62.6623,113.3459 62.6903,113.8789 C62.7393,114.7689 62.1183,115.5479 61.2443,115.7669 C61.3333,115.9799 61.3873,116.2119 61.4023,116.4539 C61.4683,117.6409 60.5063,118.6539 59.2563,118.7159 C58.8343,118.7379 58.2883,118.5279 57.8023,118.2449 C57.4633,118.9159 56.9533,119.2929 56.3543,119.2929 C55.7403,119.2929 55.2213,118.8999 55.0313,118.3529 C53.5653,119.1239 51.3933,120.1339 51.0583,120.4339 C50.6833,120.7749 49.8083,122.1259 49.8163,123.1099 C49.8263,124.1909 50.4773,124.8129 50.4573,125.1559 C50.3793,126.4649 49.8023,126.2799 49.8563,127.7669 C49.9113,129.2979 51.2483,130.4959 51.7483,131.0369 C53.7643,130.8409 56.7863,130.5519 59.0263,131.0489 C63.2963,131.9999 62.4523,133.6699 61.5033,134.0309 C55.7953,136.1979 23.6373,142.0949 2.1463,131.4929 C0.3873,130.6219 0.6273,129.6039 2.9213,130.4839 C5.3493,131.4149 7.6593,132.1799 9.8643,132.7999 C9.9893,132.8359 10.0883,132.9039 10.2393,132.9039 L10.2393,132.9039 Z M54.6603,116.8909 C54.6603,116.8909 54.1233,116.6959 53.8213,116.4959 C53.4783,116.2719 53.3813,115.6079 53.3813,115.6079 L50.8023,118.9799 C50.8373,118.9759 54.6603,116.8909 54.6603,116.8909 L54.6603,116.8909 Z M50.1813,116.8199 C50.3643,116.9199 51.1493,116.1389 51.6293,115.5799 C52.0673,115.0749 52.6633,114.2139 52.6633,114.2139 C52.6633,114.2139 52.2643,114.0759 52.0603,113.9109 C51.8653,113.7529 51.6533,113.4109 51.6533,113.4109 C51.6533,113.4109 51.2443,113.6729 50.9623,113.7999 C50.7543,113.8899 50.4173,113.9989 50.4173,113.9989 L50.1813,116.8199 Z M47.2133,118.4879 C47.2753,118.4839 47.9163,117.4019 48.2793,116.6649 C48.6783,115.8579 48.7293,114.5659 48.7393,114.5679 C48.7473,114.5719 48.3073,114.5879 48.0513,114.5009 C47.8683,114.4409 47.6143,114.2759 47.6143,114.2759 C47.6143,114.2759 47.4203,114.6009 47.2353,114.7459 C47.0933,114.8579 46.8233,114.9689 46.8233,114.9689 C46.8233,114.9689 47.0703,117.6489 47.2133,118.4879 L47.2133,118.4879 Z M43.5023,116.7469 L45.8553,119.4889 C45.8553,119.4889 45.7973,117.9399 45.6253,116.9679 C45.5293,116.4029 45.3023,115.5359 45.3023,115.5359 C45.3023,115.5359 44.8083,116.0519 44.4293,116.2999 C44.0933,116.5179 43.5023,116.7469 43.5023,116.7469 L43.5023,116.7469 Z M14.4313,133.9879 C14.4313,133.9879 15.0203,133.4319 15.3193,133.0359 C15.7043,132.5239 15.7833,131.5539 15.7833,131.5539 L15.7833,121.9289 C15.7833,121.9289 15.7043,120.9589 15.3193,120.4489 C15.0613,120.1019 14.5763,119.6339 14.4573,119.5189 C14.3393,119.6339 13.8493,120.1019 13.5893,120.4489 C13.2033,120.9589 13.1243,121.9289 13.1243,121.9289 L13.1243,131.5539 C13.1243,131.5539 13.2033,132.5239 13.5893,133.0359 C13.8873,133.4319 14.4313,133.9879 14.4313,133.9879 L14.4313,133.9879 Z M18.8023,134.4499 C18.8023,134.4499 19.3933,133.8919 19.6913,133.4959 C20.0763,132.9839 20.1553,132.0149 20.1553,132.0149 L20.1553,121.9289 C20.1553,121.9289 20.0763,120.9589 19.6913,120.4489 C19.4313,120.1019 18.9493,119.6339 18.8283,119.5189 C18.7093,119.6339 18.2193,120.1019 17.9603,120.4489 C17.5753,120.9589 17.4973,121.9289 17.4973,121.9289 L17.4973,132.0149 C17.4973,132.0149 17.5753,132.9839 17.9603,133.4959 C18.2593,133.8919 18.8023,134.4499 18.8023,134.4499 L18.8023,134.4499 Z" id="Fill-39"></path>
                <path d="M1.8643,134.0269 C16.0573,141.4599 34.9843,144.2739 75.6743,137.7319 C107.8523,132.5609 156.7053,126.8579 188.2623,143.7319 C189.2033,144.2379 188.6863,145.3539 187.7273,144.9189 C154.7433,129.9599 122.7493,135.3639 101.8543,138.8439 C44.3833,148.4179 13.6943,143.5039 0.9603,134.9169 C-0.6687,133.8199 -0.0137,133.0429 1.8643,134.0269" id="Fill-41"></path>
                <path d="M61.3916,155.5074 C61.2346,155.5074 61.2186,155.4384 61.1796,155.1734 C61.0936,154.5414 59.6326,154.0664 58.5786,154.0664 C55.3376,154.0664 53.4726,156.5304 53.4726,159.5964 C53.4726,162.8664 55.9386,164.6464 58.1186,164.6464 C59.7056,164.6464 61.4466,163.9234 61.5696,162.9354 C61.5846,162.7984 61.6026,162.6164 61.7996,162.6164 C61.9406,162.6164 61.9726,162.7434 61.9726,162.8464 C61.9726,163.0084 61.9406,163.2724 61.8676,164.3764 C60.6876,164.9604 59.1736,165.2774 57.8196,165.2774 C54.3166,165.2774 51.8696,163.4484 51.8696,159.7844 C51.8696,156.0024 55.0206,153.4334 58.6816,153.4334 C59.7586,153.4334 60.7586,153.6584 61.7106,154.0294 C61.5846,155.4554 61.5696,155.5074 61.3916,155.5074" id="Fill-43"></path>
                <path d="M73.3184,160.7535 C74.0404,162.8835 74.5344,164.1155 74.5344,164.2375 C74.5344,164.3605 74.4094,164.4155 74.2864,164.4155 L73.3364,164.4155 L73.3364,164.9435 L77.2784,164.9435 L77.2784,164.4155 L76.7524,164.4155 C76.2954,164.4155 76.0814,164.1695 75.6774,163.0605 C74.8144,160.7175 72.6304,154.8405 72.6304,154.0815 C72.6304,153.7475 72.9494,153.7665 72.9494,153.5335 C72.9494,153.4125 72.8624,153.3605 72.7744,153.3605 C72.6674,153.3605 72.1744,153.4845 71.7334,153.5895 L67.2804,164.1335 C67.1754,164.3605 66.9094,164.4155 66.6474,164.4155 L66.2944,164.4155 L66.2944,164.9435 L69.8514,164.9435 L69.8514,164.4155 L68.7404,164.4155 C68.4764,164.4155 68.3044,164.3265 68.3044,163.9595 C68.3044,163.4665 68.9344,161.7375 69.3234,160.7535 L73.3184,160.7535 Z M73.0724,160.1205 L69.5694,160.1205 L71.5234,155.4385 L73.0724,160.1205 Z" id="Fill-45"></path>
                <path d="M91.0044,162.48 L91.0364,162.48 L91.0364,156.143 C91.0364,155.333 91.0044,154.295 90.4744,154.295 L89.5404,154.295 L89.5404,153.766 L92.7634,153.766 L92.7634,154.295 L92.1094,154.295 C91.9004,154.295 91.7064,154.382 91.7064,154.646 L91.7064,164.819 C91.7064,164.976 91.6884,165.101 91.5654,165.101 C91.5124,165.101 91.4414,165.049 91.3184,164.908 L91.1054,164.659 L83.4864,155.474 L83.4504,155.474 L83.4504,162.569 C83.4504,163.377 83.4864,164.416 84.0144,164.416 L84.9464,164.416 L84.9464,164.944 L81.7244,164.944 L81.7244,164.416 L82.3754,164.416 C82.5874,164.416 82.7804,164.327 82.7804,164.062 L82.7804,156.317 C82.7804,154.891 82.6214,154.295 81.7964,154.295 L81.2504,154.295 L81.2504,153.766 L83.8014,153.766 L91.0044,162.48 Z" id="Fill-47"></path>
                <path d="M103.623,160.7535 C104.343,162.8835 104.837,164.1155 104.837,164.2375 C104.837,164.3605 104.714,164.4155 104.593,164.4155 L103.64,164.4155 L103.64,164.9435 L107.582,164.9435 L107.582,164.4155 L107.054,164.4155 C106.598,164.4155 106.386,164.1695 105.98,163.0605 C105.119,160.7175 102.936,154.8405 102.936,154.0815 C102.936,153.7475 103.252,153.7665 103.252,153.5335 C103.252,153.4125 103.165,153.3605 103.076,153.3605 C102.972,153.3605 102.477,153.4845 102.038,153.5895 L97.583,164.1335 C97.478,164.3605 97.214,164.4155 96.95,164.4155 L96.597,164.4155 L96.597,164.9435 L100.152,164.9435 L100.152,164.4155 L99.043,164.4155 C98.781,164.4155 98.605,164.3265 98.605,163.9595 C98.605,163.4665 99.237,161.7375 99.628,160.7535 L103.623,160.7535 Z M103.375,160.1205 L99.874,160.1205 L101.826,155.4385 L103.375,160.1205 Z" id="Fill-49"></path>
                <path d="M111.8535,154.2955 L112.8935,154.2955 C113.3495,154.2955 113.3855,154.9665 113.3855,156.7765 L113.3855,164.1335 C113.3855,164.2905 113.3155,164.4155 113.1205,164.4155 L112.2925,164.4155 L112.2925,164.9435 L117.0435,164.9435 C120.6905,164.9435 122.8195,162.2855 122.8195,159.1325 C122.8195,157.5305 121.9935,153.7665 117.0285,153.7665 L111.8535,153.7665 L111.8535,154.2955 Z M114.8815,154.7155 C114.8815,154.3995 115.0915,154.3995 116.2535,154.3995 C118.8045,154.3995 121.2185,155.9685 121.2185,159.8385 C121.2185,161.8255 120.1255,164.3085 117.0115,164.3085 L115.6005,164.3085 C115.0725,164.3085 114.8815,164.3085 114.8815,162.1245 L114.8815,154.7155 Z" id="Fill-51"></path>
                <path d="M132.9629,160.7535 C133.6859,162.8835 134.1779,164.1155 134.1779,164.2375 C134.1779,164.3605 134.0549,164.4155 133.9299,164.4155 L132.9809,164.4155 L132.9809,164.9435 L136.9249,164.9435 L136.9249,164.4155 L136.3969,164.4155 C135.9409,164.4155 135.7269,164.1695 135.3219,163.0605 C134.4599,160.7175 132.2779,154.8405 132.2779,154.0815 C132.2779,153.7475 132.5929,153.7665 132.5929,153.5335 C132.5929,153.4125 132.5059,153.3605 132.4199,153.3605 C132.3109,153.3605 131.8179,153.4845 131.3779,153.5895 L126.9239,164.1335 C126.8179,164.3605 126.5549,164.4155 126.2879,164.4155 L125.9379,164.4155 L125.9379,164.9435 L129.4989,164.9435 L129.4989,164.4155 L128.3819,164.4155 C128.1209,164.4155 127.9459,164.3265 127.9459,163.9595 C127.9459,163.4665 128.5839,161.7375 128.9669,160.7535 L132.9629,160.7535 Z M132.7169,160.1205 L129.2129,160.1205 L131.1689,155.4385 L132.7169,160.1205 Z" id="Fill-53"></path>
            </g>
        </g>
    </g>
</svg>