<?xml version="1.0" encoding="UTF-8" standalone="no"?>
<svg width="351px" height="362px" viewBox="0 0 351 362" version="1.1" xmlns="http://www.w3.org/2000/svg" xmlns:xlink="http://www.w3.org/1999/xlink">
    <!-- Generator: Sketch 42 (36781) - http://www.bohemiancoding.com/sketch -->
    <title>Intercalaire3-Sextant</title>
    <desc>Created with Sketch.</desc>
    <defs></defs>
    <g id="Page-1" stroke="none" stroke-width="1" fill="none" fill-rule="evenodd">
        <g id="Intercalaire3-Sextant" fill-rule="nonzero" fill="#000000">
            <g id="Gravure">
                <g id="Group">
                    <path d="M57.8,223.4 C57.8,223.4 59,223.6 59.7,222.6 C62.9,217.7 60.9,213.7 60.4,206 C60.2,198.2 58,189.9 53.4,185.6 C58.4,196.4 60,212.8 57.8,223.4" id="Shape"></path>
                    <path d="M52.9,224.5 C52.9,224.5 54,225 54.6,224.1 C59.7,216.2 55.2,200.6 53.6,194.6 C51.9,188.5 49,185.3 47.8,184.2 C54.3,199 55,213.4 52.9,224.5" id="Shape"></path>
                    <path d="M45.8,221.4 C47.3,217.1 47.3,212.6 46.6,207 C45.3,197.1 42.6,189.3 39.2,189.6 C37,189.8 36.1,193.7 36.4,196.1 C36.4,196.1 38.1,189.9 40.5,192.9 C40.7,193.1 40.9,193.4 41.1,193.8 C40.9,193.7 40.6,193.7 40.3,193.7 C37.7,194.1 36.5,198.9 37.5,206.6 C38,210.9 38.9,213 41.3,217.6 C41.9,218.7 43.8,219.9 44.5,217.9 C43.2,218.2 42.7,217.1 42.3,216.5 C40.9,214.2 40.3,210.9 39.9,207.8 C39.3,203.2 39.3,199.3 40.1,197.4 C40.8,195.9 41.8,196.1 42.6,196.7 C42.7,197 42.8,197.3 42.9,197.6 C41.3,198 41.1,201 41.1,204.7 C41.1,207.7 42.6,213.3 44.3,215.3 C44.7,215.8 45.1,216.1 45.4,216.1 C45.3,217.8 45,219.4 44.7,220.6 C44.4,221.5 43.6,222.3 41.9,221.7 C43.2,224.1 45.2,222.9 45.8,221.4 M43.4,204.3 C43.5,203.2 43.7,201.9 43.8,201.3 C44.3,203.1 44.7,205 44.9,206.9 C45.2,209.1 45.3,212 45.2,214.7 C44.3,213.2 43.2,209.1 43.4,204.3" id="Shape"></path>
                    <path d="M79.5,45.5 C68.9,36.8 60.9,27 56,24.7 C61.7,31.5 72.6,42.4 80.1,50.7 C81.4,52.1 81.3,47 79.5,45.5" id="Shape"></path>
                    <path d="M56.8,51.4 C49.9,44.2 42.7,40.9 39.2,43.3 C36.9,44.9 37.6,49 39.3,50.7 C39.3,50.7 38.1,44.5 42.2,44.8 C42.6,44.8 43.1,44.9 43.6,45 C42.9,45.2 42.3,45.5 41.8,46.1 C40,48.4 41.5,54.1 46.8,59.7 C49.8,62.8 52.1,64.7 55.8,66.1 C58.3,67 61,66.3 60.4,63.7 C59.4,65.5 57.3,65.1 56.1,64.6 C53.4,63.5 51,61.2 48.8,58.9 C45.6,55.6 44.2,52.3 43.9,50.1 C43.5,47.3 45.4,46.3 46.5,46 C47.1,46.3 47.7,46.5 48.3,46.9 C47.5,46.9 46.8,47.1 46.3,47.7 C44.9,49.3 46.3,54.1 50.2,58.1 C52.4,60.4 54.9,62.2 58,62.7 C59.8,63 60.7,62 60.3,60.2 C59.9,61.6 58.3,61 57.4,60.6 C55.5,59.8 53.1,58.2 51.7,56.4 C49.7,53.8 49,51.9 48.8,50.3 C48.6,48.8 49.6,48.3 50.4,48.1 C50.7,48.3 50.9,48.5 51.2,48.6 C51.2,48.6 51.1,48.6 51.1,48.7 C49.9,49.8 50.7,53.2 53,55.6 C54.3,57 56.1,58.1 58.5,58.8 C59.2,59 59.8,58.9 60.2,58.5 C61.7,60.9 62.9,63.4 63,65.1 C63.1,66.3 62.5,67.6 60.5,68.1 C63.4,68.9 64.9,66.6 64.7,64.3 C64,59.3 60.7,55.4 56.8,51.4 M54.6,54.1 C53.5,52.7 53.2,51.8 53.1,51.1 L53.1,50.2 C53.8,50.8 54.5,51.4 55.1,52.1 C56.2,53.2 57.8,55.3 59.3,57.5 C58.1,57.1 56.1,56 54.6,54.1" id="Shape"></path>
                    <path d="M125.9,13.5 L146.3,65.3 L145.4,67.4 C139.5,54.1 130.6,31.2 126.8,25.3 C126.3,29.7 140.6,58.8 143.8,71.3 L142.7,73.9 C142.7,73.9 125.7,29.2 120.6,21.9 C120.3,22.4 123.6,31.6 125.3,35.6 C132.2,52 142.2,76.5 142.4,77.5 C143.8,77 149.1,65.2 149.1,65.2 C148.5,64.2 126.4,10.1 126.2,8.9 C126,7.7 120,19.5 119.4,20.4 C122.5,20.8 125.9,13.5 125.9,13.5" id="Shape"></path>
                    <path d="M350.2,102.1 C349.2,93.4 346,85.7 340.3,86.8 C339.1,87 337.6,88.4 336.5,90.1 C333,90.3 318.9,90.9 317.3,90.9 C315.8,90.9 304.9,91.9 300.2,92.3 C298.9,90.4 297.5,89.7 295,90.1 C293.6,90.3 293,91.1 291.9,92.9 C280.2,94.3 264.5,94.8 252.8,95.8 C238.5,96.9 233.9,97.7 222.9,98.1 C221.3,95.9 219.2,94.6 216.3,94.9 C208.9,95.6 203.1,95.6 203.1,95.6 C201,95.7 199.7,97.7 198.9,100 C190.5,101 182.4,101.7 174.1,102.2 C170.7,94.7 167.5,87.5 164.9,80.7 C172.1,73.5 177.5,61.4 177.3,51.6 C177.1,41.7 174.2,31.6 168.2,25.6 C161.2,18.6 155.5,12.6 142.9,10.6 C141,6.1 139.6,2.6 138.9,0.7 C134.6,0.5 126,0.6 126,0.6 C126,0.6 121.1,8.7 120.4,11 C120.2,11.5 119.8,12.4 119.3,13.4 C111.6,16.8 105,21.8 100.7,29 C96.9,35.3 95.2,43.3 95.1,51.2 C95.1,56.2 95.8,60.7 97.1,64.6 C96.4,64.8 95.3,65 94.3,65 C97.6,59.5 88.6,53.1 84.5,57.7 C84,58.2 83.4,58.9 82.7,59.7 L79.7,57.1 C83.2,53.2 86,49.8 87.2,47.8 C80.4,39.5 63.1,25.2 57.3,18.9 C50.7,24.1 42.7,32 40.9,33.9 C39.1,35.7 32.1,45.7 29.9,48.9 C33.6,52.7 51.1,71.9 59.5,79 C60.2,78.2 61,77.3 61.9,76.3 L64.3,78.7 C62.6,80.4 61.5,81.6 61.1,82 C56.9,86.8 66.1,96 70.9,92.7 C74.7,96 78.1,102.6 76.6,107.9 C76.4,108.1 76.2,108.4 76,108.6 C72.4,112.3 68.8,114.2 61.4,113.2 C60.5,111.7 59.7,110.3 59,109 C57.4,108.9 51.7,108.5 50.5,108.5 C49.7,110.1 48.4,112.5 47.8,113.7 C36.7,116 29.4,125.5 29,137.6 C28.5,137.1 27.9,136.7 27.3,136.3 C25.2,135 20,137.6 19.4,139 C16.6,145.8 24.6,162.4 29.7,158.2 C32.8,155.6 29,143.1 23,140.1 C26.2,144.8 28.8,150.5 28.7,154 C28.6,155.8 27.4,156.2 25.8,154.7 C22.4,151.6 20.6,143.8 21.3,140.4 C21.7,138.6 24.3,137.6 25.7,138.5 C27.7,139.7 29.9,142.7 31.4,145.9 C32.7,148.8 33.9,152.7 33.8,155.7 C33.6,159.1 29.2,159.7 29.2,159.7 C30.6,161.6 35,160.8 36.3,157.9 C36.5,158.1 36.7,158.4 36.8,158.6 C37.4,159.3 38,159.4 36.2,161 C35,162 36.7,163.3 37.8,165.6 C35.7,165.8 34,166 33.3,166.2 C28.4,167.2 29.9,178.9 34.3,179.6 L35.1,183.7 C34.7,184.3 34.3,185.1 34,186.2 C30.2,199.6 34.1,222.1 42,228.8 C42.6,229.3 43.3,229.6 44,229.8 C37.6,243.3 31.9,264.1 26.7,274.5 C23.2,272.2 19.8,269.8 16.4,267.2 C16.4,267.2 14.6,265.7 13.7,265 C10.4,268.6 2.3,290.1 0.9,293.1 C0.5,294 0.9,294.5 1.6,295 C14,304.6 28.5,313.7 44.6,319.2 C53.6,322.3 64.3,325.8 74.6,328.7 C92.1,333.6 114.3,335.5 135.8,335.5 C141.3,335.5 146.9,335.1 152.5,334.9 L152.3,335.1 C147.5,342.4 154.1,361.4 159.4,358.4 C163.2,356.3 161.9,341.1 156.1,337.1 C159.2,342.6 160.1,350.6 159.3,354.4 C158.9,356.3 157.5,356.5 156,354.5 C154.4,352.4 153.5,348.7 153.2,345.2 L153.2,345.2 C152.8,340.9 154.9,340.2 157.8,354.5 C159,348.1 155.7,338.3 153.3,339.2 C153.4,338.3 153.6,337.6 153.9,337 C154.7,335.2 157.7,334.6 159.1,335.8 C161,337.5 162.8,341.2 163.7,345 C164.5,348.4 165.1,352.8 164.3,356.1 C163.4,359.8 158.5,359.5 158.5,359.5 C159.7,362.1 165.6,361.6 167.1,357.8 C167.7,356.2 167.9,353.7 167.7,350.9 C177.3,348.3 188.7,345 200.9,341.5 C201.7,342.3 202.7,343 203.6,343.4 C203.4,344.1 203.5,345.1 203.6,345.7 C200.8,347.1 200.1,348.6 200.3,349.9 C200.5,352 203.2,352.6 207.5,352.1 C206.1,350.7 203,351.3 202.8,349.5 C202.6,347.7 207.9,345.6 212.9,344.6 C218.2,343.5 225.9,343.4 226.4,344.9 C227.5,348.1 213.9,349.9 212.2,349.9 C210.2,349.9 208.9,347.7 223.4,346.1 C216.1,344.7 206.3,347.8 207.1,350.3 C207.6,352.1 211.7,352.5 217.9,351.4 C227.7,349.7 231.1,346.7 230.3,344.2 C229.9,342.7 228.1,342 225.6,341.7 C225.5,340.8 224.9,339.4 224.8,339.2 C225.6,338 226.9,336.2 226.8,334.3 C231.1,333.2 235.4,332.1 239.7,331.1 C240.5,331.2 241.3,331.3 241.9,331.4 C246,331.7 250.2,330.3 253.4,327.5 C257.3,326.4 260.4,325.6 262.5,324.9 C263.2,325.8 264.7,327.2 266.8,327 C269.5,326.8 271.8,324.4 270.1,317.6 C268.9,312.7 265.5,311 263.2,311.7 C261.8,312.2 260.7,313.5 260.4,314.9 C260,315 259.6,315.1 259.1,315.2 C259.2,313.5 259,311.9 258.6,310.3 C270.2,305.3 283.3,298.8 293.9,292.6 C293.4,287.2 281.9,268.5 278.1,265.7 C271.7,269 264.6,272.9 256.8,276.7 C245,246.2 218.8,198.5 200,155.6 C200.5,155.5 201.5,154.9 201.8,154.7 C200.8,150 200.1,136.3 210.6,131.2 C213.3,131 216.6,130.7 219.1,130.4 C221.1,130.1 222.8,128.7 224.1,126.7 C228.7,126.1 240.8,124.7 254.8,123.8 C269.3,122.9 282.5,121.8 293.5,120.5 C294.6,121.6 295.8,121.9 297.2,122 C298.8,122.1 300.5,121.4 301.8,119.7 C305.9,119.4 318.1,118.3 319.6,118 C321,117.7 333.5,117.2 338.6,116.6 L338.7,116.6 C339.8,117.9 341,118.6 342.4,118.7 C348,119.7 351.5,114.1 350.2,102.1 L350.2,102.1 Z M296.9,114.2 C279,116.7 265.8,115.3 254.2,117.2 C239.2,119.7 239,118.1 226.9,119.5 C227,119.2 227,118.8 227,118.5 C231.7,117.9 243.9,116.5 257.8,115.6 C271.8,114.7 285.2,114.3 297.3,112.4 C297.2,113 297,113.6 296.9,114.2 L296.9,114.2 Z M203.8,172.3 C200.6,173.8 198,174.8 195.2,175.8 L195.2,175.8 C192.9,176.5 191.4,176.3 187.3,177.6 L187,177 C192,175.4 193,174.1 194.5,173.4 L194.5,173.4 C198.2,171.9 200.7,170.7 202.5,169.8 C203,170.7 203.4,171.5 203.8,172.3 L203.8,172.3 Z M205.9,176.7 C202.5,178.1 199.5,179.3 196.4,180.5 L196.4,180.5 C194.3,181.2 192.8,181 189.3,182 L189,181.4 C193.3,179.9 194.3,178.6 195.7,178 L195.7,178 C199.8,176.6 202.8,175.5 204.7,174.4 C205.1,175.1 205.5,175.9 205.9,176.7 L205.9,176.7 Z M211.7,188.9 C207.8,190.8 203.9,192.6 199.9,194.2 C197.6,194.9 196.1,194.7 191.8,196.2 C191.8,196 191.7,195.9 191.7,195.7 C196.6,194 197.8,192.6 199.4,191.9 L199.4,191.9 C204.8,189.6 208.6,187.5 210.6,186.3 C210.9,187.2 211.3,188.1 211.7,188.9 L211.7,188.9 Z M217.6,201.2 C212.8,203.9 208.9,205.8 203.6,207.7 L203.4,207.7 C201.1,208.4 199.7,208.4 195.7,209.7 L195.6,209.4 C195.6,209.4 195.6,209.3 195.5,209.1 C199.9,207.5 201.3,206.1 202.7,205.4 C207.6,203.4 212.1,202.1 216.7,199.5 C217,200.1 217.3,200.7 217.6,201.2 L217.6,201.2 Z M234.5,285.9 C233.4,282 228.7,280.1 221.3,280.1 L218.7,280.1 C214.5,277 213,272.5 213,272.5 L210.5,272.4 L196.7,214.6 L200.5,212.9 C210.2,232.9 227,270.1 235.3,285.7 C235.1,285.7 234.8,285.8 234.5,285.9 L234.5,285.9 Z M235.3,326.7 C229.5,322.6 227.9,314.2 232.2,308.1 C235.2,303.8 241.4,301.5 248,303.2 C244,300.6 239.7,301.5 237.3,302.1 C234.8,302.8 232.1,304.6 230.5,306.8 C227.5,311 226.7,316.4 228,321 C224,316.4 224.5,309.7 227.6,304.5 C231.1,298.6 240.1,296.3 246.3,300.2 C250.3,302.8 251.3,303.7 252.8,305.4 C256.9,310.1 257.9,316.9 253.6,323 C249.3,329.2 241.2,330.8 235.3,326.7 L235.3,326.7 Z M165.7,341.9 C172.4,340.2 203.8,331.7 229.1,325.5 C230,326.2 230.8,326.9 231.6,327.4 C219.5,330.4 211.8,332.7 200.6,335.6 C187.2,339.1 184,339.4 166.7,344.5 C166.3,343.6 166,342.7 165.7,341.9 L165.7,341.9 Z M6.5,287.2 C18.2,296.1 29.7,302.3 44.9,308.8 C53.4,312.4 66.7,316.6 76.8,319.4 C94.3,324.3 115.2,326.4 135.4,326.4 C140.9,326.4 146.5,326.2 152.1,326 C153.5,325.9 158.9,325.6 160.2,325.5 C163.9,325.2 166.6,325 169.8,324.5 C169.9,325 170,325.6 170.1,326.1 C107.6,333.6 47.3,321.4 6.4,289.6 L5.6,289.1 C6,288.6 6.3,287.9 6.5,287.2 L6.5,287.2 Z M10.6,277 C11,277.3 11.4,277.6 11.9,278 L10.1,282.1 C9.7,281.8 9.3,281.5 9,281.2 L9,281.2 C9.5,279.8 10,278.4 10.6,277 L10.6,277 Z M36.7,288 C42.6,290.6 50.3,294.1 57.8,296.9 L56.9,300 C53.2,298.6 49.6,297.1 46.1,295.6 L46.8,293.8 L45.3,293.1 L44.6,295 C41.1,293.4 37.6,291.7 34.2,289.9 L35.2,287.5 C35.7,287.5 36.2,287.8 36.7,288 L36.7,288 Z M168.6,319.1 C168.2,319.1 167.8,319.2 167.4,319.2 L166.1,313.9 C166.5,313.8 166.9,313.8 167.3,313.7 C167.7,315.5 168.2,317.3 168.6,319.1 L168.6,319.1 Z M164.5,314.2 L165.7,319.4 C165.2,319.5 164.7,319.5 164.1,319.6 L163,314.4 C163.6,314.3 164.1,314.2 164.5,314.2 L164.5,314.2 Z M162.3,319.7 C161.7,319.7 161.2,319.8 160.6,319.8 L159.7,314.6 C160.3,314.6 160.8,314.5 161.3,314.5 L162.3,319.7 Z M158.1,314.7 L158.9,320 C158.4,320 157.8,320.1 157.3,320.1 L156.4,314.8 C157,314.8 157.6,314.8 158.1,314.7 L158.1,314.7 Z M154.8,314.9 L155.6,320.2 C155.1,320.2 154.6,320.3 154.1,320.3 L153.2,315 C153.7,315 154.2,314.9 154.8,314.9 L154.8,314.9 Z M151.6,315.1 L152.4,320.4 C151.8,320.4 151.2,320.4 150.6,320.5 L149.8,315.2 L151,315.2 C151.2,315.1 151.4,315.1 151.6,315.1 L151.6,315.1 Z M148.9,320.6 C148.3,320.6 147.7,320.7 147.1,320.7 L146.4,315.3 C147,315.3 147.6,315.3 148.2,315.2 L148.9,320.6 Z M144.9,315.3 L145.5,320.7 L143.9,320.7 L143.2,315.3 L144.9,315.3 L144.9,315.3 Z M141.6,315.3 L142.2,320.7 L140.7,320.7 L140,315.3 C140.5,315.4 141,315.4 141.6,315.3 L141.6,315.3 Z M138.3,315.4 L138.9,320.8 L137,320.8 L136.5,315.4 L138.3,315.4 L138.3,315.4 Z M135.2,320.8 L133.4,320.8 L133.2,315.4 L134.9,315.4 L135.2,320.8 Z M131.5,315.3 L131.6,320.7 L130,320.7 L129.8,315.3 L131.5,315.3 L131.5,315.3 Z M128.3,315.3 L128.4,320.7 C127.9,320.7 127.4,320.7 126.9,320.6 L126.7,315.3 C127.2,315.2 127.8,315.2 128.3,315.3 L128.3,315.3 Z M125.1,315.1 L125.2,320.4 C124.6,320.4 123.9,320.3 123.3,320.3 L123.2,315 C123.8,315.1 124.5,315.1 125.1,315.1 L125.1,315.1 Z M121.6,320.3 C121,320.3 120.4,320.2 119.8,320.2 L119.7,314.9 C120.3,314.9 121,315 121.6,315 L121.6,320.3 Z M118.1,314.8 L118.1,320.1 C117.6,320.1 117,320 116.5,320 L116.4,314.7 C116.9,314.7 117.5,314.7 118.1,314.8 L118.1,314.8 Z M114.8,314.5 L114.8,319.8 C114.3,319.8 113.8,319.7 113.3,319.7 L113.2,314.4 C113.7,314.4 114.2,314.5 114.8,314.5 L114.8,314.5 Z M111.6,314.2 L111.6,319.4 C111.1,319.3 110.5,319.3 110,319.2 L110.1,314 C110.6,314.1 111.1,314.2 111.6,314.2 L111.6,314.2 Z M108,319.1 C107.4,319 106.9,319 106.3,318.9 L106.6,313.7 C107.1,313.8 107.6,313.8 108.1,313.9 L108,319.1 Z M104.7,318.7 C104.2,318.6 103.6,318.6 103.1,318.5 L103.4,313.3 C104,313.4 104.5,313.4 105.1,313.5 L104.7,318.7 Z M101.4,318.3 C100.9,318.2 100.4,318.1 99.9,318.1 L100.2,312.9 C100.7,313 101.3,313.1 101.8,313.1 L101.4,318.3 Z M98.2,317.8 C97.6,317.7 97,317.6 96.4,317.5 L96.9,312.4 C97.4,312.5 98,312.6 98.5,312.7 L98.2,317.8 Z M94.8,317.2 C94.2,317.1 93.6,317 93.1,316.9 L93.6,311.8 C94.2,311.9 94.8,312 95.3,312.1 L94.8,317.2 Z M91.4,316.6 C90.9,316.5 90.4,316.4 89.8,316.3 L90.3,311.1 C90.9,311.2 91.4,311.3 92,311.4 L91.4,316.6 Z M88.2,316 C87.7,315.9 87.2,315.8 86.7,315.7 L87.2,310.5 C87.7,310.6 88.3,310.7 88.8,310.8 L88.2,316 Z M85,315.4 C84.4,315.3 83.7,315.1 83.1,315 L83.8,309.8 C84.4,309.9 84.9,310.1 85.5,310.2 L85,315.4 Z M81.3,314.6 C80.7,314.5 80.1,314.3 79.5,314.2 L80.5,309 C81.1,309.2 81.6,309.3 82.2,309.4 L81.3,314.6 Z M77.8,313.7 C77.3,313.6 76.7,313.4 76.2,313.3 L77.2,308 C77.5,308.1 77.7,308.2 78,308.2 C78.3,308.3 78.6,308.4 78.9,308.4 L77.8,313.7 Z M74.6,312.9 C74.1,312.8 73.6,312.6 73.1,312.5 L74.1,307.1 C74.6,307.3 75.2,307.4 75.7,307.6 L74.6,312.9 Z M71.4,312.1 C70.8,311.9 70.3,311.8 69.7,311.6 L70.9,306.1 C71.5,306.3 72,306.4 72.6,306.6 L71.4,312.1 Z M68.1,311.1 C67.5,310.9 66.9,310.7 66.3,310.6 L67.5,305.1 C68.1,305.3 68.7,305.5 69.4,305.7 L68.1,311.1 Z M64.6,310 C64.1,309.8 63.6,309.7 63.1,309.5 L64.3,304 C64.8,304.2 65.4,304.4 65.9,304.5 L64.6,310 Z M61.5,309 C61,308.8 60.5,308.7 60,308.5 L61.2,303 C61.7,303.2 62.2,303.3 62.8,303.5 L61.5,309 Z M58.4,307.9 C57.8,307.7 57.3,307.5 56.7,307.3 L58.2,301.9 C58.7,302.1 59.2,302.2 59.7,302.4 L58.4,307.9 Z M54.9,306.7 C54.3,306.5 53.7,306.3 53.1,306 L54.8,300.7 C55.3,300.9 55.9,301.1 56.4,301.3 L54.9,306.7 Z M37.8,293.5 L35.9,298.4 C35.4,298.2 35,297.9 34.5,297.7 L36.2,292.7 C36.8,293 37.3,293.2 37.8,293.5 L37.8,293.5 Z M39.3,294.2 C39.8,294.4 40.3,294.7 40.8,294.9 L38.9,299.9 C38.4,299.7 37.9,299.4 37.5,299.2 L39.3,294.2 Z M42.3,295.6 C42.9,295.9 43.4,296.1 44,296.4 L42.2,301.5 C41.6,301.2 41.1,301 40.5,300.7 L42.3,295.6 Z M45.6,297 C46.1,297.2 46.6,297.5 47.2,297.7 C47.3,297.7 47.3,297.7 47.4,297.8 L45.6,302.9 C45,302.6 44.4,302.4 43.8,302.1 L45.6,297 Z M48.8,298.4 C49.3,298.6 49.8,298.8 50.3,299 L48.5,304.1 C48,303.9 47.5,303.7 47.1,303.5 L48.8,298.4 Z M51.8,299.6 C52.3,299.8 52.8,300 53.4,300.2 L51.6,305.4 C51.1,305.2 50.6,305 50.2,304.8 L51.8,299.6 Z M34.9,292 L33.1,296.9 C32.6,296.6 32.1,296.4 31.6,296.1 L33.5,291.3 C34,291.6 34.4,291.8 34.9,292 L34.9,292 Z M29.9,295.2 C29.4,294.9 28.9,294.6 28.4,294.4 L30.4,289.7 C30.9,290 31.3,290.2 31.8,290.5 L29.9,295.2 Z M26.9,293.5 C26.4,293.2 26,293 25.5,292.7 L27.4,288.1 C27.9,288.4 28.4,288.7 28.9,288.9 L26.9,293.5 Z M24.1,291.8 C23.7,291.5 23.2,291.2 22.8,291 L24.7,286.5 C25.2,286.8 25.7,287.1 26.1,287.3 L24.1,291.8 Z M21.3,290.1 C20.8,289.8 20.3,289.5 19.9,289.2 L21.6,284.7 C22.1,285 22.7,285.4 23.3,285.7 L21.3,290.1 Z M18.4,288.1 C17.9,287.8 17.4,287.4 16.9,287.1 L18.7,282.8 C19.2,283.1 19.6,283.4 20.1,283.7 L18.4,288.1 Z M15.5,286.1 C15.1,285.8 14.6,285.5 14.2,285.1 L16,280.8 C16.5,281.1 16.9,281.5 17.4,281.8 L15.5,286.1 Z M12.7,284.1 C12.3,283.8 11.9,283.5 11.4,283.1 L13.2,278.9 C13.7,279.2 14.1,279.6 14.6,279.9 L12.7,284.1 Z M8.1,283.1 C19.7,292.2 33.5,300.8 48.5,306.1 C57,309.1 67.1,312.6 77,315.5 C93.5,320.4 114.7,322.4 135.1,322.6 C140.5,322.7 146,322.4 151.5,322.2 C152.8,322.2 158.1,321.9 159.4,321.8 C163.1,321.5 165.7,321.4 169,320.9 C169.1,321.5 169.3,322.1 169.4,322.7 C107.6,330.2 47.8,316.5 7.2,285.2 C7.6,284.5 7.9,283.8 8.1,283.1 L8.1,283.1 Z M167.3,302.1 C179.5,297.3 179.4,282.4 179.4,282.4 L181.9,280.6 L140.9,134 C141.1,134 141.4,134 141.6,133.9 C143.6,137.2 145.2,141.6 145.8,143 C147.8,149 158.6,184.5 160.1,191.1 C164.8,211.3 171.4,228.8 183.7,276.5 C186.2,286 188.6,291.9 191,300.3 C190.2,300.4 189.5,300.5 188.7,300.6 C188,297.1 184.9,289.4 182.5,281.6 L180.9,283.1 C182.7,289.1 185,295.6 186.3,300.8 C185.6,300.9 184.8,301 184.1,301 C182.9,297.5 181.5,293.1 179.7,286.3 C179.7,286.3 178.6,289.7 179.4,292.7 C180.2,295.7 181.2,299 181.9,302.6 C181.9,302.6 181.9,302.7 182,302.7 C183.2,307.7 187.5,325.5 189,333.4 C188.1,333.6 187.2,333.9 186.4,334.1 C186.5,333.8 186.5,333.4 186.4,332.8 C185.3,325.4 181.5,307.6 177.6,294.5 C177.6,294.5 176.4,294.5 176.4,297.5 C176.4,298.8 178.5,306.2 180.3,312.9 C182.1,319.5 183.6,328.9 185,333.2 C185.2,333.7 185.4,334 185.6,334.2 C184.6,334.5 183.5,334.7 182.5,335 L182.5,334.7 C182,328.8 178.1,313 174.1,298.3 C174.1,298.3 171.8,299.6 172.9,302.4 C174.8,307.7 178.9,327.9 181,334.8 C181.1,335 181.1,335.1 181.2,335.3 C178.8,335.9 176.6,336.5 174.6,336.9 C172.4,326.5 168.2,308.6 167.3,302.1 L167.3,302.1 Z M164.9,300.6 C164.9,300.9 165,301.1 165,301.3 C158.8,302.3 153.5,302.6 147.7,302.7 C149.3,270.6 146.5,267.7 147.4,223.3 C154.4,223.1 160.1,222 162.7,221.3 C168,240.7 174.7,264.9 179,279.3 C177.3,280.3 176.9,280.9 176.9,280.9 C176.9,280.9 177.5,296.2 164.9,300.6 L164.9,300.6 Z M155.4,207.3 C156.5,207.4 157.7,207.4 158.8,207.3 C158.9,207.7 159,208.1 159.1,208.4 C158,208.7 156.7,209.2 155.5,209.6 C148,210.6 140.9,211.1 134.4,211.1 C108.9,211.1 85.9,205.7 72,197.6 C68.7,195.7 65.6,193.2 63,191.6 C62.8,191.1 62.6,190.6 62.4,190.2 C64.4,191.2 66.7,191.9 67.3,192.3 C79.6,199.3 95.3,204.5 111,207 C114,207.5 116.9,208.2 119.9,208.5 C124.8,209 129.7,208.8 134.4,208.7 C141.7,208.4 148.8,208.1 155.4,207.3 L155.4,207.3 Z M133.4,202 C113.6,202 96.1,198.5 83.2,192.5 C72.3,187.4 67.1,185.9 58.2,179.5 C57.1,178.2 55.7,176.5 54.6,175.5 C54.8,175.4 55,175.4 55.2,175.3 C56.6,176.2 58.4,177 60,177.7 C70.1,184.6 82.9,190.7 94.6,194.2 C94.7,194.2 94.8,194.3 94.9,194.3 C95,194.3 95,194.3 95.1,194.4 L95.1,194.4 C113,199.8 143.5,200.9 156.4,198.2 C156.5,198.7 156.7,199.3 156.9,199.9 C156,200.2 154.9,200.5 153.9,200.9 C147,201.7 140.2,202 133.4,202 L133.4,202 Z M38.1,181.9 C37.9,181 37.7,179.8 37.5,179 C38.6,178.6 39.7,178.3 40.7,178.1 C40.9,179 41.1,180.2 41.2,181.1 C39.9,181.4 38.8,181.7 38.1,181.9 L38.1,181.9 Z M40.1,167.7 C41.3,167.5 42.7,167.2 44.1,167 C46.7,169.5 47,172.8 46.4,174.5 C45.4,174.7 44.4,174.9 43.3,175.1 C44.3,172.6 43.3,169.5 40.1,167.7 L40.1,167.7 Z M52.6,165.7 C55.5,165.4 57.4,172.1 53.6,172.9 C53.3,173 53,173 52.7,173.1 C54.1,170.6 52.8,167.1 49.7,166.9 C51.8,169.2 51.8,171.6 51.4,173.4 C50.5,173.6 49.6,173.8 48.7,174 C49.3,171.5 47.8,167.9 45.4,166.7 C47.9,166.3 50.6,165.9 52.6,165.7 L52.6,165.7 Z M41.8,152.1 C40.9,150.6 39.6,148.8 38.6,147.6 C38.8,147.5 39,147.4 39.2,147.3 C40.5,148.7 42.5,149.9 44.3,150.8 C45.7,151.9 47.3,153.1 49.2,154.7 C58.7,162.7 76.9,173 88.4,177.4 C88,178.2 87.7,179 87.3,179.8 C63.9,169.6 51.4,160.2 41.8,152.1 L41.8,152.1 Z M46,137.9 C46.3,137.8 45.9,136.6 46.8,136.3 C47.6,136 51,134.5 51.6,134.3 C54.5,133.3 55.8,138 53.8,138.9 C52.9,139.3 51.6,139.8 50.2,140.5 C49.8,140.7 49.4,140.8 49.1,140.9 C49.1,139.7 48.4,138.1 46.9,138 C47.2,138.3 48,140.2 47.2,140.6 C46.1,141.2 42.7,142.7 40.7,143.5 C40.4,142.6 39.9,141.7 39.4,140.9 C41.7,139.9 44.4,138.7 46,137.9 L46,137.9 Z M46.3,118.1 C48,122.8 51.4,128 52.9,131.9 C53,132.1 53.1,132.4 53.2,132.6 C52.7,132.4 52.2,132.5 51.6,132.7 C51.3,132.8 51,133 50.7,133.1 L44.9,120.6 L46.3,118.1 Z M68.8,141.5 C69,141.3 71.3,141.3 72.9,141.4 L71.9,143.2 C70.5,143.2 68.9,143.1 67.7,143.3 C68,142.5 68.4,141.9 68.8,141.5 L68.8,141.5 Z M127.6,98.9 L128.8,103.1 C128.3,103 127.8,103 127.1,103.1 C123.5,103.4 120.6,110.7 121.6,119.3 C122.6,127.8 124.7,136.3 128.9,136.7 C130.7,136.9 132.3,136.2 133.5,134.7 C134.6,134.6 136.1,134.5 137.9,134.3 C140,141.6 152.6,184.8 154.7,192.6 C154.9,193.4 155.2,194.5 155.6,195.9 C138.6,199.2 120.7,197.4 110.1,195.5 C98,193.3 90.4,190.1 86.6,188.3 C101.2,160.4 107.8,132.7 127.6,98.9 L127.6,98.9 Z M85.4,84.6 C83.8,83.5 82,81.9 80.5,80.9 C80.8,80.6 81.1,80.3 81.3,80 C84.1,81.5 85.1,81 87.4,81.3 C86.7,81 84.8,79.2 83,78.1 C83.4,77.7 83.7,77.3 84.1,76.9 C86.6,78.2 87.6,78 89.5,78.2 C91.2,79.3 94.7,80.7 98.2,82.1 C104.8,84.6 109.7,86.4 115.4,87.9 C118.2,89.4 121.5,90.5 125.3,91.2 L125.7,92.7 C109.4,89.5 101.3,85.5 90.8,82.8 C91.8,83.9 94.7,85.1 98,86.5 C108.1,90.6 114.7,90.8 124.9,95.3 C124.7,95.8 124.4,96.4 124.1,97 C109,93.6 94.9,87.5 85.4,84.6 L85.4,84.6 Z M71.4,87.2 C71.2,86.6 70.9,86.1 70.6,85.6 C72.3,83.9 73,82.5 72.8,81 C73.8,82.1 74.3,83.2 74.3,84 C73.2,85.2 72.3,86.3 71.4,87.2 L71.4,87.2 Z M76,82 C75.8,81.3 75.6,80.6 75.1,80 C76.4,78.8 77.6,77.3 77,75.4 C76.4,76 75.1,77.9 73.7,78.7 C73.3,78.4 72.7,78.1 72.1,77.8 C71.1,77.3 69.7,77 68.5,77.4 C71.2,74.5 74.4,71 77.4,67.8 C81.4,68.4 83.6,71.3 84,73.1 C82.9,74.3 81.8,75.6 80.7,76.8 C80.6,76 80.5,75.3 80.2,74.7 C81.5,73.6 82.2,72.2 81.8,70.4 C81.3,70.9 80.3,72.3 79.1,73.3 C77.8,72.2 75.6,72 73,73 C76.8,73.6 78.8,76.2 79.5,78.2 C78.3,79.5 77.2,80.8 76,82 L76,82 Z M75.3,67.6 L73.4,64.1 C73.7,63.8 74,63.5 74.3,63.2 C75.1,63.8 76.5,64.9 77.3,65.5 C76.6,66.2 76,66.9 75.3,67.6 L75.3,67.6 Z M73.2,60.6 C63.5,51.2 48.4,36.1 44.5,33.7 C45.3,32.9 46.3,31.8 47.4,30.6 C50,34 60.9,44.7 67.5,51.1 C70.4,53.8 71.8,56.4 74.9,58.8 C74.4,59.4 73.8,60 73.2,60.6 L73.2,60.6 Z M70.5,67.2 C71.4,67.8 72.7,68.9 73.4,69.5 C72.5,70.4 71.6,71.3 70.8,72.2 L68.9,69 C69.4,68.4 69.9,67.8 70.5,67.2 L70.5,67.2 Z M89.8,70.5 C92,71.7 93.3,72 94.8,71.9 C96.3,72.7 98.7,73.6 102.4,74.9 C103.2,76.1 104.1,77.2 105,78.3 C100.5,76.9 96.6,75.7 92.7,74.6 C91.9,74.1 90.3,72.7 88.8,71.6 C89.1,71.3 89.5,70.9 89.8,70.5 L89.8,70.5 Z M87,73.7 C89.3,74.9 90.7,74.9 92.2,74.9 C93.6,75.9 96.7,77.3 99.9,78.3 C102.4,79.1 105,80.2 107.3,81 C107.8,81.5 108.3,82 108.8,82.6 L110.6,84.4 C102.3,82 96.2,79.7 89.4,77.6 C88.5,76.9 87.3,75.7 86,74.9 C86.3,74.4 86.6,74 87,73.7 L87,73.7 Z M199.3,141.8 C199.1,142.6 198.9,143.5 198.7,144.4 C195.1,145.7 191.5,147 188,148.2 C185,149.1 183.6,148.9 180.4,149.8 C180.3,149.5 180.3,149.1 180.2,148.8 C185.3,147.4 186,146.5 187.4,145.8 C192.1,144.3 196.2,143.2 199.3,141.8 L199.3,141.8 Z M190.5,157.4 L190.5,157.4 C188.1,158.1 186.6,157.8 182.3,159.3 C182.2,158.9 182.1,158.6 182.1,158.2 C187.7,156.5 188.2,155.4 189.8,154.7 L189.8,154.7 C193.8,153.3 196.4,152.1 198.2,151.2 C198.2,152.1 198.3,153.1 198.4,154.1 C195.5,155.4 193,156.5 190.5,157.4 L190.5,157.4 Z M211.6,297.9 L212.8,297.9 C214.6,297.9 216.2,297.9 218,297.5 C219,297.3 220.1,297 221.1,296.8 L220.9,297 C214.9,299.1 196.9,303.9 185.9,305.4 C185.7,304.9 185.6,304.4 185.4,304.1 C189,303.5 201,301 211.6,297.9 L211.6,297.9 Z M165.6,131.9 C166.7,135 167.7,136.6 168.2,138.5 C168.4,139.4 168.6,140.3 168.8,141.2 C168.1,141 167.3,140.8 166.5,140.8 L166,140.8 C165.9,140 165.8,139.1 165.6,138.4 C165.3,137 165.3,134.5 164.9,132.1 C165.2,131.9 165.4,131.9 165.6,131.9 L165.6,131.9 Z M203.5,296 L203.9,297.2 C203.2,297.4 202.6,297.6 201.9,297.8 C201.6,296.7 201.4,295.4 201,293.9 C201.6,294.7 202.4,295.4 203.5,296 L203.5,296 Z M197.3,299.2 C196.6,294.7 192.3,282.4 189.6,271.5 C187.4,262.2 183.9,250 160.7,163.4 C160.3,162 160.2,161.2 160.3,159.9 L160.4,159.9 C161.8,162.2 163.7,165.2 164,166.5 C167,177.8 169.3,186 170.6,190.4 C173.5,199.8 183,239.4 192.4,272.2 C197.1,288.6 198.1,290.4 200,298.3 C199.1,298.7 198.2,298.9 197.3,299.2 L197.3,299.2 Z M165.8,142.4 C166.8,142.4 167.8,142.6 168.7,143.1 C167.4,144.1 165.6,146.3 159.8,151.2 C159.5,150.5 159.4,149.7 159.4,148.9 C159.4,147.6 159.8,145.6 160.9,144.2 C157.6,146.1 157.5,149.4 157.9,151.8 C158.4,154.4 161,156.7 163.2,157.6 C158.8,158 156,155.2 155.5,152 C155.1,149.1 155.9,146.9 158.1,145.1 C159.8,143.7 162.4,142.5 165.8,142.4 L165.8,142.4 Z M196,275.8 C194.2,270.4 177.6,208.6 166.7,166.4 C166.3,164.7 166.2,162 166.3,160.2 C167,161 167.8,162.2 169,165.1 C171.8,172.4 176.4,188.8 177,193.2 C178.1,200.6 180.8,207.1 184.4,222 C187.5,234.8 191.6,251.2 198.7,275.9 C199.7,279.4 200.9,283.3 201.8,286.4 C200.6,287.6 200.1,288.7 199.9,289.7 C199,285.8 197.8,281.2 196,275.8 L196,275.8 Z M165.8,155.4 C165.2,155.4 164.6,155.3 164,155.2 C168,150.9 170,148.1 170.3,146.4 C168.9,147.2 167.1,149.2 161.9,154.1 C161.5,153.8 161.2,153.5 160.9,153.2 C164.6,149.4 168.7,145.8 169.9,143.9 C171.3,145.1 172.3,146.9 172.3,148.9 C172.3,152.5 169.4,155.4 165.8,155.4 L165.8,155.4 Z M203.3,285.1 C202.7,282.2 202.5,279 201.1,275.3 C198.5,268.2 199.2,270.5 171.8,163.8 C171.5,162.8 171.3,160.6 171.3,158.4 C173.5,160.9 174,163.3 174.2,163.9 C177.4,176 179.6,182.7 180.4,185.9 C183.1,196.7 194.9,242.1 202.8,271.9 C203.9,276.1 204.9,280.4 205.7,283.5 C205.3,283.8 204.8,284 204.4,284.3 C204,284.5 203.6,284.8 203.3,285.1 L203.3,285.1 Z M159.6,132.4 C160.8,135.5 161.8,136.7 162.4,138.1 C162.6,138.8 163,140 163.3,140.9 C163.2,140.9 163,140.9 163,141 L163,141 C162,141.2 161.1,141.4 160.3,141.7 C160.1,140.5 159.9,139.1 159.7,138.3 C159.3,136.7 159.5,135.2 159,132.4 C159.2,132.4 159.4,132.4 159.6,132.4 L159.6,132.4 Z M153.7,132.9 C154.8,135.5 155.7,137.2 156.3,138.5 C156.6,139.6 157.3,141.4 157.8,142.8 C156.8,143.4 156.1,144 155.4,144.7 C154.9,143 154.5,141.4 154,139.8 L154,139.5 C153.6,137.9 153.7,135.5 153.1,132.9 L153.7,132.9 L153.7,132.9 Z M147.9,133.4 C149.3,136.5 150.9,139.6 151.5,141 C152.2,143.6 153,145.3 153.5,148.5 C153.1,150 153.1,151.6 153.4,153.1 C153.5,153.6 153.6,154.1 153.8,154.6 C153.8,154.7 153.8,154.8 153.9,154.8 C154.5,157.1 157.4,161.2 158.1,163.6 C161.1,174.4 161.7,177.5 162.8,181.2 C167.7,197.3 181.7,251.3 187.3,271.4 C190,280.9 193.9,295.4 195.4,299.8 C194.6,300 193.9,300.1 193.1,300.2 C192,295.6 189.1,286.4 186.1,276.4 C185.5,274.3 176.8,241.9 167.6,208.4 C160.1,181.2 151.5,153.6 148.2,139.4 L148.2,139.4 C147.8,137.7 148,136.2 147.5,133.5 C147.5,133.4 147.7,133.4 147.9,133.4 L147.9,133.4 Z M211.7,305.5 L213.5,310.7 C212.9,310.9 212.3,311 211.8,311.2 L209.9,306.1 C210.5,305.9 211.1,305.7 211.7,305.5 L211.7,305.5 Z M208.4,306.5 L210.2,311.7 C209.7,311.8 209.2,312 208.7,312.1 L206.8,307 C207.3,306.8 207.8,306.6 208.4,306.5 L208.4,306.5 Z M205.2,307.3 L207,312.5 C206.5,312.6 205.9,312.8 205.4,312.9 L203.7,307.7 C204.2,307.6 204.7,307.5 205.2,307.3 L205.2,307.3 Z M203.8,313.4 C203.2,313.6 202.6,313.7 202,313.9 L200.3,308.6 C200.9,308.5 201.5,308.3 202.1,308.2 L203.8,313.4 Z M198.8,308.9 L200.4,314.2 C199.9,314.3 199.4,314.5 198.8,314.6 L197.1,309.3 C197.6,309.2 198.2,309 198.8,308.9 L198.8,308.9 Z M195.5,309.6 L197.1,314.9 C196.6,315 196.1,315.1 195.6,315.2 L193.9,309.9 C194.4,309.9 195,309.8 195.5,309.6 L195.5,309.6 Z M192.3,310.3 L193.9,315.6 C193.3,315.7 192.7,315.8 192.1,315.9 L190.6,310.6 C191.2,310.6 191.8,310.5 192.3,310.3 L192.3,310.3 Z M198.9,316.3 C205.9,314.7 212.6,313 216.8,311.4 C216.9,311.9 217.1,312.5 217.3,313 C212.8,314.4 208.8,316 203.9,316.8 C199.2,317.6 194.5,319.1 189.2,320.1 C189.1,319.5 189,318.9 188.8,318.3 C191.9,317.8 195.4,317.1 198.9,316.3 L198.9,316.3 Z M216.8,304.8 L216.5,303.9 C216.7,303.8 216.9,303.7 217.1,303.7 C217,304.1 216.9,304.5 216.8,304.8 L216.8,304.8 Z M216.4,308.9 C216.4,309.2 216.4,309.5 216.5,309.8 C216.1,309.9 215.7,310 215.2,310.2 L213.2,305 C213.8,304.8 214.3,304.6 214.9,304.4 L216.4,308.9 Z M203.1,305.8 L202.6,304.4 L201,304.9 L201.4,306.3 C197.7,307.3 193.9,308.2 190.1,309 L189.5,306.9 C200.5,304.5 208.4,302.5 213.6,300.9 L214.2,302.7 C210.7,303.7 207,304.7 203.1,305.8 L203.1,305.8 Z M186.6,307.4 C187,307.3 187.5,307.2 187.9,307.1 L188.4,309.2 C187.9,309.3 187.5,309.4 187,309.5 C186.9,308.7 186.8,308.1 186.6,307.4 L186.6,307.4 Z M188.9,311 L190.3,316.3 C189.7,316.4 189.1,316.5 188.5,316.6 C188.1,314.7 187.8,312.9 187.5,311.3 C188,311.2 188.4,311.1 188.9,311 L188.9,311 Z M192.4,332.7 C192.2,332.1 191.9,331.5 191.7,330.7 C193.8,330.3 196,329.8 198.3,329.3 L197,331.5 C195.5,331.9 193.9,332.3 192.4,332.7 L192.4,332.7 Z M201.2,328.6 C207.7,327 214.4,325.2 219.2,323.7 C219.9,324.1 220.7,324.6 221.5,324.9 C214.3,326.8 207,328.8 200,330.6 C200.4,330.2 200.9,329.4 201.2,328.6 L201.2,328.6 Z M224.9,324.1 C224.3,323.7 223.6,323.1 222.9,322.6 C223.6,322.4 224.2,322.2 224.6,322 C225.2,322.5 225.9,323 226.6,323.6 C226.1,323.7 225.5,323.9 224.9,324.1 L224.9,324.1 Z M190.8,327.6 C190.6,327 190.5,326.3 190.3,325.6 C200.1,323.7 213.7,320.4 220.2,317.9 C220.7,318.5 221.2,319 221.8,319.6 C211.8,322.6 202.4,325.4 190.8,327.6 L190.8,327.6 Z M189.9,323.7 C189.8,323.1 189.7,322.6 189.5,322 C198.9,320.1 211.4,316.8 218,314.7 C218.3,315.3 218.7,316 219.2,316.6 C210,319.3 200.6,321.8 189.9,323.7 L189.9,323.7 Z M217.9,301.6 C217.2,301.8 216.6,302 215.9,302.2 L215.3,300.4 C217,299.9 218.4,299.4 219.4,299 C219.4,299 219.4,299 219.4,299.1 C218.8,299.9 218.3,300.7 217.9,301.6 L217.9,301.6 Z M217.7,295 C209.7,296.2 202.8,294.2 202.3,290.8 C201.8,287.4 207,283.4 215.7,282.3 C223.8,281.3 230.8,283 231.3,286.4 C231.9,289.8 225.7,293.8 217.7,295 L217.7,295 Z M211.8,281.1 C211.4,279.4 210.9,277 210.5,275.4 L210.8,275.4 C210.8,275.4 211.8,277.9 214.4,280.5 C213.5,280.6 212.6,280.8 211.8,281.1 L211.8,281.1 Z M209.9,281.6 C209.2,281.8 208.5,282.1 207.8,282.4 C207,279.1 206.2,275 204.9,270.3 C200.8,254.8 195.5,235.3 190.6,216.2 C189.1,210.3 188,204.6 186.4,199.2 C180,177.7 176.1,160.7 174.5,151.5 C174.6,150.8 174.7,150.1 174.7,149.4 C174.6,147.2 173.8,145.2 172.5,143.6 C172,141.4 171.7,139.9 171.5,137.9 C171.3,135.9 171.6,133.8 171.3,131.3 C171.6,131.3 171.8,131.3 172.1,131.2 L208.2,275.1 C208.5,276.8 209.4,280.1 209.9,281.6 L209.9,281.6 Z M176.9,136.4 C182,134.2 189.6,132.1 196.1,131.3 C192.4,132.9 188.1,134.4 184.3,135.6 C182.5,136 181.5,135.6 177.1,137.1 C177.1,136.8 177,136.6 176.9,136.4 L176.9,136.4 Z M200.2,129 L200.4,129 L200.5,129.1 C200.4,129.1 200.3,129 200.2,129 L200.2,129 Z M198.2,149.3 C194.5,150.7 191.9,151.7 189.2,152.6 C186.9,153.3 185.4,153 181.2,154.4 C181.1,154.1 181.1,153.8 181,153.5 C186.3,152 186.9,150.9 188.4,150.2 C192.3,148.8 195.5,147.5 198.3,146.1 C198.3,147.2 198.2,148.2 198.2,149.3 L198.2,149.3 Z M185.6,139.6 C183.5,140.2 182.7,139.6 178.3,141.1 C178.2,140.9 178.2,140.7 178.1,140.4 C182.9,138.8 184.1,138 185.7,137.3 L185.7,137.3 C190.3,135.8 196.2,134.9 200.8,134.3 C196.6,135.9 191.5,137.9 185.6,139.6 L185.6,139.6 Z M199.8,126 C187.3,127.6 180.5,127.8 168.2,128.9 C154.6,130.1 146.9,130.9 135.3,131.4 C135.4,131.1 135.5,130.8 135.6,130.4 C141.9,129.8 186.1,125.4 202.4,125 C201.6,125.6 200.8,125.9 199.8,126 L199.8,126 Z M205.1,117.6 C191.3,118.6 183,119.6 170.8,120.7 C157,121.9 153.7,121.1 136.1,123.1 C136.1,122.6 136,122.1 136,121.5 C140,121.2 154.6,120.2 169.7,119 C183.8,117.9 198.3,116.8 205.2,115.8 C205.2,116.4 205.1,117 205.1,117.6 L205.1,117.6 Z M171.1,124.5 C156.8,126.4 148.1,126.4 136.1,126.9 C136.1,126.6 136.1,126.2 136.2,125.9 C146.4,125.2 194,121.5 204.8,120.2 C204.7,120.6 204.6,121 204.5,121.4 C192.8,122.7 182.7,122.9 171.1,124.5 L171.1,124.5 Z M205.1,113.8 C191.4,114.8 183.2,115.7 171.1,116.8 C157.2,118 153.9,117.3 135.6,119.4 C135.6,119.2 135.6,119.1 135.5,118.9 C135.4,118.4 135.4,117.9 135.3,117.5 C143.1,117 175,114.5 188.9,113 C188.9,113 195.3,113.5 204.8,111.2 C205,112 205.1,112.9 205.1,113.8 L205.1,113.8 Z M129,131 C131.9,127.8 132.2,117 129,110.3 C128.7,109.6 127.9,108.8 127.3,108.9 C125.6,109.3 125.2,113.1 125.2,116.7 C125.2,119.6 126.4,125.5 128.1,127.6 C127.7,128.2 127.3,128.5 126.7,128.6 C125.2,128.8 123.9,123.7 123.5,119.2 C123.1,111.7 124.7,105.6 127.3,105.4 C130,105.2 132.3,111.4 132.9,119.1 C133.5,126.9 132,133.3 129.4,133.5 C128.4,133.6 127.4,132.7 126.5,131.2 C127,131.7 128.4,131.7 129,131 L129,131 Z M128.7,126.3 C127.7,124.3 126.8,120.9 127,116.9 C127.1,115.7 127.3,114.4 127.4,113.8 C127.6,112.9 128,112.6 128.3,112.5 C129.2,115.8 129.8,122.6 128.7,126.3 L128.7,126.3 Z M61.2,176.6 C60.1,175.2 58.8,173.6 57.9,172.8 C58.1,172.5 58.2,172.1 58.3,171.7 C65.9,177 75,181.9 84.8,185.6 C84.4,186.6 84,187.3 83.8,187.8 C75.6,184.7 68.2,181 61.2,176.6 L61.2,176.6 Z M45.9,150.5 C44.5,148.7 43,146.4 41.9,145.2 C42.1,145.1 42.2,145 42.4,145 C43.8,146.4 45.6,147.5 47.2,148.3 C48.7,149.6 49.9,150.7 50.3,151 C60.6,158.7 77.6,168.1 90,173.5 C89.7,174.3 89.3,175 89,175.7 C84.4,173.6 76.2,169.7 70.6,166.9 C68.4,165.8 66.7,164.1 65.7,163.5 C56.4,158.5 53.3,155.9 45.9,150.5 L45.9,150.5 Z M52.1,142.2 C52.7,143.5 53.4,144.8 54.1,146.1 C53.7,145.8 53.3,145.5 52.9,145.2 C52.3,144.4 51.6,143.4 51,142.7 C51.3,142.5 51.7,142.4 52.1,142.2 L52.1,142.2 Z M46.2,143.2 C47.5,144.3 49.4,145.3 51.2,146.1 C51.3,146.2 51.4,146.2 51.5,146.3 C52.9,147.5 54.6,148.8 56.4,150 C57.2,151.4 58,152.8 58.8,154.2 C55.1,151.8 51.8,149.4 48.8,147.2 C47.8,145.8 46.7,144.3 45.7,143.3 C45.8,143.3 46,143.3 46.2,143.2 L46.2,143.2 Z M66.3,145.6 C67.5,145.6 69,145.7 70.5,145.4 L69.3,147.6 L65.3,147.6 C65.3,147.6 65.7,146.8 66.3,145.6 L66.3,145.6 Z M91,171.4 C83.4,168.1 81.9,167.5 75.9,164.2 C72.9,162.5 69.2,158.4 65.5,155.9 L66.4,155.9 C70.6,158.6 71.4,158.5 74.4,160.1 C81,163.6 87.3,167.1 92.2,168.9 C91.7,169.7 91.4,170.6 91,171.4 L91,171.4 Z M93,167 C88.5,165.2 84.6,163.5 80.1,161.2 C76,159.2 74.9,156.5 70.4,154.1 L70.7,153.5 C72.3,154.5 74.4,155.1 76,155.9 C82.4,159.2 88.4,162.4 93.9,164.8 C93.6,165.6 93.3,166.3 93,167 L93,167 Z M94.9,162.7 C88.6,160.1 84.6,158.2 79.3,155.6 C77.3,154.6 74.9,151.9 72.5,150.3 L72.8,149.7 C74.1,150.4 74.9,150.5 76.2,151.2 C83.2,155 90.4,158.4 96,160.4 C95.6,161.2 95.2,162 94.9,162.7 L94.9,162.7 Z M73.1,146.2 C73.3,145.9 73.6,145.5 73.9,145.1 C82,149.5 90.6,153.6 97.7,156.4 C97.4,157 97.1,157.7 96.9,158.3 C90.1,154.9 83.7,153.5 78.3,150.1 C77.2,149.5 75.3,147.8 73.1,146.2 L73.1,146.2 Z M98.6,154.4 C89.4,150.8 81.6,147.4 74.8,143.7 C75.3,142.9 75.7,142.1 76.1,141.2 C85,146.1 92.8,149.6 99.7,151.8 C99.3,152.7 99,153.6 98.6,154.4 L98.6,154.4 Z M69.6,150 L68,153.3 L62.5,153.2 C63.2,151.4 64,150.1 64,150.1 L69.6,150 Z M102.4,145.9 C90.5,141.7 81.3,137.5 73.8,133.4 C73,132 72.1,130.5 71.2,129 C81.6,135 94.8,140.8 103.3,143.8 C103,144.5 102.7,145.2 102.4,145.9 L102.4,145.9 Z M101.4,148 C101,148.8 100.7,149.6 100.3,150.4 C95.1,147.7 81.9,143 76.7,139.8 C76.8,139.5 76.9,139.3 77,139 C76.6,138.2 76.1,137.3 75.6,136.5 C84.1,141.1 93.5,145.2 101.4,148 L101.4,148 Z M60.6,152.6 L54.4,141 C55,140.7 55.5,140.4 55.7,140.3 C56.1,140.1 56.4,139.6 56.5,139.1 C58.5,142.5 60.6,145.7 62,149.1 L60.6,152.6 Z M38.8,144.9 C37.7,145.6 36.5,146.1 35,146.7 C34.5,145.3 33.8,143.9 33.1,142.6 C34.1,142.1 35.7,141.4 36.8,141 C37.8,140.8 39.5,144.5 38.8,144.9 L38.8,144.9 Z M86.3,181.8 C86,182.5 85.7,183.2 85.4,183.8 C80.5,181.9 74.9,179.8 71.1,177 C65.8,173.2 62,171.7 58.3,169.4 C58.2,168.2 57.9,167 57.3,165.9 C66.4,172.1 77.4,177.9 86.3,181.8 L86.3,181.8 Z M43.4,180.6 L42.7,177.6 C43.9,177.4 45,177.2 46.1,177 C46.2,177.9 46.3,179.2 46.4,180.1 C45.4,180.3 44.4,180.4 43.4,180.6 L43.4,180.6 Z M48.6,179.9 L47.6,176.8 C48.8,176.6 49.8,176.5 50.9,176.3 C51.1,177.2 51.3,178.8 51.5,179.9 C50.5,179.8 49.5,179.8 48.6,179.9 L48.6,179.9 Z M70.9,199.7 C88.7,208.8 113.1,213.7 134.2,213.2 C141.9,213 149.1,212.5 155.8,211.7 C157.1,211.8 158.5,211.8 159.9,211.7 C160,212.1 160.1,212.6 160.3,213 C159.6,213.2 158.8,213.5 158,213.8 C149.4,215 141.1,215.9 134.4,215.5 C127.2,215.1 122.7,215.3 117,214.9 C98.2,213.5 85.7,209.6 72.5,203.5 C70.3,202.5 68.2,200.4 64.6,198.2 C64.6,198 64.5,197.7 64.5,197.5 C66.3,198 69.3,198.8 70.9,199.7 L70.9,199.7 Z M68.1,225.5 C66.9,224.7 65.8,223.7 64.6,223 C64.7,222.8 64.8,222.5 64.8,222.3 C66,222.9 67.4,223.4 68.7,223.9 L68.1,225.5 Z M69.8,221.4 C68.4,220.5 67.1,219.3 65.7,218.5 C65.7,218.3 65.8,218.1 65.8,218 C67.3,218.7 68.9,219.2 70.5,219.8 L69.8,221.4 Z M71.5,217.5 C69.4,216.1 67.3,214.7 66.2,213.9 L66.2,213.2 C68.2,214.1 70.2,214.8 72.3,215.5 L71.5,217.5 Z M73.2,213.4 C70.6,212.1 68.5,210.3 66,209.1 L66,208.6 C68,209.4 70.2,209.7 72.2,210.7 C73,211.1 73.4,211.3 74,211.5 L73.2,213.4 Z M62.4,226.6 C63.9,227.1 65.4,227.6 67,228.1 L66.4,229.6 C64.7,228.8 63.5,227.8 62,227 C62.1,226.8 62.3,226.7 62.4,226.6 L62.4,226.6 Z M56.7,228.4 C59.9,230.7 62.4,230.9 65.4,231.9 L64.6,233.7 C61.1,230.8 57,230.2 54,229.1 C54.8,228.8 55.7,228.6 56.7,228.4 L56.7,228.4 Z M68.1,235.3 C71,230.1 76.8,213.1 76.8,213.1 C82.1,215.6 88,217.7 94.5,219.1 C98.4,220 103.2,220.3 107.3,221.1 C112.6,222.2 118.7,223.2 124.5,223.6 C123.7,239.6 125.9,287.5 124,302.4 C101.2,301.4 87.1,297.7 68.5,292.7 C60.6,290.6 53.5,288.1 47,285.3 C49.9,277.8 62.8,244.7 68.1,235.3 L68.1,235.3 Z M126.9,223.5 L126.9,223.1 L126.8,220.3 C105.4,219.3 87.4,214.8 75,209.3 C73.9,208.8 72.8,208.3 71.9,207.8 C70.5,207 67.7,205 65.3,203.6 C65.3,203.4 65.3,203.2 65.2,203 C66.8,203.5 69.8,204.4 71.3,205.1 C78.5,208.7 87.2,211.2 96.1,213.2 C109,216.1 123,217.7 134.9,217.6 C143.2,217.5 150.8,216.8 157.9,215.8 C158.9,215.9 160,215.9 161.2,215.8 C161.4,216.6 161.7,217.5 161.9,218.3 C156.2,219.3 149.8,219.7 143.9,219.9 C140.2,220.1 138,220.2 134.3,220.2 C131.7,220.2 130.5,220.2 128.1,220.1 C128.1,220.1 129.1,221.9 131.4,222.2 C133.4,222.5 140,222.3 144,222.1 L144,222.3 L144,222.3 L144,224.1 C140.9,224.3 137.9,224.6 135,224.6 C131.9,224.6 130.7,224.6 127.8,224.5 C127.8,224.5 127.2,226.5 134.1,226.5 C138.2,226.5 141.8,226.5 144,226.3 L144,228.2 C141,228.4 138.1,228.8 135.3,228.8 C132.1,228.8 130.7,228.6 127.6,228.5 C127.6,228.5 129.1,230.8 135.1,230.8 C138.1,230.8 141.1,230.7 144,230.6 L144,232.9 C141.4,233.1 139,233.2 136.1,233.2 C132.4,233.2 131.6,232.9 128.1,232.8 C128.1,232.8 127.6,236 135.9,235.3 C138.7,235.1 141,235.3 144,235.1 L144,237.3 C141.3,237.4 138.5,237.4 135.8,237.4 C132.4,237.4 131.2,237.4 127.8,237.3 C127.8,237.3 128.5,239.1 135.6,239.6 C138.5,239.8 141.3,239.6 144,239.5 L144,241.6 C141.5,242 138.8,241.9 136.5,241.9 C132.8,241.9 131.3,241.9 127.8,241.7 C127.8,241.7 127,244 136.9,244 C139.1,244 142,243.7 144,244.2 L144,246.2 C141.6,246.3 139.2,246.3 136.9,246.3 C133.1,246.3 131.4,246.3 127.7,246.1 C127.7,246.1 130,248.1 136.5,248.5 C139,248.6 141.5,248.3 143.9,248.1 L143.9,250.2 C141.7,250.4 139.6,250.7 137.7,250.7 C133.7,250.7 131.8,250.7 127.9,250.5 C127.9,250.5 126.9,252.7 137.5,252.7 C139.7,252.7 141.8,252.6 144,252.6 L144,254.9 C141.6,255 139.1,255.1 136.8,255.1 C133,255.1 131.7,255 128,254.9 L130,256.9 C130.6,257.3 133,257.3 136.6,257.3 C139.1,257.3 141.6,257.3 144.1,257.2 L144.1,259.3 C141.9,259.4 139.7,259.6 137.7,259.6 C133.6,259.6 131.9,259.5 128,259.3 C128,259.3 127.9,261.1 137.3,261.5 C139.3,261.6 141.9,261.4 144.1,261.3 L144.1,263.4 C142.1,263.5 140.2,263.7 138.1,263.7 C133.9,263.7 132,263.6 128,263.4 C128,263.4 126.3,266.1 137.9,265.7 C140.1,265.6 142,265.8 144.1,265.8 L144.1,268.1 C142.3,268.2 140.7,268.3 139,268.3 C134.4,268.3 132.4,268.3 128,268.1 C128,268.1 129.6,270.4 136.1,270.4 C138,270.4 141.5,270.4 144.1,270.3 L144.1,272.5 C141.6,272.9 138.9,272.8 136.6,272.8 C132.9,272.8 131.4,272.8 127.9,272.6 C127.9,272.6 127.1,274.9 137,274.9 C139.2,274.9 142.2,274.6 144.1,275.1 L144.1,276.9 C141.6,277 139.2,277 136.8,277 C133,277 131.3,277 127.6,276.8 C127.6,276.8 129.9,278.8 136.4,279.2 C138.9,279.3 141.5,279 144,278.8 L144,281 C141.9,281.2 139.9,281.5 138,281.5 C134,281.5 132.1,281.5 128.2,281.3 C128.2,281.3 127.2,283.5 137.8,283.5 C139.9,283.5 142,283.4 144,283.4 L144,285.7 C141.6,285.8 139.1,285.8 136.9,285.8 C133.1,285.8 131.8,285.7 128.1,285.6 L130.1,287.6 C130.7,288 133.1,288 136.7,288 C139.2,288 141.6,288 144.1,287.9 L144.1,289.8 C142,289.9 140,290.1 138.1,290.1 C134,290.1 132.3,290 128.4,289.8 C128.4,289.8 128.3,291.6 137.7,292 C139.6,292.1 142,292 144.1,291.8 L144.1,293.8 C142.1,293.9 140.1,294.1 138.1,294.1 C133.9,294.1 132,294 128,293.8 C128,293.8 126.3,296.5 137.9,296.1 C140.1,296 142.1,296.2 144.1,296.2 L144.1,298.3 C142.3,298.4 140.6,298.5 139,298.5 C134.4,298.5 132.4,298.5 128,298.3 C128,298.3 129.6,300.6 136.1,300.6 C138,300.6 141.6,300.6 144.1,300.5 L144.1,302.6 L137.1,302.6 C133.5,302.6 130.1,302.5 126.9,302.4 C127.3,292.4 126.9,225.4 126.9,223.5 L126.9,223.5 Z M255.1,304.3 L254.7,303.9 C260.9,299.2 277.1,292.4 287.6,285.9 C287.9,286.5 288.2,287.2 288.5,287.9 C278.3,293.7 265.1,300.8 255.1,304.3 L255.1,304.3 Z M251.5,301.4 C251.4,301.3 251.3,301.3 251.2,301.2 C255.7,297.1 262.6,295.4 268.4,292.1 C273.7,289 280.9,285.7 286.1,282.8 C286.4,283.3 286.7,283.9 287,284.4 C276,291.1 261.6,297.7 251.5,301.4 L251.5,301.4 Z M283.6,281.9 L280.8,278 C281.3,277.7 281.9,277.4 282.4,277.1 C283.3,278.5 284.2,279.8 285,281.1 C284.5,281.3 284,281.6 283.6,281.9 L283.6,281.9 Z M279.4,278.7 L282.2,282.7 C281.7,283 281.3,283.2 280.8,283.5 L277.9,279.5 C278.4,279.2 278.9,279 279.4,278.7 L279.4,278.7 Z M276.4,280.3 L279.2,284.4 C278.8,284.6 278.3,284.9 277.9,285.1 L275,281 C275.5,280.8 275.9,280.5 276.4,280.3 L276.4,280.3 Z M273.5,281.7 L276.3,285.9 C275.8,286.2 275.3,286.5 274.7,286.7 L271.9,282.5 C272.5,282.2 273,282 273.5,281.7 L273.5,281.7 Z M273.3,287.5 C272.8,287.8 272.2,288.1 271.7,288.3 L268.9,284 C269.4,283.7 270,283.5 270.5,283.2 L273.3,287.5 Z M267.5,284.7 L270.2,289.1 C269.7,289.3 269.3,289.6 268.8,289.8 L266,285.4 C266.5,285.2 267,285 267.5,284.7 L267.5,284.7 Z M264.5,286.1 L267.2,290.5 C266.7,290.7 266.3,290.9 265.8,291.2 L263,286.8 C263.1,286.7 263.3,286.7 263.4,286.6 C263.8,286.5 264.2,286.3 264.5,286.1 L264.5,286.1 Z M261.6,287.5 L264.3,291.9 C263.7,292.2 263.2,292.4 262.6,292.7 L259.9,288.2 C260.5,288.1 261,287.8 261.6,287.5 L261.6,287.5 Z M260.9,293.6 C260.3,293.9 259.8,294.1 259.2,294.4 L256.8,289.8 C257.3,289.6 257.8,289.3 258.3,289.1 L260.9,293.6 Z M255.4,290.5 L257.7,295.1 C257.2,295.3 256.8,295.5 256.3,295.7 L253.9,291.1 C254.1,291 254.3,290.9 254.5,290.8 C254.8,290.7 255.1,290.6 255.4,290.5 L255.4,290.5 Z M252.5,291.8 L254.9,296.5 C254.4,296.7 253.9,296.9 253.4,297.2 L250.9,292.5 C251.4,292.2 251.9,292 252.5,291.8 L252.5,291.8 Z M249.3,293 L251.7,297.7 C251.1,297.9 250.5,298.1 249.8,298.2 L247.6,293.7 C248.2,293.4 248.8,293.2 249.3,293 L249.3,293 Z M248.2,298.7 C248.1,298.7 247.9,298.8 247.8,298.8 C247.1,298.3 246.5,297.9 245.9,297.4 L244.7,295.2 C245.2,294.9 245.7,294.7 246.2,294.4 L248.2,298.7 Z M243,297.3 C242.3,297.2 240.8,297 240.1,297 L240,297 C239,296.5 237.6,295.9 237.3,295.8 C236.6,295.6 234.5,295.8 234.5,295.8 C234.5,295.8 236,296.5 237.1,297.2 C236.4,297.3 235.6,297.4 234.9,297.6 C233.8,297 232.4,296.2 232.1,296.2 C231.1,295.9 229,296.8 229,296.8 C229,296.8 231.1,297.7 232.4,298.4 C231.6,298.7 230.8,299.1 230,299.5 C229,299 226.9,298 226.5,298 C225.9,298.1 224.4,299.5 224.4,299.5 C224.4,299.5 226.1,300.6 227.3,301.4 C226.7,301.9 226.2,302.5 225.8,303.2 C225.8,303.3 225.7,303.3 225.7,303.4 C224.5,302.7 222.8,301.6 222.8,301.6 C222.8,301.6 221.6,303.3 221.6,303.8 C221.6,304.2 223.3,305.4 224.2,306.1 C223.9,306.7 223.7,307.4 223.5,308 C222.3,307.2 220.9,306.1 220.9,306.1 C220.9,306.1 220.7,307.9 220.7,308.4 C220.7,308.8 222.1,309.9 223,310.7 C222.9,311.4 222.8,312.1 222.8,312.8 C221.8,312 220.7,311.1 220.7,311.1 C220.7,311.1 220.8,312.2 220.8,312.7 C220.8,313.1 222.1,314.5 223,315.5 C223.1,316.3 223.3,317.1 223.6,317.9 C218.6,313.6 217.5,305.7 221.5,300 C226.1,292.8 235.9,293 243,297.3 L243,297.3 Z M202.2,203.5 C199.9,204.2 198.5,204.2 194.4,205.6 C194.3,205.3 194.2,205.1 194.2,204.8 C198.8,203.2 200.1,201.9 201.6,201.2 L201.6,201.2 C206.9,199.1 211.2,197 214.5,195 C214.8,195.7 215.2,196.5 215.5,197.2 C211.4,199.5 206.9,201.6 202.2,203.5 L202.2,203.5 Z M213.9,193.6 C209.7,195.5 205.5,197.3 201.3,198.9 L201,198.9 C198.7,199.6 197.2,199.7 193.1,201.1 C193,200.9 193,200.6 192.9,200.4 C197.7,198.7 198.9,197.2 200.4,196.5 L200.4,196.5 C206.2,194.3 210.3,192.2 212.4,190.6 C213,191.5 213.4,192.5 213.9,193.6 L213.9,193.6 Z M198.7,189.6 L198.7,189.6 C196.3,190.4 194.8,190.1 190.4,191.6 C190.3,191.4 190.3,191.2 190.2,191 C195,189.3 196.3,187.6 197.9,186.9 C201.6,185.6 204.7,184.8 208.6,182.7 C208.9,183.4 209.3,184.1 209.6,184.8 C206,186.4 202.3,188 198.7,189.6 L198.7,189.6 Z M207.6,180.4 C204,182.4 200.9,183.7 197.5,185 C195.6,185.6 194.2,185.5 191.3,186.3 L191.1,185.8 C193.7,184.7 195,183.6 197,182.7 L197,182.7 C200.9,181.3 204,180 206.7,178.5 C207,179 207.3,179.7 207.6,180.4 L207.6,180.4 Z M194.1,171.3 C194,171.3 194,171.3 194.1,171.3 C191.7,172.1 190.1,171.7 185.6,173.3 C185.5,173 185.4,172.7 185.4,172.4 C190.8,170.7 191.8,169.5 193.4,168.8 C195.6,168.1 197.8,167.5 200.8,166 C201.2,166.8 201.5,167.6 201.9,168.4 C198.9,169.6 196.5,170.4 194.1,171.3 L194.1,171.3 Z M192.9,166.9 L192.9,166.9 C190.5,167.7 189,167.3 184.5,168.9 C184.4,168.5 184.3,168.2 184.2,167.8 C190,166.1 190.6,165.1 192.2,164.4 L192.2,164.4 C194.6,163.5 196.5,162.6 198.5,161.5 C198.9,162.3 199.2,163.1 199.7,163.9 C197.1,165.2 195,166.1 192.9,166.9 L192.9,166.9 Z M197.8,159.8 C195.5,160.7 193.5,161.5 191.7,162.2 L191.7,162.2 C189.3,162.9 187.8,162.6 183.4,164.1 C183.3,163.7 183.2,163.4 183.1,163 C188.8,161.3 189.4,160.4 191,159.7 L191.1,159.7 C193.3,159 195.2,158.3 196.7,157.6 C197,158.1 197.4,158.9 197.8,159.8 L197.8,159.8 Z M200.1,139.3 C196.2,140.9 191.5,142.5 187,143.9 C184.8,144.6 184,143.9 179.4,145.5 C179.3,145.2 179.2,144.9 179.2,144.6 C184.4,143.1 184.9,142.2 186.4,141.5 C192.4,139.5 198.2,137.4 201.7,135.9 C201.1,137 200.6,138.1 200.1,139.3 L200.1,139.3 Z M297.6,110.2 C284.5,111 274.5,111.6 262.8,112.7 C248.9,113.9 239.6,114.1 227.3,115.6 L227.3,113.9 C232,113.5 244,112.6 257.9,111.7 C272.1,110.8 285.4,109.6 297.7,108.7 C297.6,109.1 297.6,109.6 297.6,110.2 L297.6,110.2 Z M212,115.1 C218.1,114.6 214.5,114.9 219.1,114.4 C219.1,114.4 220.7,114.9 223.6,114.3 L223.6,115.8 C214,116.5 220.8,116 212,116.8 C212.1,116.2 212,115.7 212,115.1 L212,115.1 Z M211.9,119.2 C220.8,118.5 219.9,118.8 223.4,118.2 C223.3,118.7 223.3,119.1 223.2,119.5 C214,120.2 219.5,120.4 211.7,120.7 C211.8,120.2 211.9,119.7 211.9,119.2 L211.9,119.2 Z M223.5,111.9 C223.6,112 223.6,112 223.5,111.9 C221.3,112.1 217.7,112.7 211.8,113 L211.8,112.8 C211.7,112.3 211.6,111.8 211.6,111.3 C217.9,111 220.8,110.6 223.4,109.8 C223.4,110.5 223.5,111.2 223.5,111.9 L223.5,111.9 Z M211.2,109.3 C211.1,108.6 211,108 210.9,107.4 C215.9,107.1 220.3,106.8 222.7,105.9 C222.9,106.7 223,107.6 223.2,108.5 C221,108.6 217.3,109 211.2,109.3 L211.2,109.3 Z M211.3,123.4 C220.1,122.7 221.1,122.5 222.7,122.3 C222.6,122.7 222.5,123.2 222.3,123.6 C215.4,124.5 218.8,124.1 210.9,124.8 C211,124.3 211.1,123.9 211.3,123.4 L211.3,123.4 Z M297.5,106.8 C285.4,106.4 274.5,108.7 262.9,109.1 C249.5,109.6 238.9,110.5 227,111.9 L227,111.6 C226.9,111.1 226.9,110.7 226.8,110.2 C231.2,109.8 242.8,108.8 256.9,107.8 C271.4,106.9 283.2,105.1 289.5,104.9 C294.1,104.8 296.2,104.2 297.2,103.8 C297.3,104.8 297.4,105.8 297.5,106.8 L297.5,106.8 Z M222.5,105 C220.7,105 217.4,105.2 210.6,105.6 C210.4,104.9 210.3,104.2 210.1,103.5 C215.5,103.1 218.8,102.7 220.1,101.8 C218.6,101.4 216.1,101.7 209.6,101.9 C209.4,101.4 209.2,100.8 209,100.3 C214,99.9 217.1,99.6 220.1,99 C221,100.4 221.9,102.4 222.5,105 L222.5,105 Z M217.2,96.9 C218,96.8 218.8,97.3 219.5,98.2 C218.1,98.1 215.5,98.4 208.2,98.7 C207.9,98.3 207.7,97.9 207.4,97.5 L217.2,96.9 Z M199.9,102 L199.9,102 C200.7,99.6 201.7,98.1 203,98 C205.9,97.8 208.4,103.3 209,111.9 C209.6,120.4 208.1,128.7 205.2,129 C204.1,129.1 203,128.6 202,126.9 C202.8,127.3 203.6,127.4 204.5,126.8 C208.8,123.4 207.8,107.5 203.7,104.3 C203.8,104.6 204.5,107.4 204.8,110.9 C200.7,110.5 181.1,112 169.8,113 C156.7,114.1 150.3,113.7 135,115.5 C134.9,114.9 134.8,114.4 134.7,113.8 C153.1,112.4 148.4,112.2 163.5,111.2 C163.5,111.2 195.1,110.2 202.5,107.6 C202,106.7 180.9,109 168.4,109.7 C155.2,110.3 151.6,110.7 134.4,111.7 C134.3,111.2 134.2,110.7 134.1,110.2 C152.2,108.9 148.5,109.2 163.5,108.2 C163.5,108.2 184.1,106.7 190,104.8 C188.4,104.4 181,105.4 168.6,106 C155.5,106.6 149.7,107.9 133.7,108.5 C133.6,108.1 133.4,107.6 133.3,107.2 C143.1,106.5 199.8,102 199.9,102 L199.9,102 Z M163,66.3 L162.1,67.8 C160,67.8 155.2,67.8 152.7,68 C153.2,67.2 153.4,66.7 153.4,66.7 L163,66.3 Z M155.8,40.3 C153.4,31.2 152,23.8 148.9,14.2 C149.8,14.5 150.7,14.9 151.6,15.3 C153.7,22.4 157.6,38 160.1,47.2 C160.4,48.5 160.9,50 161.3,51.7 C159.6,48.1 157.7,44.2 155.8,40.3 L155.8,40.3 Z M157.3,102.9 C155.9,97.7 155.5,92.2 154.2,86.5 C157.3,92.2 158.4,96.4 160.2,102.8 C159.1,102.8 158.2,102.8 157.3,102.9 L157.3,102.9 Z M162.3,102.6 C161.1,98.1 160.1,91.7 159.1,85.4 C160.9,89.6 163.2,94.9 163.9,97.6 L165.1,102.5 C164.6,102.5 164.1,102.5 163.6,102.6 L162.3,102.6 L162.3,102.6 Z M166.7,96.5 C167.2,96.2 167.7,95.9 168.1,95.6 C168.4,96.3 168.7,97 169,97.7 L167,97.9 L166.7,96.5 Z M165.8,93 L165.4,91.3 C165.6,91.1 165.8,91 166,90.8 C166.3,91.5 166.6,92.2 167,93 L165.8,93 Z M163.7,71.4 C163.9,71.1 164.1,70.7 164.3,70.4 C164.9,71.7 165.6,73.1 166.2,74.3 C165.8,74.9 165.3,75.4 164.8,76 L163.7,71.4 Z M151.1,71 C153.7,70.9 158.3,70.6 160.9,69.8 L159.7,71.9 C157.9,71.9 153,71.6 150.4,72.2 C150.7,71.8 150.9,71.4 151.1,71 L151.1,71 Z M149,74.7 C151.6,74.7 155.9,74.8 158.5,73.9 L158.5,73.9 L157.4,75.7 C156,75.8 150.7,76 148.3,75.8 C148.6,75.5 148.8,75.1 149,74.7 L149,74.7 Z M149.1,86.7 C151.9,91.6 154.3,98.9 154.9,103 C154,103.1 153.1,103.1 152.2,103.2 C151.1,98.7 149.8,93.6 148.4,86.7 C148.7,86.8 148.9,86.7 149.1,86.7 L149.1,86.7 Z M144.1,87.2 C147,92 148.4,97.4 150,103.5 C149.2,103.6 148.4,103.7 147.6,103.7 C146.3,98.6 144.8,93 143.2,87.2 L144.1,87.2 L144.1,87.2 Z M145.5,103.9 C144.6,104 143.7,104.1 142.9,104.2 C140.2,96.3 137.2,83.7 132.3,65.2 C135.3,73.2 138.2,80.9 140.3,87.2 C144.6,98.5 143.4,99.3 145.5,103.9 L145.5,103.9 Z M168.2,102.4 L168,101.6 C168.8,101.1 169.6,100.5 170.1,100.1 C170.4,100.8 170.7,101.5 171.1,102.2 C170.1,102.3 169.2,102.3 168.2,102.4 L168.2,102.4 Z M174.3,50.6 C174.3,52.1 174.2,53.6 174,55 C171.3,45.9 172.3,44.4 168.7,35.9 C167.3,30.3 165.5,27.8 163.8,25.9 C165.7,32.3 170.9,48.7 173.1,59.9 C172.6,61.8 172,63.6 171.3,65.4 C170.2,60.1 170.5,57.4 167.5,48.4 C163.6,36.5 161.6,22.6 156.9,18.6 C158.8,25.5 163.1,40.6 165.7,50.1 C167.7,57.5 167.7,59.9 170.1,68.1 C169.6,69.2 169,70.2 168.3,71.2 C165.7,61.5 164.3,54.1 161.5,44.8 C159,36.5 158.3,30 155,20.7 C154.6,19 153.9,17.4 153.1,16.2 C165.8,22.8 174.3,36.1 174.3,50.6 L174.3,50.6 Z M147,13.6 C148.4,19 149.8,24.5 151.4,30.6 C148.5,24.1 145.9,17.8 143.7,12.7 C144.8,12.9 145.9,13.2 147,13.6 L147,13.6 Z M126.8,2.2 L137.2,2.3 L163.2,64.2 L160.8,64.2 C147.2,34.9 139.3,11.7 133.8,4.7 C134.4,13.9 154.6,53.9 156.5,64.3 C155.3,64.3 154.4,64.4 154.4,64.4 C148.7,51.8 131.8,8.6 127.4,2.8 C126.6,8.8 149.7,55 151.5,66.2 C147.6,73.2 142.6,84.2 143.8,83.1 C143.9,83.1 143.9,83 144,82.9 C146.3,82.9 152.2,82.2 154.5,79.7 C153.6,79.8 148.3,79.8 145.8,80.2 C146.1,79.7 146.4,79.3 146.7,78.7 C149.1,78.7 152.6,78.7 155.1,77.9 C155.8,77.7 156.4,77.3 156.8,76.9 L152.9,83.5 L142.5,84.4 L117,20.6 L126.8,2.2 Z M117.8,15.9 L114.8,21.1 C114.8,21.1 117.1,26.7 120.4,34.9 C121.6,39.2 122.6,42.9 123.2,44.5 C126.1,52.3 134.5,81.4 140.2,104.3 C139.2,104.4 138.3,104.5 137.3,104.5 C135.5,99.1 135.8,95.5 134,90.5 C132.8,87.3 131.2,80.8 128.6,70.7 C125.1,57 120.1,38.5 114.3,19.5 C114.3,19.5 112.3,21.9 113.8,26.1 C116.7,34.4 118.6,43 120,48 C122.8,57.5 126,69.9 129.5,83.8 C131.4,91.3 133.7,98.8 134.9,104.6 C134,104.7 133.2,104.7 132.2,104.8 L127.8,88.6 C124.8,75.2 120.8,59.7 115.2,40.4 C113.6,34.8 112.3,26.9 109.8,22.7 C108.1,24.8 108.9,27.2 110.2,31.5 C113.6,42.4 116.8,54.1 122.1,75.4 C123,79.1 124.3,84.4 125.4,88 C124.4,87.7 123.5,87.4 122.5,87 C119.4,76.3 115.8,60 113.2,51.5 C110.9,43.8 108.9,37.4 106.2,27.2 C103.9,30.4 104.6,32.2 106.1,36.4 C110.3,48.6 113.8,64.9 120.1,86 C118.9,85.4 117.7,84.8 116.6,84.1 C115.5,78.5 111.2,66.6 109.5,59 C107.6,50.5 105,43.2 102.3,33.3 C100.7,37.3 101.5,38.5 102.5,42.8 C104.8,53 108.3,62.4 113.2,81.8 C112,80.9 110.9,80 109.9,79 C109.8,78.7 109.7,78.4 109.7,78.1 C106.2,69 102.9,54.7 99.8,43.6 C97.6,48.2 100.9,56.9 102,61.2 C103.4,66.9 104.6,70.8 105.9,74.6 C100.6,67.9 97.4,59.5 97.4,50.4 C97.4,35.4 105.5,22.3 117.8,15.9 L117.8,15.9 Z M98.7,68.6 C97.2,68.3 95.7,68.1 94.2,67.9 C94.9,68.5 97,69.3 99.3,70 C99.8,71 100.4,72.1 101,73.1 C98.8,72.4 96.8,71.8 94.8,71.2 C93.9,70.5 92.6,69.5 91.5,68.7 C91.9,68.2 92.3,67.7 92.7,67.3 C93.9,67.4 96.8,67.3 97.9,67 C98.2,67.5 98.5,68.1 98.7,68.6 L98.7,68.6 Z M85.4,59.1 C88.4,55.8 94.3,61.2 91.5,64.5 C91.2,64.9 90.8,65.3 90.3,65.9 C90.1,65.4 89.7,64.9 89.3,64.5 C90.8,62.8 91,62.2 90.6,61 C90,61.6 89.2,62.9 87.9,63.4 C86.5,62.7 84.6,62.4 82.7,62.9 C86.2,63.3 88.1,65.7 88.8,67.6 C87.9,68.6 86.9,69.8 85.8,71 C85.6,70.4 85.3,69.8 84.9,69.2 C86.1,68.4 87,67.2 86.5,65.3 C86,65.8 84.9,67.2 83.7,68 C82.1,66.7 79.9,66.2 78.1,66.9 C81.2,63.7 83.9,60.7 85.4,59.1 L85.4,59.1 Z M80.8,61.8 C80.3,62.3 79.8,62.9 79.3,63.4 L77.5,59.7 C77.7,59.5 77.9,59.2 78.2,59 C78.9,59.9 80.3,61.4 80.8,61.8 L80.8,61.8 Z M57,21.2 C62.3,26.9 77.6,40.4 83.8,47.9 C82.9,49.4 81.1,51.7 78.8,54.4 C78.9,52.8 78.2,50.8 77,49.6 C73.3,45.8 69.6,42.5 65.2,38.8 C58.6,33.3 57.5,29.9 52.6,27.5 C56,33.7 71,46.5 78,55.3 C77.5,55.9 76.9,56.5 76.4,57.1 C76.4,56.3 76.3,55.6 75.9,55.2 C66.1,46.6 50.6,31.4 47.7,30.4 C50.7,27.3 54.4,23.5 57,21.2 L57,21.2 Z M59.4,74.3 C51.7,67.8 36.3,51.6 32.9,48.2 C34.8,45.3 41.2,36.9 42.9,35.3 L44.2,34 C45.9,38.7 64.1,53.7 70.9,63 C66.6,67.5 62.2,71.8 59.4,74.3 L59.4,74.3 Z M64.2,74 C64.9,73.2 65.7,72.4 66.4,71.6 C67.2,72.2 68.5,73.1 69.3,73.7 C68.3,74.7 67.4,75.7 66.5,76.6 C66,75.8 64.9,74.7 64.2,74 L64.2,74 Z M67.7,78.4 C69.8,78.7 71.4,79.6 72.5,80.7 C71.9,81.4 70.5,83.1 69.1,84.1 C67.6,83 65.6,82.5 63.4,83 C64.1,82.3 65.7,80.6 67.7,78.4 L67.7,78.4 Z M69.1,89.8 C67.4,91.8 60.3,87.2 63.1,83.4 C68.3,84.2 70.1,88.7 69.1,89.8 L69.1,89.8 Z M78.2,110.2 C81.4,105.7 83.1,96.7 76.6,89 C79.1,94.1 79.7,98.6 79.2,102.2 C79,98.6 76.8,93.9 73.1,90.2 C74,88.9 75,87.5 76.1,86.2 C78.6,87.7 80.2,87.8 81.9,88 C81.3,87.2 79.4,85.5 77.7,84.2 C78.1,83.7 78.5,83.3 78.9,82.8 C80.8,84 82.9,84.4 84.5,84.7 C86.9,86.2 93.2,89.3 96.3,90.3 C106.4,93.9 114.3,96 123.4,99.1 C123.1,99.8 122.8,100.5 122.5,101.2 C106.1,97.6 96.4,93.1 86.8,90.3 C87.7,91.4 89.4,93 94.7,94.8 C105.4,98.5 111.9,99.9 121.5,103.6 C121.2,104.3 120.9,104.9 120.6,105.6 C104.5,101.6 92.5,96 83.1,93.1 C84,94.2 85.3,95.1 93.7,98.6 C103.4,102.7 110.8,104.7 119.5,107.8 C119.2,108.5 118.9,109.2 118.6,109.9 C102.4,105.4 94.3,101.4 84.9,98 C85.8,99.1 88.4,101.2 91.9,102.5 C101.8,106.1 108.7,108.5 117.6,112.2 C117.4,112.7 117.2,113.1 117,113.6 C100.8,109.4 91.4,104.5 82.4,101.2 C83.3,102.3 84.4,103.2 92.8,106.9 C102.7,111.3 107.3,112.2 116.1,115.6 C115.8,116.3 115.5,117 115.2,117.7 C99.7,113.2 95.5,110.3 85.6,107.1 C86.5,108.2 86.4,108.4 90.6,110.4 C99.6,114.5 105.8,116.5 114.2,120 C114,120.5 113.7,121 113.5,121.5 C97.8,117 89.7,111.8 80.6,109.2 C81.5,110.3 84.3,111.8 87.5,113.4 C96.9,118.1 103.3,119.4 112.6,123.6 C112.3,124.2 112.1,124.7 111.8,125.3 C95.6,120.3 87.6,116 78.2,112.3 C79,113.5 80.9,115.1 84.4,116.6 C94,120.7 101.8,123.6 110.8,127.6 C110.6,128 110.4,128.5 110.2,128.9 C94.2,124.1 85,118.9 75.7,115.4 C76.6,116.5 75.4,116.2 83.6,120.2 C93.4,125.1 100.1,127.4 109.1,131.4 C108.8,132.1 108.5,132.7 108.2,133.4 C92.2,128.1 78.4,119.8 69.8,117.2 C70.6,118.4 73.6,120.1 81.7,124.3 C91.2,129.2 98.6,131.8 107.2,135.7 C106.9,136.3 106.7,136.9 106.4,137.5 C90.4,132.4 78.5,125.3 69.2,121.6 C70,122.8 71.9,124.2 80.1,128.4 C89.7,133.3 96.7,135.9 105.4,139.8 C105.1,140.5 104.8,141.1 104.5,141.7 C98.2,139.4 83.9,133.6 79.9,131.6 C75.5,129.3 72.4,127.6 69.6,125.9 C67.5,122.5 65.4,119.1 63.4,115.7 C71.3,115.9 75.9,113.4 78.2,110.2 L78.2,110.2 Z M52.2,110.8 L57.6,110.8 L73.8,139.2 L69.2,139.2 C61.9,127.4 55.3,113.7 52.8,111.6 C53.1,117.2 62.9,129.5 66.6,140 L65.7,141.8 C58.8,130 52.8,117.7 50.4,116.5 C53.2,124.2 59.8,133.6 64.1,144.9 L63.2,146.6 C57,136 50.1,121.6 46.8,117.2 L46.8,117.2 L48.6,116.7 L52.2,110.8 Z M32.3,138.4 C32.8,127.1 36.6,120.6 44.1,117.4 C43.3,118.9 42.3,120.7 41.8,121.5 C43.1,122.9 45,126.3 46.8,130.3 C45.4,129.2 43.8,128 41.5,126.8 C42.7,128.6 45.1,130.6 47.8,132.6 C48,133 48.1,133.5 48.3,133.9 C47.5,134.2 46.8,134.5 46,134.9 C44.4,133.6 42.9,132.3 41.1,131.3 C41,132.2 43,134 45.2,135.8 C45,136.4 45.1,137.1 44.9,137.1 C44.4,137.2 44,137.3 43.5,137.5 C41.5,136 39.2,133.9 37.2,133 C38.5,134.9 39.9,136.3 41.9,138 C40.8,138.4 39.8,138.8 39.1,139.1 C38.2,138.4 37.2,137.7 36.6,137.1 C36.1,137.3 36.4,138.1 37.1,139.1 C36.8,139.1 36.5,139.1 36.3,139.2 C35.2,139.7 33.8,140.3 32.6,140.8 C32.3,140.1 32.2,139.1 32.3,138.4 L32.3,138.4 Z M39.4,163.1 C38.7,162.1 38.9,161.6 39.7,160.8 C40.5,160 41.5,159.4 40.2,158 C38.7,156.2 37.8,154.7 36.6,152.4 C36.4,151.6 36.2,150.7 36,149.8 C37.3,151.2 39,152.3 40.5,153 C43.7,155.7 47.7,158.6 48.5,159.3 C50,160.6 51.8,162 53.6,163.3 C53.3,163.3 53,163.3 52.7,163.4 C52,163.6 51.4,163.7 50.7,163.9 C48.5,162.3 46,160.4 43,158.1 C44.2,160.6 46.5,162.4 48.9,164.3 C47.8,164.5 46.8,164.7 45.7,164.8 C44.5,163.8 43.3,162.8 42.1,161.7 C42.2,163 43.2,164 44.3,165 C43.1,165.2 42,165.3 40.9,165.4 C40.4,164.4 39.9,163.9 39.4,163.1 L39.4,163.1 Z M34.8,168.8 C35.6,168.6 37.3,168.2 39.5,167.8 C42,170.5 41.8,173.9 41,175.6 C40.1,175.8 39.2,175.9 38.3,176.1 C39,173.8 38.8,170.2 35.2,169.2 C37.5,172.5 36.8,176.3 35.5,176.6 C33.5,177 31,169.8 34.8,168.8 L34.8,168.8 Z M35.8,187.6 C36.3,185.5 37.4,184.3 39.6,183.8 C44.2,182.7 50.7,181.3 55.5,181.2 C55.1,180.8 54.5,180.5 53.8,180.3 L53.5,178.9 C54.8,179.7 56.2,180.3 57.4,180.7 C59.2,182.2 61.4,183.7 63.6,185.2 C81.6,197.1 110.2,204.2 133.3,204.2 C140.6,204.2 147.5,203.8 153.8,203.1 C155,203.2 156.4,203.2 157.7,203 C157.8,203.4 157.9,203.7 158,204.1 C157.2,204.4 156.2,204.7 155.2,205 C147.6,206.1 140.5,206.6 134,206.6 C124.2,206.6 115.1,205.5 106.9,204 C89.9,201 76.7,195.6 66.3,189.4 C63.7,187.8 60.7,184.9 56.9,183 C56.7,182.9 56.4,182.7 56.2,182.6 C61.6,190.8 65.5,211.1 62.4,221.7 C62,223.3 60.9,224.8 58.3,225.3 C56.7,225.6 51.5,226.9 48.9,227.1 C48.6,227.1 48.2,227.2 47.8,227.2 C48.6,226.8 49.3,226.1 49.9,224.9 C52.9,219 52.1,211.6 50.5,204.9 C49.4,200.3 49.4,197.6 48.1,193.9 C46.2,188.8 43.6,184.5 41.2,184.5 C38.7,184.6 37.3,187.2 37.4,188.6 C37.4,188.6 39.6,183.7 42.7,187.5 C44.5,189.8 47.3,196.1 48.4,205.4 C49,210.7 49.5,217.4 47.8,223.1 C46.9,226.1 44.7,226.5 43.2,225.4 C37.3,221.1 32.9,200.7 35.8,187.6 L35.8,187.6 Z M46.7,230.2 C47.7,230.2 48.8,230.1 49.9,229.9 C50.1,229.9 50.3,229.8 50.6,229.8 C52.6,230.4 54.1,231.3 55.5,232.3 C58,234.1 59.9,234.8 63.6,236 L63,237.4 C60.5,236.3 59,236.4 57.2,235.7 C52.9,233.9 51,232.8 46.9,230.5 C49,234.2 51.7,235.9 56.6,237.9 C58.8,238.8 59.4,240.2 61.5,240.9 L60.9,242.2 C58.3,241.2 55.8,240.3 53.4,239.2 C50.6,237.9 48.7,236.8 46.2,235.4 C46.2,235.4 45.5,238 51.8,240.8 C55,242.3 57.9,243.7 60,244.6 L59.3,246.3 C56.5,245.3 53.6,244.3 51.3,243.2 C48.4,241.9 46.9,240.9 44.2,239.5 C44.2,239.5 44.9,242.5 50.3,244.9 C52.8,246 55.7,247.3 58.4,248.4 L57.5,250.6 C55.3,249.8 53.3,249 50.9,247.9 C47.5,246.4 46.1,245.3 43,243.7 C43,243.7 42,246.9 49.9,249.7 C52.3,250.6 54.2,251.6 56.7,252.6 L55.8,254.7 C53.5,253.7 51.2,252.7 48.9,251.7 C45.8,250.3 44.1,249.1 41.2,247.6 C41.2,247.6 41.6,250.2 47.9,253.6 C50.2,254.8 52.6,255.8 55,256.7 L54,259.2 C51.9,258.4 49.8,257.3 48,256.4 C44.7,254.7 42.9,253.8 39.8,252.1 C39.8,252.1 38.5,254.1 47.3,258.6 C49.1,259.5 51.4,260.5 53,261.5 L52.1,263.5 C50.3,262.6 48.4,261.6 46.7,260.7 C43.4,258.9 41.3,257.9 38.1,256 C38.1,256 39.8,259.1 45.4,262.5 C47.3,263.6 49.3,264.5 51.3,265.3 L50.4,267.3 C48.6,266.5 46.8,265.9 45.3,265 C41.8,263.1 39.7,262.1 36.5,260.1 C36.5,260.1 34.9,261.7 44.2,266.7 C46,267.7 47.8,268.6 49.6,269.5 L48.7,271.7 C46.6,270.7 44.4,269.6 42.5,268.5 C39.1,266.7 38,266 34.8,264.1 C34.8,264.1 36.2,266.9 36.8,267.5 C37.4,268.1 38,268.6 41.2,270.3 C43.4,271.5 45.6,272.6 47.8,273.7 L46.9,275.8 C45.1,275 43.4,274.2 41.8,273.4 C38.2,271.5 36.8,270.6 33.4,268.6 C33.4,268.6 32.4,270.1 40.5,274.9 C42.1,275.9 44.2,276.8 46.1,277.7 L45.2,279.8 C43.7,279.1 42.2,278.5 40.7,277.7 C37,275.7 35.4,274.7 31.9,272.6 C31.9,272.6 29.1,274.1 39.5,279.3 C41.2,280.1 42.7,281.1 44.2,281.9 L43.5,283.6 C38.5,281.3 33.8,278.7 29.3,275.9 C31,271.6 44.9,234.8 46.7,230.2 L46.7,230.2 Z M14.9,269.2 C52.7,298.3 107.7,309.8 165.3,303.9 C165.7,306.7 166.2,309.4 166.8,312 C165.4,312.2 164,312.3 162.7,312.5 L162,309.2 L160.3,309.4 L160.9,312.7 C157.1,313.1 153.3,313.3 149.6,313.5 L149.3,311.6 L147.7,311.8 L147.9,313.6 C144,313.8 140.2,313.9 136.3,313.9 L136,310.8 L134.4,310.9 L134.6,313.9 C130.7,313.9 126.9,313.8 123.1,313.6 L123.1,312.1 L121.4,312 L121.4,313.5 C117.6,313.3 113.8,313 110,312.6 L110.1,309.6 L108.2,309.5 L108.1,312.4 C104.4,312 100.7,311.5 97.1,310.9 L97.3,309.1 L95.6,308.8 L95.4,310.6 C91.6,309.9 87.8,309.2 84.1,308.4 L84.6,305.1 L82.9,304.7 L82.4,308.1 C78.6,307.2 74.9,306.2 71.2,305.2 L71.6,303.3 L70,302.9 L69.6,304.7 C65.9,303.6 62.2,302.4 58.5,301 L59.4,297.8 C63.2,299.2 67,300.3 70.4,301 C70.8,301.1 65.3,298.5 56.8,295.2 C42.4,289.6 29,282.9 17.3,274.3 L15.8,273.2 C15.5,274 16.4,276 18.8,277.8 C22.7,280.7 27.6,284 33.3,286.9 L32.4,289.2 C28.9,287.3 25.5,285.3 22.3,283.2 L22.9,281.7 L21.4,280.7 L20.8,282.2 C17.6,280.1 14.5,277.8 11.5,275.5 C12.7,272.3 13.9,270.1 14.9,269.2 L14.9,269.2 Z M4.2,293 C4.5,292.4 4.7,291.8 5,291.1 C17,300.3 31.3,308.9 46.8,314.2 C55.6,317.2 66.1,320.7 76.2,323.5 C93.3,328.3 115.1,330.1 136.2,330.1 C141.7,330.1 147.4,329.7 153.1,329.5 C154.5,329.4 159.9,329.1 161.3,329 C164.9,328.7 167.5,328.5 170.7,328 C170.8,328.7 171,329.5 171.1,330.2 C107.2,338.1 46,325.5 4.2,293 L4.2,293 Z M160.6,334.6 C161,334.6 161.3,334.7 161.7,334.6 C165.5,334.3 168.2,334.1 171.5,333.6 C171.7,335 171.8,336.4 172,337.9 C168.8,338.7 166.2,339.2 164.5,339.5 C163.5,337.5 162.2,335.8 160.6,334.6 L160.6,334.6 Z M221.8,339.3 C222.6,340.1 222.8,341.2 222.9,341.9 C220.1,341.9 216.9,342.3 213.8,342.9 C210.4,343.6 207.8,344.3 205.8,345 C206.1,342.7 211.9,341.5 220,339.7 C213.7,339.4 208,340.7 205.4,342.1 C204.9,341.8 204.3,341.4 203.7,341 C210.2,339.2 216.9,337.3 223.6,335.5 C223.4,336.7 222.7,338.2 221.8,339.3 L221.8,339.3 Z M167.3,347.2 C167.2,346.9 167.2,346.6 167.1,346.3 C176.9,343.8 221.9,332.1 233.4,328.8 C233.5,328.9 233.6,328.9 233.7,329 C234,329.2 234.4,329.5 234.8,329.7 C209.5,336.5 177.5,345.3 167.3,347.2 L167.3,347.2 Z M261.8,317 C261.8,317 261.7,316.3 262.2,315.3 C263.5,312.6 266.8,313.7 268.1,318.3 C269.7,324.1 267.4,326 265.1,324.5 L265.2,324.5 C266.4,324.1 267.2,321.9 266.5,319.8 C266,318.3 264.9,317.2 263.7,316.9 C265.8,319.1 265.6,322.1 263.8,322.6 C261.9,323 259.3,323.8 256.4,324.5 C256.7,324.1 256.9,323.7 257.1,323.2 C259.3,322.8 263.2,321.4 263.9,320 C263.4,320.2 260.2,320.8 257.9,321.4 C258.4,320.2 258.7,319 258.9,317.9 C260.6,317.3 261.5,317 261.8,317 L261.8,317 Z M257.5,307.6 C257.4,307.4 257.3,307.3 257.2,307.1 C261.2,304.5 267.5,300.5 273.4,298.2 C279.1,296 284.2,292.2 288.9,289.2 C289.2,290 289.4,290.8 289.6,291.6 C279,297.8 268.7,302.9 257.5,307.6 L257.5,307.6 Z M281.3,275.5 C278.4,277.1 274.8,279 270.9,281 L270,279.6 L268.6,280.3 L269.5,281.7 C266.1,283.4 262.6,285.1 259,286.8 L257.3,284 L255.9,284.7 L257.5,287.5 C253.8,289.2 250.2,290.8 246.9,292.2 L246.2,290.8 L244.7,291.4 L245.4,292.9 C244,293.5 242.6,294 241.3,294.5 C240.7,294.2 240.2,293.9 239.7,293.7 C241.6,292.5 244.6,291 243.4,291.2 C241.6,291.6 240,291.8 236.6,292.6 C236,292.5 235.4,292.3 234.8,292.3 C237.5,290.9 241.3,288.9 240.2,289 C238.9,289.1 237.1,289.6 233.9,290.4 C234.2,289.9 234.5,289.3 234.6,288.7 C249.4,283.5 263.8,277.1 277.6,269.4 C278.9,271.6 280.1,273.6 281.3,275.5 L281.3,275.5 Z M237.7,284.9 L202.7,210.8 C203.1,210.5 203.5,210.3 203.9,210.1 C204.5,209.9 211.2,207.6 218.2,203.8 C218.3,203.7 218.5,203.6 218.6,203.5 C219,204.3 219.4,205.2 219.8,206 C214.4,208.5 210.4,210.1 204.6,212.1 C204.6,212.1 206.4,213.7 209.6,212.7 C215.1,211 218.8,209.1 220.6,207.8 C221.1,208.8 221.6,209.9 222.1,210.9 C216.3,213.2 212.5,214.8 206.7,216.6 C206.7,216.6 208.9,218.2 213,216.9 C217.4,215.5 220.1,213.9 222.8,212.3 C223.2,213.1 223.5,213.8 223.9,214.6 C218.5,217.6 214.7,219 208.6,221.1 C208.6,221.1 209.8,223.1 214.4,221.5 C218.6,220 222.1,218.5 225.1,217.2 C225.5,217.9 225.8,218.7 226.2,219.4 C226.1,219.4 226,219.5 225.8,219.5 C220.2,221.8 216,223.1 210.6,225 C210.6,225 213.6,226.2 216.4,225.4 C221.4,223.9 224.5,222.1 226.4,221.2 C226.6,221.1 226.8,221 227,220.9 C227.4,221.7 227.8,222.6 228.2,223.4 C222.3,226 218.4,227.4 212.8,229.3 C212.8,229.3 215.2,230.9 218.2,230.1 C223.4,228.6 227.2,226.5 229,225.2 C229.4,226.1 229.9,227 230.3,228 L230.3,228 C224.3,230.4 220.6,231.9 214.6,233.8 C214.6,233.8 215.7,235.6 220.4,234.2 C224.7,232.8 228.2,231 231.1,229.5 C231.5,230.3 231.9,231.1 232.2,231.9 C227.3,234.5 222.8,235.8 216.8,237.8 C216.8,237.8 218.5,239.6 223.1,238.3 C227.1,237.1 230.5,235.6 233.4,234.4 C233.8,235.2 234.1,235.9 234.5,236.7 C228.7,238.7 224.4,240.2 218.8,242.1 C218.8,242.1 222.6,243.1 224.7,242.5 C230.5,241 233.6,239.3 235.3,238.4 C235.7,239.3 236.2,240.3 236.6,241.2 C232.2,243 227,244.7 220.8,246.5 C220.8,246.5 221.7,248.6 226.9,247.2 C232,245.9 235.5,244.2 237.5,243.1 C237.9,244 238.3,244.8 238.7,245.7 C232.7,247.8 229.2,249.7 222.8,250.7 C222.8,250.7 223.8,253.2 228.3,252 C233,250.7 236.8,249.1 239.7,247.7 C240,248.4 240.4,249.1 240.7,249.8 C235.6,252 231.3,253.6 224.9,255.4 C224.9,255.4 227,256.8 229.1,256.4 C232.9,255.7 238.1,253.9 241.9,252.4 C242.2,253 242.4,253.5 242.7,254 C237.2,256.4 233.1,257.8 227.1,259.6 C227.1,259.6 228.7,261.4 232,260.5 C237.2,259.1 241.8,257.7 243.9,256.5 C244.2,257.2 244.5,257.9 244.9,258.5 L244.8,258.5 C238.9,260.7 234.7,262.3 228.8,264 C228.8,264 231.3,265.5 235.4,264.3 C240,263 242.7,261.4 245.6,259.9 C246,260.7 246.3,261.4 246.7,262.2 C241.1,264.8 237.3,266 230.9,268 C230.9,268 231.4,269.7 236.3,268.6 C240.9,267.6 244.8,266 247.9,264.8 C248.3,265.6 248.6,266.3 249,267.1 C248.8,267.1 248.6,267.2 248.4,267.3 C242.7,269.4 238.5,270.5 233,272.3 C233,272.3 236,273.6 238.8,272.9 C243.8,271.5 247,269.9 248.9,269 C249.2,268.9 249.5,268.7 249.7,268.6 C250,269.3 250.4,270 250.7,270.6 C244.6,273 240.6,274.4 234.9,276 C234.9,276 238.5,277.5 240.6,276.9 C246,275.5 249.7,273.5 251.5,272.2 L251.5,272.2 C251.9,273.1 252.3,273.9 252.7,274.6 C247.3,276.8 242.3,278.5 237,280.5 C237,280.5 240,281.7 242.8,280.8 C247.8,279.2 251.2,277.7 253.1,276.7 C253.3,276.6 253.4,276.5 253.6,276.4 C254,277.2 254.2,277.7 254.4,278.1 C249.1,280.7 243.6,283 237.7,284.9 L237.7,284.9 Z M218.7,128.2 L209.1,129.1 C209.3,128.7 209.5,128.3 209.7,127.9 C219.4,127.1 218.1,127 220.6,126.9 C220,127.7 219.3,128.1 218.7,128.2 L218.7,128.2 Z M292.9,118.1 C280,119.3 271.8,119.9 259.9,121 C246.1,122.2 238,122.5 225.9,123.9 C226,123.6 226.1,123.2 226.2,122.9 C230.5,122.4 242.8,120.8 257.3,119.9 C271.5,119 284.5,117.9 295.4,116.7 C294.7,117.3 293.9,117.8 292.9,118.1 L292.9,118.1 Z M297.6,119.6 C296.9,119.6 296.3,119.3 295.6,118.8 C296.2,118.7 296.5,118.5 296.9,118.2 C301.1,115.1 299.7,101.1 295.8,96.7 C295.7,97.2 296.4,99.9 297,103.3 C281.8,103.5 272.1,104.4 261.4,105.5 C247.3,106.9 239.1,106.6 226.4,108.1 L226.4,108.1 C226.3,107.6 226.2,107 226.1,106.5 C230.5,106.1 241.9,105.1 255.8,104.2 C270.3,103.3 271.5,102.7 277.8,102.3 C285.7,101.9 287.3,100.5 287.3,100.5 C278.8,100.4 271.9,101.8 260.7,102.4 C247.2,103 238.3,104.4 225.6,104.8 C225.5,104.3 225.3,103.8 225.2,103.3 C244.1,101.9 239.2,102.1 254.4,101.1 C254.4,101.1 286.4,99.4 292.3,97.4 C290.7,97 273.3,98.4 260.9,99 C247.5,99.7 242.6,100.6 224.6,101.7 C224.4,101.3 224.3,100.9 224.1,100.5 C230.9,100.1 290.2,95.4 290.4,95.4 L292.7,95.2 C293.4,93.6 294.3,92.6 295.4,92.5 C298.3,92.3 300.8,98.5 301.6,106.2 C302.5,113.6 300.5,119.4 297.6,119.6 L297.6,119.6 Z M304.7,112.2 C308.4,111.9 319.2,110.9 325.1,110.3 C327.1,110.1 335.3,109.1 342.8,109.2 C342.7,109.5 342.6,109.8 342.5,110.1 C335.4,110.7 310.3,113 304.6,113.6 C304.6,113.1 304.7,112.6 304.7,112.2 L304.7,112.2 Z M343.3,103.7 C343.3,104.6 343.3,105.5 343.2,106.3 C337.5,106.8 310.4,109 304.8,109.5 L304.8,107.9 C308.2,107.7 319.6,107 325.7,106.4 C327.6,106.2 341.6,105.5 343.3,103.7 L343.3,103.7 Z M337.9,114.2 C337.9,114.2 309.6,116.8 303.4,117.4 C303.6,117 303.7,116.6 303.8,116.2 C307.2,116 320.2,115.1 322.2,114.3 C323.3,113.9 333.8,113.6 340,113.1 C339.5,113.8 338.8,114.1 337.9,114.2 L337.9,114.2 Z M343,116.3 C342.5,116.3 342,116.2 341.5,115.8 C341.7,115.7 341.8,115.6 342,115.4 C346.5,112.1 346.6,95.6 339.5,91.5 C340.3,95.7 342.9,97.4 343.2,103.2 C335.7,103.3 309.7,105.3 304.5,105.8 L304.5,105.6 C304.5,105.3 304.4,105 304.4,104.6 C308.2,104 317.4,102.7 323,102.7 C325.6,102.7 337.7,101.6 340.3,100 C337,99.8 311,101.5 304,102.1 C303.9,101.5 303.8,100.9 303.7,100.3 C315.2,99.7 315.4,99.4 321.8,98.8 C326.3,98.3 334.6,98.4 335.5,97.2 C331.5,96.9 308.5,98.4 303.3,98.8 C303.1,98.3 302.9,97.7 302.7,97.2 C304.4,97.1 313.2,96.8 319.6,96.1 C324.1,95.6 336.8,94.8 337.7,93.6 C333.1,92.8 304,95.4 302.2,95.7 L302.2,96.1 C302,95.7 301.8,95.2 301.6,94.8 C301.5,94.6 301.4,94.4 301.3,94.2 C307.7,93.7 337.4,91.3 337.4,91.3 C338.1,89.7 339.6,88.8 340.7,88.7 C343.6,88.5 346.3,94.5 347.1,102.2 C348.1,110 345.9,116.1 343,116.3 L343,116.3 Z" id="Shape"></path>
                    <path d="M223.2,284.8 C224.4,285.1 225.6,286.2 225.7,286.9 C225.8,287.4 225.6,287.8 225.3,288.2 C224.9,286.8 223.3,285.8 220.3,285.7 L217.8,285.7 C213.9,286 210.8,287.1 210.8,288.8 C210.8,290 213,290.9 215.2,290.7 C213.8,290.3 213.2,289.7 213.2,289.3 C213.2,288.2 214.7,287.5 217.9,287.2 C220.9,287 222.7,287.9 222.9,288.5 C223.1,289.2 222.9,289.9 219.6,290.8 C218.9,291 218.2,291.1 217.5,291.2 C212.8,292 208.9,291 208.5,289.3 C208.2,287.9 209.4,286 214.6,285 C217.3,284.5 219.6,284.2 221.8,283.8 C218.6,283.1 214.3,283.5 211.9,284.3 C206.5,285.9 205.1,288 205.4,289.7 C205.9,292.2 209.1,293.2 214.1,293.1 C215.2,293.1 216.3,293 217.5,292.8 C223.1,291.8 229.3,289.6 228.4,286.4 C227.9,285.2 225.6,284.2 223.2,284.8" id="Shape"></path>
                    <path d="M240.3,313.4 C238.9,315.3 239.5,317.6 240.2,318.8 C241.2,320.3 244.3,320.8 245.4,319.2 C244.2,319.5 243.3,319.3 242.6,318.8 C242.2,318.5 241.9,318.2 241.7,317.7 C242.7,318.1 243.7,318.1 244.2,317.9 C245.6,317.4 246.6,315.4 245.9,313.8 C246,313.8 246,313.9 246.1,313.9 C246.9,314.5 247.5,315.6 247.3,317.1 C248.6,316 248.2,313.3 247,312.4 C245,310.7 242,311.2 240.3,313.4 M243.9,316.1 C243.4,316.4 242.5,316.9 241.5,316.2 C241.5,315.7 241.7,315.2 242,314.7 C242.6,313.9 243.5,313.5 244.4,313.4 C244.8,314.4 244.8,315.4 243.9,316.1" id="Shape"></path>
                    <path d="M248.7,305.5 C241.9,302.2 235.4,305.8 233.2,310.4 C229.7,317.6 233.1,325.1 239.1,326.7 C245.3,328.3 249.9,325.9 253,320.9 C255,317.4 255.5,308.8 248.7,305.5 M251.8,319.9 C249.2,324.1 245.3,326.1 240.1,324.8 C235,323.5 232.1,317.5 235.1,311.4 C237,307.5 242.5,304.1 248.2,306.9 C253.9,309.8 253.5,317.1 251.8,319.9" id="Shape"></path>
                    <path d="M247.4,308.6 C242.6,306.3 238.1,309.1 236.5,312.3 C234,317.3 236.4,322.3 240.6,323.4 C245,324.5 248,322.7 250.1,319.2 C251.6,316.9 252.1,311 247.4,308.6 M249.1,318.4 C247.4,321.1 245.1,322.5 241.8,321.6 C238.5,320.8 236.7,316.9 238.6,313.1 C239.8,310.6 243.3,308.5 247,310.2 C250.6,312 250.2,316.6 249.1,318.4" id="Shape"></path>
                    <path d="M169.8,307 C172.1,315.6 174.5,326.8 176.7,330.9 C177.5,329.9 174.3,316.2 170.3,301.2 C170.4,301.2 168.6,302.4 169.8,307" id="Shape"></path>
                </g>
            </g>
        </g>
    </g>
</svg>