<?xml version="1.0" encoding="iso-8859-1"?>
<!-- Generator: Adobe Illustrator 19.0.0, SVG Export Plug-In . SVG Version: 6.00 Build 0)  -->
<svg version="1.1" id="Layer_1" xmlns="http://www.w3.org/2000/svg" xmlns:xlink="http://www.w3.org/1999/xlink" x="0px" y="0px"
	 viewBox="0 0 512 512" style="enable-background:new 0 0 512 512;" xml:space="preserve">
<g>
	<g>
		<path d="M382.404,75.136l-259.478,54.022c-4.79,0.999-8.987,3.857-11.669,7.949c-2.682,4.091-3.628,9.082-2.63,13.87l0.026,0.127
			l-62.786,13.072l17.129,82.278l62.788-13.071l0.026,0.127c1.813,8.705,9.485,14.689,18.041,14.689c1.246,0,2.511-0.128,3.778-0.39
			l65.849-13.709c-1.541-5.817-2.371-11.92-2.371-18.216c0-39.276,31.953-71.229,71.228-71.229c35.613,0,65.202,26.27,70.412,60.45
			l54.359-11.317L382.404,75.136z"/>
	</g>
</g>
<g>
	<g>
		<path d="M282.335,157.79c-32.033,0-58.094,26.061-58.094,58.095c0,32.034,26.061,58.094,58.094,58.094
			c32.033,0,58.094-26.06,58.094-58.094C340.429,183.851,314.368,157.79,282.335,157.79z M282.335,237.086
			c-11.69,0-21.201-9.511-21.201-21.201c0-11.691,9.511-21.202,21.201-21.202s21.201,9.511,21.201,21.202
			C303.536,227.575,294.025,237.086,282.335,237.086z"/>
	</g>
</g>
<g>
	<g>
		<path d="M511.609,175.889L485.368,49.844c-0.997-4.79-3.857-8.987-7.948-11.668c-4.093-2.682-9.085-3.63-13.87-2.632
			l-56.581,11.78c-3.125,0.649-5.897,2.056-8.169,3.986c-4.983,4.23-7.557,10.984-6.13,17.834l26.241,126.045
			c0.997,4.79,3.857,8.987,7.948,11.668c1.494,0.98,3.109,1.724,4.79,2.231c1.724,0.519,3.517,0.787,5.322,0.787
			c1.253,0,2.512-0.128,3.759-0.386l56.582-11.78C507.283,195.632,513.686,185.863,511.609,175.889z"/>
	</g>
</g>
<g>
	<g>
		<path d="M48.48,236.553l-11.972-57.506c-1.644-7.896-8.12-13.532-15.692-14.517c-1.991-0.258-4.052-0.214-6.127,0.218
			c-9.973,2.077-16.375,11.846-14.3,21.82l10.791,51.832l1.181,5.673c1.813,8.705,9.485,14.69,18.041,14.69
			c1.246,0,2.511-0.128,3.778-0.39c2.076-0.433,3.984-1.213,5.706-2.243C46.44,252.206,50.126,244.452,48.48,236.553z"/>
	</g>
</g>
<g>
	<g>
		<path d="M378.586,452.585l-57.468-176.982c-10.197,6.647-22.184,11.056-35.076,11.72l31.642,97.728h-70.698l31.644-97.739
			c-12.892-0.664-24.878-4.934-35.076-11.581l-57.468,176.89c-3.147,9.689,2.157,20.059,11.848,23.204
			c9.69,3.146,20.095-1.88,23.241-11.57l13.831-42.312h94.659l13.831,42.294c2.532,7.798,9.763,12.606,17.541,12.606
			c1.886,0,3.809-0.365,5.701-0.98C376.427,472.716,381.731,462.273,378.586,452.585z"/>
	</g>
</g>
<g>
</g>
<g>
</g>
<g>
</g>
<g>
</g>
<g>
</g>
<g>
</g>
<g>
</g>
<g>
</g>
<g>
</g>
<g>
</g>
<g>
</g>
<g>
</g>
<g>
</g>
<g>
</g>
<g>
</g>
</svg>
