<?xml version="1.0" encoding="UTF-8" standalone="no"?>
<svg width="403px" height="158px" viewBox="0 0 403 158" version="1.1" xmlns="http://www.w3.org/2000/svg" xmlns:xlink="http://www.w3.org/1999/xlink">
    <!-- Generator: Sketch 42 (36781) - http://www.bohemiancoding.com/sketch -->
    <title>UPEI_Logo_white</title>
    <desc>Created with Sketch.</desc>
    <defs></defs>
    <g id="Page-1" stroke="none" stroke-width="1" fill="none" fill-rule="evenodd">
        <g id="UPEI_Logo_white" fill="#FFFFFF">
            <path d="M118.051,24.646 C118.036,24.709 118,24.789 117.968,24.861 C117.967,24.864 117.962,24.861 117.96,24.864 C117.959,24.867 117.722,25.167 117.443,25.028 C117.358,24.985 117.275,24.934 117.192,24.88 C117.06,24.758 116.921,24.666 116.753,24.568 C116.585,24.452 116.403,24.339 116.216,24.295 C116.159,24.274 116.042,24.235 115.966,24.235 C115.871,24.235 115.783,24.31 115.775,24.406 C115.761,24.59 115.959,24.621 116.103,24.643 L116.104,24.641 C116.176,24.669 116.265,24.709 116.364,24.765 L116.723,24.993 C116.802,25.051 116.883,25.109 116.965,25.166 C117.11,25.304 117.228,25.482 117.334,25.722 C117.383,25.832 117.407,25.937 117.433,26.04 C117.439,26.1 117.45,26.159 117.45,26.221 C117.45,26.687 117.504,27.334 117.18,27.691 C117.105,27.776 117.073,27.784 117.021,27.892 C116.943,28.049 116.871,28.194 116.761,28.331 C116.607,28.521 116.438,28.673 116.252,28.834 C115.979,29.067 115.747,29.26 115.421,29.324 C115.205,29.367 114.996,29.374 114.784,29.383 C114.471,29.207 114.427,28.982 114.359,28.553 C114.347,28.469 114.333,28.382 114.316,28.288 C114.194,27.601 114.042,27.601 113.961,27.601 C113.902,27.601 113.843,27.633 113.809,27.68 C113.765,27.74 113.721,27.802 113.894,28.32 C114.073,28.849 113.81,29.741 113.699,30.07 C113.476,30.364 113.223,30.637 112.968,30.912 C112.584,31.157 112.235,31.409 111.8,31.545 C111.565,31.619 111.331,31.736 111.089,31.801 C110.898,31.846 110.7,31.883 110.577,32.049 C110.488,32.174 110.27,32.223 110.373,32.559 C110.373,32.639 110.659,32.813 110.661,32.893 C110.675,33.305 109.736,32.973 109.545,32.893 C109.354,32.817 109.239,32.802 109.042,32.726 C108.813,32.641 108.522,32.494 108.318,32.344 C108.146,32.217 108.009,32 107.867,31.842 C107.781,31.75 107.683,31.654 107.577,31.566 C107.146,31.056 106.637,30.382 106.342,29.745 C105.746,28.468 105.882,27.359 106.035,27.223 C106.332,26.964 106.469,26.411 106.483,26.348 C106.501,26.273 106.469,26.194 106.402,26.152 C106.337,26.11 106.253,26.117 106.19,26.165 C106.164,26.187 105.526,26.714 105.402,27.242 C105.305,27.653 105.191,27.796 105.204,27.813 C104.938,27.7 104.59,26.598 104.59,26.25 C104.59,26.165 104.572,26.013 104.549,25.823 C104.484,25.279 104.374,24.369 104.596,23.932 C105.014,23.103 105.739,22.497 106.134,22.21 C106.337,22.062 106.534,21.885 106.47,21.686 C106.44,21.595 106.35,21.487 106.085,21.487 C106.041,21.487 106.011,21.49 106.011,21.49 C105.976,21.494 105.941,21.507 105.914,21.528 C105.47,21.88 104.972,22.258 104.727,22.423 C104.636,22.123 104.501,21.504 104.572,21.241 C104.83,20.308 104.807,20.278 104.746,20.197 C104.711,20.151 104.655,20.124 104.599,20.124 C104.506,20.124 104.367,20.124 104.119,21.158 C103.948,21.866 103.947,22.967 103.947,23.006 C103.927,23.524 103.825,24.44 103.646,24.692 C103.421,25.004 103.534,25.722 103.693,26.559 C103.737,26.788 103.778,27.005 103.778,27.083 C103.751,27.409 102.278,30.467 102.012,30.929 C101.958,31.024 101.926,31.097 101.913,31.163 L100.286,30.788 C99.62,31.124 98.79,31.646 98.238,32.359 C97.798,32.303 97.364,32.348 96.953,32.453 C96.977,32.275 97.008,32.103 97.082,31.912 C97.171,31.683 97.203,31.454 97.271,31.222 C97.323,31.033 97.366,30.851 97.453,30.68 C97.579,30.437 97.867,30.227 97.978,29.971 C98.092,29.705 97.956,29.371 98.07,29.104 C98.34,28.48 98.61,27.853 98.881,27.227 C98.998,26.959 99.12,26.714 99.206,26.434 C99.291,26.161 99.406,25.898 99.542,25.645 C99.661,25.422 99.851,25.249 99.982,25.034 C100.086,24.865 100.225,24.6 100.288,24.41 C100.32,24.314 100.313,24.188 100.342,24.087 C100.384,23.944 100.459,23.807 100.533,23.679 C100.864,23.12 101.439,22.778 101.81,22.256 C101.927,22.094 102.003,21.9 102.14,21.755 C102.208,21.68 102.298,21.653 102.371,21.591 C102.446,21.525 102.462,21.436 102.521,21.347 C102.638,21.176 102.684,20.992 102.73,20.792 C102.798,20.508 102.961,20.299 103.093,20.07 C103.277,19.736 103.503,19.448 103.819,19.223 C103.983,19.106 104.131,18.952 104.322,18.881 C104.532,18.802 104.675,18.662 104.875,18.545 C105.055,18.442 105.206,18.298 105.371,18.18 C105.531,18.065 105.735,18.013 105.935,17.967 C106.315,17.879 106.708,17.889 107.092,17.84 C107.205,17.825 107.302,17.771 107.419,17.76 C107.534,17.749 107.657,17.76 107.771,17.76 C108.229,17.76 108.674,17.768 109.123,17.818 C109.537,17.866 109.996,17.99 110.334,18.228 C110.508,18.347 110.65,18.499 110.869,18.571 C111.039,18.627 111.208,18.74 111.368,18.824 C111.521,18.904 111.572,19.015 111.663,19.173 C111.745,19.307 111.869,19.411 111.986,19.524 C112.001,19.539 112.013,19.552 112.025,19.566 C112.379,20.251 112.975,21.559 112.895,22.453 C112.784,23.699 112.113,25.597 111.777,25.97 C111.442,26.345 111.284,26.761 112.168,26.194 C113.174,25.548 114.066,22.565 114.066,22.119 C114.066,21.827 114.311,21.616 114.6,21.483 C114.651,21.494 114.7,21.507 114.788,21.501 C115.291,21.47 115.836,21.504 116.271,21.789 C116.618,22.012 117.001,22.185 117.31,22.446 C117.687,22.769 118.072,23.471 118.104,23.969 C118.118,24.19 118.107,24.444 118.051,24.646 Z M102.313,31.256 C102.399,31.161 102.522,31.004 102.713,30.732 L102.762,30.661 C104.009,28.878 104.433,28.611 104.575,28.611 C104.942,28.611 105.238,29.201 105.288,29.505 C105.332,29.778 105.521,29.933 105.688,30.07 C105.784,30.148 105.874,30.222 105.927,30.309 L105.961,30.367 C106.129,30.639 106.475,31.201 106.445,31.576 C106.441,31.64 106.441,31.64 106.203,31.873 C106.033,32.031 105.98,32.096 105.856,32.26 C105.681,32.492 105.386,32.824 105.308,33.089 C105.178,33.401 104.962,33.726 104.744,34 C104.529,33.893 104.306,33.797 104.064,33.727 C103.895,32.524 103.277,31.647 103.123,31.443 L102.313,31.256 Z M103.652,46.295 L102.746,46.295 C101.214,45.025 97.462,43.75 92.112,43.75 C86.763,43.75 83.103,45.025 81.571,46.295 L80.69,46.295 L75.778,36.825 L77.612,35.995 L77.908,38.186 L79.031,36.528 L80.453,39.514 L78.501,39.487 C78.501,39.487 79.565,41.382 82.109,41.026 C82.913,40.915 83.462,40.564 83.862,40.146 C83.789,40.174 83.093,40.408 82.643,39.903 C82.17,39.37 82.879,38.778 82.879,38.778 C82.879,38.778 82.94,39.192 83.429,39.251 C83.915,39.309 83.943,38.59 83.943,38.59 C83.943,38.59 83.588,38.47 83.531,38.186 C83.487,37.978 83.891,37.664 83.891,37.664 C83.891,37.664 83.293,36.277 82.406,36.647 C81.502,37.024 82.346,37.948 82.346,37.948 C82.346,37.948 81.164,37.772 80.654,37.299 C80.142,36.825 80.275,35.758 81.518,35.522 C82.76,35.286 83.648,36.233 83.648,36.233 C83.648,36.233 83.115,35.227 82.998,34.28 C82.879,33.333 83.531,32.504 83.531,32.504 C83.531,32.504 84.654,33.096 84.893,33.63 C85.129,34.161 85.068,35.995 85.068,35.995 C85.068,35.995 86.05,34.605 86.667,34.397 C87.022,34.28 87.911,34.34 88.028,35.286 C88.146,36.233 87.082,37.003 87.082,37.003 C87.082,37.003 87.125,36.471 86.845,36.114 C86.564,35.758 86.135,35.995 85.838,36.363 C85.562,36.706 85.543,37.239 85.543,37.239 C85.543,37.239 85.956,37.594 85.956,37.772 C85.956,37.948 85.781,38.305 85.781,38.305 C85.781,38.305 86.016,38.778 86.431,38.661 C86.845,38.542 86.667,37.712 86.667,37.712 C86.667,37.712 87.143,38.069 87.437,38.305 C87.733,38.542 87.497,39.051 87.082,39.37 C86.962,39.461 86.78,39.548 86.588,39.628 C87.019,39.749 87.537,39.823 88.206,39.784 C89.748,39.695 90.605,39.057 91.078,38.442 L91.64,36.677 L89.745,37.948 L89.45,34.161 L91.757,35.641 L90.868,33.155 L94.064,33.155 L92.94,35.702 L95.249,34.34 L94.896,38.069 L93.058,36.677 L93.563,38.554 C93.996,39.121 94.661,39.708 95.663,39.903 C96.371,40.04 97.064,39.892 97.687,39.651 C97.67,39.638 97.652,39.63 97.642,39.621 C97.231,39.296 97.004,38.78 97.306,38.549 C97.604,38.318 98.084,37.969 98.084,37.969 C98.084,37.969 97.893,38.796 98.305,38.922 C98.717,39.049 98.961,38.577 98.961,38.577 C98.961,38.577 98.79,38.22 98.793,38.043 C98.797,37.865 99.218,37.518 99.218,37.518 C99.218,37.518 99.207,36.981 98.936,36.636 C98.646,36.265 98.223,36.021 97.935,36.37 C97.647,36.72 97.683,37.254 97.683,37.254 C97.683,37.254 96.63,36.465 96.766,35.52 C96.9,34.577 97.789,34.532 98.141,34.658 C98.756,34.875 99.712,36.283 99.712,36.283 C99.712,36.283 99.684,34.447 99.931,33.919 C100.176,33.391 101.311,32.819 101.311,32.819 C101.311,32.819 101.948,33.659 101.813,34.603 C101.678,35.549 101.129,36.546 101.129,36.546 C101.129,36.546 102.03,35.613 103.271,35.872 C104.508,36.13 104.623,37.196 104.104,37.662 C103.587,38.128 102.399,38.284 102.399,38.284 C102.399,38.284 103.262,37.374 102.362,36.979 C101.482,36.593 100.864,37.973 100.864,37.973 C100.864,37.973 101.259,38.291 101.212,38.499 C101.148,38.784 100.789,38.895 100.789,38.895 C100.789,38.895 100.807,39.617 101.298,39.567 C101.784,39.515 101.853,39.101 101.853,39.101 C101.853,39.101 102.553,39.706 102.069,40.23 C101.71,40.623 101.188,40.549 100.949,40.486 C101.276,40.922 101.676,41.311 102.172,41.501 C104.233,42.289 105.961,40.258 105.961,40.258 L103.949,39.976 L105.724,36.944 L106.79,39.073 L107.085,36.647 L108.858,38.008 L103.652,46.295 Z M103.566,59.291 C103.449,59.322 103.307,59.253 103.224,59.178 C102.987,58.965 102.847,58.641 102.632,58.4 C102.479,58.227 102.37,57.958 102.294,57.737 C102.24,57.586 102.102,57.056 101.889,57.149 C101.913,56.92 101.64,56.596 101.544,56.397 C101.43,56.166 101.388,55.933 101.295,55.697 C101.213,55.478 101.018,55.4 100.807,55.272 C100.435,55.045 100.104,54.748 99.78,54.449 C99.315,54.017 98.98,53.525 98.59,53.036 C98.44,52.845 98.395,52.723 98.338,52.492 C98.288,52.295 98.124,52.142 98.089,51.952 C98.052,51.746 98.121,51.506 98.106,51.293 C98.092,51.028 97.936,50.875 97.801,50.66 C97.602,50.337 97.52,49.965 97.424,49.611 C97.346,49.316 97.356,48.993 97.253,48.705 C97.142,48.406 96.921,48.146 96.777,47.868 C96.67,47.661 96.608,47.45 96.503,47.247 C96.43,47.102 96.386,46.721 96.326,46.348 C99.053,46.783 100.708,47.561 101.294,48.047 L101.67,48.182 C101.719,48.446 101.783,48.708 101.837,48.954 C101.952,49.481 102.112,50.006 102.205,50.544 C102.266,50.882 102.381,51.223 102.448,51.561 C102.474,51.694 102.496,51.882 102.518,52.043 C102.55,52.279 102.649,52.503 102.678,52.741 C102.706,52.99 102.687,53.248 102.678,53.496 C102.66,53.87 102.526,54.215 102.398,54.561 C102.307,54.813 102.052,55.019 102.13,55.302 C102.194,55.528 102.329,55.793 102.426,56.013 C102.433,56.024 103.481,58.381 103.481,58.381 C103.542,58.587 103.623,58.795 103.664,59.005 C103.69,59.157 103.731,59.25 103.566,59.291 Z M95.343,47.068 C95.268,47.21 95.271,47.515 95.25,47.674 C95.111,48.642 95.17,49.813 94.656,50.686 C94.68,50.652 94.69,50.665 94.71,50.652 C94.676,50.74 94.714,50.901 94.706,51.018 C94.697,51.204 94.676,51.388 94.665,51.57 C94.649,51.854 94.66,52.142 94.66,52.426 C94.66,52.721 94.68,53.02 94.662,53.311 C94.655,53.43 94.626,53.569 94.598,53.681 C94.517,54.029 94.389,54.36 94.274,54.7 C94.177,55.002 94.056,55.281 93.826,55.51 C93.639,55.7 93.416,55.842 93.199,55.992 C93.026,56.111 92.759,56.224 92.632,56.391 C92.389,56.714 92.408,57.351 92.348,57.755 C92.22,58.643 92.287,59.566 92.276,60.467 C92.273,60.685 92.088,62.211 91.682,61.647 C91.404,61.267 91.441,60.737 91.47,60.297 C91.498,59.805 91.506,59.322 91.526,58.832 C91.546,58.355 91.546,57.865 91.463,57.399 C91.435,57.228 91.45,56.948 91.346,56.816 C91.31,56.768 91.153,56.674 91.095,56.625 C90.962,56.512 90.848,56.4 90.73,56.267 C90.588,56.107 90.398,55.999 90.279,55.812 C89.991,55.372 89.954,54.802 89.842,54.303 C89.723,53.786 89.757,53.26 89.757,52.736 C89.757,51.676 89.883,50.634 89.753,49.585 C89.688,49.056 89.719,48.507 89.671,47.974 C89.652,47.78 89.555,46.863 89.416,46.163 C90.244,46.082 91.125,46.025 92.112,46.025 C93.373,46.025 94.493,46.103 95.496,46.225 C95.429,46.603 95.377,47.003 95.343,47.068 Z M88.049,47.016 C87.906,47.238 87.862,47.537 87.773,47.786 C87.691,48.024 87.549,48.237 87.467,48.477 C87.273,49.06 87.133,49.666 86.944,50.248 C86.87,50.476 86.827,50.702 86.781,50.929 C86.71,51.282 86.554,51.614 86.419,51.954 C86.237,52.409 86.031,52.769 85.786,53.173 C85.604,53.467 85.355,53.723 85.184,54.024 C84.972,54.39 84.67,54.722 84.282,54.909 C83.972,55.055 83.621,55.158 83.33,55.334 C83.081,55.483 82.949,55.713 82.811,55.951 C82.64,56.242 82.395,56.516 82.272,56.85 C82.188,57.076 82.134,57.295 81.989,57.492 C81.854,57.676 81.659,57.826 81.573,58.032 C81.484,58.251 81.369,58.383 81.22,58.56 C81.074,58.73 80.996,58.951 80.717,58.901 C80.262,58.818 80.537,58.435 80.667,58.216 C80.838,57.939 81.007,57.661 81.176,57.382 C81.384,57.039 81.595,56.692 81.801,56.349 C81.9,56.133 82.015,55.921 82.078,55.691 C82.293,54.938 81.844,54.005 81.696,53.294 C81.586,52.762 81.566,52.256 81.744,51.751 C81.844,51.473 81.97,51.215 82.036,50.924 C82.206,50.139 82.473,49.371 82.668,48.614 C82.708,48.46 82.728,48.3 82.755,48.143 L83.023,48.046 C83.636,47.538 85.393,46.708 88.314,46.288 C88.201,46.618 88.103,46.93 88.049,47.016 Z M82.236,30.992 L81.743,31.097 C81.585,31.298 80.952,32.165 80.762,33.364 C80.525,33.427 80.3,33.511 80.088,33.611 C80.056,33.473 80.028,33.314 79.946,33.214 C79.831,33.077 79.686,32.967 79.578,32.826 C79.398,32.599 79.255,32.354 79.076,32.132 C78.971,31.854 78.877,31.539 78.877,31.276 C78.877,31.012 79.513,29.801 79.874,29.318 C79.919,29.258 79.964,29.195 80.01,29.131 C80.273,28.761 80.514,28.428 80.88,28.571 C81.418,28.772 81.899,30.052 82.236,30.992 Z M75.553,31.665 C75.494,31.486 75.386,31.329 75.247,31.205 C75.067,31.042 74.812,30.992 74.588,30.914 C74.312,30.817 74.033,30.719 73.763,30.608 C73.532,30.513 73.34,30.355 73.121,30.233 C72.995,30.162 72.854,30.085 72.741,29.996 C72.496,29.808 72.398,29.465 72.174,29.285 C71.783,28.978 71.205,29.081 70.752,28.912 C70.414,28.782 70.116,28.601 69.789,28.426 C69.579,28.317 69.304,28.249 69.135,28.094 C68.404,27.423 68.191,26.412 68.083,25.473 C68.058,25.235 68.058,24.982 67.938,24.758 C67.877,24.639 67.809,24.59 67.78,24.458 C67.719,24.172 67.557,23.881 67.557,23.582 C67.557,23.408 67.553,23.242 67.6,23.074 C67.727,22.602 67.886,21.995 68.211,21.622 C68.538,21.245 68.851,20.9 69.309,20.681 C69.59,20.547 69.892,20.439 70.194,20.356 C70.592,20.248 70.985,20.092 71.389,20.008 C71.471,19.992 71.556,19.981 71.645,19.981 C71.775,19.983 71.871,19.924 71.975,19.868 C71.699,20.697 71.422,21.997 71.911,23.011 C72.693,24.633 72.7,24.303 73.145,24.856 C73.593,25.405 73.866,26.04 73.866,26.04 C73.866,26.04 74.033,25.708 73.812,25.266 C73.383,24.416 72.748,22.905 72.748,21.392 C72.748,20.306 73.004,19.354 73.705,18.558 C73.999,18.344 74.306,18.149 74.57,17.901 C74.872,17.617 75.104,17.296 75.542,17.228 C75.852,17.178 76.15,17.053 76.459,16.999 C76.695,16.956 76.931,16.954 77.172,16.954 C77.364,16.954 77.556,16.952 77.746,16.954 C78.041,16.958 78.342,17.032 78.633,17.082 C78.94,17.133 79.252,17.192 79.545,17.307 C79.705,17.372 79.857,17.434 80.03,17.473 C80.492,17.58 80.854,17.894 81.249,18.163 C81.353,18.234 81.427,18.289 81.513,18.371 C81.6,18.458 81.697,18.555 81.804,18.621 C81.953,18.715 82.116,18.761 82.252,18.874 C82.536,19.119 82.849,19.401 82.974,19.756 C83.076,20.043 83.154,20.363 83.329,20.626 C83.393,20.727 83.46,20.873 83.553,20.935 C83.616,20.976 83.677,20.965 83.748,20.994 C83.937,21.067 83.98,21.28 84.04,21.445 C84.082,21.57 84.11,21.655 84.118,21.787 C84.14,22.051 84.19,22.256 84.351,22.467 C84.526,22.695 84.693,22.947 84.747,23.235 C84.811,23.573 84.899,23.937 85.049,24.25 C85.246,24.664 85.501,25.008 85.701,25.409 C85.81,25.624 85.787,25.857 85.857,26.081 C85.926,26.296 86.093,26.282 86.213,26.438 C86.288,26.54 86.318,26.688 86.37,26.806 C86.45,26.989 86.54,27.169 86.596,27.364 C86.67,27.633 86.75,27.893 86.823,28.16 C86.921,28.51 87.032,28.85 87.032,29.215 C87.032,29.406 86.969,29.685 87.086,29.84 C87.136,29.909 87.186,29.932 87.223,30.008 C87.287,30.133 87.287,30.281 87.355,30.405 C87.502,30.684 87.623,30.992 87.745,31.292 C87.82,31.475 87.918,31.656 87.901,31.859 C87.893,31.978 87.857,32.046 87.813,32.136 C87.806,32.151 87.791,32.175 87.782,32.193 C87.403,32.102 87.009,32.054 86.61,32.097 C86.069,31.375 85.251,30.839 84.593,30.492 L83.133,30.802 C82.99,30.272 82.808,29.757 82.678,29.497 C82.297,28.735 81.92,27.078 81.92,26.753 C81.92,26.665 81.935,26.442 81.953,26.15 C82.034,24.877 82.102,23.597 81.968,23.179 C81.776,22.582 80.484,21.633 80.338,21.525 C80.26,21.47 80.155,21.484 80.094,21.554 C80.032,21.626 80.035,21.733 80.101,21.801 C80.104,21.803 80.32,22.03 80.74,22.817 C81.044,23.386 81.015,23.894 80.975,24.597 C80.96,24.862 80.942,25.149 80.942,25.469 C80.942,26.286 80.44,27.181 80.181,27.592 C80.104,27.444 80.015,27.225 79.963,26.944 C79.846,26.298 79.555,25.884 79.542,25.867 C79.488,25.793 79.391,25.769 79.312,25.81 C79.232,25.85 79.193,25.944 79.221,26.029 C79.223,26.036 79.427,26.699 79.213,28.406 C79.003,30.086 76.86,31.501 76.838,31.514 C76.816,31.528 76.818,31.557 76.804,31.579 C76.72,31.625 76.631,31.668 76.557,31.723 C76.422,31.82 76.354,31.948 76.201,32.011 C76.068,32.069 75.811,32.099 75.687,32 C75.596,31.923 75.587,31.772 75.553,31.665 Z M84.459,11.738 C84.559,11.295 84.918,11.048 84.946,10.648 C84.959,10.456 84.985,10.403 84.979,10.225 C84.968,10.019 85.042,9.694 85.135,9.521 C85.235,9.35 85.403,9.211 85.521,9.055 C85.694,8.836 85.874,8.721 86.078,8.549 C86.242,8.409 86.418,8.277 86.609,8.175 C86.981,7.982 87.413,7.915 87.81,7.79 C88.316,7.632 90.029,7.717 90.53,8.039 C90.808,8.218 91.48,8.655 91.852,8.895 C92.081,9.259 92.571,10.149 92.571,11.176 C92.571,12.048 92.838,13.657 93.026,14.673 C93.124,15.215 93.392,14.903 93.392,14.903 C93.392,14.903 93.688,12.404 93.742,10.952 C93.795,9.624 93.848,9.414 94.157,9.004 C94.893,8.67 95.63,8.336 96.363,8.004 C96.502,7.939 96.634,7.863 96.779,7.845 C97.151,7.798 97.555,7.726 97.928,7.75 C98.138,7.759 98.353,7.77 98.557,7.796 C98.749,7.82 98.9,7.876 99.09,7.936 C99.432,8.051 99.78,8.208 100.082,8.423 C100.322,8.595 100.604,8.698 100.828,8.894 C101.019,9.062 101.097,9.309 101.205,9.537 C101.381,9.918 101.558,10.299 101.735,10.682 C101.735,10.682 102.17,12.116 102.17,13.328 C102.17,13.922 101.145,15.904 101.145,15.904 L99.187,18.282 C99.187,18.282 99.158,18.993 99.028,19.179 C98.873,19.396 98.043,19.851 98.043,19.997 C98.043,20.386 98.895,20.129 98.895,20.129 C98.895,20.129 98.585,22.348 98.502,22.728 C98.476,22.847 98.411,23.029 98.333,23.222 C98.309,23.292 98.279,23.363 98.248,23.43 C98.21,23.527 98.17,23.621 98.132,23.706 C98.023,23.953 97.935,24.143 97.935,24.143 L96.835,28.927 C96.591,30.135 96.393,31.361 96.101,32.559 C96.08,32.644 96.068,32.738 96.05,32.826 C95.877,32.931 95.71,33.044 95.562,33.178 L94.064,30.88 L90.868,30.88 L89.35,33.035 C89.206,32.89 89.038,32.767 88.865,32.652 C88.84,32.43 88.784,32.198 88.768,32.008 C88.746,31.761 88.673,31.539 88.607,31.296 C88.551,31.073 88.515,30.815 88.503,30.576 C88.499,30.507 88.497,30.44 88.497,30.377 C88.499,30.085 88.483,29.806 88.434,29.518 C88.365,29.148 88.323,28.761 88.319,28.386 C88.316,28.049 88.309,27.684 88.241,27.369 C88.156,27.004 88.062,26.64 87.985,26.274 C87.939,26.068 87.875,25.857 87.857,25.645 C87.823,25.301 87.662,24.968 87.662,24.614 L87.569,24.007 C87.53,23.733 87.463,23.827 87.495,23.549 C87.29,23.031 88.885,23.961 89.165,23.736 C89.219,23.459 87.769,22.677 87.634,22.533 C87.584,22.344 87.518,22.256 87.42,22.106 C87.305,21.938 87.246,21.687 87.192,21.494 C87.043,20.933 86.837,20.363 86.757,19.776 C86.706,19.403 86.67,19.025 86.609,18.653 C86.565,18.354 86.534,18.053 86.491,17.753 C87.016,18.058 87.641,18.437 87.948,18.64 C88.427,18.96 89.414,20 89.424,20.01 C89.477,20.064 89.554,20.082 89.624,20.053 C89.693,20.026 89.738,19.96 89.738,19.884 C89.738,19.883 89.739,19.61 89.777,19.243 C89.777,19.243 89.797,19.229 89.857,19.229 C90.13,19.229 90.795,19.514 91.425,20.28 C91.835,20.777 91.882,21.454 91.933,22.169 C91.968,22.663 92.004,23.174 92.174,23.617 C92.285,23.907 92.337,24.692 92.384,25.385 C92.478,26.781 92.523,27.222 92.834,27.222 C92.881,27.222 92.95,27.209 93.015,27.142 C93.389,26.758 93.35,23.572 93.313,22.158 C93.404,22.006 93.71,21.498 93.897,21.214 C94.323,20.555 95.396,20.051 96.552,19.551 C97.739,19.034 98.284,17.822 98.409,17.506 C98.602,17.418 99.159,17.162 99.569,16.98 C100.106,16.742 100.952,15.363 101.046,15.207 C101.097,15.124 101.072,15.014 100.99,14.961 C100.91,14.906 100.798,14.927 100.742,15.008 C100.439,15.435 100.07,15.831 99.974,15.855 C99.829,15.827 99.591,15.612 99.467,15.467 C99.405,15.397 99.301,15.383 99.226,15.435 C99.148,15.489 99.124,15.59 99.168,15.673 C99.171,15.677 99.424,16.152 99.106,16.389 C98.952,16.504 98.783,16.562 98.604,16.562 C98.538,16.562 98.484,16.554 98.446,16.547 C97.549,14.933 97.539,14.933 97.401,14.933 C97.341,14.933 97.282,14.965 97.248,15.016 C97.19,15.105 97.228,15.189 97.264,15.269 L97.297,15.345 C97.531,15.872 97.968,16.85 97.331,17.832 C97.063,18.246 96.155,18.736 94.776,19.212 C94.107,19.44 93.517,20 93.125,20.369 C93.022,20.467 92.908,20.574 92.84,20.628 C92.771,20.549 92.659,20.372 92.573,20.235 C92.416,19.985 92.238,19.702 92.032,19.481 C91.728,19.155 91.421,19.067 90.809,18.892 C90.479,18.798 90.068,18.68 89.504,18.484 C88.555,18.157 88.412,17.122 88.343,16.625 C88.308,16.375 88.283,16.194 88.092,16.194 C87.94,16.194 87.876,16.343 87.825,16.464 C87.575,17.047 87.689,17.497 87.795,17.737 C87.755,17.722 87.702,17.699 87.634,17.661 C87.289,17.467 86.383,16.928 85.857,16.615 C84.932,15.651 84.349,14.419 84.349,13.08 C84.349,12.607 84.363,12.183 84.459,11.738 Z M47.623,20.023 L44.629,20.023 C44.629,20.023 43.52,20.023 43.52,21.133 L43.52,34.486 C42.619,34.247 41.522,34.014 40.193,33.804 L40.193,21.126 C40.193,21.126 40.193,20.016 39.085,20.016 L34.206,20.016 L34.206,19.104 C34.206,19.104 34.206,18.195 34.965,17.385 L37.66,14.512 C37.66,14.512 38.419,13.704 39.527,13.704 L46.513,13.704 C46.513,13.704 47.623,13.704 47.623,14.81 L47.623,20.023 Z M46.551,45.38 C46.551,45.38 43.557,42.506 27.543,42.506 C11.53,42.506 8.637,45.38 8.637,45.38 L8.354,38.377 C8.354,38.377 11.513,35.551 27.543,35.551 C43.575,35.551 46.827,38.377 46.827,38.377 L46.551,45.38 Z M43.519,53.311 C43.519,53.311 43.575,55.42 41.8,55.42 C40.026,55.42 40.193,53.311 40.193,53.311 L40.193,45.871 C41.632,46.115 42.716,46.381 43.519,46.623 L43.519,53.311 Z M32.523,58.97 C32.635,59.635 32.803,60.813 32.082,60.927 C31.36,61.043 30.861,60.412 30.694,60.023 C30.529,59.635 29.974,58.471 29.752,56.697 C29.651,55.894 30.13,47.827 30.13,47.216 C30.13,47.008 30.177,46.137 30.24,45.042 C31.215,45.064 32.127,45.098 32.988,45.141 C32.669,47.676 31.971,54.35 31.971,55.698 C31.971,57.195 32.458,58.571 32.523,58.97 Z M25.709,56.697 C25.487,58.471 24.933,59.635 24.767,60.023 C24.601,60.412 24.101,61.043 23.38,60.927 C22.659,60.813 22.826,59.635 22.938,58.97 C23.003,58.571 23.491,57.195 23.491,55.698 C23.491,54.345 22.787,47.631 22.47,45.116 C23.33,45.078 24.249,45.051 25.22,45.032 C25.283,46.132 25.33,47.007 25.33,47.216 C25.33,47.827 25.81,55.894 25.709,56.697 Z M13.287,55.42 C11.513,55.42 11.568,53.311 11.568,53.311 L11.568,46.609 C12.374,46.364 13.46,46.1 14.894,45.857 L14.894,53.311 C14.894,53.311 15.061,55.42 13.287,55.42 Z M7.465,14.81 C7.465,13.704 8.574,13.704 8.574,13.704 L15.561,13.704 C16.669,13.704 17.428,14.512 17.428,14.512 L20.123,17.385 C20.882,18.195 20.882,19.104 20.882,19.104 L20.882,20.016 L16.002,20.016 C14.894,20.016 14.894,21.126 14.894,21.126 L14.894,33.79 C13.565,33.998 12.469,34.231 11.566,34.468 L11.566,21.133 C11.566,20.023 10.459,20.023 10.459,20.023 L7.465,20.023 L7.465,14.81 Z M23.543,8.576 C25.869,7.644 27.218,8.227 27.731,8.558 C28.242,8.227 29.592,7.644 31.917,8.576 C34.311,9.534 35.434,11.179 35.045,13.23 C34.765,14.718 32.358,17.448 30.751,19.16 C32.558,20.543 35.511,22.688 35.574,23.543 C35.739,25.816 35.257,28.534 35.075,29.918 C35.022,30.322 34.85,31.586 34.629,33.21 C33.503,33.136 32.281,33.079 30.955,33.042 C31.082,30.977 31.193,29.198 31.193,29.198 C31.193,29.198 31.304,27.147 31.193,26.426 C31.082,25.706 29.809,24.431 29.809,24.431 C29.809,24.431 29.073,23.679 28.24,22.824 C29.06,22.225 30.174,21.324 30.307,20.736 C30.649,19.229 29.989,18.986 29.913,18.963 C29.828,18.937 29.736,18.963 29.679,19.03 C29.62,19.094 29.604,19.19 29.641,19.27 L29.674,19.334 C29.694,19.451 29.679,19.787 29.612,20.013 C29.433,20.61 29.075,21.01 28.153,20.994 C28.072,20.994 27.843,20.944 27.72,20.923 C27.613,20.92 27.503,20.996 27.477,21.1 C27.402,21.394 27.995,21.689 28.022,21.703 C28.055,21.719 28.085,21.733 28.116,21.744 L27.596,22.439 C26.618,23.443 25.653,24.431 25.653,24.431 C25.653,24.431 24.379,25.706 24.268,26.426 C24.156,27.147 24.268,29.198 24.268,29.198 C24.268,29.198 24.378,30.968 24.505,33.029 C23.181,33.06 21.957,33.111 20.828,33.179 C20.608,31.569 20.439,30.32 20.386,29.918 C20.204,28.534 19.721,25.816 19.887,23.543 C19.949,22.688 22.902,20.543 24.709,19.16 C23.103,17.448 20.696,14.718 20.415,13.23 C20.027,11.179 21.15,9.534 23.543,8.576 Z M61.494,0.487 L0,0.487 L0,91.406 C0.298,92.311 0.597,93.19 0.896,94.061 L61.494,53.02 L122.095,94.061 C122.393,93.19 122.691,92.311 122.99,91.406 L122.99,0.487 L61.494,0.487 L61.494,0.487 Z" id="Fill-1"></path>
            <path d="M27.199,16.168 C26.359,16.842 25.396,17.717 25.284,18.28 C24.951,19.947 26.377,20.383 26.396,20.383 L26.562,20.471 C26.594,20.49 26.633,20.5 26.67,20.5 L26.677,20.5 C26.777,20.503 26.905,20.404 26.905,20.28 C26.905,20.215 26.873,20.154 26.824,20.113 C26.713,19.941 26.311,19.257 26.535,18.671 C26.769,18.061 27.385,17.969 27.731,17.969 C28.106,17.969 28.361,18.074 28.402,18.114 C28.452,18.176 28.532,18.258 28.654,18.258 C28.76,18.258 28.869,18.167 28.892,18.068 C28.943,17.827 28.629,17.302 28.015,17.03 C27.877,16.968 27.687,16.937 27.433,16.942 L27.81,16.542 C28.789,15.735 29.786,14.921 30.089,14.562 C30.977,13.509 31.363,11.679 30.754,10.849 C30.263,10.177 29.257,9.463 28.703,9.185 C28.478,9.073 28.015,8.915 27.731,8.82 C27.445,8.915 26.983,9.073 26.758,9.185 C26.205,9.463 25.198,10.177 24.707,10.849 C24.097,11.679 24.484,13.509 25.373,14.562 C25.629,14.865 26.383,15.494 27.199,16.168" id="Fill-2"></path>
            <polyline id="Fill-3" points="26.027 36.444 26.693 38.171 24.968 37.504 24.968 40.492 26.693 39.825 26.029 41.552 29.016 41.552 28.35 39.827 30.075 40.492 30.075 37.504 28.35 38.171 29.016 36.444 26.027 36.444"></polyline>
            <path d="M62.829,88.328 C62.829,88.328 62.829,87.672 63.473,87.543 C63.473,87.543 66.725,85.572 73.292,85.572 C79.859,85.572 85.298,88.574 85.298,88.574 C85.298,88.574 85.87,88.891 85.87,89.545 L85.87,125.057 C85.87,125.057 85.87,125.713 85.227,125.586 C85.227,125.586 78.672,122.727 71.975,122.949 C65.279,123.17 63.384,124.367 63.384,124.367 C63.384,124.367 62.829,124.719 62.829,124.063 L62.829,88.328 Z M87.467,127.793 C88.197,127.395 88.197,126.733 88.197,126.733 L88.197,91.688 C88.291,91.715 88.362,91.758 88.362,91.758 L91.28,93.576 C91.842,93.928 91.842,94.59 91.842,94.59 L91.839,132.176 C91.839,132.838 91.238,133.119 91.238,133.119 L88.668,132.977 C88.668,132.977 85.396,129.065 72.817,129.065 C67.24,129.065 64.268,132.043 64.268,132.043 L58.723,132.043 C58.723,132.043 55.748,129.065 50.172,129.065 C37.593,129.065 34.321,132.977 34.321,132.977 L31.751,133.119 C31.751,133.119 31.153,132.838 31.153,132.176 L31.147,94.59 C31.147,94.59 31.147,93.928 31.709,93.576 L34.629,91.758 C34.629,91.758 34.701,91.715 34.793,91.688 L34.793,126.733 C34.793,126.733 34.793,127.395 35.522,127.793 C36.252,128.19 37.002,127.926 37.002,127.926 C37.002,127.926 46.261,123.817 52.889,125.074 C58.201,126.084 60.708,127.305 61.496,127.748 C62.282,127.305 64.788,126.084 70.102,125.074 C76.729,123.817 85.987,127.926 85.987,127.926 C85.987,127.926 86.739,128.19 87.467,127.793 Z M37.119,89.545 C37.119,88.891 37.692,88.574 37.692,88.574 C37.692,88.574 43.129,85.572 49.698,85.572 C56.265,85.572 59.517,87.543 59.517,87.543 C60.161,87.672 60.161,88.328 60.161,88.328 L60.161,124.063 C60.161,124.719 59.605,124.367 59.605,124.367 C59.605,124.367 57.711,123.17 51.015,122.949 C44.317,122.727 37.762,125.586 37.762,125.586 C37.119,125.713 37.119,125.057 37.119,125.057 L37.119,89.545 Z M3.122,100.278 C19.206,143.36 34.268,141.893 61.493,158 C88.721,141.893 103.786,143.36 119.867,100.278 L61.573,60.967 L3.122,100.278 L3.122,100.278 Z" id="Fill-4"></path>
            <path d="M167.072,14.337 L167.573,14.383 C170.905,14.685 171.121,15.143 171.306,16.575 C171.542,17.877 171.634,19.842 171.634,23.586 L171.634,27.185 C171.634,32.964 170.67,39.597 163.158,39.597 C157.471,39.597 154.587,35.961 154.587,28.79 L154.587,18.557 C154.587,14.548 154.841,14.536 157.953,14.384 L158.477,14.358 L158.477,12.762 L145.896,12.762 L145.896,14.332 L146.393,14.382 C149.676,14.712 149.739,14.718 149.739,18.557 L149.739,29.874 C149.739,34.969 151.141,38.322 154.146,40.422 C155.992,41.747 158.664,42.476 161.67,42.476 C165.232,42.476 168.318,41.389 170.362,39.413 C172.869,36.947 173.938,33.524 173.938,27.966 L173.938,23.63 C173.938,19.868 174.074,17.923 174.175,16.788 C174.326,15.162 174.771,14.679 177.618,14.382 L178.112,14.33 L178.112,12.762 L167.072,12.762 L167.072,14.337" id="Fill-5"></path>
            <path d="M201.119,14.35 L201.634,14.383 C204.911,14.596 205.396,15.078 205.588,16.886 C205.753,18.316 205.823,20.371 205.823,23.76 L205.823,34.278 L186.164,12.762 L178.837,12.762 L178.837,14.339 L179.341,14.383 C181.699,14.586 182.098,14.906 183.11,15.978 C183.84,16.785 183.977,17.041 183.977,20.336 L183.977,30.307 C183.977,34.202 183.809,36.24 183.708,37.458 L183.691,37.667 C183.497,39.673 182.903,40.122 180.162,40.336 L179.653,40.376 L179.653,41.956 L190.889,41.956 L190.889,40.378 L190.383,40.337 C187.299,40.083 186.764,39.709 186.563,37.653 C186.372,36.094 186.279,33.691 186.279,30.307 L186.279,19.809 L206.397,42.292 L206.562,42.476 L208.127,42.476 L208.127,23.804 C208.127,20.012 208.218,18.206 208.317,16.828 C208.474,14.981 208.989,14.592 211.557,14.383 L212.064,14.341 L212.064,12.762 L201.119,12.762 L201.119,14.35" id="Fill-6"></path>
            <path d="M212.885,14.348 L213.399,14.383 C216.879,14.624 217.014,14.767 217.014,18.212 L217.014,36.506 C217.014,39.951 216.879,40.094 213.399,40.336 L212.885,40.372 L212.885,41.956 L226.042,41.956 L226.042,40.371 L225.528,40.336 C221.998,40.094 221.861,39.95 221.861,36.506 L221.861,18.212 C221.861,14.768 221.998,14.624 225.527,14.383 L226.042,14.348 L226.042,12.762 L212.885,12.762 L212.885,14.348" id="Fill-7"></path>
            <path d="M258.98,12.762 L247.987,12.762 L247.987,14.32 L248.47,14.38 C249.878,14.557 251.275,14.764 251.528,15.177 C251.707,15.467 251.47,16.238 251.186,17.032 C249.153,22.819 245.763,30.82 243.911,35.031 C240.674,27.452 237.361,19.384 236.234,16.33 C236.065,15.874 235.857,15.242 235.995,15.021 C236.232,14.636 237.865,14.458 238.562,14.381 L239.053,14.327 L239.053,12.762 L226.86,12.762 L226.86,14.344 L227.37,14.383 C229.917,14.577 230.299,14.741 231.8,18.381 C234.882,25.707 238.25,33.964 241.541,42.257 L241.679,42.605 L243.198,42.605 L243.335,42.256 C247.043,32.886 252.05,21.715 253.458,18.698 C255.168,14.884 255.603,14.697 258.488,14.381 L258.98,14.327 L258.98,12.762" id="Fill-8"></path>
            <path d="M281.401,34.691 C280.719,36.34 279.981,37.692 279.339,38.478 C278.474,39.44 277.813,39.943 273.316,39.943 C271.104,39.943 269.506,39.943 268.726,39.387 C268.21,39.038 267.913,38.441 267.913,36.42 L267.913,27.996 L272.212,27.996 C276.219,27.996 276.292,28.398 276.76,31.012 L276.842,31.466 L278.427,31.466 L278.427,22.515 L276.848,22.515 L276.762,22.961 C276.273,25.486 276.209,25.811 272.115,25.811 L267.913,25.811 L267.913,15.566 C267.913,15.41 267.913,14.937 267.96,14.852 C268.003,14.822 268.17,14.773 268.801,14.773 L272.02,14.773 C275.762,14.773 276.927,15.016 277.696,15.964 C278.288,16.664 278.726,17.679 279.118,19.254 L279.244,19.761 L280.923,19.439 L280.875,18.939 C280.735,17.504 280.542,14.75 280.542,13.314 L280.542,12.762 L259.223,12.762 L259.223,14.332 L259.72,14.382 C263.002,14.711 263.065,14.717 263.065,18.472 L263.065,36.506 C263.065,39.908 262.914,40.051 259.013,40.336 L258.501,40.373 L258.501,41.956 L281.358,41.956 L281.478,41.567 C281.964,39.98 282.84,36.556 283.123,35.139 L283.231,34.595 L281.574,34.275 L281.401,34.691" id="Fill-9"></path>
            <path d="M292.401,16.477 C292.401,15.061 292.563,14.969 292.633,14.929 C292.782,14.853 293.587,14.685 295.021,14.685 C298.916,14.685 301.241,17.057 301.241,21.029 C301.241,23.421 300.473,25.098 298.833,26.301 C297.725,27.08 296.392,27.37 293.917,27.37 L292.401,27.37 L292.401,16.477 Z M308.529,38.642 C307.298,37.337 305.976,35.749 304.488,33.79 C303.167,32.042 301.418,29.544 300.473,27.976 C304.434,26.267 306.522,23.635 306.522,20.336 C306.522,17.775 305.39,15.654 303.336,14.363 C301.542,13.226 299.258,12.762 295.454,12.762 L283.667,12.762 L283.667,14.339 L284.171,14.383 C287.427,14.662 287.554,14.673 287.554,18.037 L287.554,36.506 C287.554,39.951 287.421,40.094 283.986,40.336 L283.473,40.372 L283.473,41.956 L296.436,41.956 L296.436,40.373 L295.923,40.336 C292.565,40.096 292.401,39.918 292.401,36.506 L292.401,29.255 L293.052,29.255 C295.284,29.255 295.871,29.775 296.683,30.972 C297.248,31.768 297.837,32.64 298.444,33.536 C299.499,35.094 300.588,36.706 301.69,38.144 C303.904,41.019 306.02,42.047 310.038,42.213 C310.452,42.26 310.901,42.26 311.297,42.26 L311.747,42.26 L312.044,40.818 L311.522,40.695 C310.565,40.47 309.874,40.106 308.529,38.642 L308.529,38.642 Z" id="Fill-10"></path>
            <path d="M323.031,25.128 L322.687,24.957 C318.614,22.91 316.797,21.519 316.797,18.688 C316.797,15.916 318.728,14.124 321.717,14.124 C324.762,14.124 326.716,15.834 327.868,19.505 L328.018,19.982 L329.647,19.641 L329.448,18.419 C329.118,16.402 328.879,14.946 328.75,13.564 L328.713,13.168 L328.327,13.078 C328.104,13.026 327.867,12.965 327.612,12.9 C326.391,12.585 324.719,12.155 322.392,12.155 C315.789,12.155 312.333,16.226 312.333,20.248 C312.333,25.088 316.956,27.485 319.718,28.918 L320.405,29.277 C323.942,31.155 326.259,32.601 326.259,35.467 C326.259,38.549 324.208,40.464 320.907,40.464 C315.023,40.464 313.396,34.345 313.23,33.647 L313.089,33.054 L311.487,33.61 L311.519,34.033 C311.602,35.123 312.311,39.884 312.728,40.736 L312.815,40.914 L312.995,40.996 C313.544,41.246 314.334,41.522 315.585,41.898 L315.795,41.95 C316.844,42.209 318.279,42.564 320.185,42.564 C326.33,42.564 330.963,38.916 330.963,34.078 C330.963,29.072 326.749,26.977 323.031,25.128" id="Fill-11"></path>
            <path d="M332.214,14.348 L332.728,14.383 C336.209,14.624 336.344,14.767 336.344,18.212 L336.344,36.506 C336.344,39.951 336.209,40.094 332.728,40.336 L332.214,40.372 L332.214,41.956 L345.371,41.956 L345.371,40.371 L344.857,40.336 C341.328,40.094 341.191,39.95 341.191,36.506 L341.191,18.212 C341.191,14.768 341.328,14.624 344.856,14.383 L345.371,14.348 L345.371,12.762 L332.214,12.762 L332.214,14.348" id="Fill-12"></path>
            <path d="M391.709,12.762 L391.709,14.333 L392.208,14.382 C393.062,14.465 394.84,14.639 395.05,15.019 C395.2,15.29 394.713,16.258 394.555,16.573 C393.292,19.051 390.644,23.523 388.904,26.418 L388.385,25.551 C386.571,22.519 384.515,19.083 382.657,15.727 C382.351,15.195 382.341,15.045 382.35,15.007 C382.388,14.932 382.675,14.663 384.75,14.38 L385.227,14.314 L385.227,12.762 L373.613,12.762 C373.609,12.579 373.606,12.394 373.606,12.229 L373.606,11.677 L372.272,11.677 L372.108,11.866 C371.501,12.56 371.168,12.762 370.125,12.762 L351.155,12.762 C349.899,12.762 349.444,12.651 349.041,11.953 L348.881,11.677 L347.559,11.677 L347.535,12.204 C347.417,14.805 347.208,17.492 346.961,19.576 L346.889,20.192 L348.604,20.192 L348.712,19.781 C349.162,18.079 349.574,16.959 350.056,16.135 C350.568,15.21 351.326,14.773 356.054,14.773 L358.047,14.773 L358.047,36.593 C358.047,39.622 357.94,40.131 354.151,40.336 L353.628,40.363 L353.628,41.956 L367.458,41.956 L367.458,40.363 L366.935,40.335 C362.897,40.127 362.897,39.588 362.897,36.593 L362.897,14.773 L365.611,14.773 C369.72,14.773 370.435,15.203 370.986,16.094 C371.345,16.741 371.823,17.739 372.328,19.734 L372.447,20.209 L374.144,19.988 L374.081,19.447 C373.895,17.885 373.746,16.006 373.667,14.371 L373.94,14.384 C376.435,14.5 376.556,14.697 378.586,17.981 C380.958,21.796 382.855,24.994 384.39,27.763 C385.125,29.051 385.229,29.435 385.229,30.177 L385.229,36.463 C385.229,39.949 385.088,40.093 381.466,40.336 L380.952,40.37 L380.952,41.956 L394.542,41.956 L394.542,40.369 L394.025,40.336 C390.223,40.093 390.076,39.948 390.076,36.463 L390.076,30.132 C390.076,28.992 390.111,28.571 390.865,27.287 C393.072,23.474 394.777,20.693 397.458,16.932 L397.601,16.736 C398.842,15.034 399.066,14.727 401.975,14.381 L402.461,14.323 L402.461,12.762 L391.709,12.762" id="Fill-13"></path>
            <path d="M153.984,68.369 C153.719,68.457 153.508,68.487 153.149,68.487 C151.717,68.487 150.828,67.306 150.828,65.406 C150.828,61.048 153.08,58.889 154.186,58.521 C154.499,58.4 154.782,58.353 155.198,58.353 L155.231,58.353 C156.515,58.353 157.33,59.524 157.357,61.408 C157.392,64.964 155.647,67.876 153.984,68.369 Z M160.455,61.269 C160.455,58.589 158.79,56.924 156.075,56.924 C155.24,56.924 153.97,57.259 152.848,57.774 C150.285,58.882 147.699,61.713 147.699,65.542 C147.699,68.315 149.311,69.971 152.011,69.971 C153.523,69.971 155.313,69.329 156.927,68.207 C159.07,66.675 160.455,63.952 160.455,61.269 L160.455,61.269 Z" id="Fill-14"></path>
            <path d="M171.556,49.223 C170.151,49.223 168.181,50.176 166.771,51.535 C165.487,52.709 164.563,54.582 163.87,57.416 L162.119,57.416 L160.962,58.177 L161.092,58.846 L163.556,58.846 C163.205,60.514 162.89,62.044 162.488,64.001 L161.724,67.72 C160.904,71.699 160.202,73.926 159.574,74.531 C159.27,74.834 158.766,75.037 158.319,75.037 C157.775,75.037 156.781,74.755 156.363,74.405 C156.099,74.186 155.813,74.171 155.476,74.374 C155.003,74.657 154.494,75.188 154.494,75.683 C154.494,76.521 155.67,77.04 156.759,77.04 C157.914,77.04 159.325,76.403 160.536,75.335 C162.714,73.386 163.558,71.688 164.64,67.079 C165.49,63.629 165.845,61.862 166.434,58.932 L166.445,58.878 L169.418,58.616 L170.842,57.416 L166.775,57.416 C167.717,52.834 168.612,50.955 169.835,50.955 C170.452,50.955 171.035,51.241 171.56,51.798 C171.843,52.117 172.288,52.183 172.685,51.942 C172.928,51.788 173.559,51.252 173.558,50.662 C173.577,50.42 173.463,50.153 173.24,49.911 C172.932,49.579 172.328,49.223 171.556,49.223" id="Fill-15"></path>
            <path d="M188.758,63.3 C187.706,63.3 186.746,63.172 186.18,63.033 L186.18,54.25 C186.18,53.215 186.27,52.717 186.516,52.559 C186.639,52.459 187.297,52.253 188.543,52.253 C192.388,52.253 194.592,54.203 194.592,57.602 C194.592,62.745 190.512,63.3 188.758,63.3 Z M196.219,52.385 C194.683,51.424 192.3,50.936 189.135,50.936 L178.929,50.936 L178.929,51.987 L179.25,52.009 C182.077,52.207 182.187,52.325 182.187,55.155 L182.187,70 C182.187,72.769 182.04,72.916 179.036,73.15 L178.718,73.175 L178.718,74.258 L189.904,74.258 L189.904,73.173 L189.584,73.15 C186.339,72.916 186.18,72.772 186.18,70.072 L186.18,64.354 L188.864,64.963 C189.268,65.036 190.062,65.035 190.611,64.966 C194.69,64.535 199.049,62.366 199.049,57.568 C199.049,55.351 198.071,53.558 196.219,52.385 L196.219,52.385 Z" id="Fill-16"></path>
            <path d="M210.808,58.235 C208.854,58.235 207.094,60.111 206.157,61.33 L206.157,57.975 L205.69,58.152 C203.736,58.892 202.088,59.315 200.18,59.566 L199.88,59.605 L199.88,60.527 L200.184,60.563 C202.378,60.826 202.42,60.871 202.42,62.98 L202.42,70.63 C202.42,72.81 202.284,72.952 199.984,73.151 L199.669,73.178 L199.669,74.258 L209.544,74.258 L209.544,73.171 L209.222,73.15 C206.157,72.949 206.157,72.774 206.157,70.63 L206.157,63.631 C207.099,62.013 208.062,61.159 208.945,61.159 C209.524,61.159 209.913,61.327 210.546,61.851 C210.867,62.114 211.307,62.166 211.931,61.928 C212.835,61.49 213.354,60.855 213.354,60.187 C213.354,59.263 212.308,58.235 210.808,58.235" id="Fill-17"></path>
            <path d="M218.468,54.801 C219.615,54.801 220.547,53.989 220.547,52.991 C220.547,51.976 219.652,51.18 218.468,51.18 C217.344,51.18 216.43,52.008 216.43,53.026 C216.43,53.971 217.382,54.801 218.468,54.801" id="Fill-18"></path>
            <path d="M220.547,70.63 L220.547,58.012 L220.082,58.187 C218.475,58.789 216.647,59.242 214.649,59.532 L214.354,59.575 L214.354,60.547 L214.641,60.596 C216.75,60.957 216.811,61.023 216.811,62.98 L216.811,70.63 C216.811,72.81 216.669,72.952 214.291,73.151 L213.974,73.177 L213.974,74.258 L223.428,74.258 L223.428,73.176 L223.111,73.151 C220.667,72.953 220.547,72.836 220.547,70.63" id="Fill-19"></path>
            <path d="M242.347,70.594 L242.347,63.678 C242.347,60.27 240.272,58.235 236.796,58.235 C235.534,58.235 234.624,58.651 233.375,59.287 C232.465,59.768 231.596,60.277 230.918,60.689 L230.918,57.972 L230.45,58.152 C228.828,58.777 227.114,59.226 225.056,59.568 L224.768,59.615 L224.768,60.537 L225.043,60.594 C227.099,61.018 227.179,61.035 227.179,63.016 L227.179,70.594 C227.179,72.809 227.024,72.952 224.41,73.15 L224.091,73.174 L224.091,74.258 L233.584,74.258 L233.584,73.178 L233.27,73.151 C231.05,72.955 230.918,72.814 230.918,70.63 L230.918,62.214 C232.027,61.433 233.666,60.636 235.102,60.636 C237.496,60.636 238.611,61.825 238.611,64.376 L238.611,70.247 C238.611,72.862 238.387,72.955 235.964,73.151 L235.647,73.176 L235.647,74.258 L244.804,74.258 L244.804,73.18 L244.492,73.151 C242.427,72.959 242.347,72.864 242.347,70.594" id="Fill-20"></path>
            <path d="M259.012,70.085 C257.133,71.633 255.838,71.927 254.107,71.927 C251.736,71.927 247.974,70.2 247.974,65.566 C247.974,62.259 249.807,60.285 252.878,60.285 C254.412,60.285 255.736,60.719 256.821,61.581 C257.304,61.943 257.506,62.07 257.873,62.07 C258.447,62.07 259.362,61.351 259.362,60.5 C259.362,60.031 259.131,59.657 258.584,59.243 C257.888,58.741 256.469,58.235 254.826,58.235 C253.269,58.235 250.762,58.846 248.671,60.21 C245.786,62.074 244.323,64.463 244.323,67.312 C244.323,70.882 247.277,74.676 252.752,74.676 C255.056,74.676 257.7,73.289 259.822,70.967 L260.031,70.739 L259.269,69.873 L259.012,70.085" id="Fill-21"></path>
            <path d="M271.958,63.438 C269.609,63.506 267.394,63.51 265.071,63.51 C265.682,60.987 267.482,59.833 268.965,59.833 L269.005,59.833 C270.053,59.833 270.928,60.162 271.536,60.783 C272.125,61.386 272.45,62.26 272.427,63.189 C272.427,63.294 272.427,63.438 271.958,63.438 Z M276.418,63.399 C276.418,60.956 273.861,58.235 270.147,58.235 C268.101,58.235 265.787,59.207 263.951,60.839 C262.103,62.51 261.126,64.652 261.126,67.032 C261.126,70.714 263.738,74.676 269.471,74.676 C270.723,74.676 273.743,73.922 276.209,71.065 L276.416,70.827 L275.643,70.029 L275.399,70.219 C273.974,71.33 272.493,71.893 270.994,71.893 C269.287,71.893 267.679,71.254 266.582,70.139 C265.411,68.949 264.805,67.277 264.779,65.166 C269.758,65.023 274.582,64.72 275.256,64.61 C275.993,64.458 276.418,64.211 276.418,63.399 L276.418,63.399 Z" id="Fill-22"></path>
            <path d="M303.697,68.531 C303.262,69.487 302.588,70.799 301.86,71.61 C301.001,72.479 300.27,72.833 296.435,72.833 C294.454,72.833 293.021,72.833 292.296,72.363 C291.811,72.063 291.531,71.563 291.531,69.896 L291.531,63.011 L295.46,63.011 C299.118,63.011 299.193,63.395 299.612,65.527 L299.667,65.805 L300.802,65.805 L300.802,58.795 L299.67,58.795 L299.613,59.068 C299.185,61.084 299.108,61.447 295.375,61.447 L291.531,61.447 L291.531,53.096 C291.531,52.357 291.531,52.357 292.457,52.357 L295.291,52.357 C298.65,52.357 299.703,52.563 300.415,53.364 C300.949,53.943 301.341,54.771 301.686,56.051 L301.768,56.356 L302.992,56.138 L302.958,55.819 C302.833,54.649 302.662,52.422 302.662,51.281 L302.662,50.936 L284.152,50.936 L284.152,52.012 L284.465,52.041 C287.365,52.308 287.539,52.324 287.539,55.436 L287.539,69.966 C287.539,72.697 287.453,72.91 283.837,73.15 L283.515,73.172 L283.515,74.258 L303.411,74.258 L303.49,74.025 C303.907,72.796 304.679,70.042 304.94,68.854 L305.016,68.504 L303.807,68.288 L303.697,68.531" id="Fill-23"></path>
            <path d="M318.862,71.107 C317.985,71.652 316.57,72.172 315.224,72.172 C312.473,72.172 309.689,70.095 309.689,66.125 C309.689,61.13 312.958,59.797 314.888,59.797 C316.593,59.797 318.034,60.4 318.862,61.455 L318.862,71.107 Z M322.595,70.315 L322.595,48.267 L322.152,48.4 C320.724,48.827 318.111,49.396 316.079,49.61 L315.77,49.643 L315.77,50.59 L316.094,50.609 C318.862,50.778 318.862,50.94 318.862,52.922 L318.862,58.482 C317.914,58.263 316.979,58.235 316.326,58.235 C310.473,58.235 305.529,62.279 305.529,67.067 C305.529,72.258 310.205,74.676 313.365,74.676 C314.187,74.676 315.331,74.311 316.866,73.557 L318.862,72.552 L318.862,74.81 L319.315,74.659 C320.779,74.172 322.795,73.741 325.307,73.379 L325.603,73.336 L325.603,72.382 L324.026,72.21 C322.675,72.058 322.595,71.952 322.595,70.315 L322.595,70.315 Z" id="Fill-24"></path>
            <path d="M352.016,59.725 L352.016,58.655 L344.298,58.655 L344.298,59.718 L344.595,59.76 C345.812,59.929 346.759,60.086 346.975,60.417 C347.117,60.634 347.029,61.086 346.855,61.695 C346.153,64.068 345.269,66.481 344.415,68.814 L344.14,69.565 C342.263,65.647 340.706,62.322 339.287,59.037 L339.197,58.829 L338.15,58.829 L338.061,59.04 C336.514,62.708 335.033,66.094 333.6,69.368 C332.311,66.339 331.303,63.813 330.447,61.463 C330.268,60.99 330.104,60.513 330.215,60.327 C330.387,60.041 331.417,59.884 332.371,59.76 L332.67,59.721 L332.67,58.655 L323.726,58.655 L323.726,59.728 L324.035,59.761 C325.844,59.955 325.992,60.068 326.673,61.784 C328.416,66.059 330.107,70.245 331.664,74.451 L331.747,74.676 L332.895,74.676 L332.984,74.465 C334.211,71.526 335.427,68.865 336.715,66.048 C337.002,65.419 337.292,64.786 337.583,64.145 C338.066,65.15 338.544,66.131 339.014,67.095 C340.255,69.638 341.426,72.041 342.467,74.468 L342.556,74.676 L343.692,74.676 L344.707,72.139 C346.294,68.165 347.936,64.056 348.851,62.074 C349.635,60.345 349.798,59.986 351.711,59.761 L352.016,59.725" id="Fill-25"></path>
            <path d="M360.893,71.201 C360.061,71.856 358.854,72.208 358.1,72.208 C356.959,72.208 355.354,71.436 355.354,69.721 C355.354,68.699 355.952,68.097 357.642,67.421 C357.982,67.281 358.463,67.093 358.976,66.894 C359.631,66.639 360.351,66.359 360.893,66.13 L360.893,71.201 Z M366.976,71.771 C366.632,71.99 366.225,72.102 365.765,72.102 C365.016,72.102 364.586,71.502 364.586,70.455 L364.586,63.782 C364.586,61.574 363.987,60.197 362.568,59.165 C361.671,58.574 360.488,58.241 359.185,58.24 C357.079,58.631 354.286,59.911 352.975,60.694 C352.291,61.099 351.622,61.551 351.622,62.211 C351.622,63.137 352.69,63.883 353.574,63.883 C354.281,63.883 354.707,63.562 354.913,62.884 C355.292,61.776 355.655,61.11 356.099,60.713 C356.468,60.348 357.029,60.147 357.678,60.147 C359.751,60.147 360.893,61.526 360.893,64.029 L360.893,64.705 C359.738,65.355 357.046,66.164 354.792,66.805 C352.423,67.495 351.367,68.589 351.367,70.351 C351.367,72.44 353.461,74.676 356.579,74.676 C357.461,74.676 359.146,73.722 361.096,72.569 C361.292,73.063 361.553,73.539 361.976,73.89 C362.491,74.353 363.44,74.676 364.283,74.676 L364.374,74.676 L367.873,72.689 L367.294,71.567 L366.976,71.771 L366.976,71.771 Z" id="Fill-26"></path>
            <path d="M381.856,60.187 C381.856,59.263 380.809,58.235 379.308,58.235 C377.359,58.235 375.598,60.109 374.659,61.329 L374.659,57.975 L374.192,58.152 C372.239,58.891 370.591,59.314 368.684,59.566 L368.384,59.605 L368.384,60.527 L368.688,60.563 C370.879,60.826 370.921,60.871 370.921,62.98 L370.921,70.63 C370.921,72.811 370.785,72.952 368.484,73.151 L368.168,73.178 L368.168,74.258 L378.045,74.258 L378.045,73.171 L377.723,73.15 C374.659,72.949 374.659,72.774 374.659,70.63 L374.659,63.631 C375.601,62.013 376.564,61.159 377.446,61.159 C378.026,61.159 378.415,61.327 379.049,61.851 C379.371,62.114 379.81,62.165 380.433,61.928 C381.337,61.489 381.856,60.855 381.856,60.187" id="Fill-27"></path>
            <path d="M393.737,71.107 C392.861,71.652 391.446,72.172 390.102,72.172 C387.35,72.172 384.564,70.095 384.564,66.125 C384.564,61.13 387.833,59.797 389.763,59.797 C391.468,59.797 392.909,60.4 393.737,61.455 L393.737,71.107 Z M398.904,72.21 C397.553,72.059 397.473,71.952 397.473,70.315 L397.473,48.268 L397.03,48.4 C395.6,48.826 392.985,49.396 390.955,49.61 L390.646,49.643 L390.646,50.59 L390.969,50.609 C393.737,50.778 393.737,50.94 393.737,52.922 L393.737,58.482 C392.79,58.263 391.856,58.235 391.203,58.235 C385.348,58.235 380.402,62.279 380.402,67.067 C380.402,72.258 385.079,74.676 388.239,74.676 C389.063,74.676 390.207,74.311 391.738,73.557 L393.737,72.551 L393.737,74.81 L394.191,74.659 C395.655,74.171 397.671,73.74 400.185,73.379 L400.481,73.337 L400.481,72.382 L398.904,72.21 L398.904,72.21 Z" id="Fill-28"></path>
            <path d="M147.758,85.604 L148.14,85.632 C154.279,86.097 154.775,86.669 154.775,93.282 L154.775,126.969 C154.775,133.586 154.279,134.158 148.141,134.619 L147.758,134.648 L147.758,136.403 L169.064,136.403 L169.064,134.648 L168.681,134.619 C162.47,134.158 161.968,133.587 161.968,126.969 L161.968,93.282 C161.968,86.668 162.47,86.096 168.681,85.632 L169.064,85.604 L169.064,83.849 L147.758,83.849 L147.758,85.604" id="Fill-29"></path>
            <path d="M190.807,106.565 L190.224,106.25 C183.995,102.857 179.912,100.182 179.912,94.163 C179.912,90.009 182.24,85.156 188.802,85.156 C194.229,85.156 197.707,88.436 199.747,95.476 L199.855,95.85 L201.673,95.439 L201.485,94.203 C200.887,90.285 200.456,87.455 200.229,84.786 L200.204,84.493 L199.919,84.421 C199.542,84.325 199.141,84.213 198.711,84.092 C196.659,83.519 193.85,82.733 189.946,82.733 C179.067,82.733 173.375,89.929 173.375,97.037 C173.375,105.578 180.755,109.721 185.639,112.462 C186.048,112.692 186.438,112.91 186.802,113.12 C192.986,116.683 197.039,119.438 197.039,125.055 C197.039,131.102 193.351,134.859 187.415,134.859 C179.532,134.859 175.19,127.852 173.868,121.852 L173.765,121.386 L171.968,122.061 L171.99,122.368 C172.141,124.521 173.364,133.098 173.984,134.483 L174.045,134.619 L174.18,134.686 C175.104,135.137 176.429,135.636 178.498,136.31 L178.85,136.404 C180.604,136.874 183.005,137.519 186.192,137.519 C197.749,137.519 203.985,129.78 203.985,122.498 C203.985,113.661 196.983,109.891 190.807,106.565" id="Fill-30"></path>
            <path d="M244.273,124.29 L244.395,123.863 L242.451,123.455 L242.337,123.812 C241.307,127.058 240.026,129.57 238.424,131.487 C236.842,133.314 234.539,133.901 228.944,133.901 C225.253,133.901 222.676,133.736 221.25,132.927 C220.071,132.183 219.73,130.668 219.73,126.172 L219.73,93.203 C219.73,86.333 220.245,86.093 225.796,85.632 L226.175,85.601 L226.175,83.849 L206.012,83.849 L206.012,85.602 L206.393,85.632 C212.308,86.098 212.539,86.381 212.539,93.203 L212.539,126.812 C212.539,133.574 212.042,134.158 205.903,134.619 L205.521,134.648 L205.521,136.403 L241.33,136.403 L241.417,136.106 C241.873,134.545 242.535,131.656 243.119,129.108 C243.583,127.082 244.022,125.168 244.273,124.29" id="Fill-31"></path>
            <path d="M273.887,113.068 L259.809,113.068 L261.033,109.824 C263.014,104.566 265.059,99.136 267.186,93.847 L273.887,113.068 Z M286.444,126.584 C280.869,111.618 275.569,96.85 270.618,83.006 L270.477,82.614 L268.607,83.298 L251.322,126.418 C248.535,133.474 247.414,134.176 242.933,134.62 L242.561,134.656 L242.561,136.403 L259.625,136.403 L259.625,134.654 L259.249,134.619 C256.326,134.357 254.515,134.023 253.909,133.095 C253.344,132.23 253.704,130.65 254.466,128.378 L254.935,126.968 C255.982,123.815 257.167,120.248 258.685,116.047 L274.835,116.047 L276,119.219 C277.762,124.015 279.155,127.803 279.951,130.525 C280.357,131.813 280.394,132.616 280.071,133.129 C279.571,133.92 278.036,134.276 275.553,134.622 L275.198,134.672 L275.198,136.403 L295.117,136.403 L295.117,134.656 L294.744,134.62 C290.063,134.163 289.024,133.527 286.444,126.584 L286.444,126.584 Z" id="Fill-32"></path>
            <path d="M363.485,91.528 C363.485,87.581 363.896,87.074 364.432,86.81 C365.236,86.529 366.829,86.193 369.845,86.193 C375.386,86.193 379.875,87.142 383.19,89.015 C389.838,92.639 393.5,99.854 393.5,109.329 C393.5,121.131 387.67,133.742 371.313,133.742 C366.237,133.742 363.485,132.587 363.485,126.492 L363.485,91.528 Z M394.852,90.671 C390.079,86.08 382.62,83.849 372.049,83.849 L332.471,83.849 L332.471,85.605 L332.855,85.632 C338.405,86.027 339.685,86.94 340.061,90.775 C340.346,93.436 340.468,97.241 340.468,103.501 L340.468,124.353 L306.441,83.995 L306.317,83.849 L294.617,83.849 L294.617,85.596 L294.991,85.632 C299.168,86.026 299.936,86.698 301.726,88.76 C303.119,90.421 303.342,91.13 303.342,97.197 L303.342,115.555 C303.342,122.82 303.055,126.587 302.884,128.838 L302.859,129.167 C302.476,133.429 300.982,134.232 296.38,134.619 L296.002,134.652 L296.002,136.403 L314.043,136.403 L314.043,134.653 L313.667,134.619 C308.45,134.156 307.085,133.467 306.698,129.157 C306.371,126.277 306.211,121.827 306.211,115.555 L306.211,94.713 L341.298,137.212 L341.422,137.362 L343.335,137.362 L343.335,103.584 C343.335,96.591 343.492,93.248 343.66,90.682 C343.968,86.762 345.354,86.015 349.65,85.632 L350.026,85.598 L350.026,85.564 C355.682,86.016 356.215,86.307 356.215,93.282 L356.215,126.969 C356.215,133.587 355.695,134.159 349.255,134.619 L348.872,134.647 L348.872,136.403 L367.645,136.403 C377.762,136.403 386.171,134.055 391.963,129.612 C398.421,124.68 401.834,117.252 401.834,108.132 C401.834,101.004 399.419,94.965 394.852,90.671 L394.852,90.671 Z" id="Fill-33"></path>
        </g>
    </g>
</svg>