
<svg version="1.1" id="Layer_1" xmlns="http://www.w3.org/2000/svg" xmlns:xlink="http://www.w3.org/1999/xlink" x="0px" y="0px"
	 width="402.461px" height="157.513px" viewBox="0 0 402.461 157.513" enable-background="new 0 0 402.461 157.513"
	 xml:space="preserve">
<g>
	<path fill="#FFFFFF" d="M61.494,0H0v90.919c0.298,0.904,0.597,1.783,0.896,2.654l60.599-41.041l60.601,41.041
		c0.298-0.871,0.597-1.75,0.896-2.654V0H61.494z M23.543,8.089c2.326-0.932,3.675-0.349,4.188-0.018
		c0.512-0.331,1.861-0.914,4.187,0.018c2.394,0.958,3.517,2.604,3.128,4.654c-0.28,1.488-2.687,4.218-4.294,5.93
		c1.807,1.383,4.76,3.528,4.823,4.383c0.165,2.273-0.317,4.991-0.499,6.375c-0.053,0.405-0.225,1.668-0.446,3.292
		c-1.126-0.074-2.348-0.131-3.674-0.168c0.127-2.065,0.238-3.844,0.238-3.844s0.11-2.051,0-2.772
		c-0.111-0.72-1.385-1.994-1.385-1.994s-0.735-0.752-1.568-1.607c0.819-0.599,1.934-1.5,2.066-2.088
		c0.343-1.507-0.317-1.75-0.394-1.773c-0.085-0.025-0.177,0-0.234,0.067c-0.059,0.064-0.074,0.16-0.038,0.24l0.033,0.063
		c0.021,0.117,0.005,0.453-0.062,0.68c-0.18,0.597-0.537,0.997-1.459,0.98c-0.081,0-0.311-0.05-0.434-0.071
		c-0.106-0.003-0.217,0.073-0.243,0.178c-0.074,0.294,0.519,0.589,0.546,0.603c0.032,0.017,0.062,0.03,0.094,0.041l-0.521,0.695
		c-0.978,1.004-1.942,1.992-1.942,1.992s-1.274,1.274-1.386,1.994c-0.111,0.722,0,2.772,0,2.772s0.11,1.771,0.237,3.831
		c-1.324,0.031-2.548,0.083-3.677,0.15c-0.219-1.61-0.389-2.859-0.442-3.261c-0.182-1.384-0.665-4.102-0.499-6.375
		c0.062-0.854,3.016-3,4.822-4.383c-1.606-1.712-4.013-4.441-4.294-5.93C20.027,10.692,21.15,9.047,23.543,8.089z M7.465,14.323
		c0-1.106,1.109-1.106,1.109-1.106h6.986c1.108,0,1.867,0.809,1.867,0.809l2.695,2.872c0.759,0.811,0.759,1.72,0.759,1.72v0.912
		h-4.88c-1.108,0-1.108,1.109-1.108,1.109v8.517v4.148c-1.328,0.208-2.425,0.44-3.327,0.678V20.646c0-1.109-1.107-1.109-1.107-1.109
		H7.465V14.323z M13.287,54.933c-1.774,0-1.719-2.108-1.719-2.108v-6.703c0.806-0.245,1.891-0.509,3.325-0.751v7.454
		C14.894,52.824,15.061,54.933,13.287,54.933z M25.709,56.21c-0.222,1.774-0.776,2.938-0.942,3.326
		c-0.166,0.389-0.666,1.02-1.387,0.904c-0.721-0.114-0.554-1.292-0.442-1.957c0.065-0.399,0.554-1.775,0.554-3.272
		c0-1.353-0.704-8.067-1.021-10.582c0.86-0.039,1.78-0.066,2.75-0.084c0.063,1.1,0.11,1.975,0.11,2.184
		C25.33,47.34,25.81,55.407,25.709,56.21z M32.523,58.483c0.111,0.665,0.279,1.843-0.441,1.957
		c-0.722,0.115-1.221-0.516-1.388-0.904c-0.165-0.388-0.721-1.552-0.942-3.326c-0.101-0.803,0.378-8.87,0.378-9.48
		c0-0.208,0.047-1.08,0.11-2.175c0.975,0.022,1.887,0.057,2.748,0.1c-0.318,2.534-1.017,9.208-1.017,10.557
		C31.971,56.708,32.458,58.084,32.523,58.483z M43.519,52.824c0,0,0.057,2.108-1.719,2.108c-1.773,0-1.606-2.108-1.606-2.108v-7.44
		c1.439,0.245,2.522,0.51,3.325,0.752V52.824z M46.551,44.893c0,0-2.994-2.874-19.008-2.874c-16.013,0-18.906,2.874-18.906,2.874
		L8.354,37.89c0,0,3.159-2.826,19.189-2.826c16.032,0,19.284,2.826,19.284,2.826L46.551,44.893z M47.623,19.536h-2.994
		c0,0-1.108,0-1.108,1.109v13.353c-0.901-0.238-1.999-0.472-3.327-0.682v-4.162v-8.517c0,0,0-1.109-1.108-1.109h-4.879v-0.912
		c0,0,0-0.909,0.759-1.72l2.695-2.872c0,0,0.759-0.809,1.867-0.809h6.985c0,0,1.11,0,1.11,1.106V19.536z M84.459,11.251
		c0.1-0.443,0.459-0.69,0.487-1.09c0.013-0.192,0.039-0.245,0.032-0.423c-0.011-0.206,0.063-0.531,0.156-0.704
		c0.101-0.171,0.269-0.311,0.387-0.466c0.173-0.22,0.353-0.334,0.557-0.506c0.164-0.141,0.34-0.272,0.531-0.374
		c0.372-0.193,0.804-0.261,1.2-0.386c0.507-0.158,2.22-0.072,2.721,0.249c0.277,0.18,0.95,0.616,1.321,0.856
		c0.229,0.364,0.72,1.254,0.72,2.28c0,0.873,0.267,2.481,0.455,3.498c0.098,0.541,0.365,0.229,0.365,0.229s0.296-2.499,0.351-3.951
		c0.053-1.328,0.105-1.538,0.415-1.948c0.735-0.334,1.473-0.668,2.206-1c0.139-0.064,0.271-0.141,0.416-0.158
		c0.372-0.048,0.775-0.119,1.148-0.096c0.21,0.01,0.425,0.021,0.629,0.046c0.192,0.024,0.344,0.08,0.533,0.141
		c0.342,0.115,0.69,0.271,0.992,0.486c0.24,0.173,0.522,0.275,0.746,0.472c0.19,0.168,0.269,0.415,0.377,0.643
		c0.176,0.381,0.353,0.763,0.53,1.146c0,0,0.435,1.434,0.435,2.646c0,0.594-1.025,2.576-1.025,2.576l-1.957,2.378
		c0,0-0.029,0.711-0.159,0.897c-0.155,0.217-0.985,0.672-0.985,0.817c0,0.39,0.852,0.132,0.852,0.132s-0.31,2.22-0.393,2.6
		c-0.026,0.119-0.091,0.301-0.169,0.494c-0.024,0.069-0.054,0.141-0.085,0.208c-0.038,0.097-0.078,0.19-0.116,0.275
		c-0.108,0.247-0.197,0.438-0.197,0.438l-1.1,4.783c-0.244,1.208-0.442,2.435-0.734,3.633c-0.021,0.085-0.033,0.178-0.05,0.267
		c-0.173,0.105-0.341,0.218-0.488,0.353l-1.499-2.298h-3.195l-1.519,2.155c-0.144-0.145-0.312-0.268-0.485-0.383
		c-0.025-0.222-0.081-0.454-0.097-0.644c-0.021-0.247-0.095-0.47-0.16-0.713c-0.057-0.223-0.093-0.48-0.104-0.72
		c-0.004-0.069-0.006-0.136-0.006-0.199c0.002-0.292-0.014-0.57-0.063-0.858c-0.068-0.37-0.11-0.757-0.114-1.132
		c-0.003-0.338-0.011-0.702-0.078-1.018c-0.085-0.365-0.18-0.729-0.256-1.095c-0.046-0.206-0.11-0.417-0.128-0.629
		c-0.034-0.345-0.195-0.677-0.195-1.031l-0.093-0.607c-0.039-0.273-0.106-0.18-0.074-0.457c-0.205-0.519,1.39,0.411,1.67,0.187
		c0.054-0.277-1.396-1.059-1.531-1.203c-0.05-0.188-0.116-0.277-0.214-0.427c-0.115-0.168-0.174-0.419-0.228-0.612
		c-0.149-0.561-0.355-1.131-0.436-1.718c-0.051-0.373-0.087-0.751-0.147-1.123c-0.044-0.299-0.075-0.6-0.118-0.9
		c0.524,0.306,1.149,0.685,1.457,0.888c0.479,0.319,1.466,1.359,1.476,1.37c0.053,0.054,0.13,0.071,0.2,0.043
		c0.069-0.027,0.114-0.094,0.114-0.169c0-0.002,0.001-0.274,0.039-0.642c0,0,0.02-0.014,0.08-0.014c0.272,0,0.938,0.285,1.567,1.051
		c0.41,0.497,0.457,1.174,0.508,1.889c0.035,0.494,0.071,1.005,0.241,1.448c0.111,0.29,0.163,1.075,0.21,1.768
		c0.094,1.396,0.139,1.838,0.45,1.838c0.047,0,0.116-0.014,0.181-0.08c0.374-0.384,0.335-3.57,0.298-4.984
		c0.092-0.152,0.397-0.66,0.584-0.944c0.427-0.658,1.499-1.162,2.655-1.663c1.188-0.517,1.732-1.729,1.857-2.045
		c0.192-0.088,0.75-0.344,1.16-0.525c0.537-0.238,1.383-1.617,1.477-1.773c0.051-0.083,0.026-0.192-0.056-0.246
		c-0.08-0.055-0.192-0.033-0.248,0.047c-0.303,0.428-0.672,0.823-0.769,0.848c-0.145-0.028-0.383-0.243-0.507-0.388
		c-0.062-0.07-0.166-0.084-0.241-0.032c-0.077,0.054-0.102,0.155-0.058,0.237c0.003,0.005,0.256,0.479-0.062,0.717
		c-0.153,0.114-0.322,0.173-0.502,0.173c-0.065,0-0.119-0.008-0.157-0.016c-0.897-1.613-0.907-1.613-1.045-1.613
		c-0.061,0-0.119,0.032-0.153,0.083c-0.058,0.089-0.021,0.173,0.016,0.253l0.033,0.076c0.234,0.526,0.671,1.505,0.034,2.486
		c-0.269,0.414-1.176,0.904-2.555,1.38c-0.669,0.229-1.26,0.788-1.651,1.157c-0.103,0.099-0.217,0.205-0.285,0.259
		c-0.069-0.078-0.181-0.256-0.267-0.393c-0.157-0.25-0.335-0.533-0.541-0.754c-0.305-0.326-0.611-0.414-1.224-0.589
		c-0.33-0.095-0.74-0.212-1.305-0.408c-0.949-0.327-1.092-1.362-1.161-1.859c-0.035-0.25-0.06-0.431-0.251-0.431
		c-0.151,0-0.216,0.149-0.267,0.27c-0.25,0.583-0.137,1.033-0.03,1.273c-0.04-0.015-0.093-0.038-0.161-0.076
		c-0.345-0.193-1.251-0.732-1.776-1.046c-0.926-0.964-1.509-2.196-1.509-3.535C84.349,12.12,84.363,11.696,84.459,11.251z
		 M75.553,31.178c-0.059-0.179-0.167-0.336-0.306-0.46c-0.18-0.163-0.436-0.213-0.659-0.291c-0.275-0.097-0.555-0.194-0.825-0.306
		c-0.23-0.095-0.423-0.253-0.642-0.375c-0.126-0.071-0.268-0.148-0.38-0.237c-0.245-0.188-0.343-0.531-0.567-0.711
		c-0.391-0.307-0.969-0.204-1.422-0.373c-0.338-0.13-0.636-0.311-0.963-0.486c-0.21-0.108-0.485-0.177-0.654-0.331
		c-0.73-0.672-0.943-1.683-1.052-2.621c-0.025-0.238-0.025-0.491-0.145-0.715c-0.062-0.119-0.13-0.169-0.158-0.301
		c-0.062-0.286-0.224-0.577-0.224-0.876c0-0.174-0.004-0.34,0.043-0.508c0.128-0.472,0.286-1.079,0.611-1.452
		c0.327-0.377,0.64-0.722,1.098-0.94c0.281-0.135,0.583-0.242,0.886-0.325c0.397-0.108,0.791-0.264,1.194-0.349
		c0.082-0.016,0.167-0.026,0.256-0.026c0.131,0.002,0.227-0.057,0.33-0.113c-0.275,0.829-0.553,2.129-0.063,3.144
		c0.782,1.621,0.789,1.292,1.233,1.845c0.448,0.549,0.722,1.184,0.722,1.184s0.167-0.332-0.055-0.773
		c-0.429-0.851-1.063-2.361-1.063-3.874c0-1.086,0.256-2.038,0.957-2.834c0.294-0.214,0.601-0.409,0.865-0.657
		c0.302-0.284,0.533-0.605,0.972-0.673c0.31-0.05,0.608-0.175,0.917-0.229c0.236-0.043,0.472-0.045,0.713-0.045
		c0.192,0,0.384-0.002,0.574,0c0.295,0.004,0.596,0.078,0.887,0.128c0.308,0.052,0.619,0.11,0.912,0.226
		c0.16,0.064,0.312,0.127,0.485,0.166c0.462,0.106,0.824,0.421,1.219,0.689c0.104,0.071,0.178,0.126,0.264,0.208
		c0.087,0.087,0.185,0.185,0.291,0.25c0.149,0.095,0.312,0.141,0.448,0.253c0.284,0.245,0.597,0.527,0.722,0.882
		c0.103,0.287,0.181,0.607,0.355,0.87c0.063,0.102,0.131,0.247,0.224,0.31c0.063,0.041,0.124,0.03,0.195,0.059
		c0.188,0.073,0.231,0.286,0.292,0.451c0.042,0.125,0.07,0.21,0.078,0.342c0.021,0.265,0.072,0.469,0.232,0.681
		c0.176,0.228,0.343,0.479,0.396,0.768c0.063,0.338,0.152,0.702,0.302,1.015c0.197,0.414,0.452,0.758,0.652,1.159
		c0.108,0.215,0.086,0.448,0.156,0.672c0.068,0.215,0.235,0.201,0.355,0.357c0.075,0.102,0.105,0.25,0.157,0.368
		c0.08,0.183,0.17,0.362,0.226,0.558c0.074,0.269,0.154,0.529,0.228,0.796c0.098,0.351,0.209,0.69,0.209,1.056
		c0,0.19-0.063,0.47,0.054,0.624c0.05,0.069,0.1,0.093,0.137,0.169c0.064,0.125,0.064,0.272,0.132,0.396
		c0.147,0.279,0.269,0.587,0.391,0.887c0.075,0.184,0.173,0.364,0.156,0.567c-0.009,0.119-0.044,0.187-0.089,0.277
		c-0.006,0.014-0.021,0.039-0.031,0.057c-0.379-0.091-0.772-0.139-1.171-0.096c-0.541-0.722-1.36-1.259-2.017-1.605l-1.46,0.31
		c-0.144-0.53-0.325-1.045-0.456-1.305c-0.381-0.762-0.758-2.419-0.758-2.744c0-0.088,0.015-0.311,0.033-0.603
		c0.081-1.273,0.148-2.553,0.015-2.971c-0.191-0.598-1.483-1.547-1.63-1.654c-0.078-0.055-0.183-0.041-0.244,0.029
		c-0.062,0.071-0.059,0.179,0.007,0.246c0.003,0.003,0.22,0.229,0.64,1.017c0.304,0.569,0.274,1.077,0.234,1.78
		c-0.015,0.265-0.032,0.552-0.032,0.872c0,0.816-0.502,1.712-0.762,2.122c-0.076-0.147-0.166-0.366-0.218-0.647
		c-0.117-0.646-0.408-1.06-0.421-1.077c-0.054-0.074-0.151-0.098-0.23-0.057c-0.079,0.04-0.118,0.134-0.091,0.219
		c0.002,0.007,0.206,0.67-0.008,2.377c-0.21,1.68-2.353,3.095-2.375,3.108c-0.021,0.014-0.02,0.043-0.034,0.064
		c-0.084,0.046-0.173,0.089-0.247,0.145c-0.135,0.097-0.202,0.225-0.355,0.288c-0.133,0.058-0.391,0.088-0.514-0.012
		C75.596,31.436,75.587,31.285,75.553,31.178z M82.236,30.505l-0.493,0.104c-0.158,0.201-0.792,1.068-0.981,2.267
		c-0.237,0.064-0.461,0.148-0.673,0.248c-0.032-0.138-0.061-0.297-0.142-0.397c-0.115-0.137-0.261-0.246-0.368-0.388
		c-0.18-0.227-0.323-0.472-0.502-0.694c-0.105-0.277-0.199-0.593-0.199-0.855c0-0.264,0.636-1.475,0.997-1.958
		c0.045-0.061,0.09-0.123,0.136-0.188c0.264-0.369,0.504-0.702,0.87-0.56C81.417,28.285,81.899,29.565,82.236,30.505z
		 M88.049,46.529c-0.143,0.222-0.187,0.521-0.275,0.77c-0.082,0.238-0.225,0.451-0.307,0.691c-0.193,0.583-0.334,1.188-0.522,1.771
		c-0.074,0.229-0.117,0.454-0.163,0.682c-0.071,0.353-0.228,0.685-0.362,1.024c-0.182,0.455-0.388,0.815-0.633,1.219
		c-0.182,0.295-0.431,0.551-0.603,0.852c-0.212,0.366-0.514,0.698-0.901,0.885c-0.311,0.146-0.661,0.249-0.952,0.425
		c-0.249,0.149-0.381,0.379-0.52,0.617c-0.171,0.291-0.416,0.565-0.538,0.899c-0.084,0.226-0.139,0.444-0.283,0.642
		c-0.135,0.185-0.33,0.334-0.416,0.54c-0.089,0.219-0.204,0.351-0.354,0.528c-0.146,0.17-0.224,0.391-0.503,0.341
		c-0.455-0.083-0.18-0.466-0.05-0.685c0.171-0.277,0.34-0.556,0.509-0.835c0.208-0.343,0.419-0.689,0.625-1.032
		c0.1-0.217,0.214-0.429,0.277-0.658c0.215-0.753-0.234-1.687-0.382-2.397c-0.11-0.531-0.13-1.038,0.048-1.543
		c0.1-0.277,0.226-0.535,0.292-0.826c0.17-0.785,0.437-1.554,0.632-2.311c0.04-0.154,0.06-0.313,0.087-0.471l0.269-0.097
		c0.612-0.508,2.37-1.338,5.291-1.758C88.201,46.131,88.103,46.443,88.049,46.529z M95.343,46.581
		c-0.075,0.142-0.071,0.447-0.093,0.605c-0.139,0.969-0.08,2.14-0.594,3.013c0.023-0.034,0.034-0.021,0.054-0.034
		c-0.034,0.088,0.004,0.249-0.004,0.366c-0.009,0.186-0.03,0.37-0.041,0.552c-0.016,0.284-0.005,0.572-0.005,0.856
		c0,0.295,0.02,0.594,0.002,0.885c-0.007,0.119-0.036,0.258-0.064,0.37c-0.081,0.348-0.209,0.679-0.323,1.019
		c-0.098,0.302-0.219,0.581-0.448,0.811c-0.188,0.189-0.41,0.332-0.627,0.481c-0.173,0.119-0.44,0.232-0.567,0.399
		c-0.243,0.322-0.224,0.96-0.284,1.363c-0.128,0.889-0.061,1.812-0.071,2.713c-0.003,0.218-0.188,1.743-0.595,1.18
		c-0.277-0.38-0.24-0.91-0.212-1.351c0.028-0.491,0.036-0.975,0.057-1.465c0.02-0.477,0.02-0.967-0.063-1.433
		c-0.028-0.171-0.013-0.451-0.117-0.583c-0.036-0.048-0.192-0.142-0.251-0.191c-0.133-0.112-0.247-0.225-0.364-0.357
		c-0.143-0.16-0.332-0.269-0.451-0.455c-0.288-0.44-0.325-1.01-0.438-1.509c-0.119-0.518-0.085-1.044-0.085-1.567
		c0-1.06,0.126-2.102-0.004-3.151c-0.064-0.528-0.034-1.077-0.082-1.61c-0.019-0.194-0.116-1.111-0.255-1.812
		c0.828-0.081,1.709-0.138,2.696-0.138c1.26,0,2.38,0.078,3.383,0.2C95.429,46.116,95.377,46.516,95.343,46.581z M103.566,58.804
		c-0.117,0.031-0.26-0.038-0.343-0.112c-0.236-0.213-0.377-0.537-0.592-0.778c-0.153-0.173-0.262-0.442-0.338-0.663
		c-0.054-0.151-0.192-0.681-0.405-0.588c0.024-0.229-0.249-0.553-0.345-0.752c-0.114-0.231-0.156-0.464-0.249-0.7
		c-0.082-0.219-0.277-0.297-0.488-0.425c-0.372-0.228-0.702-0.524-1.026-0.823c-0.465-0.432-0.801-0.924-1.19-1.413
		c-0.149-0.19-0.195-0.312-0.252-0.544c-0.05-0.197-0.214-0.35-0.249-0.54c-0.037-0.206,0.032-0.446,0.018-0.659
		c-0.015-0.265-0.171-0.418-0.306-0.633c-0.199-0.323-0.281-0.695-0.377-1.049c-0.078-0.295-0.067-0.618-0.171-0.906
		c-0.111-0.299-0.332-0.559-0.476-0.837c-0.107-0.207-0.169-0.418-0.274-0.621c-0.073-0.145-0.117-0.525-0.177-0.899
		c2.728,0.435,4.383,1.213,4.969,1.699l0.375,0.135c0.049,0.264,0.113,0.526,0.167,0.772c0.115,0.527,0.275,1.052,0.368,1.59
		c0.061,0.338,0.176,0.68,0.243,1.018c0.025,0.133,0.048,0.321,0.069,0.481c0.032,0.236,0.132,0.46,0.16,0.698
		c0.028,0.249,0.009,0.507,0,0.755c-0.018,0.374-0.151,0.719-0.279,1.065c-0.092,0.252-0.347,0.458-0.269,0.741
		c0.064,0.226,0.199,0.49,0.296,0.711c0.007,0.011,1.056,2.367,1.056,2.367c0.061,0.206,0.142,0.414,0.183,0.624
		C103.69,58.67,103.731,58.763,103.566,58.804z M103.652,45.808h-0.906c-1.532-1.27-5.284-2.545-10.634-2.545
		s-9.01,1.275-10.541,2.545h-0.882l-4.911-9.47l1.834-0.83l0.296,2.191l1.123-1.658l1.422,2.986L78.501,39
		c0,0,1.063,1.895,3.608,1.539c0.804-0.111,1.353-0.462,1.753-0.88c-0.073,0.027-0.77,0.262-1.22-0.243
		c-0.473-0.533,0.236-1.125,0.236-1.125s0.061,0.414,0.55,0.473c0.486,0.059,0.515-0.661,0.515-0.661s-0.355-0.119-0.412-0.403
		c-0.044-0.208,0.359-0.522,0.359-0.522s-0.598-1.387-1.484-1.017c-0.904,0.377-0.061,1.301-0.061,1.301s-1.182-0.176-1.691-0.648
		c-0.513-0.475-0.379-1.541,0.863-1.777s2.131,0.711,2.131,0.711s-0.533-1.006-0.65-1.953c-0.119-0.947,0.533-1.776,0.533-1.776
		s1.123,0.593,1.361,1.126c0.236,0.531,0.176,2.365,0.176,2.365s0.981-1.39,1.599-1.598c0.355-0.117,1.244-0.057,1.361,0.889
		c0.117,0.947-0.946,1.717-0.946,1.717s0.043-0.531-0.237-0.889c-0.281-0.355-0.71-0.119-1.007,0.249
		c-0.276,0.343-0.295,0.876-0.295,0.876s0.413,0.355,0.413,0.533c0,0.176-0.175,0.533-0.175,0.533s0.234,0.473,0.649,0.355
		c0.414-0.119,0.236-0.949,0.236-0.949s0.476,0.357,0.77,0.594c0.297,0.236,0.061,0.746-0.354,1.064
		c-0.12,0.091-0.302,0.178-0.494,0.258c0.431,0.121,0.949,0.195,1.618,0.156c1.542-0.089,2.399-0.727,2.872-1.342l0.562-1.765
		l-1.895,1.271l-0.295-3.787l2.307,1.48l-0.889-2.486h3.195l-1.123,2.547l2.309-1.361l-0.354,3.729l-1.838-1.392l0.505,1.877
		c0.434,0.566,1.099,1.153,2.101,1.349c0.708,0.137,1.401-0.011,2.023-0.252c-0.017-0.013-0.034-0.021-0.045-0.03
		c-0.41-0.325-0.638-0.841-0.336-1.072c0.299-0.23,0.778-0.579,0.778-0.579s-0.191,0.826,0.221,0.952
		c0.412,0.127,0.656-0.345,0.656-0.345s-0.171-0.356-0.168-0.534c0.004-0.178,0.425-0.524,0.425-0.524s-0.011-0.537-0.282-0.882
		c-0.29-0.371-0.713-0.615-1.001-0.267c-0.287,0.351-0.252,0.884-0.252,0.884s-1.053-0.788-0.917-1.733
		c0.135-0.943,1.023-0.988,1.375-0.862c0.615,0.217,1.571,1.625,1.571,1.625s-0.028-1.836,0.219-2.364
		c0.245-0.527,1.38-1.1,1.38-1.1s0.638,0.84,0.503,1.784c-0.136,0.945-0.685,1.942-0.685,1.942s0.901-0.933,2.142-0.674
		c1.237,0.258,1.353,1.324,0.834,1.79c-0.518,0.466-1.705,0.622-1.705,0.622s0.862-0.91-0.037-1.305
		c-0.88-0.386-1.498,0.994-1.498,0.994s0.395,0.317,0.348,0.525c-0.063,0.285-0.423,0.396-0.423,0.396s0.018,0.722,0.509,0.672
		c0.486-0.052,0.555-0.466,0.555-0.466s0.7,0.604,0.217,1.129c-0.359,0.393-0.882,0.318-1.12,0.256
		c0.327,0.436,0.727,0.825,1.223,1.015c2.062,0.788,3.789-1.242,3.789-1.242l-2.012-0.282l1.774-3.032l1.066,2.129l0.295-2.426
		l1.773,1.361L103.652,45.808z M102.312,30.769c0.087-0.095,0.209-0.252,0.4-0.524l0.049-0.071c1.247-1.783,1.671-2.05,1.813-2.05
		c0.367,0,0.663,0.59,0.713,0.894c0.044,0.273,0.233,0.429,0.4,0.565c0.096,0.078,0.186,0.152,0.238,0.239l0.034,0.058
		c0.168,0.272,0.514,0.834,0.484,1.209c-0.004,0.064-0.004,0.064-0.242,0.297c-0.17,0.158-0.223,0.224-0.347,0.388
		c-0.176,0.231-0.471,0.563-0.549,0.828c-0.13,0.312-0.345,0.637-0.564,0.911c-0.214-0.106-0.438-0.203-0.679-0.273
		c-0.169-1.203-0.788-2.08-0.942-2.284L102.312,30.769z M118.051,24.159c-0.015,0.062-0.051,0.143-0.083,0.215
		c-0.001,0.003-0.006,0-0.008,0.003c-0.001,0.003-0.238,0.303-0.517,0.164c-0.085-0.043-0.168-0.094-0.251-0.148
		c-0.133-0.122-0.271-0.214-0.439-0.312c-0.168-0.116-0.35-0.229-0.537-0.273c-0.057-0.021-0.174-0.06-0.25-0.06
		c-0.095,0-0.183,0.075-0.19,0.171c-0.015,0.185,0.184,0.215,0.327,0.237l0.001-0.002c0.072,0.027,0.161,0.067,0.261,0.124
		l0.358,0.228c0.079,0.058,0.16,0.116,0.242,0.173c0.146,0.139,0.263,0.316,0.369,0.557c0.049,0.109,0.073,0.215,0.099,0.317
		c0.007,0.061,0.018,0.119,0.018,0.182c0,0.466,0.054,1.112-0.271,1.47c-0.074,0.085-0.106,0.093-0.159,0.201
		c-0.077,0.156-0.149,0.302-0.26,0.438c-0.153,0.19-0.323,0.342-0.509,0.503c-0.273,0.233-0.505,0.427-0.831,0.49
		c-0.216,0.043-0.425,0.05-0.637,0.06c-0.313-0.177-0.357-0.401-0.425-0.83c-0.013-0.084-0.026-0.172-0.043-0.266
		c-0.122-0.687-0.274-0.687-0.355-0.687c-0.059,0-0.118,0.031-0.152,0.079c-0.044,0.06-0.088,0.122,0.085,0.64
		c0.18,0.529-0.084,1.421-0.194,1.75c-0.224,0.294-0.477,0.567-0.731,0.842c-0.384,0.245-0.732,0.497-1.168,0.633
		c-0.234,0.074-0.469,0.191-0.711,0.256c-0.19,0.046-0.389,0.083-0.512,0.249c-0.089,0.124-0.308,0.174-0.204,0.51
		c0,0.08,0.286,0.254,0.288,0.334c0.014,0.412-0.925,0.08-1.116,0c-0.19-0.076-0.306-0.091-0.503-0.167
		c-0.229-0.085-0.52-0.232-0.724-0.382c-0.173-0.127-0.31-0.345-0.451-0.502c-0.086-0.093-0.185-0.188-0.29-0.276
		c-0.431-0.51-0.94-1.185-1.235-1.821c-0.596-1.276-0.46-2.386-0.307-2.521c0.297-0.26,0.434-0.812,0.448-0.875
		c0.018-0.075-0.015-0.154-0.081-0.196c-0.065-0.042-0.149-0.035-0.212,0.013c-0.026,0.022-0.664,0.549-0.788,1.077
		c-0.098,0.411-0.211,0.554-0.198,0.571c-0.266-0.113-0.614-1.215-0.614-1.563c0-0.085-0.018-0.236-0.041-0.427
		c-0.064-0.544-0.175-1.454,0.047-1.891c0.418-0.829,1.144-1.436,1.538-1.723c0.203-0.147,0.4-0.324,0.336-0.523
		C106.44,21.108,106.35,21,106.085,21c-0.044,0-0.074,0.003-0.074,0.003c-0.035,0.004-0.069,0.017-0.097,0.038
		c-0.444,0.352-0.942,0.73-1.188,0.895c-0.091-0.3-0.226-0.919-0.154-1.182c0.258-0.933,0.234-0.963,0.174-1.044
		c-0.035-0.046-0.091-0.073-0.147-0.073c-0.093,0-0.231,0-0.479,1.034c-0.171,0.708-0.172,1.809-0.172,1.848
		c-0.021,0.519-0.122,1.435-0.302,1.687c-0.225,0.312-0.111,1.03,0.048,1.867c0.044,0.229,0.085,0.445,0.085,0.523
		c-0.027,0.326-1.5,3.384-1.767,3.847c-0.054,0.094-0.085,0.167-0.099,0.234l-1.626-0.375c-0.666,0.336-1.496,0.858-2.048,1.571
		c-0.44-0.056-0.874-0.011-1.285,0.095c0.024-0.179,0.055-0.35,0.129-0.542c0.089-0.229,0.121-0.458,0.188-0.689
		c0.053-0.189,0.096-0.371,0.183-0.542c0.126-0.243,0.414-0.453,0.524-0.709c0.114-0.267-0.021-0.601,0.093-0.867
		c0.27-0.624,0.54-1.251,0.811-1.877c0.117-0.269,0.239-0.514,0.325-0.793c0.085-0.273,0.2-0.536,0.336-0.789
		c0.119-0.224,0.309-0.396,0.44-0.611c0.104-0.169,0.242-0.434,0.306-0.624c0.032-0.096,0.025-0.222,0.054-0.323
		c0.042-0.143,0.117-0.279,0.191-0.407c0.331-0.56,0.906-0.901,1.276-1.424c0.117-0.161,0.193-0.355,0.33-0.501
		c0.068-0.074,0.158-0.102,0.231-0.163c0.075-0.066,0.091-0.155,0.149-0.244c0.117-0.172,0.163-0.355,0.21-0.556
		c0.067-0.283,0.23-0.492,0.362-0.722c0.185-0.334,0.41-0.622,0.727-0.847c0.164-0.117,0.312-0.271,0.503-0.343
		c0.21-0.078,0.353-0.219,0.553-0.336c0.18-0.103,0.331-0.247,0.496-0.364c0.16-0.115,0.364-0.167,0.563-0.213
		c0.381-0.089,0.773-0.078,1.157-0.128c0.113-0.015,0.21-0.068,0.327-0.08c0.115-0.011,0.238,0,0.352,0
		c0.459,0,0.903,0.009,1.353,0.059c0.414,0.048,0.873,0.172,1.211,0.41c0.174,0.119,0.316,0.271,0.535,0.343
		c0.17,0.056,0.339,0.169,0.499,0.253c0.152,0.08,0.204,0.191,0.295,0.349c0.082,0.135,0.206,0.238,0.323,0.352
		c0.015,0.015,0.026,0.027,0.039,0.042c0.354,0.685,0.949,1.993,0.869,2.887c-0.11,1.246-0.781,3.145-1.117,3.518
		c-0.335,0.375-0.493,0.791,0.391,0.224c1.006-0.646,1.898-3.629,1.898-4.075c0-0.292,0.244-0.503,0.533-0.636
		c0.052,0.011,0.101,0.023,0.188,0.018c0.503-0.03,1.048,0.003,1.483,0.288c0.347,0.224,0.729,0.396,1.038,0.657
		c0.377,0.323,0.763,1.025,0.795,1.523C118.118,23.703,118.107,23.957,118.051,24.159z"/>
	<path fill="#FFFFFF" d="M27.199,15.681c-0.84,0.675-1.803,1.549-1.915,2.112c-0.333,1.667,1.093,2.103,1.111,2.103l0.166,0.089
		c0.032,0.019,0.071,0.028,0.108,0.028c0.002,0,0.003,0,0.007,0c0.101,0.003,0.229-0.096,0.229-0.22
		c0-0.065-0.032-0.126-0.081-0.167c-0.111-0.172-0.514-0.856-0.289-1.442c0.233-0.609,0.85-0.701,1.196-0.701
		c0.375,0,0.63,0.104,0.671,0.145c0.05,0.062,0.13,0.144,0.252,0.144c0.105,0,0.215-0.091,0.237-0.189
		c0.052-0.241-0.263-0.766-0.877-1.038c-0.138-0.062-0.328-0.093-0.582-0.088l0.377-0.4c0.979-0.807,1.977-1.621,2.279-1.979
		c0.888-1.053,1.274-2.883,0.665-3.713c-0.491-0.672-1.497-1.387-2.051-1.664c-0.226-0.112-0.688-0.271-0.973-0.365
		c-0.285,0.095-0.747,0.253-0.973,0.365c-0.553,0.277-1.56,0.992-2.051,1.664c-0.61,0.83-0.223,2.66,0.666,3.713
		C25.629,14.378,26.383,15.007,27.199,15.681z"/>
	<polygon fill="#FFFFFF" points="26.027,35.957 26.693,37.684 24.968,37.017 24.968,40.005 26.693,39.338 26.029,41.065 
		29.016,41.065 28.35,39.34 30.075,40.005 30.075,37.017 28.35,37.684 29.016,35.957 	"/>
	<path fill="#FFFFFF" d="M3.122,99.791c16.084,43.082,31.146,41.615,58.371,57.723c27.228-16.107,42.293-14.641,58.374-57.723
		L61.573,60.479L3.122,99.791z M37.119,89.058c0-0.654,0.573-0.971,0.573-0.971s5.437-3.002,12.006-3.002
		c6.566,0,9.818,1.971,9.818,1.971c0.645,0.129,0.645,0.785,0.645,0.785v35.734c0,0.656-0.556,0.305-0.556,0.305
		s-1.895-1.197-8.591-1.418c-6.697-0.223-13.253,2.637-13.253,2.637c-0.643,0.127-0.643-0.529-0.643-0.529V89.058z M87.467,127.306
		c0.73-0.398,0.73-1.061,0.73-1.061V91.201c0.094,0.027,0.165,0.07,0.165,0.07l2.918,1.818c0.562,0.352,0.562,1.014,0.562,1.014
		l-0.003,37.586c0,0.662-0.601,0.943-0.601,0.943l-2.57-0.143c0,0-3.272-3.912-15.851-3.912c-5.577,0-8.55,2.979-8.55,2.979h-0.641
		h-4.264h-0.641c0,0-2.975-2.979-8.551-2.979c-12.579,0-15.851,3.912-15.851,3.912l-2.57,0.143c0,0-0.598-0.281-0.598-0.943
		l-0.007-37.586c0,0,0-0.662,0.562-1.014l2.92-1.818c0,0,0.072-0.043,0.164-0.07v35.045c0,0,0,0.662,0.729,1.061
		c0.729,0.396,1.479,0.133,1.479,0.133s9.259-4.109,15.887-2.852c5.312,1.01,7.819,2.23,8.607,2.674
		c0.786-0.443,3.292-1.664,8.605-2.674c6.628-1.258,15.886,2.852,15.886,2.852S86.739,127.703,87.467,127.306z M62.829,87.841
		c0,0,0-0.656,0.644-0.785c0,0,3.252-1.971,9.819-1.971s12.006,3.002,12.006,3.002s0.572,0.316,0.572,0.971v35.512
		c0,0,0,0.656-0.644,0.529c0,0-6.555-2.859-13.252-2.637c-6.695,0.221-8.591,1.418-8.591,1.418s-0.555,0.352-0.555-0.305V87.841z"/>
</g>
<g>
	<path fill="#FFFFFF" d="M167.072,13.85l0.501,0.046c3.332,0.302,3.548,0.761,3.733,2.192c0.236,1.302,0.328,3.268,0.328,7.011v3.6
		c0,5.779-0.963,12.412-8.476,12.412c-5.687,0-8.571-3.636-8.571-10.808V18.07c0-4.008,0.254-4.021,3.366-4.173l0.524-0.026v-1.596
		h-12.581v1.569l0.496,0.05c3.283,0.33,3.346,0.336,3.346,4.175v11.317c0,5.096,1.402,8.449,4.407,10.548
		c1.846,1.325,4.518,2.054,7.524,2.054c3.562,0,6.648-1.086,8.692-3.062c2.506-2.466,3.576-5.889,3.576-11.447v-4.336
		c0-3.762,0.136-5.707,0.237-6.842c0.15-1.626,0.596-2.109,3.443-2.406l0.494-0.052v-1.567h-11.041V13.85z"/>
	<path fill="#FFFFFF" d="M201.119,13.863l0.516,0.034c3.276,0.213,3.762,0.695,3.954,2.503c0.165,1.429,0.234,3.485,0.234,6.874
		v10.518l-19.659-21.515h-7.327v1.577l0.504,0.043c2.358,0.203,2.757,0.524,3.769,1.595c0.73,0.807,0.867,1.063,0.867,4.358v9.971
		c0,3.896-0.168,5.934-0.269,7.151l-0.017,0.208c-0.195,2.006-0.789,2.455-3.53,2.669l-0.508,0.04v1.58h11.236v-1.578l-0.506-0.042
		c-3.083-0.253-3.619-0.628-3.819-2.684c-0.191-1.559-0.284-3.962-0.284-7.346V19.322l20.118,22.483l0.165,0.184h1.565V23.317
		c0-3.792,0.091-5.598,0.189-6.976c0.157-1.847,0.672-2.236,3.24-2.445l0.507-0.041v-1.579h-10.945V13.863z"/>
	<path fill="#FFFFFF" d="M212.885,13.861l0.514,0.035c3.48,0.241,3.615,0.384,3.615,3.829v18.294c0,3.445-0.135,3.588-3.615,3.83
		l-0.514,0.036v1.584h13.156v-1.585l-0.514-0.035c-3.53-0.242-3.667-0.386-3.667-3.83V17.725c0-3.444,0.137-3.587,3.666-3.828
		l0.515-0.035v-1.586h-13.156V13.861z"/>
	<path fill="#FFFFFF" d="M258.98,12.275h-10.993v1.557l0.483,0.061c1.408,0.177,2.805,0.384,3.058,0.797
		c0.179,0.291-0.058,1.062-0.342,1.855c-2.033,5.787-5.423,13.788-7.275,18c-3.236-7.58-6.55-15.647-7.677-18.702
		c-0.169-0.456-0.377-1.087-0.239-1.309c0.237-0.385,1.87-0.563,2.567-0.64l0.491-0.054v-1.565H226.86v1.582l0.51,0.039
		c2.547,0.194,2.93,0.358,4.431,3.998c3.082,7.327,6.45,15.583,9.74,23.876l0.139,0.348h1.519l0.138-0.349
		c3.708-9.37,8.715-20.542,10.123-23.558c1.71-3.814,2.145-4.001,5.029-4.317l0.492-0.054V12.275z"/>
	<path fill="#FFFFFF" d="M281.401,34.204c-0.682,1.649-1.42,3.001-2.062,3.787c-0.865,0.962-1.526,1.465-6.023,1.465
		c-2.212,0-3.81,0-4.59-0.556c-0.516-0.349-0.813-0.946-0.813-2.967v-8.424h4.3c4.007,0,4.079,0.402,4.548,3.017l0.082,0.454h1.585
		v-8.951h-1.579l-0.086,0.446c-0.489,2.525-0.553,2.85-4.647,2.85h-4.202V15.079c0-0.156,0-0.629,0.048-0.714
		c0.043-0.029,0.21-0.079,0.841-0.079h3.219c3.742,0,4.907,0.243,5.676,1.191c0.592,0.7,1.03,1.715,1.422,3.29l0.126,0.507
		l1.68-0.322l-0.049-0.5c-0.14-1.436-0.333-4.189-0.333-5.625v-0.551h-21.318v1.57l0.497,0.05c3.282,0.329,3.345,0.335,3.345,4.09
		v18.034c0,3.402-0.151,3.545-4.052,3.83l-0.512,0.037v1.583h22.856l0.12-0.39c0.486-1.587,1.362-5.011,1.645-6.427l0.108-0.544
		l-1.657-0.321L281.401,34.204z"/>
	<path fill="#FFFFFF" d="M308.529,38.155c-1.23-1.306-2.553-2.893-4.041-4.852c-1.321-1.748-3.069-4.247-4.015-5.814
		c3.961-1.709,6.049-4.341,6.049-7.64c0-2.561-1.132-4.682-3.186-5.972c-1.795-1.137-4.078-1.601-7.883-1.601h-11.787v1.577
		l0.505,0.043c3.256,0.279,3.383,0.291,3.383,3.655v18.469c0,3.445-0.133,3.588-3.568,3.83l-0.513,0.036v1.584h12.963v-1.583
		l-0.513-0.037c-3.358-0.24-3.522-0.418-3.522-3.83v-7.251h0.651c2.231,0,2.818,0.521,3.631,1.718
		c0.564,0.796,1.154,1.668,1.761,2.564c1.055,1.558,2.145,3.169,3.246,4.607c2.214,2.875,4.33,3.903,8.348,4.069
		c0.414,0.047,0.863,0.047,1.26,0.047h0.449l0.298-1.442l-0.522-0.123C310.565,39.983,309.874,39.619,308.529,38.155z
		 M292.401,15.99c0-1.416,0.162-1.507,0.232-1.547c0.148-0.077,0.954-0.244,2.388-0.244c3.895,0,6.22,2.372,6.22,6.343
		c0,2.393-0.768,4.07-2.407,5.272c-1.108,0.779-2.441,1.069-4.916,1.069h-1.517V15.99z"/>
	<path fill="#FFFFFF" d="M323.031,24.641l-0.344-0.171c-4.073-2.047-5.89-3.438-5.89-6.269c0-2.772,1.931-4.564,4.92-4.564
		c3.045,0,4.999,1.709,6.15,5.38l0.15,0.477l1.629-0.341l-0.199-1.222c-0.33-2.016-0.568-3.473-0.697-4.855l-0.037-0.396
		l-0.387-0.09c-0.223-0.052-0.46-0.113-0.715-0.178c-1.221-0.314-2.893-0.745-5.22-0.745c-6.604,0-10.06,4.071-10.06,8.093
		c0,4.84,4.623,7.237,7.386,8.67l0.687,0.359c3.537,1.878,5.854,3.324,5.854,6.19c0,3.082-2.051,4.997-5.353,4.997
		c-5.884,0-7.511-6.119-7.677-6.817l-0.141-0.593l-1.603,0.556l0.032,0.424c0.083,1.09,0.792,5.851,1.209,6.703l0.087,0.178
		l0.18,0.082c0.55,0.25,1.34,0.526,2.591,0.902l0.21,0.052c1.049,0.259,2.483,0.614,4.39,0.614c6.145,0,10.778-3.648,10.778-8.486
		C330.963,28.584,326.749,26.49,323.031,24.641z"/>
	<path fill="#FFFFFF" d="M332.214,13.861l0.514,0.035c3.481,0.241,3.616,0.384,3.616,3.829v18.294c0,3.445-0.135,3.588-3.616,3.83
		l-0.514,0.036v1.584h13.156v-1.585l-0.514-0.035c-3.529-0.242-3.666-0.386-3.666-3.83V17.725c0-3.444,0.137-3.587,3.665-3.828
		l0.515-0.035v-1.586h-13.156V13.861z"/>
	<path fill="#FFFFFF" d="M391.709,12.275v1.571l0.498,0.049c0.854,0.083,2.633,0.257,2.843,0.637
		c0.149,0.271-0.337,1.239-0.495,1.554c-1.263,2.478-3.911,6.95-5.651,9.845l-0.519-0.868c-1.814-3.032-3.87-6.468-5.729-9.824
		c-0.306-0.532-0.315-0.682-0.307-0.72c0.038-0.075,0.325-0.344,2.399-0.627l0.478-0.065v-1.552h-11.614
		c-0.004-0.183-0.007-0.368-0.007-0.534V11.19h-1.334l-0.164,0.189c-0.606,0.694-0.939,0.896-1.983,0.896h-18.97
		c-1.256,0-1.711-0.112-2.114-0.81l-0.159-0.275h-1.322l-0.024,0.526c-0.118,2.601-0.327,5.289-0.573,7.373l-0.072,0.616h1.715
		l0.108-0.411c0.449-1.702,0.861-2.823,1.344-3.646c0.512-0.926,1.27-1.362,5.998-1.362h1.993v21.82
		c0,3.029-0.107,3.538-3.896,3.743l-0.522,0.028v1.593h13.83v-1.594l-0.523-0.027c-4.038-0.208-4.038-0.748-4.038-3.742v-21.82
		h2.714c4.109,0,4.824,0.43,5.375,1.321c0.359,0.646,0.837,1.645,1.342,3.64l0.119,0.475l1.697-0.22l-0.063-0.542
		c-0.186-1.562-0.335-3.441-0.413-5.076l0.272,0.013c2.495,0.116,2.616,0.312,4.646,3.597c2.371,3.815,4.269,7.013,5.804,9.782
		c0.734,1.288,0.839,1.672,0.839,2.414v6.286c0,3.486-0.141,3.63-3.763,3.873l-0.515,0.035v1.586h13.59v-1.587l-0.517-0.033
		c-3.802-0.243-3.949-0.387-3.949-3.873v-6.331c0-1.14,0.035-1.561,0.789-2.845c2.207-3.813,3.912-6.594,6.594-10.355l0.143-0.196
		c1.241-1.702,1.465-2.009,4.374-2.355l0.486-0.058v-1.561H391.709z"/>
</g>
<g>
	<path fill="#FFFFFF" d="M160.455,60.782c0-2.68-1.665-4.344-4.38-4.344c-0.835,0-2.104,0.335-3.227,0.85
		c-2.563,1.108-5.149,3.939-5.149,7.768c0,2.773,1.612,4.429,4.312,4.429c1.512,0,3.303-0.642,4.917-1.764
		C159.07,66.188,160.455,63.465,160.455,60.782z M153.984,67.882C153.719,67.97,153.508,68,153.149,68
		c-1.432,0-2.321-1.181-2.321-3.082c0-4.358,2.251-6.516,3.357-6.884c0.313-0.121,0.597-0.168,1.012-0.168h0.033
		c1.284,0,2.099,1.171,2.126,3.056C157.392,64.477,155.647,67.389,153.984,67.882z"/>
	<path fill="#FFFFFF" d="M171.556,48.736c-1.405,0-3.375,0.953-4.785,2.312c-1.284,1.174-2.209,3.047-2.901,5.881h-1.751
		l-1.156,0.761l0.13,0.668h2.463c-0.351,1.668-0.666,3.198-1.067,5.155l-0.765,3.719c-0.82,3.979-1.522,6.206-2.15,6.811
		c-0.304,0.303-0.808,0.506-1.255,0.506c-0.544,0-1.538-0.282-1.956-0.632c-0.264-0.219-0.55-0.234-0.887-0.031
		c-0.473,0.283-0.981,0.814-0.981,1.31c0,0.838,1.176,1.357,2.265,1.357c1.155,0,2.566-0.637,3.776-1.705
		c2.178-1.949,3.022-3.647,4.104-8.256c0.85-3.45,1.206-5.218,1.794-8.147l0.011-0.055l2.973-0.262l1.424-1.2h-4.067
		c0.942-4.583,1.836-6.461,3.06-6.461c0.617,0,1.2,0.286,1.725,0.843c0.283,0.32,0.728,0.385,1.125,0.145
		c0.243-0.154,0.875-0.69,0.874-1.28c0.019-0.243-0.095-0.51-0.318-0.751C172.932,49.092,172.328,48.736,171.556,48.736z"/>
	<path fill="#FFFFFF" d="M196.219,51.897c-1.536-0.961-3.919-1.448-7.083-1.448h-10.207v1.05l0.321,0.022
		c2.828,0.198,2.938,0.316,2.938,3.146v14.845c0,2.769-0.147,2.916-3.151,3.15l-0.318,0.025v1.083h11.186v-1.085l-0.32-0.023
		c-3.245-0.234-3.404-0.378-3.404-3.078v-5.718l2.684,0.608c0.404,0.073,1.198,0.073,1.747,0.003c4.079-0.431,8.438-2.6,8.438-7.398
		C199.048,54.864,198.071,53.071,196.219,51.897z M188.758,62.813c-1.052,0-2.012-0.128-2.578-0.267v-8.784
		c0-1.035,0.09-1.533,0.336-1.69c0.123-0.1,0.781-0.306,2.027-0.306c3.845,0,6.049,1.95,6.049,5.349
		C194.592,62.258,190.512,62.813,188.758,62.813z"/>
	<path fill="#FFFFFF" d="M210.808,57.748c-1.954,0-3.714,1.876-4.651,3.096v-3.355l-0.467,0.177c-1.954,0.74-3.602,1.163-5.51,1.414
		l-0.3,0.04v0.921l0.304,0.037c2.194,0.263,2.235,0.308,2.235,2.417v7.65c0,2.18-0.136,2.322-2.436,2.521l-0.314,0.027v1.081h9.875
		v-1.087l-0.322-0.021c-3.065-0.201-3.065-0.376-3.065-2.52v-7c0.942-1.617,1.905-2.471,2.788-2.471
		c0.579,0,0.968,0.168,1.602,0.691c0.32,0.263,0.761,0.315,1.385,0.077c0.904-0.438,1.423-1.073,1.423-1.741
		C213.354,58.776,212.308,57.748,210.808,57.748z"/>
	<path fill="#FFFFFF" d="M218.468,54.314c1.146,0,2.079-0.812,2.079-1.81c0-1.016-0.896-1.811-2.079-1.811
		c-1.124,0-2.038,0.828-2.038,1.845C216.43,53.484,217.382,54.314,218.468,54.314z"/>
	<path fill="#FFFFFF" d="M220.547,70.143V57.525l-0.466,0.174c-1.606,0.602-3.435,1.055-5.433,1.346l-0.295,0.043v0.972l0.287,0.049
		c2.109,0.36,2.17,0.427,2.17,2.384v7.65c0,2.18-0.142,2.322-2.521,2.521l-0.316,0.026v1.082h9.454v-1.083l-0.317-0.025
		C220.667,72.466,220.547,72.349,220.547,70.143z"/>
	<path fill="#FFFFFF" d="M242.347,70.107v-6.916c0-3.409-2.075-5.444-5.551-5.444c-1.263,0-2.173,0.416-3.421,1.052
		c-0.91,0.481-1.779,0.99-2.457,1.402v-2.716l-0.469,0.18c-1.622,0.624-3.336,1.074-5.394,1.415l-0.288,0.048v0.922l0.275,0.057
		c2.056,0.424,2.136,0.441,2.136,2.422v7.579c0,2.214-0.155,2.358-2.77,2.556l-0.318,0.024v1.084h9.493v-1.08l-0.314-0.028
		c-2.22-0.195-2.352-0.336-2.352-2.521v-8.417c1.108-0.781,2.747-1.577,4.184-1.577c2.394,0,3.509,1.188,3.509,3.74v5.871
		c0,2.615-0.224,2.708-2.646,2.904l-0.317,0.025v1.083h9.157v-1.079l-0.312-0.029C242.427,72.472,242.347,72.376,242.347,70.107z"/>
	<path fill="#FFFFFF" d="M259.012,69.598c-1.879,1.548-3.174,1.841-4.905,1.841c-2.371,0-6.133-1.727-6.133-6.361
		c0-3.307,1.833-5.28,4.904-5.28c1.533,0,2.857,0.434,3.942,1.295c0.483,0.362,0.686,0.489,1.052,0.489
		c0.574,0,1.489-0.719,1.489-1.57c0-0.468-0.23-0.843-0.777-1.256c-0.696-0.502-2.115-1.009-3.759-1.009
		c-1.557,0-4.063,0.611-6.154,1.976c-2.886,1.864-4.349,4.253-4.349,7.102c0,3.57,2.954,7.365,8.43,7.365
		c2.304,0,4.947-1.387,7.069-3.71l0.209-0.228l-0.762-0.865L259.012,69.598z"/>
	<path fill="#FFFFFF" d="M276.418,62.912c0-2.443-2.558-5.165-6.271-5.165c-2.046,0-4.36,0.973-6.196,2.604
		c-1.848,1.672-2.824,3.814-2.824,6.194c0,3.682,2.611,7.644,8.345,7.644c1.252,0,4.271-0.755,6.738-3.611l0.206-0.238l-0.772-0.798
		l-0.244,0.19c-1.425,1.111-2.906,1.674-4.405,1.674c-1.707,0-3.314-0.639-4.412-1.753c-1.171-1.19-1.776-2.862-1.803-4.973
		c4.979-0.143,9.803-0.446,10.478-0.557C275.993,63.971,276.418,63.724,276.418,62.912z M271.958,62.951
		c-2.349,0.067-4.563,0.071-6.887,0.071c0.611-2.522,2.411-3.676,3.895-3.676h0.04c1.048,0,1.923,0.329,2.53,0.95
		c0.589,0.603,0.914,1.477,0.892,2.406C272.427,62.807,272.427,62.951,271.958,62.951z"/>
	<path fill="#FFFFFF" d="M303.697,68.044c-0.435,0.956-1.108,2.268-1.837,3.079c-0.858,0.869-1.59,1.223-5.425,1.223
		c-1.981,0-3.414,0-4.139-0.471c-0.485-0.3-0.766-0.8-0.766-2.466v-6.885h3.93c3.657,0,3.732,0.384,4.151,2.516l0.055,0.278h1.136
		v-7.011h-1.132l-0.058,0.273c-0.428,2.016-0.505,2.379-4.238,2.379h-3.844v-8.351c0-0.739,0-0.739,0.926-0.739h2.834
		c3.359,0,4.412,0.206,5.124,1.007c0.534,0.578,0.927,1.406,1.271,2.687l0.082,0.305l1.224-0.217l-0.034-0.319
		c-0.124-1.17-0.296-3.397-0.296-4.538v-0.345h-18.51v1.076l0.313,0.029c2.899,0.267,3.073,0.283,3.073,3.395v14.53
		c0,2.731-0.086,2.944-3.701,3.184l-0.322,0.021v1.087h19.896l0.079-0.234c0.417-1.229,1.189-3.983,1.45-5.171l0.076-0.35
		l-1.209-0.216L303.697,68.044z"/>
	<path fill="#FFFFFF" d="M322.595,69.828V47.78l-0.443,0.133c-1.428,0.427-4.041,0.996-6.073,1.21l-0.309,0.033v0.947l0.324,0.02
		c2.768,0.169,2.768,0.331,2.768,2.312v5.56c-0.948-0.219-1.883-0.247-2.536-0.247c-5.853,0-10.797,4.044-10.797,8.832
		c0,5.191,4.676,7.61,7.836,7.61c0.822,0,1.966-0.366,3.501-1.119l1.996-1.005v2.258l0.453-0.151c1.464-0.487,3.48-0.918,5.992-1.28
		l0.296-0.043v-0.954l-1.577-0.172C322.675,71.571,322.595,71.465,322.595,69.828z M318.862,70.62
		c-0.877,0.545-2.292,1.065-3.638,1.065c-2.751,0-5.535-2.077-5.535-6.046c0-4.996,3.269-6.328,5.199-6.328
		c1.705,0,3.146,0.603,3.974,1.658V70.62z"/>
	<path fill="#FFFFFF" d="M352.016,59.238v-1.071h-7.718v1.064l0.297,0.042c1.217,0.169,2.164,0.326,2.38,0.657
		c0.142,0.218,0.054,0.669-0.12,1.278c-0.702,2.373-1.586,4.786-2.44,7.12l-0.274,0.751c-1.877-3.918-3.435-7.243-4.854-10.528
		l-0.09-0.208h-1.047l-0.089,0.211c-1.547,3.668-3.028,7.055-4.461,10.329c-1.289-3.03-2.297-5.555-3.153-7.905
		c-0.179-0.473-0.343-0.95-0.231-1.136c0.172-0.286,1.202-0.442,2.155-0.566l0.3-0.039v-1.067h-8.944v1.074l0.309,0.033
		c1.81,0.193,1.957,0.307,2.639,2.022c1.742,4.275,3.434,8.461,4.99,12.667l0.083,0.225h1.148l0.089-0.212
		c1.228-2.939,2.443-5.6,3.731-8.417c0.287-0.629,0.576-1.262,0.868-1.903c0.482,1.005,0.961,1.986,1.431,2.95
		c1.241,2.543,2.412,4.946,3.453,7.373l0.089,0.209h1.136l1.015-2.538c1.588-3.974,3.229-8.083,4.145-10.065
		c0.784-1.729,0.947-2.088,2.86-2.313L352.016,59.238z"/>
	<path fill="#FFFFFF" d="M366.976,71.284c-0.344,0.22-0.751,0.331-1.211,0.331c-0.749,0-1.179-0.6-1.179-1.646v-6.673
		c0-2.208-0.6-3.586-2.019-4.618c-0.896-0.591-2.08-0.923-3.383-0.924c-2.106,0.391-4.899,1.67-6.21,2.454
		c-0.685,0.405-1.354,0.856-1.354,1.517c0,0.926,1.068,1.672,1.952,1.672c0.707,0,1.133-0.321,1.339-0.999
		c0.38-1.109,0.742-1.775,1.187-2.172c0.369-0.365,0.93-0.565,1.579-0.565c2.073,0,3.215,1.378,3.215,3.882v0.676
		c-1.155,0.65-3.847,1.459-6.102,2.1c-2.368,0.69-3.425,1.784-3.425,3.546c0,2.089,2.095,4.325,5.212,4.325
		c0.883,0,2.567-0.954,4.518-2.108c0.196,0.495,0.457,0.971,0.88,1.321c0.515,0.463,1.464,0.787,2.307,0.787h0.091l3.499-1.988
		l-0.578-1.122L366.976,71.284z M360.893,70.714c-0.832,0.655-2.039,1.007-2.793,1.007c-1.141,0-2.746-0.771-2.746-2.487
		c0-1.022,0.598-1.624,2.288-2.3c0.34-0.141,0.821-0.328,1.334-0.527c0.655-0.255,1.375-0.535,1.917-0.764V70.714z"/>
	<path fill="#FFFFFF" d="M381.856,59.7c0-0.923-1.047-1.952-2.548-1.952c-1.949,0-3.71,1.875-4.649,3.094v-3.354l-0.467,0.177
		c-1.953,0.739-3.601,1.162-5.508,1.414l-0.3,0.04v0.921l0.304,0.037c2.191,0.263,2.233,0.308,2.233,2.417v7.65
		c0,2.181-0.137,2.322-2.438,2.521l-0.315,0.027v1.081h9.877v-1.087l-0.322-0.021c-3.064-0.201-3.064-0.376-3.064-2.52v-7
		c0.942-1.617,1.905-2.471,2.787-2.471c0.58,0,0.969,0.168,1.604,0.692c0.321,0.262,0.761,0.313,1.384,0.077
		C381.337,61.002,381.856,60.368,381.856,59.7z"/>
	<path fill="#FFFFFF" d="M398.904,71.723c-1.351-0.151-1.431-0.258-1.431-1.895V47.781l-0.443,0.132
		c-1.43,0.426-4.045,0.996-6.075,1.21l-0.309,0.033v0.947l0.323,0.02c2.768,0.169,2.768,0.331,2.768,2.312v5.56
		c-0.947-0.219-1.881-0.247-2.534-0.247c-5.854,0-10.801,4.044-10.801,8.832c0,5.191,4.677,7.61,7.837,7.61
		c0.824,0,1.968-0.366,3.499-1.119l1.999-1.006v2.258l0.454-0.151c1.464-0.488,3.48-0.918,5.994-1.28l0.296-0.042v-0.954
		L398.904,71.723z M393.737,70.62c-0.876,0.545-2.291,1.065-3.635,1.065c-2.752,0-5.538-2.077-5.538-6.046
		c0-4.996,3.269-6.328,5.199-6.328c1.705,0,3.146,0.603,3.974,1.658V70.62z"/>
</g>
<g>
	<path fill="#FFFFFF" d="M147.758,85.117l0.382,0.028c6.139,0.465,6.635,1.037,6.635,7.65v33.687c0,6.617-0.496,7.189-6.635,7.65
		l-0.383,0.028v1.755h21.306v-1.755l-0.383-0.028c-6.211-0.461-6.713-1.032-6.713-7.65V92.795c0-6.614,0.502-7.187,6.713-7.65
		l0.383-0.028v-1.755h-21.306V85.117z"/>
	<path fill="#FFFFFF" d="M190.807,106.078l-0.583-0.314c-6.229-3.394-10.312-6.068-10.312-12.087c0-4.154,2.328-9.007,8.89-9.007
		c5.427,0,8.905,3.279,10.944,10.319l0.108,0.374l1.817-0.411l-0.188-1.235c-0.598-3.918-1.029-6.748-1.256-9.417l-0.024-0.293
		l-0.286-0.072c-0.377-0.096-0.778-0.208-1.208-0.329c-2.052-0.573-4.861-1.359-8.765-1.359c-10.879,0-16.571,7.196-16.571,14.305
		c0,8.541,7.38,12.684,12.264,15.425c0.409,0.229,0.799,0.448,1.163,0.658c6.184,3.562,10.236,6.317,10.236,11.935
		c0,6.047-3.688,9.804-9.624,9.804c-7.883,0-12.225-7.007-13.547-13.007l-0.103-0.466l-1.797,0.675l0.021,0.308
		c0.151,2.152,1.374,10.729,1.994,12.114l0.062,0.137l0.135,0.066c0.924,0.451,2.249,0.95,4.317,1.624l0.352,0.095
		c1.754,0.47,4.156,1.114,7.342,1.114c11.557,0,17.793-7.738,17.793-15.021C203.985,113.174,196.983,109.404,190.807,106.078z"/>
	<path fill="#FFFFFF" d="M244.273,123.803l0.122-0.427l-1.944-0.408l-0.113,0.356c-1.03,3.246-2.312,5.759-3.913,7.676
		c-1.582,1.826-3.886,2.413-9.48,2.413c-3.69,0-6.268-0.165-7.694-0.974c-1.179-0.744-1.52-2.259-1.52-6.755V92.716
		c0-6.87,0.515-7.11,6.066-7.571l0.379-0.031v-1.752h-20.163v1.753l0.381,0.03c5.915,0.466,6.146,0.749,6.146,7.571v33.608
		c0,6.763-0.496,7.347-6.636,7.808l-0.382,0.028v1.755h35.809l0.087-0.297c0.456-1.561,1.118-4.449,1.702-6.998
		C243.583,126.595,244.022,124.681,244.273,123.803z"/>
	<path fill="#FFFFFF" d="M286.444,126.097c-5.575-14.966-10.875-29.734-15.826-43.578l-0.141-0.392l-1.87,0.684l-17.285,43.12
		c-2.787,7.056-3.908,7.758-8.389,8.202l-0.372,0.036v1.746h17.063v-1.749l-0.376-0.034c-2.923-0.263-4.733-0.597-5.34-1.524
		c-0.564-0.865-0.205-2.445,0.558-4.717l0.469-1.41c1.047-3.153,2.231-6.72,3.75-10.921h16.15l1.164,3.172
		c1.763,4.796,3.155,8.584,3.951,11.306c0.406,1.288,0.443,2.092,0.12,2.604c-0.5,0.791-2.035,1.146-4.518,1.493l-0.355,0.05v1.73
		h19.919v-1.746l-0.373-0.036C290.063,133.676,289.024,133.04,286.444,126.097z M273.887,112.581h-14.078l1.224-3.243
		c1.981-5.259,4.026-10.688,6.153-15.978L273.887,112.581z"/>
	<path fill="#FFFFFF" d="M394.852,90.184c-4.773-4.591-12.232-6.822-22.803-6.822h-22.023h-0.501h-17.054v1.756l0.384,0.027
		c5.55,0.395,6.83,1.308,7.206,5.143c0.285,2.661,0.407,6.467,0.407,12.727v20.852l-34.027-40.357l-0.124-0.146h-11.7v1.747
		l0.374,0.036c4.178,0.394,4.945,1.066,6.735,3.128c1.393,1.661,1.616,2.37,1.616,8.437v18.358c0,7.265-0.287,11.032-0.458,13.283
		l-0.025,0.329c-0.383,4.262-1.877,5.064-6.479,5.452l-0.378,0.032v1.751h18.041v-1.75l-0.377-0.033
		c-5.217-0.463-6.581-1.152-6.969-5.462c-0.327-2.881-0.486-7.33-0.486-13.603V94.226l35.087,42.499l0.124,0.149h1.913v-33.777
		c0-6.993,0.156-10.336,0.324-12.902c0.309-3.92,1.694-4.667,5.99-5.05l0.376-0.034v-0.034c5.656,0.452,6.189,0.743,6.189,7.719
		v33.687c0,6.618-0.521,7.19-6.96,7.65l-0.384,0.027v1.756h18.773c10.117,0,18.526-2.348,24.318-6.79
		c6.458-4.933,9.871-12.36,9.871-21.48C401.834,100.517,399.419,94.478,394.852,90.184z M363.485,91.042
		c0-3.947,0.411-4.454,0.947-4.719c0.804-0.281,2.396-0.616,5.413-0.616c5.541,0,10.029,0.948,13.345,2.821
		c6.648,3.624,10.31,10.839,10.31,20.314c0,11.802-5.829,24.413-22.187,24.413c-5.076,0-7.828-1.155-7.828-7.25V91.042z"/>
</g>
</svg>
